<svg width="71" height="95" viewBox="0 0 71 95" fill="none" xmlns="http://www.w3.org/2000/svg">
<path d="M4.32205 78.6624H3.42448L2.7717 78.3357L2.44531 78.0906C2.44531 78.0906 2.7717 77.6005 2.8533 77.6005C2.9349 77.6005 3.83247 77.3555 3.83247 77.3555C3.91406 77.3555 4.40365 77.4372 4.40365 77.4372C4.40365 77.5188 4.32205 78.6624 4.32205 78.6624Z" fill="#383D42"/>
<path d="M20.4792 32.6738L19.092 33.0823C19.092 33.0823 17.4601 36.0229 17.2969 36.5947L17.9497 37.7383L20.4792 32.6738Z" fill="url(#paint0_linear_1_1683)"/>
<path d="M51.1641 61.6721L51.98 65.2663H55.4071V62.8974L54.8359 61.2637L51.1641 61.6721Z" fill="url(#paint1_linear_1_1683)"/>
<path d="M13.7057 58.4866L15.9905 53.3405L13.5425 49.3379L9.46267 57.1797L8.32031 59.957L8.97309 63.2244L10.6866 66.0834L13.7057 58.4866Z" fill="#3E3D3F"/>
<path d="M29.7005 31.1219L28.2318 25.0772L29.3741 22.6266L24.0703 2.61371C24.0703 2.61371 24.2335 1.30674 25.1311 0.653259L28.2318 0.408203L35.4939 27.5277C35.4939 27.5277 36.2283 30.1417 35.4939 31.3669L29.7005 31.1219Z" fill="#3E454C"/>
<path d="M28.7214 2.12359L28.2318 0.408203L25.1311 0.653259C24.2335 1.30674 24.0703 2.61371 24.0703 2.61371H27.7422L28.7214 2.12359Z" fill="#4F5A63"/>
<path d="M27.7424 2.61405L33.2094 22.7903L32.2302 25.5676L33.7805 31.3673L35.5757 31.449C36.3101 30.2237 35.5757 27.6098 35.5757 27.6098L28.2319 0.490234C28.2319 0.490234 27.6608 1.71551 27.7424 2.61405Z" fill="#252424"/>
<path d="M28.8828 25.0769L31.8203 25.1586L32.6363 22.9531H29.7804L28.8828 25.0769Z" fill="#4F5A63"/>
<path d="M61.6871 32.8375C61.6871 32.8375 62.3398 31.2855 62.2582 30.3869C62.1767 29.4884 61.1159 24.5873 61.1159 24.5873L59.1576 23.4437L54.5881 1.71539C54.5881 1.71539 54.3433 0 52.793 0C51.2426 0 49.2843 0 49.2843 0C49.2843 0 48.7947 0 48.3867 0.490112L52.0586 1.79708L59.3207 32.5924L61.6871 32.8375Z" fill="#252424"/>
<path d="M55.7305 32.3472L48.3867 0.408203H52.2218C52.7114 0.408203 53.0378 0.734944 53.201 1.14337L60.3815 33.0006L55.7305 32.3472Z" fill="#31373F"/>
<path d="M16.2405 59.2219L18.0356 56.1996L15.1797 53.9941L16.5668 50.9717L24.237 48.4395L44.3915 50.5633L48.3082 54.1574C48.3082 54.1574 51.2457 57.5065 50.5113 58.4867C38.8429 55.9545 30.4384 55.4644 30.4384 55.4644L25.9505 62.4893L16.2405 59.2219Z" fill="url(#paint2_linear_1_1683)"/>
<path d="M38.1875 56.2812C40.309 56.608 42.6753 56.9347 45.4497 57.4248L46.4288 56.1995C44.7969 55.5461 39.3299 54.8926 39.3299 54.8926L38.1875 56.2812Z" fill="url(#paint3_linear_1_1683)"/>
<path d="M30.6007 55.4646C30.6007 55.4646 33.2934 55.628 37.6997 56.1998L38.842 54.7295C34.8438 53.8309 25.4601 53.3408 25.4601 53.3408C25.4601 53.3408 24.7257 54.2394 23.5017 55.9547C22.2778 57.6701 20.7274 57.18 20.7274 57.18L19.4219 59.2222L27.092 60.7742L30.6007 55.4646Z" fill="url(#paint4_linear_1_1683)"/>
<path d="M45.0391 54.7291C45.0391 54.7291 30.27 52.2785 25.2109 52.6052L23.0078 49.9913L23.2526 49.0928L36.3898 49.7463L46.0182 51.0532L45.0391 54.7291Z" fill="url(#paint5_radial_1_1683)"/>
<path d="M12.9766 52.6048L18.1172 56.199L21.2179 56.444C21.7075 56.444 22.1971 56.2807 22.5234 55.9539L25.1345 52.9316C25.3793 52.6865 25.3793 52.2781 25.1345 52.033L23.6658 50.3993C23.6658 50.3993 23.1762 49.5825 24.8082 49.6642L24.4002 48.7656H21.5443C21.4627 48.7656 13.5477 51.2979 12.9766 52.6048Z" fill="url(#paint6_radial_1_1683)"/>
<path d="M47.8984 88.873L53.9366 90.8335L48.0616 87.4844L47.8984 88.873Z" fill="#8C9096"/>
<path d="M49.1209 87.5663L46.5914 93.2843C46.0202 94.5913 44.633 95.2448 43.2459 94.918L5.05839 85.6876C3.91603 85.4425 2.69207 84.2172 3.01846 83.0737L4.8952 79.2344C4.8952 79.1528 4.8952 79.1528 4.97679 79.0711L12.8101 59.7117C13.1365 58.8948 14.0341 58.4047 14.9317 58.4864L56.5462 64.6945C57.8518 64.8578 58.5862 66.2465 58.015 67.3901L49.1209 87.5663Z" fill="url(#paint7_linear_1_1683)"/>
<path d="M47.4091 86.3409L44.8796 91.9772C44.3084 93.2025 42.9213 93.9376 41.6157 93.6109L4.08098 84.5438C3.02022 84.2988 2.36744 83.1552 2.69383 82.0933L3.91779 78.1724C3.91779 78.0907 3.91779 78.0907 3.99939 78.009L11.6695 58.9763C11.9959 58.1595 12.8935 57.6693 13.7095 57.751L54.6713 63.7957C55.8952 63.9591 56.7112 65.3478 56.14 66.4914L47.4091 86.3409Z" fill="url(#paint8_linear_1_1683)"/>
<path opacity="0.28" d="M23.9907 59.3039L13.7095 57.7518C12.8119 57.5885 11.9959 58.0786 11.6695 58.9771L3.99939 78.0098C3.99939 78.0098 3.99939 78.0915 3.91779 78.1732L2.69383 82.0941C2.36744 83.156 3.02022 84.2996 4.08098 84.5446L26.765 90.0175L23.9907 59.3039Z" fill="url(#paint9_linear_1_1683)"/>
<path d="M47.9766 56.1992L49.7717 61.7538C49.9349 62.1622 50.2613 62.489 50.7509 62.5707L56.1363 63.2242L58.7474 58.8131L47.9766 56.1992Z" fill="url(#paint10_linear_1_1683)"/>
<path d="M18.8465 53.0956L13.2163 52.7689C12.8899 52.7689 12.6452 52.4421 12.7268 52.1154C13.5427 49.0114 17.133 35.4516 21.4577 30.9589L26.5167 29.3252L27.9038 30.4688C27.9038 30.4688 46.3448 30.3054 54.1781 32.0208L57.7684 30.7955C57.7684 30.7955 63.2354 32.2659 65.6018 33.4911C67.9681 34.7164 70.3344 41.578 70.416 43.2117C70.4976 44.7637 68.2129 58.8136 62.3379 63.4696L56.7077 60.2839C56.7077 60.2839 55.3205 58.5685 53.8517 58.2418C52.6278 57.9967 47.0792 57.0982 45.284 56.7715C44.9577 56.6898 44.6313 56.4447 44.4681 56.118L43.0809 52.2788C42.9993 51.952 42.6729 51.707 42.3465 51.707C39.817 51.2985 29.0462 49.6648 23.3344 49.6648C23.0896 49.6648 22.8448 49.7465 22.6816 49.9099L20.0705 52.6055C19.8257 52.9322 19.3361 53.0956 18.8465 53.0956Z" fill="url(#paint11_linear_1_1683)"/>
<path d="M29.8655 32.6738C33.4558 32.6738 42.6762 32.8371 48.2249 33.5723C49.612 33.7357 50.428 35.1243 49.9384 36.4313L45.8585 47.3771C45.4505 48.5207 44.2266 49.2559 43.0026 49.1742L25.7856 47.5405C24.3985 47.3771 23.5009 45.9885 23.9905 44.6815L27.8255 34.0624C28.1519 33.1639 28.9679 32.5921 29.8655 32.6738Z" fill="#252424"/>
<path d="M45.6133 46.4786C45.2869 47.6222 44.2261 48.2757 43.247 48.0306C42.2678 47.7039 41.7782 46.5603 42.1046 45.4167C42.431 44.2731 43.4918 43.6196 44.4709 43.8647C45.4501 44.1914 45.9397 45.335 45.6133 46.4786Z" fill="url(#paint12_linear_1_1683)"/>
<path d="M45.2893 46.3155C45.0445 47.214 44.1469 47.7858 43.331 47.5408C42.515 47.2957 42.107 46.3155 42.3518 45.417C42.5966 44.5184 43.4942 43.9466 44.3101 44.1917C45.1261 44.4367 45.6157 45.417 45.2893 46.3155Z" fill="url(#paint13_radial_1_1683)"/>
<path d="M30.2721 34.4707C32.8016 34.5524 42.6749 34.8791 46.9995 35.5326C47.6523 35.6143 47.9787 36.2678 47.7339 36.9213L46.3467 40.352C46.102 40.9238 45.6124 41.414 45.0412 41.5773C44.3068 41.8224 43.2461 42.2308 42.5933 42.8843C41.9405 43.5378 41.2061 44.518 40.6349 45.2532C40.227 45.825 39.4926 46.1517 38.8398 46.1517C37.0447 46.07 33.6992 45.825 31.2513 45.4982C30.2721 45.3348 29.5377 44.518 29.5377 43.5378C29.4561 42.3942 29.2113 40.9238 27.9874 40.2704C27.661 40.107 27.4978 39.7802 27.5794 39.3718C27.7426 38.555 28.2322 36.9213 29.2929 34.9608C29.4561 34.6341 29.8641 34.4707 30.2721 34.4707Z" fill="#797979"/>
<path d="M21.7855 45.2539C20.0719 48.1129 17.2976 49.6649 15.6657 48.7664C14.0337 47.7861 14.1153 44.6821 15.9105 41.7414C17.624 38.8824 20.3983 37.2487 22.0303 38.229C23.6622 39.2092 23.5806 42.3949 21.7855 45.2539Z" fill="url(#paint14_linear_1_1683)"/>
<path d="M21.2983 44.9272C19.8296 47.2961 17.6264 48.6031 16.3209 47.7862C15.0153 46.9694 15.0969 44.3554 16.4841 41.9866C17.9528 39.6177 20.1559 38.3107 21.4615 39.1276C22.8487 40.0261 22.7671 42.5584 21.2983 44.9272Z" fill="url(#paint15_radial_1_1683)"/>
<path d="M22.4416 41.4144C22.36 41.3327 22.1968 41.1693 22.0337 41.0876C20.7281 40.2708 18.7698 41.0059 17.7906 42.7213C16.7298 44.4367 16.9746 46.4788 18.3618 47.2957C18.525 47.3774 18.6882 47.4591 18.8514 47.5407C19.7489 47.0506 20.6465 46.1521 21.2993 44.9268C22.0337 43.7832 22.4416 42.4763 22.4416 41.4144Z" fill="url(#paint16_radial_1_1683)"/>
<path d="M16.0742 42.7215C16.0742 42.7215 17.0534 42.7215 18.0326 43.7017C19.0933 44.7636 19.7461 43.375 19.7461 43.375C19.7461 43.375 20.2357 42.4764 19.1749 42.313C18.1141 42.1497 17.2982 40.8427 17.135 40.5977L16.0742 42.7215Z" fill="url(#paint17_radial_1_1683)"/>
<path d="M56.2224 48.0309C54.672 51.38 51.4897 53.5038 48.9602 52.8503C46.5123 52.1968 45.6963 49.0111 47.1651 45.662C48.7154 42.3129 51.8977 40.1891 54.4272 40.8426C56.9567 41.4961 57.7727 44.7635 56.2224 48.0309Z" fill="url(#paint18_linear_1_1683)"/>
<path d="M55.4875 47.8676C54.2635 50.6449 51.5708 52.3603 49.5309 51.8702C47.491 51.2984 46.8382 48.6845 48.0621 45.9072C49.2861 43.1299 51.9788 41.4145 54.0187 41.9046C56.0587 42.3947 56.7115 45.0903 55.4875 47.8676Z" fill="url(#paint19_radial_1_1683)"/>
<path opacity="0.88" d="M14.3607 57.8335L13.7079 57.7518C12.8103 57.5885 11.9944 58.0786 11.668 58.9771L3.99783 78.0098C3.99783 78.0915 3.99783 78.0915 3.91623 78.1732L3.58984 79.1534L8.48568 79.8886C8.89366 79.9702 9.38325 79.7252 9.54644 79.3168L14.4423 67.309C14.5239 67.064 14.5239 66.8189 14.4423 66.6555L12.9735 63.3064C12.8919 63.0614 12.8919 62.8163 12.8919 62.5713L14.0343 59.0588C14.1975 58.6504 14.5239 58.4053 14.9319 58.487L46.6732 63.3881C46.918 63.3881 47.1628 63.6332 47.2444 63.8782L49.6107 71.3933L53.6905 67.2273L54.3433 63.9599L14.3607 57.8335Z" fill="#060503"/>
<path opacity="0.88" d="M8.48438 66.8188L12.3194 72.4551L14.033 68.2075L10.3611 62.0811L8.48438 66.8188Z" fill="#060503"/>
<path d="M53.6081 90.6702L48.0595 87.4844L41.287 85.3606C40.5526 85.1156 40.2262 84.2987 40.471 83.6452L45.6932 71.8009C46.1012 70.7389 46.9172 69.9221 47.8963 69.3503L50.997 67.5532C51.405 67.3082 51.813 66.8997 52.0578 66.4913C53.2002 64.3675 56.6272 58.0777 58.7488 55.1371C58.912 54.892 59.32 54.7286 59.6463 54.8103C60.7071 55.0554 62.9102 55.7905 64.4606 57.6693C64.6238 57.9144 64.7054 58.2411 64.7054 58.4861L63.0734 67.3082L64.8686 69.677C65.195 70.1671 65.2766 70.7389 65.1134 71.3107C64.2974 73.9247 61.7679 81.7665 60.2991 84.7888C60.0543 85.2789 59.6463 85.6874 59.1568 86.0141L57.5248 86.9126C56.9536 87.2394 56.5456 87.6478 56.3009 88.2196L55.4033 90.2617C54.9953 90.8335 54.2609 91.0786 53.6081 90.6702Z" fill="url(#paint20_linear_1_1683)"/>
<path d="M54.2644 90.5891C54.1012 90.5891 53.938 90.5074 53.7748 90.4257L48.1446 87.24L41.372 85.1161C41.1272 85.0345 40.8824 84.8711 40.7192 84.5443C40.6376 84.2993 40.556 83.9725 40.7192 83.7275L45.9414 71.8831C46.3494 70.9029 47.0838 70.086 47.9814 69.5142L51.0821 67.7172C51.5716 67.4721 51.9796 67.0637 52.2244 66.4919C53.2852 64.6131 56.7939 58.16 58.9154 55.1376C58.997 54.9743 59.2418 54.8926 59.405 54.8926C59.4866 54.8926 59.4866 54.8926 59.5682 54.8926C60.4657 55.1376 62.6689 55.7911 64.3008 57.6699C64.464 57.8332 64.5456 58.0783 64.464 58.3234L62.8321 67.3087L64.6272 69.7593C64.9536 70.1677 65.0352 70.6578 64.872 71.148C64.1376 73.5168 61.5265 81.522 60.1394 84.5443C59.8946 85.0345 59.5682 85.3612 59.0786 85.6063L57.4467 86.5048C56.8755 86.8315 56.3859 87.3216 56.0595 87.9751L55.1619 90.0173C54.9171 90.4257 54.5907 90.5891 54.2644 90.5891Z" fill="url(#paint21_linear_1_1683)"/>
<path d="M55.1571 85.7694L61.6849 69.4324L58.421 67.0635L51.6484 83.809L55.1571 85.7694Z" fill="#252424"/>
<path d="M51.6484 83.8091L54.5859 85.4429L60.8689 69.7593L58.0946 67.7988L51.6484 83.8091Z" fill="black"/>
<path d="M13.5451 49.3379L12.4028 49.5829L7.50694 59.5486L7.67014 61.9991L8.40451 64.2863L3.67188 76.049L0 76.7841C0 76.7841 0.244792 77.601 1.22396 78.0911C2.20312 78.5812 3.59028 79.2347 3.59028 79.2347L3.83507 78.5812L3.10069 78.2545C2.9375 78.1728 3.0191 77.9277 3.18229 77.9277L4.56944 77.8461C4.89583 77.8461 5.14062 77.601 5.30382 77.3559L9.95486 64.9398C10.0365 64.6947 10.0365 64.5314 9.95486 64.2863L8.8125 60.8555C8.7309 60.6105 8.7309 60.2837 8.8125 60.0387L13.5451 49.3379Z" fill="#575559"/>
<path d="M34.9245 32.7555C32.8846 32.6738 31.0894 32.6738 29.8655 32.6738C28.9679 32.6738 28.1519 33.2456 27.8255 34.0625L23.9905 44.6816C23.5009 45.9885 24.3985 47.4589 25.7856 47.5406L36.3117 48.5208L34.9245 32.7555Z" fill="url(#paint22_linear_1_1683)"/>
<path d="M51.9768 35.0428C52.7112 33.8175 54.0983 33.2457 55.1591 33.8175C55.4039 33.9809 55.7303 34.1442 55.8119 34.2259C56.791 34.7977 57.1174 36.2681 56.3831 37.575C55.6487 38.882 54.2615 39.3721 53.2008 38.8003L52.7928 38.6369C52.7112 38.6369 52.6296 38.5552 52.548 38.5552C51.4872 37.8201 51.2424 36.2681 51.9768 35.0428Z" fill="url(#paint23_radial_1_1683)"/>
<path d="M52.7928 35.3697C53.2824 34.4712 54.1799 33.9811 54.9959 34.0628V33.8994C55.2407 33.9811 55.4855 34.1445 55.5671 34.2262C56.4647 34.7163 56.7095 36.0232 56.0567 37.1668C55.4039 38.3104 54.1799 38.8005 53.2824 38.3104L52.7112 38.0654L52.7928 37.902C52.3032 37.3302 52.3032 36.2683 52.7928 35.3697Z" fill="url(#paint24_linear_1_1683)"/>
<mask id="mask0_1_1683" style="mask-type:luminance" maskUnits="userSpaceOnUse" x="52" y="33" width="5" height="6">
<path d="M52.7928 35.3697C53.2824 34.4712 54.1799 33.9811 54.9959 34.0628V33.8994C55.2407 33.9811 55.4855 34.1445 55.5671 34.2262C56.4647 34.7163 56.7095 36.0232 56.0567 37.1668C55.4039 38.3104 54.1799 38.8005 53.2824 38.3104L52.7112 38.0654L52.7928 37.902C52.3032 37.3302 52.3032 36.2683 52.7928 35.3697Z" fill="white"/>
</mask>
<g mask="url(#mask0_1_1683)">
<path d="M55.4061 37.0859L56.3036 37.4127V37.576L55.4061 37.1676V37.0859Z" fill="url(#paint25_radial_1_1683)"/>
<path d="M55.4877 36.9219L56.3852 37.2486L56.3036 37.3303L55.4061 37.0036L55.4877 36.9219Z" fill="url(#paint26_radial_1_1683)"/>
<path d="M55.5697 36.6768L56.3857 37.0852V37.1669L55.4881 36.8401L55.5697 36.6768Z" fill="url(#paint27_radial_1_1683)"/>
<path d="M55.5701 36.5137L56.4677 36.9221V37.0038L55.5701 36.5954V36.5137Z" fill="url(#paint28_radial_1_1683)"/>
<path d="M55.6517 36.3506L56.5493 36.759L56.4677 36.8407L55.5701 36.4323L55.6517 36.3506Z" fill="url(#paint29_radial_1_1683)"/>
<path d="M55.6483 36.1875L56.5458 36.5959V36.6776L55.6483 36.2692V36.1875Z" fill="url(#paint30_radial_1_1683)"/>
<path d="M55.7299 36.0234L56.6274 36.4319L56.5458 36.5136L55.6483 36.1051L55.7299 36.0234Z" fill="url(#paint31_radial_1_1683)"/>
<path d="M55.7342 35.8604L56.6318 36.2688V36.3505L55.7342 35.942V35.8604Z" fill="url(#paint32_radial_1_1683)"/>
<path d="M55.8158 35.6973L56.6318 36.1057V36.1874L55.7342 35.7789L55.8158 35.6973Z" fill="url(#paint33_radial_1_1683)"/>
<path d="M55.7342 35.4521L56.6318 35.8606V35.9423L55.7342 35.5338V35.4521Z" fill="url(#paint34_radial_1_1683)"/>
<path d="M55.7299 35.207L56.6274 35.6155L56.5458 35.6971L55.6483 35.2887L55.7299 35.207Z" fill="url(#paint35_radial_1_1683)"/>
<path d="M55.6483 34.9619L56.5458 35.3703L56.4642 35.452L55.6483 35.0436V34.9619Z" fill="url(#paint36_radial_1_1683)"/>
<path d="M55.6517 34.7988L56.4677 35.1256V35.2073L55.5701 34.8805L55.6517 34.7988Z" fill="url(#paint37_radial_1_1683)"/>
<path d="M55.4881 34.4717L56.3857 34.8801V34.9618L55.4881 34.5534V34.4717Z" fill="url(#paint38_radial_1_1683)"/>
<path d="M56.1396 34.7167L55.242 34.3082V34.2266L56.1396 34.635V34.7167Z" fill="url(#paint39_radial_1_1683)"/>
<path d="M55.8974 34.3899V34.4716L54.9998 34.0631V33.9814L55.8974 34.3899Z" fill="url(#paint40_radial_1_1683)"/>
<path d="M55.324 37.167L56.2216 37.5754V37.6571L55.324 37.2487V37.167Z" fill="url(#paint41_radial_1_1683)"/>
<path d="M55.2455 37.3301L56.0614 37.7385V37.8202L55.1639 37.4118L55.2455 37.3301Z" fill="url(#paint42_radial_1_1683)"/>
<path d="M55.0814 37.4941L55.979 37.9026L55.8974 37.9843L54.9998 37.5758L55.0814 37.4941Z" fill="url(#paint43_radial_1_1683)"/>
<path d="M54.9139 37.6572L55.8114 38.0657L55.7299 38.1473L54.9139 37.7389V37.6572Z" fill="url(#paint44_radial_1_1683)"/>
<path d="M54.7533 37.8203L55.6509 38.2287L55.5693 38.3104L54.6717 37.902L54.7533 37.8203Z" fill="url(#paint45_radial_1_1683)"/>
<path d="M54.5076 37.9844L55.4052 38.3111V38.4745L54.5076 38.0661V37.9844Z" fill="url(#paint46_radial_1_1683)"/>
<path d="M54.347 38.0654L55.163 38.4739V38.5555L54.2654 38.1471L54.347 38.0654Z" fill="url(#paint47_radial_1_1683)"/>
<path d="M54.0189 38.1475L54.9165 38.5559L54.8349 38.6376L53.9373 38.2291L54.0189 38.1475Z" fill="url(#paint48_radial_1_1683)"/>
<path d="M53.6908 38.1475L54.5884 38.5559L54.5068 38.6376L53.6092 38.2291L53.6908 38.1475Z" fill="url(#paint49_radial_1_1683)"/>
<path d="M54.3453 38.7193L53.2029 38.2291V38.1475L54.3453 38.6376V38.7193Z" fill="url(#paint50_radial_1_1683)"/>
</g>
<path d="M52.2204 35.1239C52.8731 33.9803 54.1787 33.4901 55.0763 33.9803C55.9738 34.4704 56.2186 35.859 55.5659 37.0026C54.9131 38.1462 53.6075 38.6363 52.71 38.1462C51.8124 37.5744 51.5676 36.2675 52.2204 35.1239Z" fill="url(#paint51_linear_1_1683)"/>
<path d="M52.3855 35.2065C52.9567 34.1446 54.0991 33.7362 54.915 34.2263C55.731 34.7164 55.9758 35.9417 55.4046 36.9219C54.8334 37.9838 53.6911 38.3922 52.8751 37.9021C52.0591 37.4937 51.8143 36.2684 52.3855 35.2065Z" fill="url(#paint52_radial_1_1683)"/>
<path d="M53.3611 35.7778C53.6059 35.3694 54.0139 35.206 54.3402 35.4511C54.6666 35.6144 54.7482 36.1046 54.5034 36.4313C54.2587 36.758 53.8507 36.9214 53.5243 36.758C53.1979 36.5947 53.1163 36.1046 53.3611 35.7778Z" fill="url(#paint53_linear_1_1683)"/>
<path d="M53.4443 35.7775C53.6075 35.4508 53.9339 35.2874 54.2603 35.4508C54.505 35.6142 54.5866 35.9409 54.4234 36.2677C54.2602 36.5944 53.8523 36.7578 53.6075 36.5944C53.3627 36.5127 53.2811 36.1043 53.4443 35.7775Z" fill="url(#paint54_radial_1_1683)"/>
<path d="M17.5408 40.7607C17.5408 42.3127 16.3168 43.538 14.7665 43.538C13.2161 43.538 11.9922 42.3127 11.9922 40.7607C11.9922 39.2087 13.2161 37.9834 14.7665 37.9834C16.3168 37.9834 17.5408 39.2904 17.5408 40.7607Z" fill="url(#paint55_radial_1_1683)"/>
<path d="M55.489 47.8672C55.9786 46.7236 56.2234 45.58 56.0602 44.5998C55.9786 44.5181 55.897 44.4364 55.7338 44.3548C54.1019 43.3745 51.8171 44.2731 50.5116 46.3152C49.2876 48.3573 49.5324 50.7262 51.0828 51.7881C52.7963 51.4614 54.5098 49.9094 55.489 47.8672Z" fill="url(#paint56_radial_1_1683)"/>
<path d="M48.6328 46.1524C48.6328 46.1524 49.6936 46.1524 50.7543 47.2143C51.8967 48.3579 52.5495 46.8876 52.5495 46.8876C52.5495 46.8876 53.0391 45.9074 51.8967 45.744C50.7543 45.5806 49.8568 44.192 49.612 43.8652L48.6328 46.1524Z" fill="url(#paint57_radial_1_1683)"/>
<path d="M49.9375 43.9465C49.9375 45.5802 48.6319 46.8872 47 46.8872C45.3681 46.8872 44.0625 45.5802 44.0625 43.9465C44.0625 42.3128 45.3681 41.0059 47 41.0059C48.6319 41.0875 49.9375 42.3945 49.9375 43.9465Z" fill="url(#paint58_radial_1_1683)"/>
<path d="M28.5587 44.6001C28.1507 45.7437 27.0083 46.3972 26.1108 45.9887C25.2132 45.662 24.8052 44.4367 25.2132 43.2931C25.6212 42.1495 26.7636 41.496 27.6611 41.9045C28.5587 42.2312 28.9667 43.4565 28.5587 44.6001Z" fill="url(#paint59_linear_1_1683)"/>
<path d="M28.2329 44.4371C27.9065 45.3356 27.0089 45.9074 26.1929 45.5807C25.4585 45.3356 25.1322 44.2737 25.4585 43.3752C25.7849 42.4766 26.6825 41.9048 27.4985 42.2316C28.2329 42.5583 28.5592 43.5385 28.2329 44.4371Z" fill="url(#paint60_radial_1_1683)"/>
<path d="M27.9054 30.3868L26.5182 29.2432L25.5391 29.5699L27.3342 31.1219C27.3342 31.1219 29.8637 30.9586 31.4957 31.2036L32.1484 30.3868C29.6189 30.3868 27.9054 30.3868 27.9054 30.3868Z" fill="url(#paint61_linear_1_1683)"/>
<path d="M0 76.7842H3.34549C3.83507 76.7842 4.24306 76.4575 4.40625 76.049L8.7309 64.2864C8.8125 64.123 8.8125 63.9596 8.7309 63.7146L8.07812 61.3457C7.83333 60.5288 7.91493 59.712 8.24132 58.9768L12.4844 49.583C12.4028 49.6647 7.18056 51.9519 0 76.7842Z" fill="url(#paint62_linear_1_1683)"/>
<path d="M0.489976 76.0493C5.46741 59.1405 9.46567 53.0141 11.3424 50.8903C11.424 50.8086 11.5872 50.8903 11.5056 50.972L7.99692 58.8954C7.67053 59.7123 7.58893 60.6108 7.83373 61.4277L8.5681 63.7966C8.5681 63.9599 8.5681 64.0416 8.5681 64.205L4.16185 75.9677C3.99866 76.2944 3.67227 76.5395 3.34588 76.5395H0.816365C0.571573 76.4578 0.408379 76.2944 0.489976 76.0493Z" fill="url(#paint63_linear_1_1683)"/>
<defs>
<linearGradient id="paint0_linear_1_1683" x1="17.7422" y1="34.5012" x2="19.2582" y2="35.2212" gradientUnits="userSpaceOnUse">
<stop stop-color="#ADACAD"/>
<stop offset="0.1036" stop-color="#898889"/>
<stop offset="0.2241" stop-color="#676566"/>
<stop offset="0.3379" stop-color="#4E4C4D"/>
<stop offset="0.4411" stop-color="#3F3C3D"/>
<stop offset="0.5241" stop-color="#3A3738"/>
<stop offset="0.7589" stop-color="#444243"/>
<stop offset="1" stop-color="#484748"/>
</linearGradient>
<linearGradient id="paint1_linear_1_1683" x1="53.2169" y1="62.2694" x2="53.9844" y2="65.1481" gradientUnits="userSpaceOnUse">
<stop stop-color="#96999D"/>
<stop offset="1" stop-color="#252424"/>
</linearGradient>
<linearGradient id="paint2_linear_1_1683" x1="31.399" y1="50.679" x2="34.1423" y2="60.969" gradientUnits="userSpaceOnUse">
<stop stop-color="#252424"/>
<stop offset="0.1463" stop-color="#2B2A2B"/>
<stop offset="0.355" stop-color="#3D3D3D"/>
<stop offset="0.601" stop-color="#5A5A5C"/>
<stop offset="0.8736" stop-color="#818387"/>
<stop offset="1" stop-color="#96999D"/>
</linearGradient>
<linearGradient id="paint3_linear_1_1683" x1="36.8841" y1="52.2109" x2="42.3154" y2="56.2565" gradientUnits="userSpaceOnUse">
<stop stop-color="#AFB7C3"/>
<stop offset="0.1096" stop-color="#8B929C"/>
<stop offset="0.2379" stop-color="#676D75"/>
<stop offset="0.3561" stop-color="#4D5359"/>
<stop offset="0.4593" stop-color="#3E4348"/>
<stop offset="0.5361" stop-color="#383D42"/>
<stop offset="1" stop-color="#252424"/>
</linearGradient>
<linearGradient id="paint4_linear_1_1683" x1="22.2855" y1="51.8222" x2="33.1272" y2="59.8978" gradientUnits="userSpaceOnUse">
<stop stop-color="#AFB7C3"/>
<stop offset="0.1096" stop-color="#8B929C"/>
<stop offset="0.2379" stop-color="#676D75"/>
<stop offset="0.3561" stop-color="#4D5359"/>
<stop offset="0.4593" stop-color="#3E4348"/>
<stop offset="0.5361" stop-color="#383D42"/>
<stop offset="1" stop-color="#252424"/>
</linearGradient>
<radialGradient id="paint5_radial_1_1683" cx="0" cy="0" r="1" gradientUnits="userSpaceOnUse" gradientTransform="translate(34.4566 51.8927) scale(8.3744 8.38344)">
<stop stop-color="#484748"/>
<stop offset="1" stop-color="#231F20"/>
</radialGradient>
<radialGradient id="paint6_radial_1_1683" cx="0" cy="0" r="1" gradientUnits="userSpaceOnUse" gradientTransform="translate(17.9362 52.7828) scale(6.89701 6.90445)">
<stop stop-color="#484748"/>
<stop offset="1" stop-color="#231F20"/>
</radialGradient>
<linearGradient id="paint7_linear_1_1683" x1="2.92666" y1="76.7466" x2="58.213" y2="76.7466" gradientUnits="userSpaceOnUse">
<stop stop-color="#CECECA"/>
<stop offset="0.3294" stop-color="#A5A5A2"/>
<stop offset="1" stop-color="#484748"/>
</linearGradient>
<linearGradient id="paint8_linear_1_1683" x1="4.00134" y1="69.076" x2="56.587" y2="80.5228" gradientUnits="userSpaceOnUse">
<stop stop-color="#AFB7C3"/>
<stop offset="0.1096" stop-color="#8B929C"/>
<stop offset="0.2379" stop-color="#676D75"/>
<stop offset="0.3561" stop-color="#4D5359"/>
<stop offset="0.4593" stop-color="#3E4348"/>
<stop offset="0.5361" stop-color="#383D42"/>
<stop offset="1" stop-color="#252424"/>
</linearGradient>
<linearGradient id="paint9_linear_1_1683" x1="-0.480383" y1="68.1968" x2="56.2877" y2="82.6435" gradientUnits="userSpaceOnUse">
<stop stop-color="#F1F2F2"/>
<stop offset="1" stop-color="#F1F2F2" stop-opacity="0"/>
</linearGradient>
<linearGradient id="paint10_linear_1_1683" x1="47.9828" y1="59.7711" x2="58.7282" y2="59.7711" gradientUnits="userSpaceOnUse">
<stop stop-color="#96999D"/>
<stop offset="1" stop-color="#252424"/>
</linearGradient>
<linearGradient id="paint11_linear_1_1683" x1="15.7132" y1="43.1148" x2="73.1349" y2="48.1356" gradientUnits="userSpaceOnUse">
<stop stop-color="#96999D"/>
<stop offset="1" stop-color="#252424"/>
</linearGradient>
<linearGradient id="paint12_linear_1_1683" x1="41.7249" y1="46.1017" x2="45.2881" y2="44.337" gradientUnits="userSpaceOnUse">
<stop stop-color="#ADACAD"/>
<stop offset="0.0988435" stop-color="#898889"/>
<stop offset="0.2138" stop-color="#676566"/>
<stop offset="0.3224" stop-color="#4E4C4D"/>
<stop offset="0.4208" stop-color="#3F3C3D"/>
<stop offset="0.5" stop-color="#3A3738"/>
<stop offset="0.7467" stop-color="#444243"/>
<stop offset="1" stop-color="#484748"/>
</linearGradient>
<radialGradient id="paint13_radial_1_1683" cx="0" cy="0" r="1" gradientUnits="userSpaceOnUse" gradientTransform="translate(43.8554 45.9186) rotate(-4.92376) scale(2.02341 1.5567)">
<stop stop-color="#484748"/>
<stop offset="1" stop-color="#231F20"/>
</radialGradient>
<linearGradient id="paint14_linear_1_1683" x1="14.5679" y1="43.5093" x2="23.1867" y2="43.5093" gradientUnits="userSpaceOnUse">
<stop stop-color="#ADACAD"/>
<stop offset="0.0988435" stop-color="#898889"/>
<stop offset="0.2138" stop-color="#676566"/>
<stop offset="0.3224" stop-color="#4E4C4D"/>
<stop offset="0.4208" stop-color="#3F3C3D"/>
<stop offset="0.5" stop-color="#3A3738"/>
<stop offset="0.7467" stop-color="#444243"/>
<stop offset="1" stop-color="#484748"/>
</linearGradient>
<radialGradient id="paint15_radial_1_1683" cx="0" cy="0" r="1" gradientUnits="userSpaceOnUse" gradientTransform="translate(18.8796 43.5094) scale(4.08198 4.08639)">
<stop stop-color="#484748"/>
<stop offset="1" stop-color="#231F20"/>
</radialGradient>
<radialGradient id="paint16_radial_1_1683" cx="0" cy="0" r="1" gradientUnits="userSpaceOnUse" gradientTransform="translate(18.0174 44.1491) scale(5.66734 5.67345)">
<stop stop-color="#ADACAD"/>
<stop offset="0.0988435" stop-color="#898889"/>
<stop offset="0.2138" stop-color="#676566"/>
<stop offset="0.3224" stop-color="#4E4C4D"/>
<stop offset="0.4208" stop-color="#3F3C3D"/>
<stop offset="0.5" stop-color="#3A3738"/>
<stop offset="0.7779" stop-color="#403E3F"/>
<stop offset="1" stop-color="#484748"/>
</radialGradient>
<radialGradient id="paint17_radial_1_1683" cx="0" cy="0" r="1" gradientUnits="userSpaceOnUse" gradientTransform="translate(16.9398 43.492) rotate(-43.0534) scale(1.99356 3.04233)">
<stop stop-color="#ADACAD"/>
<stop offset="0.0717611" stop-color="#A1A0A1"/>
<stop offset="0.2906" stop-color="#818081"/>
<stop offset="0.378" stop-color="#767576"/>
<stop offset="0.6134" stop-color="#5D5C5D"/>
<stop offset="0.8275" stop-color="#4D4C4D"/>
<stop offset="1" stop-color="#484748"/>
</radialGradient>
<linearGradient id="paint18_linear_1_1683" x1="46.4115" y1="46.8484" x2="57.0194" y2="46.8484" gradientUnits="userSpaceOnUse">
<stop stop-color="#ADACAD"/>
<stop offset="0.0988435" stop-color="#898889"/>
<stop offset="0.2138" stop-color="#676566"/>
<stop offset="0.3224" stop-color="#4E4C4D"/>
<stop offset="0.4208" stop-color="#3F3C3D"/>
<stop offset="0.5" stop-color="#3A3738"/>
<stop offset="0.7467" stop-color="#444243"/>
<stop offset="1" stop-color="#484748"/>
</linearGradient>
<radialGradient id="paint19_radial_1_1683" cx="0" cy="0" r="1" gradientUnits="userSpaceOnUse" gradientTransform="translate(51.715 46.8485) scale(4.72407 4.72917)">
<stop stop-color="#484748"/>
<stop offset="1" stop-color="#231F20"/>
</radialGradient>
<linearGradient id="paint20_linear_1_1683" x1="43.6443" y1="67.1802" x2="59.007" y2="73.6684" gradientUnits="userSpaceOnUse">
<stop stop-color="#252424"/>
<stop offset="1" stop-color="#96999D"/>
</linearGradient>
<linearGradient id="paint21_linear_1_1683" x1="48.6217" y1="69.2882" x2="63.5713" y2="75.6019" gradientUnits="userSpaceOnUse">
<stop stop-color="#96999D"/>
<stop offset="1" stop-color="#252424"/>
</linearGradient>
<linearGradient id="paint22_linear_1_1683" x1="13.8208" y1="41.6894" x2="37.0992" y2="40.3307" gradientUnits="userSpaceOnUse">
<stop stop-color="#F1F2F2"/>
<stop offset="1" stop-color="#F1F2F2" stop-opacity="0"/>
</linearGradient>
<radialGradient id="paint23_radial_1_1683" cx="0" cy="0" r="1" gradientUnits="userSpaceOnUse" gradientTransform="translate(54.1706 36.2236) rotate(-149.713) scale(2.45139 2.58109)">
<stop/>
<stop offset="0.8247" stop-opacity="0.2486"/>
<stop offset="0.9605" stop-opacity="0.1249"/>
<stop offset="1" stop-opacity="0"/>
</radialGradient>
<linearGradient id="paint24_linear_1_1683" x1="56.0652" y1="37.3287" x2="52.7842" y2="35.4166" gradientUnits="userSpaceOnUse">
<stop stop-color="#231F20"/>
<stop offset="0.202" stop-color="#282425"/>
<stop offset="0.4333" stop-color="#353233"/>
<stop offset="0.5" stop-color="#3A3738"/>
<stop offset="0.5792" stop-color="#3F3C3D"/>
<stop offset="0.6776" stop-color="#4E4C4D"/>
<stop offset="0.7862" stop-color="#676566"/>
<stop offset="0.9012" stop-color="#898889"/>
<stop offset="1" stop-color="#ADACAD"/>
</linearGradient>
<radialGradient id="paint25_radial_1_1683" cx="0" cy="0" r="1" gradientUnits="userSpaceOnUse" gradientTransform="translate(55.8613 36.691) rotate(-149.713) scale(3.38931 3.39111)">
<stop stop-color="#ADACAD"/>
<stop offset="0.0647616" stop-color="#9E9D9E"/>
<stop offset="0.2804" stop-color="#727071"/>
<stop offset="0.4878" stop-color="#504D4E"/>
<stop offset="0.6822" stop-color="#373435"/>
<stop offset="0.8583" stop-color="#282425"/>
<stop offset="1" stop-color="#231F20"/>
</radialGradient>
<radialGradient id="paint26_radial_1_1683" cx="0" cy="0" r="1" gradientUnits="userSpaceOnUse" gradientTransform="translate(55.8629 36.6895) rotate(-149.713) scale(3.40686 3.40867)">
<stop stop-color="#ADACAD"/>
<stop offset="0.0647616" stop-color="#9E9D9E"/>
<stop offset="0.2804" stop-color="#727071"/>
<stop offset="0.4878" stop-color="#504D4E"/>
<stop offset="0.6822" stop-color="#373435"/>
<stop offset="0.8583" stop-color="#282425"/>
<stop offset="1" stop-color="#231F20"/>
</radialGradient>
<radialGradient id="paint27_radial_1_1683" cx="0" cy="0" r="1" gradientUnits="userSpaceOnUse" gradientTransform="translate(55.861 36.6921) rotate(-149.713) scale(3.38017 3.38196)">
<stop stop-color="#ADACAD"/>
<stop offset="0.0647616" stop-color="#9E9D9E"/>
<stop offset="0.2804" stop-color="#727071"/>
<stop offset="0.4878" stop-color="#504D4E"/>
<stop offset="0.6822" stop-color="#373435"/>
<stop offset="0.8583" stop-color="#282425"/>
<stop offset="1" stop-color="#231F20"/>
</radialGradient>
<radialGradient id="paint28_radial_1_1683" cx="0" cy="0" r="1" gradientUnits="userSpaceOnUse" gradientTransform="translate(55.8614 36.6927) rotate(-149.713) scale(3.37952 3.38131)">
<stop stop-color="#ADACAD"/>
<stop offset="0.0647616" stop-color="#9E9D9E"/>
<stop offset="0.2804" stop-color="#727071"/>
<stop offset="0.4878" stop-color="#504D4E"/>
<stop offset="0.6822" stop-color="#373435"/>
<stop offset="0.8583" stop-color="#282425"/>
<stop offset="1" stop-color="#231F20"/>
</radialGradient>
<radialGradient id="paint29_radial_1_1683" cx="0" cy="0" r="1" gradientUnits="userSpaceOnUse" gradientTransform="translate(55.8618 36.6931) rotate(-149.713) scale(3.37594 3.37772)">
<stop stop-color="#ADACAD"/>
<stop offset="0.0647616" stop-color="#9E9D9E"/>
<stop offset="0.2804" stop-color="#727071"/>
<stop offset="0.4878" stop-color="#504D4E"/>
<stop offset="0.6822" stop-color="#373435"/>
<stop offset="0.8583" stop-color="#282425"/>
<stop offset="1" stop-color="#231F20"/>
</radialGradient>
<radialGradient id="paint30_radial_1_1683" cx="0" cy="0" r="1" gradientUnits="userSpaceOnUse" gradientTransform="translate(55.8579 36.6932) rotate(-149.713) scale(3.37619 3.37798)">
<stop stop-color="#ADACAD"/>
<stop offset="0.0647616" stop-color="#9E9D9E"/>
<stop offset="0.2804" stop-color="#727071"/>
<stop offset="0.4878" stop-color="#504D4E"/>
<stop offset="0.6822" stop-color="#373435"/>
<stop offset="0.8583" stop-color="#282425"/>
<stop offset="1" stop-color="#231F20"/>
</radialGradient>
<radialGradient id="paint31_radial_1_1683" cx="0" cy="0" r="1" gradientUnits="userSpaceOnUse" gradientTransform="translate(55.8578 36.694) rotate(-149.713) scale(3.38468 3.38647)">
<stop stop-color="#ADACAD"/>
<stop offset="0.0647616" stop-color="#9E9D9E"/>
<stop offset="0.2804" stop-color="#727071"/>
<stop offset="0.4878" stop-color="#504D4E"/>
<stop offset="0.6822" stop-color="#373435"/>
<stop offset="0.8583" stop-color="#282425"/>
<stop offset="1" stop-color="#231F20"/>
</radialGradient>
<radialGradient id="paint32_radial_1_1683" cx="0" cy="0" r="1" gradientUnits="userSpaceOnUse" gradientTransform="translate(55.8632 36.6897) rotate(-149.713) scale(3.37193 3.37371)">
<stop stop-color="#ADACAD"/>
<stop offset="0.0647616" stop-color="#9E9D9E"/>
<stop offset="0.2804" stop-color="#727071"/>
<stop offset="0.4878" stop-color="#504D4E"/>
<stop offset="0.6822" stop-color="#373435"/>
<stop offset="0.8583" stop-color="#282425"/>
<stop offset="1" stop-color="#231F20"/>
</radialGradient>
<radialGradient id="paint33_radial_1_1683" cx="0" cy="0" r="1" gradientUnits="userSpaceOnUse" gradientTransform="translate(55.8621 36.6937) rotate(-149.713) scale(3.38392 3.38572)">
<stop stop-color="#ADACAD"/>
<stop offset="0.0647616" stop-color="#9E9D9E"/>
<stop offset="0.2804" stop-color="#727071"/>
<stop offset="0.4878" stop-color="#504D4E"/>
<stop offset="0.6822" stop-color="#373435"/>
<stop offset="0.8583" stop-color="#282425"/>
<stop offset="1" stop-color="#231F20"/>
</radialGradient>
<radialGradient id="paint34_radial_1_1683" cx="0" cy="0" r="1" gradientUnits="userSpaceOnUse" gradientTransform="translate(55.8649 36.6876) rotate(-149.713) scale(3.36768 3.36947)">
<stop stop-color="#ADACAD"/>
<stop offset="0.0647616" stop-color="#9E9D9E"/>
<stop offset="0.2804" stop-color="#727071"/>
<stop offset="0.4878" stop-color="#504D4E"/>
<stop offset="0.6822" stop-color="#373435"/>
<stop offset="0.8583" stop-color="#282425"/>
<stop offset="1" stop-color="#231F20"/>
</radialGradient>
<radialGradient id="paint35_radial_1_1683" cx="0" cy="0" r="1" gradientUnits="userSpaceOnUse" gradientTransform="translate(55.8564 36.696) rotate(-149.713) scale(3.38541 3.38721)">
<stop stop-color="#ADACAD"/>
<stop offset="0.0647616" stop-color="#9E9D9E"/>
<stop offset="0.2804" stop-color="#727071"/>
<stop offset="0.4878" stop-color="#504D4E"/>
<stop offset="0.6822" stop-color="#373435"/>
<stop offset="0.8583" stop-color="#282425"/>
<stop offset="1" stop-color="#231F20"/>
</radialGradient>
<radialGradient id="paint36_radial_1_1683" cx="0" cy="0" r="1" gradientUnits="userSpaceOnUse" gradientTransform="translate(55.8646 36.6795) rotate(-149.713) scale(3.35644 3.35822)">
<stop stop-color="#ADACAD"/>
<stop offset="0.0647616" stop-color="#9E9D9E"/>
<stop offset="0.2804" stop-color="#727071"/>
<stop offset="0.4878" stop-color="#504D4E"/>
<stop offset="0.6822" stop-color="#373435"/>
<stop offset="0.8583" stop-color="#282425"/>
<stop offset="1" stop-color="#231F20"/>
</radialGradient>
<radialGradient id="paint37_radial_1_1683" cx="0" cy="0" r="1" gradientUnits="userSpaceOnUse" gradientTransform="translate(55.8641 36.687) rotate(-149.713) scale(3.37103 3.37282)">
<stop stop-color="#ADACAD"/>
<stop offset="0.0647616" stop-color="#9E9D9E"/>
<stop offset="0.2804" stop-color="#727071"/>
<stop offset="0.4878" stop-color="#504D4E"/>
<stop offset="0.6822" stop-color="#373435"/>
<stop offset="0.8583" stop-color="#282425"/>
<stop offset="1" stop-color="#231F20"/>
</radialGradient>
<radialGradient id="paint38_radial_1_1683" cx="0" cy="0" r="1" gradientUnits="userSpaceOnUse" gradientTransform="translate(55.8705 36.6777) rotate(-149.713) scale(3.36026 3.36204)">
<stop stop-color="#ADACAD"/>
<stop offset="0.0647616" stop-color="#9E9D9E"/>
<stop offset="0.2804" stop-color="#727071"/>
<stop offset="0.4878" stop-color="#504D4E"/>
<stop offset="0.6822" stop-color="#373435"/>
<stop offset="0.8583" stop-color="#282425"/>
<stop offset="1" stop-color="#231F20"/>
</radialGradient>
<radialGradient id="paint39_radial_1_1683" cx="0" cy="0" r="1" gradientUnits="userSpaceOnUse" gradientTransform="translate(55.8597 36.693) rotate(-149.713) scale(3.3797 3.38148)">
<stop stop-color="#ADACAD"/>
<stop offset="0.0647616" stop-color="#9E9D9E"/>
<stop offset="0.2804" stop-color="#727071"/>
<stop offset="0.4878" stop-color="#504D4E"/>
<stop offset="0.6822" stop-color="#373435"/>
<stop offset="0.8583" stop-color="#282425"/>
<stop offset="1" stop-color="#231F20"/>
</radialGradient>
<radialGradient id="paint40_radial_1_1683" cx="0" cy="0" r="1" gradientUnits="userSpaceOnUse" gradientTransform="translate(55.8683 36.6862) rotate(-149.713) scale(3.37528 3.37708)">
<stop stop-color="#ADACAD"/>
<stop offset="0.0647616" stop-color="#9E9D9E"/>
<stop offset="0.2804" stop-color="#727071"/>
<stop offset="0.4878" stop-color="#504D4E"/>
<stop offset="0.6822" stop-color="#373435"/>
<stop offset="0.8583" stop-color="#282425"/>
<stop offset="1" stop-color="#231F20"/>
</radialGradient>
<radialGradient id="paint41_radial_1_1683" cx="0" cy="0" r="1" gradientUnits="userSpaceOnUse" gradientTransform="translate(55.8597 36.6945) rotate(-149.713) scale(3.3716 3.37339)">
<stop stop-color="#ADACAD"/>
<stop offset="0.0647616" stop-color="#9E9D9E"/>
<stop offset="0.2804" stop-color="#727071"/>
<stop offset="0.4878" stop-color="#504D4E"/>
<stop offset="0.6822" stop-color="#373435"/>
<stop offset="0.8583" stop-color="#282425"/>
<stop offset="1" stop-color="#231F20"/>
</radialGradient>
<radialGradient id="paint42_radial_1_1683" cx="0" cy="0" r="1" gradientUnits="userSpaceOnUse" gradientTransform="translate(55.8653 36.6875) rotate(-149.713) scale(3.3947 3.3965)">
<stop stop-color="#ADACAD"/>
<stop offset="0.0647616" stop-color="#9E9D9E"/>
<stop offset="0.2804" stop-color="#727071"/>
<stop offset="0.4878" stop-color="#504D4E"/>
<stop offset="0.6822" stop-color="#373435"/>
<stop offset="0.8583" stop-color="#282425"/>
<stop offset="1" stop-color="#231F20"/>
</radialGradient>
<radialGradient id="paint43_radial_1_1683" cx="0" cy="0" r="1" gradientUnits="userSpaceOnUse" gradientTransform="translate(55.8591 36.6981) rotate(-149.713) scale(3.36009 3.36187)">
<stop stop-color="#ADACAD"/>
<stop offset="0.0647616" stop-color="#9E9D9E"/>
<stop offset="0.2804" stop-color="#727071"/>
<stop offset="0.4878" stop-color="#504D4E"/>
<stop offset="0.6822" stop-color="#373435"/>
<stop offset="0.8583" stop-color="#282425"/>
<stop offset="1" stop-color="#231F20"/>
</radialGradient>
<radialGradient id="paint44_radial_1_1683" cx="0" cy="0" r="1" gradientUnits="userSpaceOnUse" gradientTransform="translate(55.8583 36.692) rotate(-149.713) scale(3.37993 3.38173)">
<stop stop-color="#ADACAD"/>
<stop offset="0.0647616" stop-color="#9E9D9E"/>
<stop offset="0.2804" stop-color="#727071"/>
<stop offset="0.4878" stop-color="#504D4E"/>
<stop offset="0.6822" stop-color="#373435"/>
<stop offset="0.8583" stop-color="#282425"/>
<stop offset="1" stop-color="#231F20"/>
</radialGradient>
<radialGradient id="paint45_radial_1_1683" cx="0" cy="0" r="1" gradientUnits="userSpaceOnUse" gradientTransform="translate(55.8603 36.6921) rotate(-149.713) scale(3.37634 3.37814)">
<stop stop-color="#ADACAD"/>
<stop offset="0.0647616" stop-color="#9E9D9E"/>
<stop offset="0.2804" stop-color="#727071"/>
<stop offset="0.4878" stop-color="#504D4E"/>
<stop offset="0.6822" stop-color="#373435"/>
<stop offset="0.8583" stop-color="#282425"/>
<stop offset="1" stop-color="#231F20"/>
</radialGradient>
<radialGradient id="paint46_radial_1_1683" cx="0" cy="0" r="1" gradientUnits="userSpaceOnUse" gradientTransform="translate(55.8656 36.6829) rotate(-149.713) scale(3.39992 3.40172)">
<stop stop-color="#ADACAD"/>
<stop offset="0.0647616" stop-color="#9E9D9E"/>
<stop offset="0.2804" stop-color="#727071"/>
<stop offset="0.4878" stop-color="#504D4E"/>
<stop offset="0.6822" stop-color="#373435"/>
<stop offset="0.8583" stop-color="#282425"/>
<stop offset="1" stop-color="#231F20"/>
</radialGradient>
<radialGradient id="paint47_radial_1_1683" cx="0" cy="0" r="1" gradientUnits="userSpaceOnUse" gradientTransform="translate(55.862 36.6929) rotate(-149.713) scale(3.37724 3.37904)">
<stop stop-color="#ADACAD"/>
<stop offset="0.0647616" stop-color="#9E9D9E"/>
<stop offset="0.2804" stop-color="#727071"/>
<stop offset="0.4878" stop-color="#504D4E"/>
<stop offset="0.6822" stop-color="#373435"/>
<stop offset="0.8583" stop-color="#282425"/>
<stop offset="1" stop-color="#231F20"/>
</radialGradient>
<radialGradient id="paint48_radial_1_1683" cx="0" cy="0" r="1" gradientUnits="userSpaceOnUse" gradientTransform="translate(55.8633 36.6898) rotate(-149.713) scale(3.38402 3.3858)">
<stop stop-color="#ADACAD"/>
<stop offset="0.0647616" stop-color="#9E9D9E"/>
<stop offset="0.2804" stop-color="#727071"/>
<stop offset="0.4878" stop-color="#504D4E"/>
<stop offset="0.6822" stop-color="#373435"/>
<stop offset="0.8583" stop-color="#282425"/>
<stop offset="1" stop-color="#231F20"/>
</radialGradient>
<radialGradient id="paint49_radial_1_1683" cx="0" cy="0" r="1" gradientUnits="userSpaceOnUse" gradientTransform="translate(55.8569 36.698) rotate(-149.713) scale(3.3721 3.37388)">
<stop stop-color="#ADACAD"/>
<stop offset="0.0647616" stop-color="#9E9D9E"/>
<stop offset="0.2804" stop-color="#727071"/>
<stop offset="0.4878" stop-color="#504D4E"/>
<stop offset="0.6822" stop-color="#373435"/>
<stop offset="0.8583" stop-color="#282425"/>
<stop offset="1" stop-color="#231F20"/>
</radialGradient>
<radialGradient id="paint50_radial_1_1683" cx="0" cy="0" r="1" gradientUnits="userSpaceOnUse" gradientTransform="translate(55.8625 36.6895) rotate(-149.713) scale(3.38312 3.38491)">
<stop stop-color="#ADACAD"/>
<stop offset="0.0647616" stop-color="#9E9D9E"/>
<stop offset="0.2804" stop-color="#727071"/>
<stop offset="0.4878" stop-color="#504D4E"/>
<stop offset="0.6822" stop-color="#373435"/>
<stop offset="0.8583" stop-color="#282425"/>
<stop offset="1" stop-color="#231F20"/>
</radialGradient>
<linearGradient id="paint51_linear_1_1683" x1="55.5939" y1="37.0311" x2="52.2315" y2="35.1263" gradientUnits="userSpaceOnUse">
<stop stop-color="#ADACAD"/>
<stop offset="0.0988435" stop-color="#898889"/>
<stop offset="0.2138" stop-color="#676566"/>
<stop offset="0.3224" stop-color="#4E4C4D"/>
<stop offset="0.4208" stop-color="#3F3C3D"/>
<stop offset="0.5" stop-color="#3A3738"/>
<stop offset="0.7467" stop-color="#444243"/>
<stop offset="1" stop-color="#484748"/>
</linearGradient>
<radialGradient id="paint52_radial_1_1683" cx="0" cy="0" r="1" gradientUnits="userSpaceOnUse" gradientTransform="translate(54.2344 36.2602) rotate(-150.415) scale(1.96103 1.94513)">
<stop stop-color="#484748"/>
<stop offset="1" stop-color="#231F20"/>
</radialGradient>
<linearGradient id="paint53_linear_1_1683" x1="54.4671" y1="36.3927" x2="53.3572" y2="35.7639" gradientUnits="userSpaceOnUse">
<stop stop-color="#ADACAD"/>
<stop offset="0.0988435" stop-color="#898889"/>
<stop offset="0.2138" stop-color="#676566"/>
<stop offset="0.3224" stop-color="#4E4C4D"/>
<stop offset="0.4208" stop-color="#3F3C3D"/>
<stop offset="0.5" stop-color="#3A3738"/>
<stop offset="0.7467" stop-color="#444243"/>
<stop offset="1" stop-color="#484748"/>
</linearGradient>
<radialGradient id="paint54_radial_1_1683" cx="0" cy="0" r="1" gradientUnits="userSpaceOnUse" gradientTransform="translate(53.9137 36.0777) rotate(-150.415) scale(0.599588 0.594726)">
<stop stop-color="#484748"/>
<stop offset="1" stop-color="#231F20"/>
</radialGradient>
<radialGradient id="paint55_radial_1_1683" cx="0" cy="0" r="1" gradientUnits="userSpaceOnUse" gradientTransform="translate(13.8069 40.7117) scale(4.13037 4.13483)">
<stop stop-color="#939598"/>
<stop offset="0.0705258" stop-color="#818285"/>
<stop offset="0.2151" stop-color="#626264"/>
<stop offset="0.3532" stop-color="#4C4A4C"/>
<stop offset="0.4807" stop-color="#3F3C3D"/>
<stop offset="0.5876" stop-color="#3A3738"/>
<stop offset="0.8168" stop-color="#403E3F"/>
<stop offset="1" stop-color="#484748"/>
</radialGradient>
<radialGradient id="paint56_radial_1_1683" cx="0" cy="0" r="1" gradientUnits="userSpaceOnUse" gradientTransform="translate(50.8165 47.8567) scale(6.70794 6.71519)">
<stop stop-color="#ADACAD"/>
<stop offset="0.0988435" stop-color="#898889"/>
<stop offset="0.2138" stop-color="#676566"/>
<stop offset="0.3224" stop-color="#4E4C4D"/>
<stop offset="0.4208" stop-color="#3F3C3D"/>
<stop offset="0.5" stop-color="#3A3738"/>
<stop offset="0.7779" stop-color="#403E3F"/>
<stop offset="1" stop-color="#484748"/>
</radialGradient>
<radialGradient id="paint57_radial_1_1683" cx="0" cy="0" r="1" gradientUnits="userSpaceOnUse" gradientTransform="translate(49.4372 46.6224) rotate(-38.8072) scale(1.92009 2.71338)">
<stop stop-color="#ADACAD"/>
<stop offset="0.0717611" stop-color="#A1A0A1"/>
<stop offset="0.2906" stop-color="#818081"/>
<stop offset="0.378" stop-color="#767576"/>
<stop offset="0.6134" stop-color="#5D5C5D"/>
<stop offset="0.8275" stop-color="#4D4C4D"/>
<stop offset="1" stop-color="#484748"/>
</radialGradient>
<radialGradient id="paint58_radial_1_1683" cx="0" cy="0" r="1" gradientUnits="userSpaceOnUse" gradientTransform="translate(46.0438 43.8933) scale(4.31788 4.32254)">
<stop stop-color="#939598"/>
<stop offset="0.0705258" stop-color="#818285"/>
<stop offset="0.2151" stop-color="#626264"/>
<stop offset="0.3532" stop-color="#4C4A4C"/>
<stop offset="0.4807" stop-color="#3F3C3D"/>
<stop offset="0.5876" stop-color="#3A3738"/>
<stop offset="0.8168" stop-color="#403E3F"/>
<stop offset="1" stop-color="#484748"/>
</radialGradient>
<linearGradient id="paint59_linear_1_1683" x1="24.7846" y1="43.9958" x2="28.4643" y2="42.5812" gradientUnits="userSpaceOnUse">
<stop stop-color="#ADACAD"/>
<stop offset="0.0988435" stop-color="#898889"/>
<stop offset="0.2138" stop-color="#676566"/>
<stop offset="0.3224" stop-color="#4E4C4D"/>
<stop offset="0.4208" stop-color="#3F3C3D"/>
<stop offset="0.5" stop-color="#3A3738"/>
<stop offset="0.7467" stop-color="#444243"/>
<stop offset="1" stop-color="#484748"/>
</linearGradient>
<radialGradient id="paint60_radial_1_1683" cx="0" cy="0" r="1" gradientUnits="userSpaceOnUse" gradientTransform="translate(26.8715 43.9317) rotate(-1.79314) scale(1.97678 1.57167)">
<stop stop-color="#484748"/>
<stop offset="1" stop-color="#231F20"/>
</radialGradient>
<linearGradient id="paint61_linear_1_1683" x1="24.4797" y1="27.8535" x2="30.1812" y2="31.0142" gradientUnits="userSpaceOnUse">
<stop stop-color="#ADACAD"/>
<stop offset="0.0988435" stop-color="#898889"/>
<stop offset="0.2138" stop-color="#676566"/>
<stop offset="0.3224" stop-color="#4E4C4D"/>
<stop offset="0.4208" stop-color="#3F3C3D"/>
<stop offset="0.5" stop-color="#3A3738"/>
<stop offset="0.7467" stop-color="#444243"/>
<stop offset="1" stop-color="#484748"/>
</linearGradient>
<linearGradient id="paint62_linear_1_1683" x1="-0.284366" y1="61.5416" x2="11.7029" y2="64.5921" gradientUnits="userSpaceOnUse">
<stop stop-color="#252424"/>
<stop offset="1" stop-color="#96999D"/>
</linearGradient>
<linearGradient id="paint63_linear_1_1683" x1="2.56948" y1="62.7989" x2="13.3749" y2="65.5488" gradientUnits="userSpaceOnUse">
<stop stop-color="#96999D"/>
<stop offset="1" stop-color="#252424"/>
</linearGradient>
</defs>
</svg>
