<svg width="219" height="122" viewBox="0 0 219 122" fill="none" xmlns="http://www.w3.org/2000/svg">
<path d="M163.672 85.0621C163.672 85.0621 170.181 86.798 178.221 83.6154C185.208 80.915 197.938 71.5601 201.289 69.0526C201.767 68.6668 202.054 68.0882 202.15 67.5095L202.341 59.7941C202.341 59.2154 201.959 58.8297 201.48 58.7332C198.513 58.251 189.037 56.8044 187.41 57.9617C185.591 59.4083 185.782 61.0478 185.687 62.1087C185.687 63.1696 186.452 65.2913 183.868 66.8344C181.284 68.3775 179.369 70.017 176.881 72.0423C174.392 74.0676 170.181 75.3214 166.926 74.0676L163.672 85.0621Z" fill="url(#paint0_linear_1_2464)"/>
<path d="M165.686 78.0222C168.557 78.6008 175.353 79.2759 182.436 74.7431C191.721 68.7637 200.622 62.1091 200.622 62.1091C200.622 62.1091 202.537 60.1803 201.484 58.8301C201.867 59.023 202.154 59.4087 202.154 59.7945L201.963 67.5099C201.963 68.185 201.675 68.7637 201.101 69.053C197.847 71.4641 185.021 80.819 178.033 83.6158C169.993 86.7985 163.484 85.0625 163.484 85.0625L165.686 78.0222Z" fill="url(#paint1_linear_1_2464)"/>
<path d="M123.475 31.3437L127.495 30.7651C128.74 30.5722 129.697 29.5113 129.697 28.2576L129.888 22.7603L116.009 18.6133C116.009 18.6133 110.171 18.7097 105.863 22.471L123.475 31.3437Z" fill="url(#paint2_linear_1_2464)"/>
<path d="M113.711 26.3289L112.754 25.1716C112.754 25.1716 115.051 24.3036 118.401 24.9787C121.751 25.5573 127.399 26.136 129.121 23.6285C129.504 23.0498 129.791 22.8569 130.079 22.6641L129.887 28.1613C129.887 29.4151 128.93 30.4759 127.686 30.6688L123.666 31.2475L113.711 26.3289Z" fill="url(#paint3_linear_1_2464)"/>
<path d="M168.844 67.413L166.164 85.7371C165.781 88.7268 163.867 91.2343 161.091 92.3917L147.786 98.2747C143.288 100.3 138.119 99.9142 134.003 97.3102L122.709 90.1735C122.23 89.8841 121.943 89.3055 121.943 88.7268L122.039 87.8588C122.039 87.3766 121.847 86.8944 121.368 86.6051L113.041 81.6865L112.563 80.3363L88.6333 65.3877H87.389L77.8174 59.3118L76.573 59.4083L66.2356 53.2359C66.2356 53.2359 64.7042 55.0683 61.7369 54.779C58.7697 54.4897 57.8125 53.3324 57.9083 52.9466C57.9083 52.9466 50.1552 51.6928 38.8606 58.4438C38.8606 58.4438 34.4576 59.794 34.0748 61.53C33.6919 63.266 34.6491 65.3877 31.2033 67.3166C27.8532 69.149 22.5888 68.6668 20.9616 68.281C19.3344 67.8952 17.3243 66.4486 16.75 64.809C16.1757 63.266 16.5586 56.9972 16.5586 56.9972C16.5586 56.9972 16.4629 55.3577 18.6644 54.8755C20.483 54.4897 38.8606 42.8201 56.1854 41.4699L55.8025 35.5869L168.844 67.413Z" fill="url(#paint4_linear_1_2464)"/>
<path opacity="0.39" d="M65.8547 53.5256C65.2804 54.0078 63.8446 54.9722 61.7389 54.6829C58.7716 54.3936 57.8145 53.2363 57.9102 52.8505C57.9102 52.8505 57.8145 52.8505 57.7188 52.8505V40.8916H65.9504V53.5256H65.8547Z" fill="url(#paint5_radial_1_2464)"/>
<path opacity="0.53" d="M141.949 70.3066C149.607 70.3066 155.828 78.5043 155.828 88.6308C155.828 90.9454 155.445 93.1636 154.871 95.1889L147.788 98.275C143.289 100.3 138.121 99.9145 134.005 97.3106L128.645 93.9351C128.262 92.2956 128.07 90.4632 128.07 88.6308C128.07 78.5043 134.292 70.3066 141.949 70.3066Z" fill="url(#paint6_radial_1_2464)"/>
<path d="M36.1786 59.5052C35.1257 60.0838 34.1686 60.7589 33.9771 61.5305C33.5943 63.2664 34.5514 65.3882 31.1056 67.317C27.7555 69.1495 22.4911 68.6672 20.8639 68.2815C19.2367 67.8957 17.2267 66.449 16.6524 64.8095C16.0781 63.2664 16.461 56.9977 16.461 56.9977C16.461 56.9977 16.3652 55.3581 18.5667 54.8759C18.9496 54.7795 20.2896 54.1044 22.2997 53.0435C22.5868 53.0435 22.9697 53.0435 23.2568 53.0435C29.1913 52.9471 34.1686 55.6475 36.1786 59.5052Z" fill="url(#paint7_linear_1_2464)"/>
<path d="M84.3223 111.199L85.2794 104.158C85.3752 103.676 85.9495 103.387 86.3323 103.773L90.2567 107.052C91.6925 106.666 93.2239 106.473 94.8511 106.473C100.69 106.473 105.476 108.884 105.476 111.874C105.476 114.863 100.69 117.274 94.8511 117.274C89.0124 117.274 84.2266 114.863 84.2266 111.874C84.2266 111.681 84.3223 111.391 84.3223 111.199Z" fill="url(#paint8_linear_1_2464)"/>
<path d="M84.3223 111.199L85.2794 104.158C85.3752 103.676 85.9495 103.387 86.3323 103.773L90.2567 107.052C91.6925 106.666 93.2239 106.473 94.8511 106.473C100.69 106.473 105.476 108.884 105.476 111.874C105.476 114.863 100.69 117.274 94.8511 117.274C89.0124 117.274 84.2266 114.863 84.2266 111.874C84.2266 111.681 84.3223 111.391 84.3223 111.199Z" fill="url(#paint9_linear_1_2464)"/>
<path opacity="0.19" d="M104.04 113.513C104.04 113.513 104.232 113.899 104.327 114.381C103.562 115.153 102.509 115.731 101.169 116.213C97.34 113.513 96.3828 108.402 96.3828 108.402L100.499 108.112L104.04 113.513Z" fill="url(#paint10_linear_1_2464)"/>
<path d="M60.7783 44.4599L106.818 73.2963C123.76 83.905 145.105 84.3872 162.525 74.5501L164.152 73.5856C170.661 69.9208 170.565 60.5659 164.152 56.9011L106.052 24.207C93.4177 17.0702 78.0073 16.8773 65.1812 23.7248L61.4483 25.7501C54.1738 29.7042 53.7909 40.12 60.7783 44.4599Z" fill="#575559"/>
<path d="M60.7783 42.2422L106.818 71.0785C123.76 81.6872 145.105 82.1694 162.525 72.3323L164.152 71.3679C170.661 67.703 170.565 58.3481 164.152 54.6833L106.052 21.9892C93.4177 14.8525 78.0073 14.6596 65.1812 21.507L61.4483 23.5323C54.1738 27.39 53.7909 37.8058 60.7783 42.2422Z" fill="url(#paint11_linear_1_2464)"/>
<path d="M60.7783 40.5058L106.818 69.3422C123.76 79.9509 145.105 80.4331 162.525 70.596L164.152 69.6315C170.661 65.9667 170.565 56.6118 164.152 52.947L106.052 20.2529C93.4177 13.1161 78.0073 12.9232 65.1812 19.7707L61.4483 21.796C54.1738 25.7501 53.7909 36.0695 60.7783 40.5058Z" fill="url(#paint12_linear_1_2464)"/>
<path d="M56.2812 42.2422C56.2812 42.2422 54.8455 46.4857 58.6742 48.1252C58.6742 48.1252 49.1982 47.9323 41.4451 51.1149C33.6921 54.2975 34.5535 54.1046 34.1707 55.8406C33.7878 57.5766 31.2035 54.2011 31.2035 54.2011L28.9062 50.7291C28.9063 50.6327 46.1353 42.2422 56.2812 42.2422Z" fill="url(#paint13_linear_1_2464)"/>
<path d="M16.9414 56.7083C17.0371 55.6475 17.9943 55.4546 17.8986 54.2973C17.8029 53.1399 18.3772 52.4648 18.3772 52.4648L20.6744 53.4293C22.0144 52.9471 23.6416 52.6577 25.3645 52.6577C27.0874 52.6577 28.7146 52.9471 30.0546 53.4293L32.4475 52.4648C32.4475 52.4648 32.9261 53.2364 32.9261 54.3937C32.9261 54.8759 33.0218 55.1652 33.2133 55.4546C33.309 55.6475 33.5004 55.8403 33.5961 55.9368C33.6918 56.1297 33.8833 56.419 33.8833 56.7083C33.8833 56.9012 33.979 56.9976 33.979 57.1905C33.979 59.698 30.1503 61.7233 25.4602 61.7233C20.7701 61.7233 16.9414 59.698 16.9414 57.1905C16.9414 57.1905 16.9414 56.9976 16.9414 56.7083Z" fill="url(#paint14_linear_1_2464)"/>
<path opacity="0.35" d="M16.9414 56.7086C17.0371 55.7441 17.9943 55.4548 17.8986 54.3939C17.8029 53.3331 18.3772 52.5615 18.3772 52.5615L20.7701 53.526C22.1101 53.0437 23.833 52.7544 25.5559 52.7544C27.2788 52.7544 29.0017 53.0437 30.3418 53.526L32.8304 52.5615C32.8304 52.5615 33.4047 53.3331 33.309 54.3939C33.309 54.8761 33.4047 55.1655 33.5961 55.4548C33.6918 55.6477 33.8833 55.7441 33.979 55.937C34.1704 56.1299 34.2661 56.4192 34.2661 56.7086C34.2661 56.9014 34.3619 56.9979 34.3619 57.1908C34.3619 59.6018 30.4375 61.6271 25.6516 61.6271C20.8658 61.6271 16.9414 59.6018 16.9414 57.1908C16.9414 57.0943 16.9414 56.9979 16.9414 56.7086Z" fill="url(#paint15_radial_1_2464)"/>
<path d="M18.375 52.8501C18.375 54.9719 21.5337 56.7078 25.458 56.7078C29.3824 56.7078 32.5411 54.9719 32.5411 52.8501C32.5411 50.7284 29.3824 49.0889 25.458 49.0889C21.5337 49.0889 18.375 50.7284 18.375 52.8501Z" fill="url(#paint16_radial_1_2464)"/>
<path d="M21.0553 49.4753C21.0553 49.4753 13.8765 50.1504 10.8136 48.1251C8.13353 46.3892 1.91194 40.699 0.189042 39.0595C-0.0981086 38.9631 -0.00239177 38.5773 0.189042 38.4809L6.7935 35.0089C7.08065 34.816 7.46352 34.816 7.75067 35.0089L17.0352 39.0595C17.0352 39.0595 22.7782 41.2777 22.8739 46.1963L21.0553 49.4753Z" fill="#A7A9AC"/>
<path d="M21.0563 49.3787C21.0563 49.3787 13.8776 50.0538 10.8146 48.0285C8.13457 46.2925 1.81726 40.6024 0.0943549 38.9628C-0.0970787 38.77 -0.0970787 38.3842 0.190072 38.2877L6.79453 34.8158C7.08168 34.6229 7.46455 34.6229 7.7517 34.8158L17.0362 38.8664C17.0362 38.8664 22.7792 41.0846 22.8749 46.0032L21.0563 49.3787Z" fill="url(#paint17_linear_1_2464)"/>
<path d="M125.867 92.1988C125.867 92.1988 126.441 90.1735 126.345 88.3411C126.345 88.1482 126.632 88.0517 126.728 88.1482C127.781 89.4984 130.844 92.0059 138.214 90.8486C138.501 90.8486 138.788 91.1379 138.597 91.3308L137.161 94.8992L119.358 106.569L102.416 107.63L101.746 101.939C101.746 101.939 124.814 101.939 126.92 92.8739L125.867 92.1988Z" fill="#F1F2F2"/>
<path d="M138.884 99.239V91.4272C138.884 91.2343 138.597 91.1378 138.501 91.3307C137.353 93.1631 132.95 98.7568 123.091 101.361C111.126 104.447 102.703 105.701 102.703 105.701L111.796 112.355C111.796 112.355 127.207 109.558 134.003 103C138.405 98.8533 138.884 99.239 138.884 99.239Z" fill="url(#paint18_linear_1_2464)"/>
<path d="M127.015 89.4023C127.015 89.4023 126.92 96.2498 119.549 97.9857C112.179 99.7217 102.512 101.168 102.512 101.168L102.799 104.833C102.799 104.833 117.635 102.229 122.517 100.59C127.302 98.9502 132.375 97.4071 136.108 92.1027C136.013 92.1027 129.408 93.4529 127.015 89.4023Z" fill="url(#paint19_linear_1_2464)"/>
<path d="M85.5703 103.676C85.666 102.615 86.7189 102.326 86.6232 101.168C86.5275 100.011 87.1975 99.2395 87.1975 99.2395L89.7819 100.3C91.3133 99.8182 93.0362 99.5288 95.0463 99.5288C96.9606 99.5288 98.7792 99.8182 100.215 100.3L102.895 99.2395C102.895 99.2395 103.469 100.011 103.374 101.265C103.374 101.747 103.469 102.133 103.757 102.422C103.948 102.615 104.044 102.808 104.139 103.001C104.331 103.194 104.427 103.483 104.522 103.869C104.522 104.062 104.618 104.255 104.618 104.447C104.618 107.051 100.406 109.27 95.142 109.27C89.8776 109.27 85.666 107.148 85.666 104.447C85.5703 104.158 85.5703 103.965 85.5703 103.676Z" fill="url(#paint20_linear_1_2464)"/>
<path opacity="0.35" d="M85.5703 103.676C85.666 102.615 86.7189 102.326 86.6232 101.168C86.5275 100.011 87.1975 99.2395 87.1975 99.2395L89.7819 100.3C91.3133 99.8182 93.0362 99.5288 95.0463 99.5288C96.9606 99.5288 98.7792 99.8182 100.215 100.3L102.895 99.2395C102.895 99.2395 103.469 100.011 103.374 101.265C103.374 101.747 103.469 102.133 103.757 102.422C103.948 102.615 104.044 102.808 104.139 103.001C104.331 103.194 104.427 103.483 104.522 103.869C104.522 104.062 104.618 104.255 104.618 104.447C104.618 107.051 100.406 109.27 95.142 109.27C89.8776 109.27 85.666 107.148 85.666 104.447C85.5703 104.158 85.5703 103.965 85.5703 103.676Z" fill="url(#paint21_radial_1_2464)"/>
<path d="M87.1953 99.6248C87.1953 101.843 90.7368 103.579 95.0441 103.579C99.3513 103.579 102.893 101.747 102.893 99.6248C102.893 97.4066 99.3513 95.6706 95.0441 95.6706C90.6411 95.5742 87.1953 97.4066 87.1953 99.6248Z" fill="url(#paint22_radial_1_2464)"/>
<path d="M96.3869 103.001C96.3869 103.001 94.9512 103.676 93.0368 101.747C91.1225 99.8181 89.0167 97.3106 90.7396 96.6355C92.4625 95.8639 96.3869 103.001 96.3869 103.001Z" fill="url(#paint23_linear_1_2464)"/>
<path d="M154.391 81.5905C156.018 81.1083 157.837 80.3367 159.273 79.6616C160.421 79.1794 161.666 80.0474 161.666 81.3012L161.283 90.2703C161.283 90.849 161.57 91.4276 162.049 91.717L162.336 91.9099C161.953 92.1027 161.57 92.3921 161.187 92.5849L150.371 97.4071L150.18 97.5035L151.041 96.2498C151.52 95.5747 151.807 94.8031 151.807 94.0316L152.381 84.4838C152.381 83.0371 153.243 81.8798 154.391 81.5905Z" fill="url(#paint24_linear_1_2464)"/>
<path d="M153.91 84.6762C152.379 87.3766 152.379 90.2699 154.006 91.2343C155.633 92.1987 158.122 90.7521 159.749 88.1481C161.281 85.4477 161.281 82.5544 159.653 81.59C158.026 80.6256 155.442 81.9758 153.91 84.6762Z" fill="#372C20"/>
<path d="M154.486 84.8692C153.146 87.0874 153.146 89.4985 154.39 90.27C155.635 91.0415 157.74 89.7878 158.985 87.5696C160.325 85.3514 160.325 82.9404 159.08 82.1688C157.836 81.3973 155.73 82.651 154.486 84.8692Z" fill="#160605"/>
<path d="M155.537 85.255C155.154 85.8337 155.154 86.5088 155.537 86.7017C155.92 86.8945 156.399 86.6052 156.781 85.9301C157.164 85.3514 157.164 84.6764 156.781 84.4835C156.494 84.2906 155.92 84.5799 155.537 85.255Z" fill="#50402A"/>
<path opacity="0.44" d="M155.251 87.4739C155.156 87.6668 155.156 87.9561 155.251 87.9561C155.347 88.0526 155.539 87.9561 155.73 87.6668C155.826 87.4739 155.826 87.1846 155.73 87.1846C155.634 87.1846 155.443 87.281 155.251 87.4739Z" fill="#08D7FC"/>
<path d="M66.9028 44.267C66.9028 44.267 74.5602 36.7444 93.7992 48.3175C113.134 59.8907 120.409 65.4843 135.915 62.3982C151.421 59.312 158.121 53.6219 153.431 49.3784C148.741 45.1349 124.907 32.8867 124.907 32.8867H122.897C122.897 32.8867 149.698 46.9674 150.751 49.4749C151.804 51.9824 151.421 55.8401 142.519 58.8298C133.713 61.8195 125.003 62.4946 118.398 59.9871C111.698 57.4796 88.5348 40.795 79.6332 39.4448C70.7315 38.1911 65.6585 40.4093 63.457 42.1452L66.9028 44.267Z" fill="#253970"/>
<path d="M66.9028 44.267C66.9028 44.267 74.5602 36.7444 93.7992 48.3175C113.134 59.8907 120.409 65.4843 135.915 62.3982C151.421 59.312 158.121 53.6219 153.431 49.3784C148.741 45.1349 124.907 32.8867 124.907 32.8867H122.897C122.897 32.8867 149.698 46.9674 150.751 49.4749C151.804 51.9824 151.421 55.8401 142.519 58.8298C133.713 61.8195 125.003 62.4946 118.398 59.9871C111.698 57.4796 88.5348 40.795 79.6332 39.4448C70.7315 38.1911 65.6585 40.4093 63.457 42.1452L66.9028 44.267Z" fill="url(#paint25_linear_1_2464)"/>
<path d="M112.656 80.3367L112.848 76.6719C112.848 76.6719 112.943 76.7683 113.422 76.9612L113.135 81.7833L112.656 80.3367Z" fill="#575559"/>
<path d="M89.0139 62.2051L88.8224 65.2913H87.5781L87.7696 61.4336L89.0139 62.2051Z" fill="white"/>
<path d="M78.0061 59.2159L78.1975 55.4547L76.7617 54.4902L76.5703 59.4088L78.0061 59.2159Z" fill="white"/>
<path d="M66.2348 53.2359V47.9315L63.6504 46.292L63.3633 54.7789C63.3633 54.6825 65.1819 54.3932 66.2348 53.2359Z" fill="white"/>
<path d="M90.3558 97.0212C90.3558 97.0212 89.3029 96.2496 88.5372 93.935C87.7715 91.6204 83.7514 91.0417 79.3484 88.8236C75.7112 86.9911 69.2981 82.2654 67.0966 80.6259C66.8095 80.433 66.9052 79.9508 67.2881 79.8544L76.1897 77.9255C76.4769 77.8291 76.764 77.9255 77.0512 78.1184C79.157 79.7579 89.3029 87.8591 92.5573 92.2955L90.3558 97.0212Z" fill="#A7A9AC"/>
<path d="M90.5472 96.9245C90.5472 96.9245 89.4943 96.153 88.7286 93.8383C87.9629 91.5237 83.9428 90.9451 79.5398 88.7269C75.9026 86.8945 69.4895 82.1688 67.2881 80.5292C67.0009 80.3364 67.0966 79.8541 67.4795 79.7577L76.3812 77.8288C76.6683 77.7324 76.9554 77.8289 77.2426 78.0217C79.3484 79.6613 89.4944 87.7624 92.7487 92.1988L90.5472 96.9245Z" fill="url(#paint26_linear_1_2464)"/>
<path d="M90.642 93.4531L99.9265 97.6002L99.7351 101.458C99.6393 101.844 99.4479 102.133 99.065 102.326L97.6293 102.905C96.8636 103.194 96.0021 103.097 95.4278 102.519L90.9291 98.2753C90.5462 97.8895 90.4505 97.4073 90.5462 96.9251L90.642 93.4531Z" fill="url(#paint27_linear_1_2464)"/>
<path d="M95.5259 98.6607L91.0272 94.4172C90.2614 93.7421 90.4529 92.4884 91.41 92.1026L92.2715 91.7168C93.133 91.3311 94.0901 91.4275 94.7601 92.1026L99.546 96.6354C100.12 97.2141 99.9288 98.2749 99.1631 98.5643L97.7274 99.1429C97.0573 99.4323 96.1959 99.2394 95.5259 98.6607Z" fill="url(#paint28_linear_1_2464)"/>
<path d="M95.4297 102.808C96.674 107.823 95.4297 112.741 111.989 121.807C112.276 122 112.659 122 113.042 121.903L122.135 117.949C122.518 117.756 122.613 117.274 122.422 116.985C120.412 114.477 112.946 105.605 106.437 102.229C103.374 100.686 100.886 100.686 99.4498 101.072C99.1626 103.29 95.7168 102.615 95.4297 102.808Z" fill="white"/>
<path d="M95.4297 102.519C96.674 107.534 95.4297 112.453 111.989 121.518C112.276 121.711 112.659 121.711 113.042 121.615L122.135 117.66C122.518 117.468 122.613 116.985 122.422 116.696C120.412 114.188 112.946 105.316 106.437 101.94C103.374 100.397 100.886 100.397 99.4498 100.687C99.1626 103.001 95.7168 102.326 95.4297 102.519Z" fill="url(#paint29_linear_1_2464)"/>
<path d="M115.144 20.2527C115.24 19.3847 116.101 19.1918 116.006 18.2274C115.91 17.263 116.484 16.6843 116.484 16.6843L118.59 17.4559C119.834 17.0701 121.27 16.7808 122.801 16.7808C124.333 16.7808 125.769 16.9737 127.013 17.4559L129.119 16.5879C129.119 16.5879 129.597 17.263 129.502 18.2274C129.502 18.6132 129.597 18.9025 129.789 19.1918C129.884 19.2883 129.98 19.4812 130.076 19.6741C130.172 19.8669 130.267 20.0598 130.363 20.3492C130.363 20.4456 130.459 20.6385 130.459 20.7349C130.459 22.8567 127.013 24.5926 122.801 24.5926C118.59 24.5926 115.144 22.8567 115.144 20.7349C115.144 20.6385 115.048 20.4456 115.144 20.2527Z" fill="url(#paint30_linear_1_2464)"/>
<path opacity="0.35" d="M115.049 20.2525C115.145 19.3845 116.006 19.0952 115.91 18.1307C115.815 17.1663 116.389 16.4912 116.389 16.4912L118.686 17.3592C119.93 16.9734 121.462 16.6841 123.089 16.6841C124.716 16.6841 126.248 16.9734 127.492 17.3592L129.694 16.4912C129.694 16.4912 130.172 17.1663 130.076 18.1307C130.076 18.5165 130.172 18.8058 130.364 19.0952C130.459 19.288 130.651 19.3845 130.651 19.5774C130.746 19.7703 130.938 19.9631 130.938 20.2525C130.938 20.4454 131.034 20.5418 131.034 20.7347C131.034 22.9529 127.396 24.7853 122.993 24.7853C118.59 24.7853 114.953 22.9529 114.953 20.7347C115.049 20.6382 115.049 20.5418 115.049 20.2525Z" fill="url(#paint31_radial_1_2464)"/>
<path d="M116.391 16.8777C116.391 18.7101 119.262 20.1567 122.804 20.1567C126.345 20.1567 129.217 18.7101 129.217 16.8777C129.217 15.0453 126.345 13.5986 122.804 13.5986C119.262 13.5986 116.391 15.1417 116.391 16.8777Z" fill="url(#paint32_radial_1_2464)"/>
<path d="M119.358 15.2381C119.358 15.2381 118.496 14.6594 117.826 12.827C117.156 10.9946 113.902 10.6088 110.265 8.87287C107.297 7.42623 102.033 3.76141 100.119 2.50766C99.8315 2.31477 99.9273 1.929 100.214 1.83256L107.393 0.0965885C107.585 0.000145808 107.872 0.0965885 108.063 0.193031C109.786 1.44679 118.209 7.812 120.889 11.2839L119.358 15.2381Z" fill="#A7A9AC"/>
<path d="M119.358 15.1414C119.358 15.1414 118.496 14.5628 117.826 12.7303C117.156 10.8979 113.902 10.5122 110.265 8.77619C107.297 7.32955 102.033 3.66473 100.119 2.41098C99.8315 2.21809 99.9273 1.83232 100.214 1.73588L107.393 -9.11914e-05C107.585 -0.0965339 107.872 -9.11877e-05 108.063 0.0963515C109.786 1.35011 118.209 7.71532 120.889 11.1873L119.358 15.1414Z" fill="url(#paint33_linear_1_2464)"/>
<path d="M119.169 11.959L126.73 15.238L126.635 18.3242C126.539 18.6135 126.347 18.9029 126.06 18.9993L124.912 19.4815C124.337 19.7708 123.572 19.578 123.093 19.1922L119.456 15.7202C119.169 15.4309 119.073 15.0452 119.169 14.6594V11.959Z" fill="url(#paint34_linear_1_2464)"/>
<path d="M123.186 16.2022L119.549 12.7303C118.975 12.1516 119.07 11.1872 119.836 10.8014L120.506 10.4157C121.176 10.1263 121.942 10.2228 122.516 10.705L126.345 14.3698C126.823 14.852 126.728 15.6236 126.058 15.9129L124.909 16.3951C124.43 16.7809 123.665 16.6845 123.186 16.2022Z" fill="url(#paint35_linear_1_2464)"/>
<path d="M123.57 18.7096C125.006 22.6637 124.432 26.8108 138.502 32.5973C138.789 32.6938 139.076 32.6938 139.364 32.5009L146.255 28.4503C146.542 28.2574 146.638 27.8717 146.351 27.6788C144.532 25.8464 137.736 19.3847 132.185 17.263C129.6 16.2985 127.59 16.4914 126.442 16.9736C126.633 18.9025 123.857 18.5167 123.57 18.7096Z" fill="white"/>
<path d="M123.57 18.7101C125.006 22.6642 124.432 26.7148 138.502 32.5014C138.789 32.5978 139.076 32.5978 139.364 32.405L146.255 28.3544C146.542 28.1615 146.638 27.7757 146.351 27.4864C144.532 25.654 137.736 19.1923 132.185 17.0706C129.6 16.1061 127.59 16.299 126.442 16.7812C126.633 18.8065 123.857 18.5172 123.57 18.7101Z" fill="url(#paint36_linear_1_2464)"/>
<path d="M135.918 62.3981C126.346 64.3269 119.933 62.9767 111.797 58.9261C111.797 58.251 111.988 57.4795 112.18 56.8044C114.86 58.3475 117.061 59.6012 118.497 60.0835C125.197 62.591 133.812 61.9159 142.618 58.9261C151.424 55.9364 151.902 52.0787 150.849 49.5712C150.371 48.4139 144.149 44.6526 137.736 40.9878C138.406 40.8914 139.076 40.8914 139.65 40.7949C145.489 44.074 151.424 47.5459 153.434 49.3783C158.124 53.5254 151.424 59.2155 135.918 62.3981Z" fill="url(#paint37_linear_1_2464)"/>
<path d="M79.7289 39.5412C83.8447 40.1199 90.832 43.9776 98.0108 48.1246C97.3407 48.6068 96.575 48.9926 95.6178 49.3784C95.0435 48.9926 94.3735 48.6068 93.7992 48.3175C74.4644 36.7444 66.9028 44.2669 66.9028 44.2669L63.6484 42.2416C65.7542 40.5057 70.7315 38.2875 79.7289 39.5412Z" fill="url(#paint38_linear_1_2464)"/>
<path d="M71.2129 26.5218C80.0188 26.7146 91.6005 34.9123 99.2579 37.034C104.809 38.5771 112.945 35.2016 115.434 33.755C117.923 32.3083 115.721 29.0293 112.754 26.9075C109.787 24.7858 101.364 19.4814 101.364 19.4814C106.437 21.989 118.114 28.9328 119.358 32.5976C120.603 36.2625 113.424 38.8664 107.202 39.9273C100.885 40.9882 96.9607 40.6988 83.656 33.4656C72.8401 27.5826 60.5883 32.5012 56.3768 34.6229C55.8025 32.6941 55.7067 30.7652 56.1853 28.8364C58.8654 27.2933 63.8427 26.3289 71.2129 26.5218Z" fill="url(#paint39_linear_1_2464)"/>
<path d="M84.8047 50.2469V52.9473C84.8047 53.1401 84.9004 53.333 84.9961 53.4295L102.129 64.5204C102.417 64.7133 102.704 64.5204 102.704 64.231L102.991 61.5306C102.991 61.3378 102.895 61.0484 102.704 60.952L85.379 49.9575C85.1876 49.7646 84.8047 49.9575 84.8047 50.2469Z" fill="url(#paint40_linear_1_2464)"/>
<path d="M85.379 49.9575L88.1548 51.6935L84.9004 53.333C84.8047 53.2366 84.8047 53.1401 84.8047 53.0437V50.3433C84.8047 49.9575 85.1876 49.7646 85.379 49.9575Z" fill="url(#paint41_linear_1_2464)"/>
<path d="M114.953 43.2058C114.953 44.556 116.963 45.6168 119.356 45.6168C121.845 45.6168 123.759 44.556 123.759 43.2058C123.759 41.8556 121.749 40.7947 119.356 40.7947C116.963 40.6982 114.953 41.8556 114.953 43.2058Z" fill="url(#paint42_linear_1_2464)"/>
<path d="M115.914 43.2062C115.914 44.2671 117.541 45.1351 119.456 45.1351C121.37 45.1351 122.997 44.2671 122.997 43.2062C122.997 42.1453 121.37 41.2773 119.456 41.2773C117.446 41.2773 115.914 42.0489 115.914 43.2062Z" fill="url(#paint43_linear_1_2464)"/>
<path d="M20.7666 46.6777L30.2425 50.3426V54.2003C30.1468 54.586 29.9554 54.8754 29.5725 55.0682L28.1368 55.7433C27.371 56.1291 26.5096 55.9362 25.9353 55.454L21.2452 51.4034C20.8623 51.0177 20.6709 50.5354 20.7666 50.0532V46.6777Z" fill="url(#paint44_linear_1_2464)"/>
<path d="M25.935 51.6928L21.2449 47.6422C20.4791 46.9671 20.5748 45.8098 21.532 45.3275L22.3935 44.8453C23.1592 44.3631 24.2121 44.4596 24.8821 45.1347L29.8594 49.4746C30.5294 50.0532 30.338 51.0177 29.5722 51.4034L28.1365 52.0785C27.3707 52.3679 26.5093 52.175 25.935 51.6928Z" fill="url(#paint45_linear_1_2464)"/>
<path d="M27.9453 53.2361C27.9453 53.2361 33.114 59.6978 45.3658 67.5096C45.7486 67.799 46.3229 67.799 46.7058 67.7025L54.1717 65.195C54.4589 65.0986 54.5546 64.6164 54.2674 64.5199C51.6831 63.0733 42.9728 58.3476 36.4641 55.4543C28.711 51.7895 28.6153 52.7539 27.9453 53.2361Z" fill="white"/>
<path d="M27.9453 53.2361C27.9453 53.2361 33.784 60.0836 45.3658 67.5096C45.7486 67.799 46.3229 67.799 46.7058 67.7025L54.1717 65.195C54.4589 65.0986 54.5546 64.6164 54.2674 64.5199C51.6831 63.0733 42.9728 58.3476 36.4641 55.4543C28.711 51.7895 28.6153 52.7539 27.9453 53.2361Z" fill="url(#paint46_linear_1_2464)"/>
<path d="M186.742 59.3123C186.838 58.4443 187.604 58.2514 187.604 57.287C187.508 56.3226 187.986 55.6475 187.986 55.6475L189.996 56.5154C191.145 56.1297 192.485 55.8403 194.017 55.8403C195.452 55.8403 196.888 56.0332 198.037 56.5154L200.047 55.6475C200.047 55.6475 200.525 56.3226 200.43 57.287C200.43 57.6728 200.525 57.9621 200.717 58.2514C200.812 58.4443 200.908 58.5407 201.004 58.7336C201.1 58.9265 201.195 59.1194 201.291 59.4087C201.291 59.5052 201.291 59.6981 201.291 59.8909C201.291 62.1091 198.037 63.8451 194.017 63.8451C189.996 63.8451 186.742 62.1091 186.742 59.8909C186.742 59.6981 186.742 59.5052 186.742 59.3123Z" fill="url(#paint47_linear_1_2464)"/>
<path opacity="0.35" d="M186.648 59.3118C186.744 58.4438 187.51 58.2509 187.51 57.3829C187.414 56.4185 187.893 55.8398 187.893 55.8398L189.903 56.6114C191.051 56.2256 192.487 56.0327 193.923 56.0327C195.359 56.0327 196.794 56.2256 197.943 56.6114L199.953 55.8398C199.953 55.8398 200.432 56.4185 200.336 57.3829C200.336 57.7687 200.432 58.058 200.623 58.2509C200.719 58.3474 200.815 58.5402 200.91 58.6367C201.006 58.8296 201.102 59.0225 201.197 59.3118C201.197 59.4082 201.197 59.6011 201.197 59.6976C201.197 61.7228 197.943 63.3624 193.923 63.3624C189.903 63.3624 186.648 61.7228 186.648 59.6976C186.648 59.6976 186.648 59.6011 186.648 59.3118Z" fill="url(#paint48_radial_1_2464)"/>
<path d="M187.984 55.9363C187.984 57.7687 190.664 59.2153 194.015 59.2153C197.365 59.2153 200.045 57.7687 200.045 55.9363C200.045 54.1039 197.365 52.6572 194.015 52.6572C190.664 52.7537 187.984 54.2003 187.984 55.9363Z" fill="url(#paint49_radial_1_2464)"/>
<path d="M190.185 53.1394C190.185 53.1394 184.059 53.7181 181.379 51.9821C179.082 50.439 173.722 45.6169 172.19 44.2667C171.999 44.0738 172.095 43.7845 172.286 43.688L177.933 40.6983C178.22 40.6019 178.508 40.6019 178.699 40.6983L186.644 44.1702C186.644 44.1702 191.621 46.0991 191.717 50.3426L190.185 53.1394Z" fill="#939598"/>
<path d="M190.283 53.0437C190.283 53.0437 184.157 53.6224 181.477 51.8864C179.18 50.3433 173.819 45.5212 172.288 44.171C172.097 43.9781 172.192 43.6888 172.384 43.5923L178.031 40.6026C178.318 40.5062 178.605 40.5062 178.797 40.6026L186.741 44.0745C186.741 44.0745 191.718 46.0034 191.814 50.2469L190.283 53.0437Z" fill="url(#paint50_linear_1_2464)"/>
<path d="M189.995 50.7285L198.131 53.9111V57.2866C198.036 57.5759 197.94 57.8653 197.557 58.0582L196.313 58.6368C195.643 58.9261 194.973 58.8297 194.398 58.3475L190.378 54.8756C189.995 54.5862 189.9 54.104 189.995 53.7182V50.7285Z" fill="url(#paint51_linear_1_2464)"/>
<path d="M194.398 54.9726L190.378 51.5007C189.708 50.922 189.803 49.8611 190.569 49.4754L191.335 49.0896C192.005 48.7038 192.866 48.8003 193.441 49.2825L197.748 52.9473C198.322 53.4295 198.131 54.2975 197.557 54.5868L196.312 55.1655C195.738 55.5513 194.972 55.4548 194.398 54.9726Z" fill="url(#paint52_linear_1_2464)"/>
<path d="M196.219 56.4193C196.219 56.4193 201.292 62.3023 211.151 68.6675C211.533 68.8604 211.916 68.9568 212.299 68.8604L218.712 66.7386C218.999 66.6422 218.999 66.2564 218.808 66.16C216.511 64.9062 209.141 60.8556 203.493 58.3481C196.793 55.1655 196.697 56.1299 196.219 56.4193Z" fill="white"/>
<path d="M196.219 56.3228C196.219 56.3228 201.292 62.2058 211.151 68.571C211.533 68.7639 211.916 68.8603 212.299 68.6674L218.712 66.5457C218.999 66.4493 218.999 66.0635 218.808 65.967C216.511 64.7133 209.141 60.6627 203.493 58.1552C196.889 55.069 196.697 55.937 196.219 56.3228Z" fill="url(#paint53_linear_1_2464)"/>
<path d="M120.602 81.398C120.602 81.6873 120.889 81.9766 121.176 81.9766C121.463 81.9766 121.75 81.6873 121.75 81.398C121.75 81.1087 121.463 80.8193 121.176 80.8193C120.889 80.8193 120.602 81.1087 120.602 81.398Z" fill="#575559"/>
<path d="M118.207 80.4333C118.207 80.7226 118.494 81.0119 118.781 81.0119C119.068 81.0119 119.356 80.7226 119.356 80.4333C119.356 80.144 119.068 79.8546 118.781 79.8546C118.398 79.7582 118.207 80.0475 118.207 80.4333Z" fill="#575559"/>
<path d="M115.816 79.5651C115.816 79.8544 116.104 80.1438 116.391 80.1438C116.678 80.1438 116.965 79.8544 116.965 79.5651C116.965 79.2758 116.678 78.9865 116.391 78.9865C116.104 78.89 115.816 79.1793 115.816 79.5651Z" fill="#575559"/>
<path d="M120.41 83.9051C120.41 84.1944 120.697 84.4837 120.985 84.4837C121.272 84.4837 121.559 84.1944 121.559 83.9051C121.559 83.6157 121.272 83.3264 120.985 83.3264C120.602 83.3264 120.41 83.5193 120.41 83.9051Z" fill="#575559"/>
<path d="M117.922 82.8443C117.922 83.1336 118.209 83.4229 118.496 83.4229C118.783 83.4229 119.07 83.1336 119.07 82.8443C119.07 82.555 118.783 82.2656 118.496 82.2656C118.209 82.2656 117.922 82.555 117.922 82.8443Z" fill="#575559"/>
<path d="M115.625 81.9761C115.625 82.2654 115.912 82.5548 116.199 82.5548C116.486 82.5548 116.774 82.2654 116.774 81.9761C116.774 81.6868 116.486 81.3975 116.199 81.3975C115.912 81.3975 115.625 81.6868 115.625 81.9761Z" fill="#575559"/>
<path d="M95.8091 97.0217C95.9048 97.6968 96.4791 98.179 97.1491 98.0825C97.8191 97.9861 98.2977 97.4074 98.202 96.7323C98.1063 96.0572 97.532 95.575 96.862 95.6715C96.1919 95.7679 95.7134 96.3466 95.8091 97.0217Z" fill="url(#paint54_radial_1_2464)"/>
<path d="M96 96.9252C96.0957 97.5039 96.4786 97.8897 97.0529 97.7932C97.6272 97.6968 98.0101 97.311 97.9143 96.7324C97.8186 96.1537 97.4357 95.7679 96.8614 95.8644C96.3829 95.9608 96 96.443 96 96.9252Z" fill="#08D7FC"/>
<path d="M92.27 93.8391C92.3657 94.5141 92.94 94.9964 93.61 94.8999C94.2801 94.8035 94.7586 94.2248 94.6629 93.5497C94.5672 92.8746 93.9929 92.3924 93.3229 92.4889C92.6529 92.5853 92.1743 93.164 92.27 93.8391Z" fill="url(#paint55_radial_1_2464)"/>
<path d="M92.4609 93.8393C92.5567 94.418 92.9395 94.8037 93.5138 94.7073C94.0881 94.6109 94.471 94.2251 94.3753 93.6464C94.2796 93.0678 93.8967 92.682 93.3224 92.7784C92.8438 92.7784 92.4609 93.2607 92.4609 93.8393Z" fill="#08D7FC"/>
<path d="M26.0356 49.8605C26.1314 50.5356 26.7057 51.0178 27.3757 50.9214C28.0457 50.825 28.5243 50.2463 28.4286 49.5712C28.3328 48.8961 27.7585 48.4139 27.0885 48.5103C26.4185 48.6068 25.9399 49.1854 26.0356 49.8605Z" fill="url(#paint56_radial_1_2464)"/>
<path d="M26.3233 49.8604C26.419 50.4391 26.8976 50.7284 27.3761 50.7284C27.9504 50.632 28.2376 50.1498 28.2376 49.6675C28.1419 49.0889 27.6633 48.7996 27.1847 48.7996C26.6104 48.7996 26.2275 49.2818 26.3233 49.8604Z" fill="#08D7FC"/>
<path d="M22.3945 46.7746C22.4902 47.4497 23.0645 47.9319 23.7346 47.8355C24.4046 47.739 24.8832 47.1604 24.7875 46.4853C24.6917 45.8102 24.1174 45.328 23.4474 45.4244C22.7774 45.5208 22.3945 46.1959 22.3945 46.7746Z" fill="url(#paint57_radial_1_2464)"/>
<path d="M22.6826 46.7745C22.7783 47.3531 23.2569 47.6425 23.7355 47.6425C24.3098 47.546 24.597 47.0638 24.597 46.5816C24.5012 46.0029 24.0227 45.7136 23.5441 45.7136C22.9698 45.8101 22.5869 46.2923 22.6826 46.7745Z" fill="#08D7FC"/>
<path d="M123.476 14.7561C123.571 15.3347 124.05 15.7205 124.624 15.6241C125.198 15.5276 125.581 15.0454 125.486 14.4667C125.39 13.8881 124.911 13.5023 124.337 13.5988C123.763 13.6952 123.38 14.1774 123.476 14.7561Z" fill="url(#paint58_radial_1_2464)"/>
<path d="M123.667 14.6599C123.762 15.1421 124.145 15.4314 124.528 15.335C125.007 15.2386 125.294 14.8528 125.198 14.467C125.103 13.9848 124.72 13.6955 124.337 13.7919C123.858 13.8884 123.571 14.2741 123.667 14.6599Z" fill="#08D7FC"/>
<path d="M120.413 12.1516C120.509 12.7302 120.987 13.116 121.562 13.0196C122.136 12.9231 122.519 12.4409 122.423 11.8622C122.327 11.2836 121.849 10.8978 121.275 10.9943C120.7 11.0907 120.317 11.6694 120.413 12.1516Z" fill="url(#paint59_radial_1_2464)"/>
<path d="M120.605 12.1511C120.7 12.6333 121.083 12.9227 121.466 12.8262C121.945 12.7298 122.232 12.344 122.136 11.9582C122.04 11.476 121.658 11.1867 121.275 11.2831C120.892 11.2831 120.509 11.6689 120.605 12.1511Z" fill="#08D7FC"/>
<path d="M194.687 53.5256C194.782 54.1043 195.261 54.49 195.835 54.3936C196.409 54.2971 196.792 53.8149 196.697 53.2363C196.601 52.6576 196.122 52.2718 195.548 52.3683C194.974 52.4647 194.591 53.0434 194.687 53.5256Z" fill="url(#paint60_radial_1_2464)"/>
<path d="M194.878 53.5251C194.973 54.0073 195.356 54.2967 195.739 54.2002C196.218 54.1038 196.505 53.718 196.409 53.3322C196.313 52.85 195.931 52.5607 195.548 52.6572C195.069 52.6572 194.782 53.0429 194.878 53.5251Z" fill="#08D7FC"/>
<path d="M191.625 51.0178C191.721 51.5964 192.199 51.9822 192.774 51.8858C193.348 51.7893 193.731 51.3071 193.635 50.7285C193.539 50.1498 193.061 49.764 192.486 49.8605C192.008 49.9569 191.625 50.4391 191.625 51.0178Z" fill="url(#paint61_radial_1_2464)"/>
<path d="M191.816 51.0173C191.912 51.4995 192.295 51.7889 192.678 51.6924C193.156 51.596 193.444 51.2102 193.348 50.8244C193.252 50.3422 192.869 50.0529 192.486 50.1493C192.104 50.1493 191.816 50.5351 191.816 51.0173Z" fill="#08D7FC"/>
<defs>
<linearGradient id="paint0_linear_1_2464" x1="202.226" y1="71.5662" x2="163.635" y2="71.5662" gradientUnits="userSpaceOnUse">
<stop stop-color="#D1D3D4"/>
<stop offset="0.4639" stop-color="#CECECA"/>
<stop offset="1" stop-color="#AAACAE"/>
</linearGradient>
<linearGradient id="paint1_linear_1_2464" x1="202.121" y1="64.963" x2="165.267" y2="83.9238" gradientUnits="userSpaceOnUse">
<stop stop-color="#AAACAE"/>
<stop offset="0.1746" stop-color="#C9CAC7"/>
<stop offset="0.336" stop-color="#E0DFD9"/>
<stop offset="0.4389" stop-color="#E8E7DF"/>
<stop offset="1" stop-color="#D1D3D4"/>
</linearGradient>
<linearGradient id="paint2_linear_1_2464" x1="129.984" y1="24.9478" x2="105.914" y2="24.9478" gradientUnits="userSpaceOnUse">
<stop stop-color="#D1D3D4"/>
<stop offset="0.4639" stop-color="#CECECA"/>
<stop offset="1" stop-color="#AAACAE"/>
</linearGradient>
<linearGradient id="paint3_linear_1_2464" x1="129.983" y1="27.0076" x2="112.693" y2="27.0076" gradientUnits="userSpaceOnUse">
<stop stop-color="#D7DADF"/>
<stop offset="0.1586" stop-color="white"/>
<stop offset="0.5637" stop-color="#B1B7C2"/>
<stop offset="1" stop-color="#717481"/>
</linearGradient>
<linearGradient id="paint4_linear_1_2464" x1="168.83" y1="67.594" x2="16.4572" y2="67.594" gradientUnits="userSpaceOnUse">
<stop stop-color="#717481"/>
<stop offset="0.4363" stop-color="#B1B7C2"/>
<stop offset="1" stop-color="white"/>
</linearGradient>
<radialGradient id="paint5_radial_1_2464" cx="0" cy="0" r="1" gradientUnits="userSpaceOnUse" gradientTransform="translate(60.4403 47.1646) rotate(180) scale(3.00206 17.6789)">
<stop stop-color="#575559"/>
<stop offset="1" stop-color="#575559" stop-opacity="0"/>
</radialGradient>
<radialGradient id="paint6_radial_1_2464" cx="0" cy="0" r="1" gradientUnits="userSpaceOnUse" gradientTransform="translate(141.192 88.2308) rotate(180) scale(9.87539 30.6369)">
<stop stop-color="white"/>
<stop offset="1" stop-color="white" stop-opacity="0"/>
</radialGradient>
<linearGradient id="paint7_linear_1_2464" x1="11.6632" y1="60.775" x2="26.3243" y2="60.775" gradientUnits="userSpaceOnUse">
<stop stop-color="#575559"/>
<stop offset="1" stop-color="#575559" stop-opacity="0"/>
</linearGradient>
<linearGradient id="paint8_linear_1_2464" x1="105.561" y1="110.416" x2="84.2577" y2="110.416" gradientUnits="userSpaceOnUse">
<stop stop-color="#A7A9AC"/>
<stop offset="0.1863" stop-color="#B1B2B4"/>
<stop offset="0.6784" stop-color="#C6C7C4"/>
<stop offset="1" stop-color="#CECECA"/>
</linearGradient>
<linearGradient id="paint9_linear_1_2464" x1="97.9479" y1="111.753" x2="83.0286" y2="109.394" gradientUnits="userSpaceOnUse">
<stop stop-color="#575559" stop-opacity="0"/>
<stop offset="1" stop-color="#575559"/>
</linearGradient>
<linearGradient id="paint10_linear_1_2464" x1="104.305" y1="112.194" x2="96.3749" y2="112.194" gradientUnits="userSpaceOnUse">
<stop stop-color="#575559"/>
<stop offset="1" stop-color="#252424"/>
</linearGradient>
<linearGradient id="paint11_linear_1_2464" x1="55.7578" y1="47.9437" x2="172.129" y2="47.9437" gradientUnits="userSpaceOnUse">
<stop stop-color="#EA533D"/>
<stop offset="1" stop-color="#EBA435"/>
</linearGradient>
<linearGradient id="paint12_linear_1_2464" x1="55.7578" y1="46.2074" x2="172.129" y2="46.2074" gradientUnits="userSpaceOnUse">
<stop stop-color="#EA533D"/>
<stop offset="1" stop-color="#EBA435"/>
</linearGradient>
<linearGradient id="paint13_linear_1_2464" x1="58.7454" y1="49.2786" x2="28.9338" y2="49.2786" gradientUnits="userSpaceOnUse">
<stop stop-color="#D1D3D4"/>
<stop offset="0.4639" stop-color="#CECECA"/>
<stop offset="1" stop-color="#AAACAE"/>
</linearGradient>
<linearGradient id="paint14_linear_1_2464" x1="33.9049" y1="57.1302" x2="16.9313" y2="57.1302" gradientUnits="userSpaceOnUse">
<stop stop-color="#575559"/>
<stop offset="1" stop-color="#252424"/>
</linearGradient>
<radialGradient id="paint15_radial_1_2464" cx="0" cy="0" r="1" gradientUnits="userSpaceOnUse" gradientTransform="translate(25.2798 54.1151) rotate(-175.911) scale(8.49975 4.45047)">
<stop stop-color="white"/>
<stop offset="1" stop-color="white" stop-opacity="0"/>
</radialGradient>
<radialGradient id="paint16_radial_1_2464" cx="0" cy="0" r="1" gradientUnits="userSpaceOnUse" gradientTransform="translate(25.4227 52.8152) rotate(180) scale(5.65983 5.70275)">
<stop stop-color="#58595B"/>
<stop offset="1" stop-color="#252424"/>
</radialGradient>
<linearGradient id="paint17_linear_1_2464" x1="22.9363" y1="42.1286" x2="-0.00136083" y2="42.1286" gradientUnits="userSpaceOnUse">
<stop stop-color="#F1F2F2"/>
<stop offset="1" stop-color="#A7A9AC"/>
</linearGradient>
<linearGradient id="paint18_linear_1_2464" x1="138.903" y1="101.753" x2="102.775" y2="101.753" gradientUnits="userSpaceOnUse">
<stop stop-color="#D1D3D4"/>
<stop offset="0.2766" stop-color="#AEB0B2"/>
<stop offset="0.3247" stop-color="#A7A9AC"/>
<stop offset="0.6649" stop-color="#CECECA"/>
<stop offset="1" stop-color="#AAACAE"/>
</linearGradient>
<linearGradient id="paint19_linear_1_2464" x1="136.054" y1="97.1628" x2="102.504" y2="97.1628" gradientUnits="userSpaceOnUse">
<stop stop-color="#D1D3D4"/>
<stop offset="0.2766" stop-color="#AEB0B2"/>
<stop offset="0.3247" stop-color="#A7A9AC"/>
<stop offset="0.6649" stop-color="#CECECA"/>
<stop offset="1" stop-color="#AAACAE"/>
</linearGradient>
<linearGradient id="paint20_linear_1_2464" x1="104.488" y1="104.11" x2="85.5551" y2="104.11" gradientUnits="userSpaceOnUse">
<stop stop-color="#575559"/>
<stop offset="1" stop-color="#252424"/>
</linearGradient>
<radialGradient id="paint21_radial_1_2464" cx="0" cy="0" r="1" gradientUnits="userSpaceOnUse" gradientTransform="translate(94.594 100.874) rotate(-175.911) scale(9.20043 4.81735)">
<stop stop-color="white"/>
<stop offset="1" stop-color="white" stop-opacity="0"/>
</radialGradient>
<radialGradient id="paint22_radial_1_2464" cx="0" cy="0" r="1" gradientUnits="userSpaceOnUse" gradientTransform="translate(96.8553 99.1397) rotate(180) scale(6.23231 3.44309)">
<stop stop-color="#58595B"/>
<stop offset="1" stop-color="#252424"/>
</radialGradient>
<linearGradient id="paint23_linear_1_2464" x1="91.8071" y1="100.947" x2="93.2456" y2="100.015" gradientUnits="userSpaceOnUse">
<stop stop-color="#231F20"/>
<stop offset="1" stop-color="#252424"/>
</linearGradient>
<linearGradient id="paint24_linear_1_2464" x1="162.274" y1="88.3972" x2="150.098" y2="88.3972" gradientUnits="userSpaceOnUse">
<stop stop-color="#D1D3D4"/>
<stop offset="0.8516" stop-color="#AEB0B2"/>
<stop offset="1" stop-color="#A7A9AC"/>
</linearGradient>
<linearGradient id="paint25_linear_1_2464" x1="63.457" y1="48.0619" x2="157.431" y2="48.0619" gradientUnits="userSpaceOnUse">
<stop stop-color="#EA533D"/>
<stop offset="1" stop-color="#EBA435"/>
</linearGradient>
<linearGradient id="paint26_linear_1_2464" x1="92.6521" y1="87.3279" x2="67.124" y2="87.3279" gradientUnits="userSpaceOnUse">
<stop stop-color="#F1F2F2"/>
<stop offset="1" stop-color="#A7A9AC"/>
</linearGradient>
<linearGradient id="paint27_linear_1_2464" x1="91.5589" y1="100.059" x2="95.8488" y2="97.2785" gradientUnits="userSpaceOnUse">
<stop stop-color="#575559"/>
<stop offset="0.45" stop-color="#79787C"/>
<stop offset="1" stop-color="#A7A9AC"/>
</linearGradient>
<linearGradient id="paint28_linear_1_2464" x1="99.1181" y1="94.3208" x2="90.0913" y2="96.5461" gradientUnits="userSpaceOnUse">
<stop stop-color="#E6E7E8"/>
<stop offset="0.5846" stop-color="#C3C4C6"/>
<stop offset="1" stop-color="#A7A9AC"/>
</linearGradient>
<linearGradient id="paint29_linear_1_2464" x1="122.387" y1="111.084" x2="95.3918" y2="111.084" gradientUnits="userSpaceOnUse">
<stop stop-color="#F1F2F2"/>
<stop offset="1" stop-color="#A7A9AC"/>
</linearGradient>
<linearGradient id="paint30_linear_1_2464" x1="130.428" y1="20.5756" x2="115.11" y2="20.5756" gradientUnits="userSpaceOnUse">
<stop stop-color="#575559"/>
<stop offset="1" stop-color="#252424"/>
</linearGradient>
<radialGradient id="paint31_radial_1_2464" cx="0" cy="0" r="1" gradientUnits="userSpaceOnUse" gradientTransform="translate(122.715 17.9115) rotate(-175.911) scale(7.80099 4.0846)">
<stop stop-color="white"/>
<stop offset="1" stop-color="white" stop-opacity="0"/>
</radialGradient>
<radialGradient id="paint32_radial_1_2464" cx="0" cy="0" r="1" gradientUnits="userSpaceOnUse" gradientTransform="translate(124.256 16.5587) rotate(180) scale(5.04265 2.78585)">
<stop stop-color="#58595B"/>
<stop offset="1" stop-color="#252424"/>
</radialGradient>
<linearGradient id="paint33_linear_1_2464" x1="120.85" y1="7.34035" x2="100.204" y2="7.93684" gradientUnits="userSpaceOnUse">
<stop stop-color="#F1F2F2"/>
<stop offset="1" stop-color="#A7A9AC"/>
</linearGradient>
<linearGradient id="paint34_linear_1_2464" x1="119.973" y1="17.3014" x2="123.445" y2="15.0512" gradientUnits="userSpaceOnUse">
<stop stop-color="#575559"/>
<stop offset="0.45" stop-color="#79787C"/>
<stop offset="1" stop-color="#A7A9AC"/>
</linearGradient>
<linearGradient id="paint35_linear_1_2464" x1="126.084" y1="12.6578" x2="118.781" y2="14.4582" gradientUnits="userSpaceOnUse">
<stop stop-color="#E6E7E8"/>
<stop offset="0.5846" stop-color="#C3C4C6"/>
<stop offset="1" stop-color="#A7A9AC"/>
</linearGradient>
<linearGradient id="paint36_linear_1_2464" x1="146.076" y1="23.1648" x2="124.366" y2="25.5672" gradientUnits="userSpaceOnUse">
<stop stop-color="#F1F2F2"/>
<stop offset="1" stop-color="#A7A9AC"/>
</linearGradient>
<linearGradient id="paint37_linear_1_2464" x1="111.797" y1="52.0297" x2="156.098" y2="52.0297" gradientUnits="userSpaceOnUse">
<stop stop-color="#EA533D"/>
<stop offset="1" stop-color="#EBA435"/>
</linearGradient>
<linearGradient id="paint38_linear_1_2464" x1="63.6484" y1="44.2761" x2="98.961" y2="44.2761" gradientUnits="userSpaceOnUse">
<stop stop-color="#EA533D"/>
<stop offset="1" stop-color="#EBA435"/>
</linearGradient>
<linearGradient id="paint39_linear_1_2464" x1="55.8789" y1="29.9321" x2="121.26" y2="29.9321" gradientUnits="userSpaceOnUse">
<stop stop-color="#EA533D"/>
<stop offset="1" stop-color="#EBA435"/>
</linearGradient>
<linearGradient id="paint40_linear_1_2464" x1="84.8047" y1="57.239" x2="103.494" y2="57.239" gradientUnits="userSpaceOnUse">
<stop stop-color="#EA533D"/>
<stop offset="1" stop-color="#EBA435"/>
</linearGradient>
<linearGradient id="paint41_linear_1_2464" x1="84.8047" y1="51.6074" x2="88.2474" y2="51.6074" gradientUnits="userSpaceOnUse">
<stop stop-color="#EA533D"/>
<stop offset="1" stop-color="#EBA435"/>
</linearGradient>
<linearGradient id="paint42_linear_1_2464" x1="114.953" y1="43.2029" x2="124.003" y2="43.2029" gradientUnits="userSpaceOnUse">
<stop stop-color="#EA533D"/>
<stop offset="1" stop-color="#EBA435"/>
</linearGradient>
<linearGradient id="paint43_linear_1_2464" x1="115.914" y1="43.2062" x2="123.193" y2="43.2062" gradientUnits="userSpaceOnUse">
<stop stop-color="#EA533D"/>
<stop offset="1" stop-color="#EBA435"/>
</linearGradient>
<linearGradient id="paint44_linear_1_2464" x1="30.2008" y1="51.3713" x2="20.7362" y2="51.3713" gradientUnits="userSpaceOnUse">
<stop stop-color="#575559"/>
<stop offset="0.45" stop-color="#79787C"/>
<stop offset="1" stop-color="#A7A9AC"/>
</linearGradient>
<linearGradient id="paint45_linear_1_2464" x1="30.2" y1="48.3479" x2="20.7364" y2="48.3479" gradientUnits="userSpaceOnUse">
<stop stop-color="#E6E7E8"/>
<stop offset="0.5846" stop-color="#C3C4C6"/>
<stop offset="1" stop-color="#A7A9AC"/>
</linearGradient>
<linearGradient id="paint46_linear_1_2464" x1="54.5049" y1="60.2011" x2="27.9898" y2="60.2011" gradientUnits="userSpaceOnUse">
<stop stop-color="#F1F2F2"/>
<stop offset="1" stop-color="#A7A9AC"/>
</linearGradient>
<linearGradient id="paint47_linear_1_2464" x1="201.291" y1="59.6844" x2="186.716" y2="59.6844" gradientUnits="userSpaceOnUse">
<stop stop-color="#575559"/>
<stop offset="1" stop-color="#252424"/>
</linearGradient>
<radialGradient id="paint48_radial_1_2464" cx="0" cy="0" r="1" gradientUnits="userSpaceOnUse" gradientTransform="translate(193.645 57.1826) rotate(-175.911) scale(7.11256 3.72414)">
<stop stop-color="white"/>
<stop offset="1" stop-color="white" stop-opacity="0"/>
</radialGradient>
<radialGradient id="paint49_radial_1_2464" cx="0" cy="0" r="1" gradientUnits="userSpaceOnUse" gradientTransform="translate(194.008 55.9792) rotate(180) scale(4.86012 4.89698)">
<stop stop-color="#58595B"/>
<stop offset="1" stop-color="#252424"/>
</radialGradient>
<linearGradient id="paint50_linear_1_2464" x1="191.871" y1="46.8045" x2="172.176" y2="46.8045" gradientUnits="userSpaceOnUse">
<stop stop-color="#F1F2F2"/>
<stop offset="1" stop-color="#A7A9AC"/>
</linearGradient>
<linearGradient id="paint51_linear_1_2464" x1="198.112" y1="54.7405" x2="189.985" y2="54.7405" gradientUnits="userSpaceOnUse">
<stop stop-color="#575559"/>
<stop offset="0.45" stop-color="#79787C"/>
<stop offset="1" stop-color="#A7A9AC"/>
</linearGradient>
<linearGradient id="paint52_linear_1_2464" x1="198.111" y1="52.144" x2="189.985" y2="52.144" gradientUnits="userSpaceOnUse">
<stop stop-color="#E6E7E8"/>
<stop offset="0.5846" stop-color="#C3C4C6"/>
<stop offset="1" stop-color="#A7A9AC"/>
</linearGradient>
<linearGradient id="paint53_linear_1_2464" x1="218.983" y1="62.3223" x2="196.215" y2="62.3223" gradientUnits="userSpaceOnUse">
<stop stop-color="#F1F2F2"/>
<stop offset="1" stop-color="#A7A9AC"/>
</linearGradient>
<radialGradient id="paint54_radial_1_2464" cx="0" cy="0" r="1" gradientUnits="userSpaceOnUse" gradientTransform="translate(97.3814 96.6234) rotate(174.322) scale(1.93809 1.9525)">
<stop stop-color="#717481"/>
<stop offset="1" stop-color="#ACABAB"/>
</radialGradient>
<radialGradient id="paint55_radial_1_2464" cx="0" cy="0" r="1" gradientUnits="userSpaceOnUse" gradientTransform="translate(93.8542 93.458) rotate(174.322) scale(1.93761 1.95202)">
<stop stop-color="#717481"/>
<stop offset="1" stop-color="#ACABAB"/>
</radialGradient>
<radialGradient id="paint56_radial_1_2464" cx="0" cy="0" r="1" gradientUnits="userSpaceOnUse" gradientTransform="translate(27.6187 49.4548) rotate(172.626) scale(1.93774 1.95195)">
<stop stop-color="#717481"/>
<stop offset="1" stop-color="#ACABAB"/>
</radialGradient>
<radialGradient id="paint57_radial_1_2464" cx="0" cy="0" r="1" gradientUnits="userSpaceOnUse" gradientTransform="translate(23.9937 46.3954) rotate(172.626) scale(1.9386 1.95282)">
<stop stop-color="#717481"/>
<stop offset="1" stop-color="#ACABAB"/>
</radialGradient>
<radialGradient id="paint58_radial_1_2464" cx="0" cy="0" r="1" gradientUnits="userSpaceOnUse" gradientTransform="translate(124.73 14.3661) rotate(172.626) scale(1.60966 1.62147)">
<stop stop-color="#717481"/>
<stop offset="1" stop-color="#ACABAB"/>
</radialGradient>
<radialGradient id="paint59_radial_1_2464" cx="0" cy="0" r="1" gradientUnits="userSpaceOnUse" gradientTransform="translate(121.723 11.8239) rotate(172.626) scale(1.60956 1.62137)">
<stop stop-color="#717481"/>
<stop offset="1" stop-color="#ACABAB"/>
</radialGradient>
<radialGradient id="paint60_radial_1_2464" cx="0" cy="0" r="1" gradientUnits="userSpaceOnUse" gradientTransform="translate(195.967 53.1934) rotate(172.626) scale(1.60976 1.62156)">
<stop stop-color="#717481"/>
<stop offset="1" stop-color="#ACABAB"/>
</radialGradient>
<radialGradient id="paint61_radial_1_2464" cx="0" cy="0" r="1" gradientUnits="userSpaceOnUse" gradientTransform="translate(192.96 50.6518) rotate(172.626) scale(1.60957 1.62137)">
<stop stop-color="#717481"/>
<stop offset="1" stop-color="#ACABAB"/>
</radialGradient>
</defs>
</svg>
