<svg width="184" height="57" viewBox="0 0 184 57" fill="none" xmlns="http://www.w3.org/2000/svg">
<g clip-path="url(#clip0_1_2725)">
<path d="M1.02066 0.569336H169.267L183.946 15.1574V56.5693H16.5826L0.946045 41.0255L1.02066 0.569336Z" fill="url(#paint0_linear_1_2725)"/>
<path d="M183.947 6.70717V0.569336H177.321L183.947 6.70717Z" fill="url(#paint1_linear_1_2725)"/>
<path d="M33.874 34.5693V23.0493H44.386V24.3453H35.17V28.1533H42.578V29.4653H35.17V34.5693H33.874ZM55.2107 34.5693L51.4507 30.0893H53.1467L56.9227 34.5533V34.5693H55.2107ZM45.4827 34.5693V23.0653H55.0827C55.4347 23.0653 55.7547 23.156 56.0427 23.3373C56.3413 23.508 56.576 23.7373 56.7467 24.0253C56.9173 24.3133 57.0027 24.6333 57.0027 24.9853V28.3613C57.0027 28.7133 56.9173 29.0333 56.7467 29.3213C56.576 29.6093 56.3413 29.844 56.0427 30.0253C55.7547 30.196 55.4347 30.2813 55.0827 30.2813H46.7787V34.5693H45.4827ZM47.4027 28.9693H55.0827C55.2533 28.9693 55.3973 28.9107 55.5147 28.7933C55.6427 28.676 55.7067 28.532 55.7067 28.3613V24.9853C55.7067 24.8147 55.6427 24.6707 55.5147 24.5533C55.3973 24.4253 55.2533 24.3613 55.0827 24.3613H47.4027C47.232 24.3613 47.0827 24.4253 46.9547 24.5533C46.8373 24.6707 46.7787 24.8147 46.7787 24.9853V28.3613C46.7787 28.532 46.8373 28.676 46.9547 28.7933C47.0827 28.9107 47.232 28.9693 47.4027 28.9693ZM58.7178 34.5693V23.0493H69.2298V24.3453H60.0138V28.1533H67.4218V29.4653H60.0138V33.2733H69.2298V34.5693H58.7178ZM70.9678 34.5693V23.0493H81.4798V24.3453H72.2638V28.1533H79.6718V29.4653H72.2638V33.2733H81.4798V34.5693H70.9678ZM96.9852 34.5693V33.9933L99.0332 32.6013V33.2733H100.537V34.5693H96.9852ZM89.4332 34.5693C89.0812 34.5693 88.7558 34.484 88.4572 34.3133C88.1692 34.1427 87.9398 33.9133 87.7692 33.6253C87.5985 33.3267 87.5132 33.0013 87.5132 32.6493V24.9693C87.5132 24.6173 87.5985 24.2973 87.7692 24.0093C87.9398 23.7107 88.1692 23.476 88.4572 23.3053C88.7558 23.1347 89.0812 23.0493 89.4332 23.0493H97.1132C97.4652 23.0493 97.7852 23.1347 98.0732 23.3053C98.3718 23.476 98.6065 23.7107 98.7772 24.0093C98.9478 24.2973 99.0332 24.6173 99.0332 24.9693V32.6493C99.0332 33.0013 98.9478 33.3267 98.7772 33.6253C98.6065 33.9133 98.3718 34.1427 98.0732 34.3133C97.7852 34.484 97.4652 34.5693 97.1132 34.5693H89.4332ZM89.4332 33.2733H97.1132C97.2838 33.2733 97.4278 33.2147 97.5452 33.0973C97.6732 32.9693 97.7372 32.82 97.7372 32.6493V24.9693C97.7372 24.7987 97.6732 24.6547 97.5452 24.5373C97.4278 24.4093 97.2838 24.3453 97.1132 24.3453H89.4332C89.2625 24.3453 89.1132 24.4093 88.9852 24.5373C88.8678 24.6547 88.8092 24.7987 88.8092 24.9693V32.6493C88.8092 32.82 88.8678 32.9693 88.9852 33.0973C89.1132 33.2147 89.2625 33.2733 89.4332 33.2733ZM103.574 34.5693C103.222 34.5693 102.896 34.484 102.598 34.3133C102.31 34.1427 102.08 33.9133 101.91 33.6253C101.739 33.3267 101.654 33.0013 101.654 32.6493V23.0493H102.95V32.6493C102.95 32.82 103.008 32.9693 103.126 33.0973C103.254 33.2147 103.403 33.2733 103.574 33.2733H111.254C111.424 33.2733 111.568 33.2147 111.686 33.0973C111.814 32.9693 111.878 32.82 111.878 32.6493V23.0493H113.174V32.6493C113.174 33.0013 113.088 33.3267 112.918 33.6253C112.747 33.9133 112.512 34.1427 112.214 34.3133C111.926 34.484 111.606 34.5693 111.254 34.5693H103.574ZM116.824 34.5693C116.472 34.5693 116.146 34.484 115.848 34.3133C115.56 34.1427 115.33 33.9133 115.16 33.6253C114.989 33.3267 114.904 33.0013 114.904 32.6493V24.9693C114.904 24.6173 114.989 24.2973 115.16 24.0093C115.33 23.7107 115.56 23.476 115.848 23.3053C116.146 23.1347 116.472 23.0493 116.824 23.0493H124.504C124.856 23.0493 125.176 23.1347 125.464 23.3053C125.762 23.476 125.997 23.7107 126.168 24.0093C126.338 24.2973 126.424 24.6173 126.424 24.9693V32.6493C126.424 33.0013 126.338 33.3267 126.168 33.6253C125.997 33.9133 125.762 34.1427 125.464 34.3133C125.176 34.484 124.856 34.5693 124.504 34.5693H116.824ZM116.824 33.2733H124.504C124.674 33.2733 124.818 33.2147 124.936 33.0973C125.064 32.9693 125.128 32.82 125.128 32.6493V24.9693C125.128 24.7987 125.064 24.6547 124.936 24.5373C124.818 24.4093 124.674 24.3453 124.504 24.3453H116.824C116.653 24.3453 116.504 24.4093 116.376 24.5373C116.258 24.6547 116.2 24.7987 116.2 24.9693V32.6493C116.2 32.82 116.258 32.9693 116.376 33.0973C116.504 33.2147 116.653 33.2733 116.824 33.2733ZM132.73 34.5693V24.3453H127.61V23.0493H139.13V24.3453H134.026V34.5693H132.73ZM140.358 34.5693V23.0493H150.87V24.3453H141.654V28.1533H149.062V29.4653H141.654V33.2733H150.87V34.5693H140.358Z" fill="white"/>
</g>
<defs>
<linearGradient id="paint0_linear_1_2725" x1="0.946045" y1="28.5694" x2="189.006" y2="28.5694" gradientUnits="userSpaceOnUse">
<stop stop-color="#EA533D"/>
<stop offset="1" stop-color="#EBA435"/>
</linearGradient>
<linearGradient id="paint1_linear_1_2725" x1="177.321" y1="3.63825" x2="184.13" y2="3.63825" gradientUnits="userSpaceOnUse">
<stop stop-color="#EA533D"/>
<stop offset="1" stop-color="#EBA435"/>
</linearGradient>
<clipPath id="clip0_1_2725">
<rect width="183.273" height="56" fill="white" transform="translate(0.672607 0.569336)"/>
</clipPath>
</defs>
</svg>
