<svg width="35" height="35" viewBox="0 0 35 35" fill="none" xmlns="http://www.w3.org/2000/svg">
<rect x="0.945312" y="0.569336" width="34" height="34" rx="4" fill="#11181E"/>
<path d="M13.1781 10.2575C13.1781 11.4869 12.1836 12.4835 10.9567 12.4835C9.7299 12.4835 8.73535 11.4869 8.73535 10.2575C8.73535 9.0281 9.7299 8.03149 10.9567 8.03149C12.1836 8.03149 13.1781 9.0281 13.1781 10.2575Z" fill="white"/>
<path d="M9.03913 14.1196H12.8364V26.4482H9.03913V14.1196Z" fill="white"/>
<path d="M18.95 14.1196H15.1527V26.4482H18.95C18.95 26.4482 18.95 22.567 18.95 20.1403C18.95 18.6837 19.4141 17.2208 21.2663 17.2208C23.3594 17.2208 23.3468 19.1269 23.3371 20.6036C23.3243 22.5339 23.3548 24.5037 23.3548 26.4482H27.152V19.9414C27.1199 15.7867 26.1094 13.8723 22.7852 13.8723C20.811 13.8723 19.5873 14.8326 18.95 15.7014V14.1196Z" fill="white"/>
</svg>
