<svg width="134" height="33" viewBox="0 0 134 33" fill="none" xmlns="http://www.w3.org/2000/svg">
<path d="M2.58594 16.7314C2.0293 16.4482 1.63379 16.0186 1.39941 15.4424C1.09668 14.5342 1.27734 13.4746 1.94141 12.2637C2.61523 11.0527 3.56738 9.82227 4.79785 8.57227C6.02832 7.32227 7.3418 6.19434 8.73828 5.18848C10.1445 4.17285 11.4336 3.4209 12.6055 2.93262C13.7773 2.43457 14.6416 2.33203 15.1982 2.625C15.6279 2.92773 15.7891 3.38672 15.6816 4.00195C15.584 4.61719 15.374 5.23242 15.0518 5.84766C14.7393 6.46289 14.4854 6.92676 14.29 7.23926L8.92871 15.9697C8.71387 16.3311 8.52344 16.6484 8.35742 16.9219C7.38086 18.4648 7.56641 18.3477 8.91406 16.5703C8.99219 16.4727 9.07031 16.375 9.14844 16.2773C9.61719 15.6621 10.3838 14.6953 11.4482 13.377C12.5225 12.0586 13.6992 10.6865 14.9785 9.26074C16.2676 7.8252 17.4639 6.63867 18.5674 5.70117C19.6807 4.75391 20.5059 4.35352 21.043 4.5C21.4922 4.70508 21.6973 5.17383 21.6582 5.90625C21.6289 6.62891 21.4629 7.47852 21.1602 8.45508C20.8672 9.43164 20.5498 10.3887 20.208 11.3262C19.8955 12.2051 19.6514 12.9473 19.4756 13.5527C19.3096 14.1484 19.2998 14.4902 19.4463 14.5781C19.8271 14.6562 20.6279 14.2559 21.8486 13.377C23.0693 12.4883 24.4219 11.4189 25.9062 10.1689C27.4004 8.91895 28.7432 7.77637 29.9346 6.74121C31.0088 5.81348 31.7363 5.19824 32.1172 4.89551C32.1465 4.86621 32.1855 4.83691 32.2344 4.80762C32.4492 4.63184 32.7422 4.41699 33.1133 4.16309C33.4941 3.89941 33.8701 3.68457 34.2412 3.51855C34.6221 3.34277 34.915 3.29883 35.1201 3.38672C35.4229 3.55273 35.5107 3.88965 35.3838 4.39746C35.2666 4.90527 35.0664 5.4375 34.7832 5.99414C34.5 6.55078 34.2754 6.96582 34.1094 7.23926C34.0801 7.27832 34.0605 7.3125 34.0508 7.3418C33.25 8.68945 31.9951 10.623 30.2861 13.1426C29.1826 14.7734 28.084 16.4287 26.9902 18.1084C25.9062 19.7783 24.9883 21.2725 24.2363 22.5908C23.4844 23.9092 23.0693 24.8613 22.9912 25.4473C22.9717 25.6914 23.0205 25.8184 23.1377 25.8281C23.2549 25.8379 23.4014 25.8086 23.5771 25.7402C23.5967 25.7305 23.6211 25.7256 23.6504 25.7256C23.7871 25.6768 23.8945 25.6865 23.9727 25.7549C24.0605 25.8232 24.0898 25.9062 24.0605 26.0039C24.041 26.1113 23.9385 26.1895 23.7529 26.2383C23.5674 26.3066 23.3574 26.3506 23.123 26.3701C22.8887 26.3896 22.6885 26.3262 22.5225 26.1797C22.2295 25.8086 22.3418 25.0078 22.8594 23.7773C23.3867 22.5566 24.1484 21.1162 25.1445 19.4561C26.1406 17.7861 27.1953 16.1113 28.3086 14.4316C29.4219 12.752 30.4131 11.2773 31.2822 10.0078C32.0146 8.94336 32.542 8.15723 32.8643 7.64941C32.874 7.63965 32.8838 7.625 32.8936 7.60547C32.9717 7.48828 33.1133 7.26367 33.3184 6.93164C33.5234 6.59961 33.7334 6.23828 33.9482 5.84766C34.1729 5.44727 34.3486 5.0957 34.4756 4.79297C34.6123 4.49023 34.6465 4.31445 34.5781 4.26562C34.5 4.23633 34.3389 4.29492 34.0947 4.44141C33.8604 4.57812 33.5967 4.75391 33.3037 4.96875C33.0205 5.17383 32.7617 5.36914 32.5273 5.55469C32.3027 5.74023 32.1562 5.8623 32.0879 5.9209C31.8047 6.15527 31.3604 6.5459 30.7549 7.09277C29.9443 7.80566 28.9775 8.64062 27.8545 9.59766C26.7314 10.5547 25.584 11.4824 24.4121 12.3809C23.25 13.2793 22.2002 13.9971 21.2627 14.5342C20.3252 15.0713 19.6367 15.2715 19.1973 15.1348C18.8262 14.9688 18.6504 14.5977 18.6699 14.0215C18.6992 13.4453 18.8408 12.7568 19.0947 11.9561C19.3486 11.1553 19.6367 10.335 19.959 9.49512C20.3789 8.43066 20.6963 7.49805 20.9111 6.69727C21.126 5.89648 21.0723 5.41309 20.75 5.24707C20.4082 5.14941 19.8223 5.47656 18.9922 6.22852C18.1621 6.9707 17.21 7.94238 16.1357 9.14355C15.0713 10.3447 14.0166 11.585 12.9717 12.8643C11.9268 14.1436 11.0137 15.2715 10.2324 16.248C9.62695 17.0098 9.17285 17.5713 8.87012 17.9326C8.77246 18.0498 8.58691 18.2549 8.31348 18.5479C8.0498 18.8408 7.77148 19.0996 7.47852 19.3242C7.19531 19.5488 6.98047 19.627 6.83398 19.5586C6.61914 19.3926 6.59473 19.0557 6.76074 18.5479C6.93652 18.0303 7.1709 17.4932 7.46387 16.9365C7.75684 16.3799 7.99121 15.96 8.16699 15.6768C8.19629 15.6279 8.2207 15.5889 8.24023 15.5596L13.6016 6.8291C13.709 6.66309 13.9043 6.31152 14.1875 5.77441C14.4805 5.2373 14.7197 4.7002 14.9053 4.16309C15.0908 3.61621 15.0762 3.25488 14.8613 3.0791C14.4512 2.87402 13.7188 3.03027 12.6641 3.54785C11.6191 4.05566 10.4473 4.79785 9.14844 5.77441C7.84961 6.75098 6.61914 7.8252 5.45703 8.99707C4.29492 10.1689 3.3916 11.3066 2.74707 12.4102C2.1123 13.5137 1.92676 14.4463 2.19043 15.208C2.2002 15.2373 2.21973 15.2812 2.24902 15.3398C2.27832 15.3984 2.30762 15.4521 2.33691 15.501C2.37598 15.5498 2.41504 15.5693 2.4541 15.5596C2.53223 15.5205 2.61035 15.5107 2.68848 15.5303C2.7666 15.5498 2.83496 15.5889 2.89355 15.6475C3.20605 16.0186 3.31348 16.3311 3.21582 16.585C3.11816 16.8389 2.9082 16.8877 2.58594 16.7314ZM34.6221 12.7617C34.8857 12.7812 35.0078 12.8643 34.9883 13.0107C34.9688 13.1475 34.8711 13.2891 34.6953 13.4355C34.5293 13.5723 34.3486 13.665 34.1533 13.7139C33.9678 13.7529 33.8311 13.6895 33.7432 13.5234C33.7236 13.4746 33.7285 13.4307 33.7578 13.3916C33.7969 13.3428 33.8457 13.3037 33.9043 13.2744C33.9727 13.2354 34.0312 13.2012 34.0801 13.1719C34.1191 13.1621 34.1484 13.1523 34.168 13.1426C34.1875 13.1328 34.1973 13.123 34.1973 13.1133C34.207 13.0059 34.251 12.918 34.3291 12.8496C34.4072 12.7812 34.5049 12.752 34.6221 12.7617ZM31.3555 19.7197C30.9746 19.7197 30.75 19.5977 30.6816 19.3535C30.6133 19.1094 30.6475 18.8018 30.7842 18.4307C30.9111 18.0498 31.0918 17.6543 31.3262 17.2441C31.5605 16.8242 31.7949 16.4434 32.0293 16.1016C32.2637 15.75 32.4492 15.4814 32.5859 15.2959C32.625 15.2275 32.6592 15.1787 32.6885 15.1494C32.6299 14.9932 32.6836 14.8223 32.8496 14.6367C33.0156 14.4414 33.2109 14.2998 33.4355 14.2119C33.6602 14.1143 33.8213 14.1289 33.9189 14.2559C33.9873 14.3633 34.002 14.4658 33.9629 14.5635C33.9238 14.6611 33.8701 14.7539 33.8018 14.8418C33.7822 14.8613 33.7627 14.8857 33.7432 14.915C33.3721 15.4424 32.9668 16.0332 32.5273 16.6875C32.0977 17.332 31.7754 17.874 31.5605 18.3135C31.3945 18.6943 31.4971 18.9043 31.8682 18.9434C32.249 18.9824 32.7373 18.9238 33.333 18.7676C33.9385 18.6113 34.4902 18.4453 34.9883 18.2695C35.4961 18.084 35.7988 17.9619 35.8965 17.9033C36.0039 17.8447 36.0869 17.835 36.1455 17.874C36.2139 17.9131 36.2432 17.9766 36.2334 18.0645C36.2236 18.1426 36.1553 18.2256 36.0283 18.3135C35.3936 18.665 34.5635 18.9873 33.5381 19.2803C32.5225 19.5732 31.7949 19.7197 31.3555 19.7197ZM48.9189 4.39746C49.8467 4.14355 50.1787 4.5 49.915 5.4668C49.6611 6.42383 49.0508 7.68848 48.084 9.26074C47.127 10.8232 46.0625 12.3809 44.8906 13.9336C43.7285 15.4863 42.6982 16.7266 41.7998 17.6543C41.5654 17.8887 41.3457 18.0986 41.1406 18.2842C40.8867 18.4893 40.6328 18.7285 40.3789 19.002C40.125 19.2754 39.8516 19.6514 39.5586 20.1299C35.3984 26.751 33.2695 30.0957 33.1719 30.1641C33.0645 30.2324 32.9619 30.2422 32.8643 30.1934C32.7666 30.1543 32.7227 30.0762 32.7324 29.959C32.752 29.8809 32.835 29.7002 32.9814 29.417C33.1279 29.1436 34.7734 26.3994 37.918 21.1846C38.0059 21.0088 38.0889 20.8574 38.167 20.7305C38.333 20.4473 38.4111 20.2764 38.4014 20.2178C38.4014 20.1592 38.2402 20.2617 37.918 20.5254C37.6641 20.7402 37.2881 20.9697 36.79 21.2139C36.292 21.4678 35.7891 21.6338 35.2812 21.7119C34.7734 21.7998 34.373 21.6924 34.0801 21.3896C33.9336 21.165 33.9482 20.8623 34.124 20.4814C34.29 20.1104 34.4707 19.7783 34.666 19.4854C34.7051 19.4268 34.7393 19.373 34.7686 19.3242C35.1396 18.6309 35.8818 17.3467 36.9951 15.4717C38.1182 13.5869 39.3682 11.5459 40.7451 9.34863C42.1318 7.15137 43.3965 5.2373 44.5391 3.60645C45.6816 1.96582 46.458 1.05273 46.8682 0.867188C47.5225 0.681641 47.8447 0.842773 47.835 1.35059C47.835 1.84863 47.6543 2.49805 47.293 3.29883C46.9316 4.09961 46.5508 4.85156 46.1504 5.55469C45.7598 6.24805 45.4961 6.69727 45.3594 6.90234C45.3496 6.91211 45.3447 6.92188 45.3447 6.93164C43.8018 9.42188 42.1953 11.8047 40.5254 14.0801C38.8652 16.3457 37.4541 17.8594 36.292 18.6211C36.0283 18.9922 35.8135 19.2998 35.6475 19.5439C35.4717 19.7881 35.3105 20.042 35.1641 20.3057C35.0859 20.4326 35.0127 20.5547 34.9443 20.6719C34.876 20.9453 35.0273 21.0234 35.3984 20.9062C35.7695 20.7988 36.2529 20.5645 36.8486 20.2031C37.4541 19.8418 38.0693 19.4316 38.6943 18.9727C38.9678 18.7676 39.1777 18.6016 39.3242 18.4746C39.4707 18.3379 39.5928 18.1963 39.6904 18.0498C39.7979 17.9033 39.9297 17.6982 40.0859 17.4346C40.1055 17.3857 40.1348 17.3369 40.1738 17.2881C41.1504 15.6279 42.2393 13.8311 43.4404 11.8975C44.6514 9.96387 45.7646 8.2793 46.7803 6.84375C47.8057 5.39844 48.5186 4.58301 48.9189 4.39746ZM37.376 16.7461C37.2295 16.9805 37.1562 17.1172 37.1562 17.1562C37.1562 17.1855 37.2539 17.0781 37.4492 16.834C38.5137 15.4863 39.6953 13.8701 40.9941 11.9854C42.3027 10.0908 43.5039 8.25488 44.5977 6.47754C45.9258 4.2998 46.6924 2.89355 46.8975 2.25879C47.1025 1.62402 46.8291 1.80469 46.0771 2.80078C45.0127 4.25586 43.9678 5.81348 42.9424 7.47363C41.9268 9.12402 40.9258 10.7891 39.9395 12.4688C39.0703 13.9434 38.2158 15.3691 37.376 16.7461ZM47.8203 8.03027C48.4844 6.79004 48.7773 6.08691 48.6992 5.9209C48.6309 5.75488 48.3525 6.01855 47.8643 6.71191C46.8193 8.1377 46.0088 9.29492 45.4326 10.1836C44.8662 11.0723 44.2998 12.0049 43.7334 12.9814C43.2549 13.8018 42.6299 14.8418 41.8584 16.1016C41.7607 16.2676 41.6777 16.4189 41.6094 16.5557C41.5508 16.6924 41.5312 16.7705 41.5508 16.79C41.5703 16.8096 41.6484 16.7412 41.7852 16.585C44.1387 13.958 46.1504 11.1064 47.8203 8.03027ZM48.7285 14.7686C49.2754 14.8857 49.4951 15.1201 49.3877 15.4717C49.2803 15.8232 48.9971 16.1895 48.5381 16.5703C48.0791 16.9512 47.6006 17.2393 47.1025 17.4346C46.6143 17.6201 46.2578 17.6104 46.0332 17.4053C45.877 17.6006 45.6963 17.8594 45.4912 18.1816C45.2959 18.4941 45.1836 18.7725 45.1543 19.0166C45.1543 19.3877 45.4082 19.5488 45.916 19.5C46.4238 19.4512 47.0293 19.29 47.7324 19.0166C48.4355 18.7432 49.0801 18.4648 49.666 18.1816C50.252 17.8887 50.623 17.6885 50.7793 17.5811C50.8965 17.5029 51.0039 17.4688 51.1016 17.4785C51.209 17.4883 51.2529 17.542 51.2334 17.6396C51.2236 17.7373 51.0967 17.874 50.8525 18.0498C50.5596 18.2549 50.0615 18.5479 49.3584 18.9287C48.665 19.2998 47.9277 19.6221 47.1465 19.8955C46.3652 20.1689 45.7012 20.2617 45.1543 20.1738C44.6074 20.0859 44.3438 19.6855 44.3633 18.9727C44.4121 18.4941 44.6855 17.9229 45.1836 17.2588C45.6816 16.5947 46.2578 16.0137 46.9121 15.5156C47.5762 15.0078 48.1816 14.7588 48.7285 14.7686ZM48.4355 15.5742C48.3477 15.6035 48.1963 15.6865 47.9814 15.8232C47.7666 15.9502 47.5371 16.0967 47.293 16.2627C47.0586 16.4287 46.8535 16.585 46.6777 16.7314C46.502 16.8779 46.3994 16.9854 46.3701 17.0537C46.3408 17.1221 46.4287 17.1221 46.6338 17.0537C46.917 16.9463 47.2637 16.7607 47.6738 16.4971C48.084 16.2236 48.3965 15.9746 48.6113 15.75C48.709 15.6426 48.748 15.5742 48.7285 15.5449C48.7188 15.5156 48.6211 15.5254 48.4355 15.5742ZM53.3574 13.2891C53.084 12.957 52.9277 12.6348 52.8887 12.3223C52.8691 11.8535 53.0107 11.5215 53.3135 11.3262C53.6162 11.1309 53.9775 11.1943 54.3975 11.5166C54.5537 11.6924 54.6514 11.9121 54.6904 12.1758C54.7393 12.4395 54.6953 12.7422 54.5586 13.084C54.5 13.2012 54.4756 13.2939 54.4854 13.3623C54.5049 13.4209 54.5781 13.4795 54.7051 13.5381C55.4766 13.8799 56.0088 14.2754 56.3018 14.7246C56.5947 15.1738 56.4629 15.7646 55.9062 16.4971C55.6133 16.8779 55.335 17.3467 55.0713 17.9033C54.8076 18.4502 54.7246 18.9336 54.8223 19.3535C54.9395 19.627 55.2471 19.6904 55.7451 19.5439C56.2529 19.4072 56.8096 19.168 57.415 18.8262C58.0205 18.4844 58.543 18.1523 58.9824 17.8301C59.1191 17.7129 59.2266 17.6592 59.3047 17.6689C59.3828 17.6689 59.4219 17.708 59.4219 17.7861C59.4316 17.8643 59.3926 17.9473 59.3047 18.0352C58.0059 19.1777 56.8389 19.8662 55.8037 20.1006C54.7686 20.335 54.1484 20.1152 53.9434 19.4414C53.7383 18.7676 54.2266 17.6445 55.4082 16.0723C55.7402 15.6133 55.7891 15.2422 55.5547 14.959C55.3203 14.666 54.9639 14.3877 54.4854 14.124C54.4658 14.1143 54.4512 14.1045 54.4414 14.0947C54.3438 14.0264 54.2559 14.002 54.1777 14.0215C54.1094 14.0312 54.0166 14.1191 53.8994 14.2852C53.7822 14.4414 53.6943 14.5537 53.6357 14.6221C53.4795 14.8174 53.3428 14.9248 53.2256 14.9443C53.1084 14.9541 53.0205 14.915 52.9619 14.8271C52.9131 14.7393 52.8984 14.6416 52.918 14.5342C52.9473 14.4365 52.9961 14.3828 53.0645 14.373C53.1328 14.3633 53.2744 14.2363 53.4893 13.9922C53.5869 13.8555 53.6113 13.7334 53.5625 13.626C53.5234 13.5088 53.4551 13.3965 53.3574 13.2891ZM54.0605 12.7178C54.0996 12.4736 54.0752 12.2588 53.9873 12.0732C53.8994 11.8877 53.8018 11.7949 53.6943 11.7949C53.5869 11.7852 53.5381 11.9365 53.5479 12.249C53.5576 12.2979 53.5869 12.3809 53.6357 12.498C53.6846 12.6055 53.7383 12.708 53.7969 12.8057C53.8652 12.9033 53.9287 12.9521 53.9873 12.9521C54.0068 12.9521 54.0166 12.9424 54.0166 12.9229C54.0264 12.8936 54.0312 12.8643 54.0312 12.835C54.041 12.7959 54.0508 12.7568 54.0605 12.7178ZM81.6143 13.5674C81.585 13.5674 81.5508 13.5723 81.5117 13.582C81.1113 13.6309 80.4961 13.6943 79.666 13.7725C78.8457 13.8408 77.9766 13.8701 77.0586 13.8604C76.1406 13.8408 75.335 13.7285 74.6416 13.5234C73.958 13.3184 73.543 12.9619 73.3965 12.4541C73.2793 11.6924 73.8115 10.7939 74.9932 9.75879C76.1748 8.71387 77.7373 7.66895 79.6807 6.62402C81.6338 5.56934 83.6992 4.63672 85.877 3.82617C88.0645 3.01563 90.0908 2.4541 91.9561 2.1416C93.8311 1.81934 95.2812 1.87793 96.3066 2.31738C97.3418 2.74707 97.6836 3.6748 97.332 5.10059C97.2734 5.28613 97.1904 5.39844 97.083 5.4375C96.9756 5.47656 96.8828 5.45703 96.8047 5.37891C96.7363 5.29102 96.7266 5.15918 96.7754 4.9834C97.0391 3.86035 96.6729 3.16699 95.6768 2.90332C94.6904 2.63965 93.3184 2.68848 91.5605 3.0498C89.8027 3.41113 87.9082 3.97266 85.877 4.73438C83.8457 5.49609 81.9219 6.35059 80.1055 7.29785C78.2891 8.23535 76.8242 9.14844 75.7109 10.0371C74.5977 10.9258 74.0898 11.6777 74.1875 12.293C74.3047 12.6934 74.7588 12.9521 75.5498 13.0693C76.3408 13.1768 77.2979 13.1963 78.4209 13.1279C79.5439 13.0596 80.667 12.9473 81.79 12.791C82.9131 12.6348 83.8652 12.4883 84.6465 12.3516C85.1738 12.2539 85.6084 12.1514 85.9502 12.0439C86.3018 11.9365 86.6973 11.7998 87.1367 11.6338C87.2344 11.5947 87.3369 11.5557 87.4443 11.5166C88.0498 11.2822 88.6699 11.0625 89.3047 10.8574C89.7734 10.7012 90.3008 10.5693 90.8867 10.4619C91.4824 10.3545 92.0293 10.3154 92.5273 10.3447C92.9082 10.501 93.0645 10.6768 92.9961 10.8721C92.9375 11.0674 92.7715 11.248 92.498 11.4141C92.2246 11.5801 91.9609 11.6924 91.707 11.751C90.3789 12.0439 89.041 12.3223 87.6934 12.5859C87.1465 12.6836 86.6826 12.7861 86.3018 12.8936C85.9209 12.9912 85.4766 13.1475 84.9688 13.3623C83.6016 13.9385 82.2539 14.5488 80.9258 15.1934C79.8516 15.7012 78.3867 16.4727 76.5312 17.5078C74.6855 18.5332 72.9326 19.6465 71.2725 20.8477C69.6221 22.0488 68.5576 23.1572 68.0791 24.1729C67.7959 24.9346 68.0938 25.4326 68.9727 25.667C69.8613 25.9014 71.1016 25.9453 72.6934 25.7988C74.2852 25.6621 76.0137 25.4082 77.8789 25.0371C79.7441 24.666 81.5215 24.2559 83.2109 23.8066C84.9102 23.3574 86.2969 22.9424 87.3711 22.5615C88.4551 22.1904 89.0068 21.9316 89.0264 21.7852C89.0264 21.6484 89.1436 21.5312 89.3779 21.4336C89.6221 21.3359 89.8809 21.2627 90.1543 21.2139C90.4277 21.1748 90.6182 21.1602 90.7256 21.1699C91.0381 21.2969 91.1748 21.4629 91.1357 21.668C91.1064 21.8828 90.9551 22.0635 90.6816 22.21C90.2715 22.4053 89.8418 22.5762 89.3926 22.7227C89.334 22.752 89.2705 22.7764 89.2021 22.7959C88.7041 22.9717 87.7764 23.2598 86.4189 23.6602C85.0713 24.0703 83.4941 24.5049 81.6875 24.9639C79.8906 25.4229 78.0645 25.8184 76.209 26.1504C74.3633 26.4922 72.6885 26.6826 71.1846 26.7217C69.6904 26.7607 68.5723 26.5654 67.8301 26.1357C67.0879 25.7061 66.9219 24.9541 67.332 23.8799C67.7031 23.0498 68.4307 22.1709 69.5146 21.2432C70.5986 20.3154 71.8438 19.4121 73.25 18.5332C74.6562 17.6445 76.0186 16.8486 77.3369 16.1455C78.6553 15.4326 79.7344 14.876 80.5742 14.4756C80.8281 14.3584 81.0869 14.2412 81.3506 14.124C81.6729 13.9775 81.9365 13.8506 82.1416 13.7432C82.3467 13.6357 82.4248 13.5625 82.376 13.5234C82.3271 13.4844 82.0732 13.499 81.6143 13.5674ZM93.5088 19.5879C93.7041 19.1094 94.002 18.5283 94.4023 17.8447C94.793 17.1611 95.1738 16.5068 95.5449 15.8818C95.75 15.5498 95.9258 15.2617 96.0723 15.0176C96.0137 14.9395 95.9844 14.8564 95.9844 14.7686C95.9844 14.6807 96.0137 14.6025 96.0723 14.5342C96.3262 14.2607 96.5117 14.1094 96.6289 14.0801L96.6582 14.0654C96.7461 14.0361 96.8242 14.0361 96.8926 14.0654C97.0391 14.1143 97.1318 14.207 97.1709 14.3438C97.1709 14.3535 97.1709 14.3682 97.1709 14.3877C97.1709 14.3975 97.1709 14.4072 97.1709 14.417C97.1709 14.5049 97.1465 14.5928 97.0977 14.6807C96.7363 15.2666 96.3311 15.9355 95.8818 16.6875C95.4424 17.4297 95.0518 18.1035 94.71 18.709C94.9443 18.4844 95.3203 18.1621 95.8379 17.7422C96.3652 17.3125 96.8877 16.917 97.4053 16.5557C97.9326 16.1846 98.3086 15.9893 98.5332 15.9697C98.8848 15.9795 99.085 16.1211 99.1338 16.3945C99.1826 16.6582 99.1826 16.9561 99.1338 17.2881C99.1045 17.542 99.0996 17.7617 99.1191 17.9473C99.1387 18.123 99.2363 18.2109 99.4121 18.2109C99.5977 18.2109 99.9102 18.0645 100.35 17.7715C100.477 17.6934 100.564 17.6738 100.613 17.7129C100.672 17.752 100.691 17.8203 100.672 17.918C100.652 18.0059 100.599 18.0791 100.511 18.1377C99.6318 18.6943 99.0508 18.8018 98.7676 18.46C98.4844 18.1084 98.4111 17.5127 98.5479 16.6729C98.3428 16.6924 98.0352 16.8682 97.625 17.2002C97.2148 17.5225 96.7705 17.8984 96.292 18.3281C95.8721 18.6992 95.4717 19.041 95.0908 19.3535C94.71 19.666 94.3877 19.8906 94.124 20.0273C93.9287 20.1152 93.7627 20.1152 93.626 20.0273C93.4893 19.9395 93.4502 19.793 93.5088 19.5879ZM108.187 15.1348C108.284 15.1055 108.406 15.1055 108.553 15.1348C108.699 15.1641 108.816 15.2227 108.904 15.3105C108.992 15.3984 109.002 15.5059 108.934 15.6328C108.68 16.2383 108.382 16.8291 108.04 17.4053C108.001 17.4639 107.967 17.5225 107.938 17.5811C107.732 17.9424 107.532 18.3037 107.337 18.665C107.015 19.251 106.673 19.8418 106.312 20.4375C106.194 20.623 106.116 20.7598 106.077 20.8477C106.038 20.9453 106.023 21.0186 106.033 21.0674C106.043 21.1162 106.072 21.1699 106.121 21.2285C106.131 21.2383 106.141 21.248 106.15 21.2578C106.209 21.3359 106.229 21.4189 106.209 21.5068C106.199 21.5947 106.16 21.668 106.092 21.7266C105.77 21.9609 105.491 22.1953 105.257 22.4297C105.022 22.6738 104.798 22.9619 104.583 23.2939C104.349 23.6846 104.051 24.1777 103.689 24.7734C102.869 26.1504 101.971 27.5859 100.994 29.0801C100.027 30.584 99.2803 31.5557 98.7529 31.9951C98.3818 32.2393 98.0938 32.293 97.8887 32.1562C97.6738 32.0293 97.6055 31.751 97.6836 31.3213C97.8691 30.5791 98.1914 29.8027 98.6504 28.9922C99.0996 28.1816 99.5635 27.4785 100.042 26.8828C101.019 25.6328 102.073 24.4512 103.206 23.3379C103.587 22.9668 103.914 22.6201 104.188 22.2979C104.461 21.9854 104.739 21.6045 105.022 21.1553L107.176 17.6982C107.352 17.4346 107.513 17.166 107.659 16.8926C107.767 16.6973 107.811 16.5752 107.791 16.5264C107.781 16.4678 107.732 16.4629 107.645 16.5117C107.557 16.5508 107.454 16.6143 107.337 16.7021C107.229 16.79 107.127 16.8779 107.029 16.9658C106.971 17.0146 106.922 17.0537 106.883 17.083C106.629 17.2783 106.229 17.6104 105.682 18.0791C105.008 18.6553 104.241 19.2949 103.382 19.998C102.522 20.7012 101.717 21.2969 100.965 21.7852C100.213 22.2832 99.666 22.5225 99.3242 22.5029C98.9141 22.5029 98.665 22.3711 98.5771 22.1074C98.4795 21.8535 98.4648 21.5557 98.5332 21.2139C98.7383 20.1885 99.2656 19.085 100.115 17.9033C100.965 16.7119 101.961 15.7061 103.104 14.8857C104.246 14.0654 105.364 13.6895 106.458 13.7578C106.751 13.7969 106.961 13.9043 107.088 14.0801C107.215 14.2559 107.239 14.4365 107.161 14.6221C107.093 14.8076 106.902 14.9248 106.59 14.9736C106.492 14.9932 106.424 14.9883 106.385 14.959C106.346 14.9297 106.312 14.8906 106.282 14.8418C106.263 14.793 106.229 14.749 106.18 14.71C106.141 14.6611 106.072 14.627 105.975 14.6074C105.887 14.5879 105.75 14.5977 105.564 14.6367C104.705 14.8027 103.821 15.252 102.913 15.9844C102.005 16.707 101.209 17.5469 100.525 18.5039C99.8418 19.4512 99.417 20.3447 99.251 21.1846C99.1924 21.5264 99.2461 21.707 99.4121 21.7266C99.5781 21.7461 99.793 21.6777 100.057 21.5215C100.311 21.3652 100.55 21.1992 100.774 21.0234C100.999 20.8477 101.146 20.7256 101.214 20.6572C102.923 19.1924 104.671 17.7764 106.458 16.4092C107.024 15.9697 107.601 15.5449 108.187 15.1348ZM98.46 31.4092C98.6357 31.3408 98.8848 31.0723 99.207 30.6035C99.5293 30.1445 99.8613 29.627 100.203 29.0508C100.535 28.4746 100.813 27.9814 101.038 27.5713C101.185 27.3076 101.282 27.1367 101.331 27.0586C101.351 27.0293 101.38 26.9854 101.419 26.9268C101.497 26.8096 101.59 26.6631 101.697 26.4873C101.805 26.3213 101.888 26.1602 101.946 26.0039C102.015 25.8574 102.024 25.7646 101.976 25.7256C101.888 25.6865 101.692 25.8525 101.39 26.2236C101.097 26.6045 100.755 27.0879 100.364 27.6738C99.9834 28.2598 99.6221 28.8408 99.2803 29.417C98.9385 30.0029 98.6846 30.4863 98.5186 30.8672C98.3525 31.248 98.333 31.4287 98.46 31.4092ZM104.363 28.0986C104.256 28.0498 104.212 27.9473 104.231 27.791C104.241 27.6348 104.349 27.3711 104.554 27C104.749 26.6289 105.066 26.0869 105.506 25.374C105.936 24.6611 106.512 23.7188 107.234 22.5469C108.055 21.2383 109.1 19.5586 110.369 17.5078C110.701 16.8828 111.38 15.7109 112.405 13.9922C113.431 12.2637 114.573 10.3984 115.833 8.39648C117.093 6.38477 118.24 4.63672 119.275 3.15234C120.32 1.6582 121.033 0.823242 121.414 0.647461C122.01 0.47168 122.303 0.618164 122.293 1.08691C122.293 1.5459 122.127 2.1416 121.795 2.87402C121.473 3.59668 121.126 4.28027 120.755 4.9248C120.394 5.55957 120.154 5.96973 120.037 6.15527C120.027 6.16504 120.022 6.1748 120.022 6.18457C118.685 8.34277 117.205 10.5107 115.584 12.6885C113.973 14.8662 112.732 16.3262 111.863 17.0684C111.697 17.1855 111.585 17.2588 111.526 17.2881C111.478 17.3174 111.434 17.3467 111.395 17.376C111.365 17.4053 111.326 17.4541 111.277 17.5225C111.229 17.5908 111.16 17.6982 111.072 17.8447L105.257 27.3223C105.286 27.3223 105.281 27.3711 105.242 27.4688C105.193 27.5762 105.125 27.6885 105.037 27.8057C104.949 27.9326 104.847 28.0254 104.729 28.084C104.603 28.1523 104.48 28.1572 104.363 28.0986ZM112.742 15.1494C112.605 15.3643 112.537 15.4863 112.537 15.5156C112.547 15.5449 112.64 15.4521 112.815 15.2373C113.782 14.0068 114.861 12.5273 116.053 10.7988C117.244 9.07031 118.343 7.39551 119.349 5.77441C120.55 3.78223 121.243 2.49805 121.429 1.92188C121.624 1.3457 121.375 1.51172 120.682 2.41992C119.705 3.76758 118.743 5.20801 117.796 6.74121C116.849 8.27441 115.921 9.81738 115.013 11.3701C114.241 12.6787 113.484 13.9385 112.742 15.1494ZM118.177 12.7617C118.44 12.7812 118.562 12.8643 118.543 13.0107C118.523 13.1475 118.426 13.2891 118.25 13.4355C118.084 13.5723 117.903 13.665 117.708 13.7139C117.522 13.7529 117.386 13.6895 117.298 13.5234C117.278 13.4746 117.283 13.4307 117.312 13.3916C117.352 13.3428 117.4 13.3037 117.459 13.2744C117.527 13.2354 117.586 13.2012 117.635 13.1719C117.674 13.1621 117.703 13.1523 117.723 13.1426C117.742 13.1328 117.752 13.123 117.752 13.1133C117.762 13.0059 117.806 12.918 117.884 12.8496C117.962 12.7812 118.06 12.752 118.177 12.7617ZM114.91 19.7197C114.529 19.7197 114.305 19.5977 114.236 19.3535C114.168 19.1094 114.202 18.8018 114.339 18.4307C114.466 18.0498 114.646 17.6543 114.881 17.2441C115.115 16.8242 115.35 16.4434 115.584 16.1016C115.818 15.75 116.004 15.4814 116.141 15.2959C116.18 15.2275 116.214 15.1787 116.243 15.1494C116.185 14.9932 116.238 14.8223 116.404 14.6367C116.57 14.4414 116.766 14.2998 116.99 14.2119C117.215 14.1143 117.376 14.1289 117.474 14.2559C117.542 14.3633 117.557 14.4658 117.518 14.5635C117.479 14.6611 117.425 14.7539 117.356 14.8418C117.337 14.8613 117.317 14.8857 117.298 14.915C116.927 15.4424 116.521 16.0332 116.082 16.6875C115.652 17.332 115.33 17.874 115.115 18.3135C114.949 18.6943 115.052 18.9043 115.423 18.9434C115.804 18.9824 116.292 18.9238 116.888 18.7676C117.493 18.6113 118.045 18.4453 118.543 18.2695C119.051 18.084 119.354 17.9619 119.451 17.9033C119.559 17.8447 119.642 17.835 119.7 17.874C119.769 17.9131 119.798 17.9766 119.788 18.0645C119.778 18.1426 119.71 18.2256 119.583 18.3135C118.948 18.665 118.118 18.9873 117.093 19.2803C116.077 19.5732 115.35 19.7197 114.91 19.7197ZM118.309 19.6904C118.387 19.6416 118.479 19.5049 118.587 19.2803C118.694 19.0557 118.816 18.7822 118.953 18.46C119.207 17.8154 119.505 17.1855 119.847 16.5703C120.188 15.9551 120.574 15.6084 121.004 15.5303C121.141 15.5596 121.243 15.6279 121.312 15.7354C121.38 15.833 121.36 15.9502 121.253 16.0869C121.087 16.3115 120.94 16.4922 120.813 16.6289C120.696 16.7559 120.574 16.8828 120.447 17.0098C120.32 17.1367 120.164 17.2979 119.979 17.4932C119.852 17.8154 119.729 18.1377 119.612 18.46C119.563 18.6162 119.51 18.7676 119.451 18.9141C119.422 19.0215 119.402 19.0996 119.393 19.1484C119.393 19.1875 119.407 19.207 119.437 19.207C119.476 19.207 119.524 19.1973 119.583 19.1777C119.593 19.168 119.603 19.1631 119.612 19.1631C119.808 19.1045 119.944 19.1094 120.022 19.1777C120.101 19.2363 120.125 19.3145 120.096 19.4121C120.066 19.5098 119.993 19.5928 119.876 19.6611C119.769 19.7197 119.661 19.7539 119.554 19.7637C119.427 19.7832 119.305 19.832 119.188 19.9102C119.119 19.959 119.051 20.0322 118.982 20.1299C118.914 20.2275 118.855 20.3203 118.807 20.4082C118.436 21.1211 117.908 21.79 117.225 22.415C116.541 23.04 115.73 23.416 114.793 23.543C114.061 23.6113 113.704 23.5186 113.724 23.2646C113.743 23.0107 114.002 22.6641 114.5 22.2246C114.988 21.7949 115.584 21.3506 116.287 20.8916C116.99 20.4326 117.664 20.0322 118.309 19.6904ZM117.562 21.082C117.61 21.0234 117.664 20.9551 117.723 20.877C117.781 20.8086 117.83 20.7402 117.869 20.6719C117.908 20.6035 117.928 20.5498 117.928 20.5107C117.928 20.4814 117.898 20.4766 117.84 20.4961C117.625 20.5938 117.332 20.7695 116.961 21.0234C116.58 21.2871 116.194 21.5654 115.804 21.8584C115.413 22.1611 115.101 22.4199 114.866 22.6348C114.622 22.8496 114.529 22.9619 114.588 22.9717C114.91 22.9912 115.374 22.8105 115.979 22.4297C116.585 22.0586 117.112 21.6094 117.562 21.082ZM122.542 17.5225C122.542 17.5225 122.547 17.5176 122.557 17.5078C122.615 17.459 122.757 17.3271 122.981 17.1123L130.13 5.62793C130.657 5.2959 131.004 5.21289 131.17 5.37891C131.336 5.53516 131.39 5.82812 131.331 6.25781C131.282 6.67773 131.185 7.10742 131.038 7.54688C130.892 7.98633 130.77 8.31836 130.672 8.54297C130.057 9.86133 129.246 11.1699 128.24 12.4688C127.234 13.7578 126.263 14.8906 125.325 15.8672C124.388 16.8438 123.719 17.5127 123.318 17.874L122.454 19.1777C122.2 19.5488 122.127 19.7051 122.234 19.6465C122.342 19.5977 122.562 19.4219 122.894 19.1191C123.675 18.3867 124.52 17.625 125.428 16.834C126.346 16.043 127.2 15.3887 127.991 14.8711C128.792 14.3438 129.407 14.1191 129.837 14.1973C130.403 14.3438 130.525 14.998 130.203 16.1602C129.969 17.0781 129.866 17.7715 129.896 18.2402C129.935 18.709 130.066 18.9775 130.291 19.0459C130.896 19.2021 131.995 18.8115 133.587 17.874C133.685 17.8154 133.768 17.8105 133.836 17.8594C133.914 17.9082 133.948 17.9814 133.938 18.0791C133.938 18.167 133.875 18.2549 133.748 18.3428C132.898 18.8799 132.166 19.2705 131.551 19.5146C130.945 19.7588 130.442 19.8174 130.042 19.6904C129.134 19.4463 128.992 18.1719 129.617 15.8672C129.812 15.0957 129.72 14.7539 129.339 14.8418C128.958 14.9297 128.411 15.2715 127.698 15.8672C126.985 16.4531 126.224 17.127 125.413 17.8887C124.485 18.748 123.65 19.4756 122.908 20.0713C122.166 20.667 121.678 20.8916 121.443 20.7451C121.277 20.6279 121.209 20.4619 121.238 20.2471C121.268 20.042 121.346 19.8223 121.473 19.5879C121.59 19.3535 121.702 19.1533 121.81 18.9873C121.849 18.9287 121.883 18.875 121.912 18.8262L122.249 18.2842C122.337 18.1084 122.391 17.9521 122.41 17.8154C122.43 17.6885 122.474 17.5908 122.542 17.5225ZM126.673 12.6885C125.394 14.6123 125.496 14.6465 126.98 12.791C128.006 11.5996 128.86 10.3643 129.544 9.08496C129.944 8.30371 130.164 7.8252 130.203 7.64941C130.252 7.47363 130.174 7.5127 129.969 7.7666C129.764 8.02051 129.49 8.39648 129.148 8.89453C128.816 9.39258 128.47 9.91992 128.108 10.4766C127.747 11.0234 127.435 11.5068 127.171 11.9268C126.917 12.3174 126.751 12.5713 126.673 12.6885Z" fill="#08D7FC"/>
</svg>
