<svg width="163" height="42" viewBox="0 0 163 42" fill="none" xmlns="http://www.w3.org/2000/svg">
<path d="M1.44447 20.9883C1.1117 19.7927 1.6848 18.4062 3.16379 16.8286C4.65509 15.251 6.68253 13.6611 9.2461 12.0589C11.822 10.4567 14.5643 9.03315 17.4729 7.78834C20.3816 6.53121 23.0931 5.63149 25.6073 5.0892C28.1339 4.53458 30.0874 4.52226 31.4678 5.05223C32.7126 5.63149 33.2611 6.44493 33.1132 7.49255C32.9653 8.52783 32.3552 9.6001 31.2829 10.7093C30.2107 11.8186 28.9104 12.7614 27.3821 13.5379C25.8662 14.3144 24.3502 14.7211 22.8343 14.758C22.3782 14.7457 22.1317 14.604 22.0948 14.3328C22.0578 14.0617 22.1441 13.7721 22.3536 13.4639C22.5631 13.1558 22.8034 12.934 23.0746 12.7984C23.3581 12.6628 23.5922 12.7121 23.7771 12.9463C23.7894 12.9709 23.8018 12.9956 23.8141 13.0202C23.8634 13.0942 23.9003 13.162 23.925 13.2236C23.9496 13.2852 23.9373 13.3592 23.888 13.4455C23.888 13.4701 23.8819 13.4886 23.8695 13.5009C23.8326 13.5502 23.8141 13.5872 23.8141 13.6118C23.8141 13.6365 23.8511 13.6488 23.925 13.6488C24.874 13.5132 25.934 13.1312 27.1048 12.5026C28.288 11.8617 29.3479 11.1161 30.2846 10.2656C31.2213 9.4029 31.8129 8.5833 32.0594 7.80683C32.3059 7.01804 31.9793 6.41412 31.0796 5.99508C29.7731 5.50208 27.9306 5.5329 25.5519 6.08751C23.1732 6.64213 20.6035 7.53568 17.8427 8.76817C15.0819 10.0007 12.4752 11.3749 10.0226 12.8908C7.58225 14.3945 5.63492 15.855 4.18059 17.2723C2.73858 18.6897 2.13466 19.8605 2.36883 20.7849C2.60301 21.3025 3.36715 21.586 4.66126 21.6353C5.96769 21.6723 7.53911 21.586 9.37551 21.3765C11.2242 21.1546 13.0668 20.902 14.9032 20.6185C17.5284 20.2118 19.5004 19.9838 20.8191 19.9345C21.1026 19.9222 21.4908 19.9345 21.9838 19.9715C22.4768 19.9961 22.9328 20.0885 23.3519 20.2488C23.7833 20.3967 24.0421 20.6493 24.1284 21.0067C24.1777 21.4628 23.8326 22.0297 23.0931 22.7076C22.3536 23.3731 21.4231 24.0695 20.3015 24.7966C19.1799 25.5115 18.0645 26.177 16.9553 26.7933C15.8584 27.4218 14.971 27.9148 14.2931 28.2722C14.022 28.4201 13.8125 28.5311 13.6646 28.605C13.2332 28.8392 12.7217 29.1165 12.1301 29.4369C10.6018 30.2257 8.96879 31.1255 7.23099 32.1361C5.49318 33.1467 4.22372 34.0711 3.42261 34.9092C3.26238 35.0817 3.12065 35.1618 2.9974 35.1495C2.87415 35.1495 2.8002 35.0817 2.77555 34.9462C2.7509 34.8106 2.81253 34.6504 2.96043 34.4655C3.81084 33.5781 5.1296 32.5859 6.9167 31.489C8.71613 30.4044 10.3492 29.4616 11.8158 28.6605C12.2595 28.414 12.6416 28.1983 12.962 28.0134C13.073 27.9518 13.264 27.847 13.5351 27.6991C14.3979 27.2185 15.5996 26.5283 17.1402 25.6286C18.6808 24.7289 20.0796 23.8476 21.3368 22.9849C22.6062 22.1221 23.2471 21.5059 23.2595 21.1362C23.2102 20.9759 22.976 20.8712 22.5569 20.8219C22.1379 20.7726 21.7004 20.7541 21.2443 20.7664C20.8006 20.7787 20.511 20.7972 20.3754 20.8219C19.2909 20.9081 17.7934 21.1177 15.883 21.4504C13.948 21.7955 11.9329 22.0975 9.83769 22.3563C7.74247 22.6151 5.91223 22.6768 4.34697 22.5412C2.78172 22.3933 1.81421 21.8756 1.44447 20.9883ZM34.851 24.1681C34.9496 24.1804 35.1283 24.0633 35.3871 23.8168C35.6583 23.558 35.9725 23.2375 36.33 22.8555C36.9216 22.2146 37.5316 21.6107 38.1602 21.0437C38.8011 20.4768 39.3372 20.1871 39.7686 20.1748C40.1753 20.2364 40.4033 20.4706 40.4526 20.8773C40.5142 21.2717 40.5204 21.7093 40.4711 22.1899C40.4341 22.4981 40.4157 22.7815 40.4157 23.0403C40.428 23.2868 40.4896 23.4656 40.6005 23.5765C40.81 23.786 41.6112 23.4779 43.0039 22.6521C43.1764 22.5535 43.312 22.5227 43.4106 22.5597C43.5215 22.5967 43.5647 22.6706 43.54 22.7815C43.5277 22.8925 43.4168 23.0095 43.2072 23.1328C42.2952 23.6997 41.5927 24.0633 41.0997 24.2235C40.6067 24.3714 40.2246 24.3221 39.9535 24.0756C39.4974 23.6319 39.3311 22.8493 39.4543 21.7278C39.4666 21.4689 39.4358 21.3457 39.3619 21.358C39.3003 21.358 39.1585 21.4504 38.9367 21.6353C38.912 21.66 38.8874 21.6785 38.8627 21.6908C38.493 21.9989 38.0739 22.381 37.6056 22.837C37.0263 23.4039 36.4655 23.9031 35.9232 24.3345C35.3933 24.7535 34.9681 24.9137 34.6476 24.8151C34.2163 24.6303 33.9944 24.279 33.9821 23.7614C33.9698 23.2437 34.0622 22.6829 34.2594 22.079C34.4689 21.4628 34.6784 20.9143 34.888 20.4336C34.9866 20.1871 35.0667 19.9838 35.1283 19.8236C35.2146 19.5154 35.0667 19.4785 34.6846 19.7126C34.3025 19.9468 33.8034 20.3227 33.1871 20.8404C32.5709 21.3457 31.9546 21.8756 31.3384 22.4303C30.7345 22.9726 30.2476 23.4101 29.8779 23.7429C29.6684 23.9277 29.539 24.051 29.4897 24.1126C29.428 24.1619 29.3356 24.2359 29.2124 24.3345C28.9782 24.5563 28.6824 24.8151 28.325 25.1109C27.9676 25.419 27.6225 25.6779 27.2897 25.8874C26.9569 26.0969 26.7043 26.1709 26.5317 26.1092C26.162 25.912 26.1188 25.5238 26.4023 24.9445C27.1418 23.4409 27.9922 22.0359 28.9535 20.7294C29.4465 20.0269 29.921 19.3182 30.3771 18.6034C30.3894 18.5788 30.3955 18.5603 30.3955 18.5479C30.3955 18.5356 30.3832 18.5171 30.3586 18.4925C30.3586 18.4925 30.3524 18.4863 30.3401 18.474C30.2538 18.3877 30.223 18.2953 30.2476 18.1967C30.2723 18.0981 30.3339 17.9933 30.4325 17.8824C30.4941 17.8208 30.6051 17.7345 30.7653 17.6236C30.9378 17.5127 31.1104 17.4387 31.2829 17.4017C31.4555 17.3524 31.5787 17.3894 31.6527 17.5127C31.7266 17.6359 31.6958 17.8947 31.5602 18.2891C30.7961 19.6572 29.9272 21.0376 28.9535 22.4303C28.7317 22.763 28.516 23.0896 28.3065 23.4101C28.0107 23.8538 27.8998 24.0633 27.9737 24.0387C28.0477 24.014 28.2449 23.86 28.5653 23.5765C28.6516 23.5025 28.7379 23.4286 28.8241 23.3546C29.6499 22.6275 30.5126 21.8941 31.4123 21.1546C32.3244 20.4028 33.1563 19.7927 33.9081 19.3244C34.6599 18.8437 35.2207 18.6527 35.5905 18.7513C36.0958 18.9855 36.1882 19.5771 35.8678 20.5261C35.8431 20.5877 35.8 20.6986 35.7384 20.8588C35.6274 21.1916 35.4795 21.6107 35.2947 22.116C35.1221 22.6213 34.9804 23.0835 34.8695 23.5025C34.7709 23.9093 34.7647 24.1311 34.851 24.1681ZM47.3669 16.4959C47.6996 16.5205 47.8537 16.6253 47.8291 16.8101C47.8044 16.9827 47.6812 17.1614 47.4593 17.3463C47.2498 17.5188 47.0218 17.6359 46.7753 17.6975C46.5411 17.7468 46.3686 17.6667 46.2576 17.4572C46.233 17.3956 46.2391 17.3401 46.2761 17.2908C46.3254 17.2292 46.387 17.1799 46.461 17.1429C46.5473 17.0936 46.6212 17.0505 46.6828 17.0135C46.7321 17.0012 46.7691 16.9888 46.7938 16.9765C46.8184 16.9642 46.8307 16.9519 46.8307 16.9395C46.8431 16.804 46.8985 16.693 46.9971 16.6068C47.0957 16.5205 47.219 16.4835 47.3669 16.4959ZM43.2442 25.2773C42.7635 25.2773 42.4801 25.1232 42.3938 24.8151C42.3075 24.507 42.3507 24.1188 42.5232 23.6504C42.6834 23.1698 42.9114 22.6706 43.2072 22.153C43.503 21.623 43.7988 21.1423 44.0946 20.711C44.3904 20.2673 44.6246 19.9283 44.7971 19.6942C44.8464 19.6079 44.8896 19.5463 44.9265 19.5093C44.8526 19.3121 44.9204 19.0964 45.1299 18.8622C45.3394 18.6157 45.5859 18.437 45.8694 18.3261C46.1529 18.2028 46.3562 18.2213 46.4795 18.3816C46.5658 18.5171 46.5842 18.6465 46.5349 18.7698C46.4856 18.893 46.4179 19.0101 46.3316 19.121C46.3069 19.1457 46.2823 19.1765 46.2576 19.2135C45.7893 19.879 45.2778 20.6247 44.7232 21.4504C44.1809 22.2639 43.7742 22.9479 43.503 23.5025C43.2935 23.9832 43.4229 24.2482 43.8913 24.2975C44.3719 24.3468 44.9882 24.2728 45.74 24.0756C46.5041 23.8784 47.2005 23.6689 47.8291 23.4471C48.4699 23.2129 48.852 23.0588 48.9753 22.9849C49.1108 22.9109 49.2156 22.8986 49.2895 22.9479C49.3758 22.9972 49.4128 23.0773 49.4005 23.1882C49.3881 23.2868 49.3019 23.3916 49.1416 23.5025C48.3405 23.9462 47.2929 24.3529 45.9988 24.7227C44.717 25.0924 43.7988 25.2773 43.2442 25.2773ZM48.2173 12.5765C48.1926 12.6875 48.1002 12.7491 47.94 12.7614C47.7797 12.7614 47.6072 12.7244 47.4223 12.6505C47.2375 12.5765 47.1019 12.4841 47.0156 12.3732C46.9293 12.2499 46.954 12.1205 47.0896 11.985C47.2251 11.8494 47.5271 11.72 47.9954 11.5967C50.3248 11.2023 52.6111 10.8634 54.8542 10.5799C55.2856 10.5306 55.6122 10.4813 55.834 10.432C56.0682 10.3827 56.2469 10.3026 56.3702 10.1917C56.5057 10.0684 56.6413 9.87741 56.7769 9.61858C56.9987 9.23651 57.2267 8.85444 57.4609 8.47237C57.5102 8.3861 57.5595 8.29983 57.6088 8.21355C59.5192 5.02141 60.8133 3.11722 61.4911 2.50098C62.5511 1.52732 63.0071 1.68754 62.8592 2.98165C62.6127 4.67016 61.75 6.76538 60.271 9.26733C60.271 9.27965 60.2648 9.29814 60.2525 9.32279C60.0307 9.66788 59.9259 9.87741 59.9382 9.95136C59.9505 10.0253 60.0923 10.0438 60.3634 10.0068C60.4127 10.0068 60.4559 10.0068 60.4928 10.0068C60.6284 9.99449 60.764 9.98833 60.8996 9.98833C63.9684 9.79113 67.1236 9.70486 70.365 9.72951C70.5746 9.72951 70.7101 9.77881 70.7718 9.87741C70.8334 9.96368 70.8272 10.05 70.7533 10.1362C70.6793 10.2102 70.5314 10.241 70.3096 10.2287C66.834 10.167 63.4631 10.3273 60.197 10.7093C60.0861 10.7217 59.9875 10.734 59.9012 10.7463C59.7164 10.7463 59.5685 10.771 59.4575 10.8203C59.3466 10.8696 59.2295 10.9928 59.1063 11.19C57.5657 13.5564 55.9511 15.781 54.2626 17.8639C52.5864 19.9468 51.1876 21.4997 50.066 22.5227C50.0044 22.5843 49.9551 22.6275 49.9181 22.6521C49.8811 22.6768 49.8503 22.6953 49.8257 22.7076C49.801 22.7199 49.7764 22.7384 49.7517 22.763C49.7271 22.7877 49.6963 22.8247 49.6593 22.874C49.6223 22.9233 49.573 23.0034 49.5114 23.1143C46.7753 27.4773 44.0207 31.828 41.2476 36.1663C41.4694 36.1663 41.5742 36.2464 41.5619 36.4067C41.5372 36.5792 41.4386 36.7333 41.2661 36.8688C40.7238 37.2756 40.3479 37.3988 40.1383 37.2386C39.9288 37.0784 39.9411 36.7271 40.1753 36.1848C40.8162 35.1742 41.4571 34.1697 42.098 33.1714C46.5719 26.2202 50.9719 19.195 55.2979 12.0959C55.3472 11.9973 55.3965 11.911 55.4458 11.8371C55.5937 11.6275 55.6615 11.4858 55.6492 11.4119C55.6492 11.3256 55.5013 11.3071 55.2055 11.3564C52.9131 11.6892 50.5837 12.0589 48.2173 12.4656C48.2173 12.5026 48.2173 12.5396 48.2173 12.5765ZM57.8676 9.54464C57.7444 9.75416 57.6581 9.92671 57.6088 10.0623C57.5595 10.1979 57.5903 10.2595 57.7013 10.2472C57.8861 10.2225 58.071 10.204 58.2559 10.1917C58.3791 10.1917 58.4777 10.1794 58.5517 10.1547C58.6256 10.1301 58.6934 10.0808 58.755 10.0068C58.8167 9.92054 58.8968 9.79729 58.9954 9.63707C60.3634 7.29535 61.3124 5.22477 61.8424 3.42535C61.1769 4.16484 60.0245 5.91497 58.3853 8.67573C58.3113 8.79898 58.2374 8.92223 58.1634 9.04548C58.0648 9.2057 57.9662 9.37209 57.8676 9.54464ZM56.7029 11.4858C56.2839 12.176 55.8464 12.9032 55.3903 13.6673C54.2934 15.5653 53.1226 17.4634 51.8778 19.3614C51.2369 20.3227 51.28 20.4028 52.0072 19.6017C53.8682 17.4325 55.7971 14.7765 57.7937 11.6337C57.9293 11.3995 58.0217 11.2393 58.071 11.153C58.1203 11.0544 58.1203 10.999 58.071 10.9866C58.034 10.962 57.9539 10.9558 57.8307 10.9682C57.8183 10.9682 57.7999 10.9682 57.7752 10.9682C57.7506 10.9805 57.7197 10.9866 57.6828 10.9866C57.4732 10.999 57.2884 11.0359 57.1281 11.0976C56.9679 11.1469 56.8262 11.2763 56.7029 11.4858ZM54.5399 22.5042C54.5399 22.5042 54.5461 22.4981 54.5584 22.4857C54.6324 22.4241 54.8111 22.2577 55.0946 21.9866L64.1163 7.49255C64.7819 7.0735 65.2194 6.96874 65.4289 7.17826C65.6385 7.37546 65.7062 7.74521 65.6323 8.2875C65.5707 8.81747 65.4474 9.35976 65.2626 9.91438C65.0777 10.469 64.9236 10.888 64.8004 11.1715C64.0239 12.8354 63.0009 14.4869 61.7315 16.1261C60.462 17.753 59.2357 19.1827 58.0525 20.4152C56.8693 21.6476 56.0251 22.4919 55.5198 22.9479L54.429 24.5933C54.1086 25.0616 54.0161 25.2588 54.1517 25.1849C54.2873 25.1232 54.5646 24.9014 54.9836 24.5193C55.9696 23.595 57.0357 22.6336 58.1819 21.6353C59.3405 20.637 60.4189 19.8112 61.4172 19.158C62.4278 18.4925 63.2043 18.209 63.7466 18.3076C64.4614 18.4925 64.6155 19.3182 64.2088 20.7849C63.913 21.9434 63.7836 22.8185 63.8205 23.4101C63.8698 24.0017 64.0362 24.3406 64.3197 24.4269C65.0838 24.6241 66.4704 24.1311 68.4793 22.9479C68.6026 22.874 68.7074 22.8678 68.7936 22.9294C68.8922 22.991 68.9354 23.0835 68.923 23.2067C68.923 23.3177 68.8429 23.4286 68.6827 23.5395C67.6104 24.2174 66.6861 24.7104 65.9096 25.0185C65.1455 25.3266 64.5107 25.4006 64.0054 25.2403C62.8592 24.9322 62.6805 23.3238 63.4693 20.4152C63.7158 19.4415 63.5987 19.0101 63.118 19.121C62.6374 19.232 61.9472 19.6633 61.0475 20.4152C60.1477 21.1546 59.1864 22.0051 58.1634 22.9664C56.9926 24.051 55.9388 24.9692 55.0021 25.721C54.0654 26.4728 53.4492 26.7563 53.1534 26.5714C52.9439 26.4235 52.8576 26.214 52.8946 25.9429C52.9315 25.684 53.0301 25.4067 53.1904 25.1109C53.3383 24.8151 53.48 24.5625 53.6156 24.3529C53.6649 24.279 53.708 24.2112 53.745 24.1496L54.1702 23.4656C54.2811 23.2437 54.3489 23.0465 54.3735 22.874C54.3982 22.7137 54.4537 22.5905 54.5399 22.5042ZM59.7533 16.4034C58.1388 18.8314 58.2682 18.8745 60.1416 16.5328C61.4357 15.0292 62.5141 13.4701 63.3769 11.8555C63.8822 10.8696 64.1595 10.2656 64.2088 10.0438C64.2704 9.82194 64.1718 9.87124 63.913 10.1917C63.6542 10.5121 63.3091 10.9866 62.8777 11.6152C62.4587 12.2438 62.0211 12.9093 61.5651 13.6118C61.1091 14.302 60.7147 14.9121 60.3819 15.4421C60.0615 15.9351 59.8519 16.2555 59.7533 16.4034ZM96.9497 17.5127C96.9128 17.5127 96.8696 17.5188 96.8203 17.5311C96.315 17.5928 95.5386 17.6729 94.4909 17.7715C93.4557 17.8577 92.3587 17.8947 91.2002 17.8824C90.0417 17.8577 89.0249 17.716 88.1498 17.4572C87.2871 17.1984 86.7633 16.7485 86.5784 16.1076C86.4305 15.1463 87.1022 14.0124 88.5935 12.706C90.0848 11.3872 92.0568 10.0684 94.5094 8.74968C96.9744 7.4186 99.5811 6.24157 102.33 5.21861C105.09 4.19565 107.648 3.48697 110.002 3.09258C112.368 2.68586 114.198 2.7598 115.492 3.31442C116.799 3.85672 117.23 5.02758 116.787 6.82701C116.713 7.06118 116.608 7.20291 116.472 7.25221C116.337 7.30151 116.22 7.27686 116.121 7.17826C116.035 7.06734 116.022 6.90095 116.084 6.67911C116.417 5.26175 115.955 4.38668 114.698 4.05391C113.453 3.72114 111.721 3.78277 109.503 4.23879C107.284 4.69481 104.893 5.40348 102.33 6.36482C99.766 7.32616 97.338 8.40459 95.0456 9.6001C92.7531 10.7833 90.9044 11.9357 89.4994 13.0572C88.0943 14.1788 87.4534 15.1278 87.5767 15.9043C87.7246 16.4096 88.2977 16.7362 89.296 16.8841C90.2943 17.0197 91.5022 17.0443 92.9195 16.958C94.3369 16.8718 95.7542 16.73 97.1716 16.5328C98.589 16.3356 99.7906 16.1508 100.777 15.9782C101.442 15.855 101.991 15.7255 102.422 15.59C102.866 15.4544 103.365 15.2819 103.919 15.0723C104.043 15.023 104.172 14.9737 104.308 14.9244C105.072 14.6286 105.854 14.3513 106.656 14.0925C107.247 13.8953 107.913 13.7289 108.652 13.5933C109.404 13.4578 110.094 13.4085 110.723 13.4455C111.203 13.6426 111.401 13.8645 111.314 14.111C111.24 14.3575 111.031 14.5855 110.686 14.795C110.341 15.0045 110.008 15.1463 109.687 15.2202C108.011 15.59 106.323 15.9412 104.622 16.274C103.932 16.3973 103.346 16.5267 102.866 16.6622C102.385 16.7855 101.824 16.9827 101.183 17.2538C99.4579 17.981 97.757 18.7513 96.0808 19.5647C94.7251 20.2056 92.8764 21.1793 90.5347 22.4857C88.2053 23.7798 85.993 25.1849 83.8977 26.7008C81.8148 28.2168 80.4714 29.6157 79.8675 30.8974C79.5101 31.8588 79.886 32.4873 80.9952 32.7831C82.1168 33.0789 83.682 33.1344 85.691 32.9495C87.6999 32.777 89.8814 32.4565 92.2355 31.9882C94.5895 31.5198 96.8327 31.0022 98.9649 30.4353C101.109 29.8683 102.86 29.3445 104.215 28.8638C105.583 28.3955 106.28 28.0689 106.304 27.884C106.304 27.7115 106.452 27.5636 106.748 27.4403C107.056 27.3171 107.383 27.2246 107.728 27.163C108.073 27.1137 108.313 27.0952 108.449 27.1075C108.843 27.2678 109.016 27.4773 108.966 27.7361C108.93 28.0073 108.738 28.2353 108.393 28.4201C107.876 28.6666 107.333 28.8823 106.766 29.0672C106.693 29.1042 106.612 29.135 106.526 29.1596C105.898 29.3815 104.727 29.7451 103.014 30.2504C101.313 30.768 99.3223 31.3165 97.0422 31.8958C94.7744 32.475 92.4697 32.9742 90.1279 33.3932C87.7985 33.8246 85.6848 34.0649 83.7868 34.1142C81.9011 34.1635 80.4899 33.917 79.5532 33.3747C78.6165 32.8324 78.407 31.8834 78.9247 30.5277C79.393 29.4801 80.3112 28.3708 81.6793 27.2C83.0473 26.0291 84.6187 24.8891 86.3935 23.7798C88.1683 22.6583 89.8876 21.6538 91.5515 20.7664C93.2153 19.8667 94.5772 19.1642 95.6372 18.6589C95.9576 18.511 96.2842 18.3631 96.617 18.2152C97.0237 18.0303 97.3565 17.8701 97.6153 17.7345C97.8741 17.5989 97.9727 17.5065 97.9111 17.4572C97.8495 17.4079 97.529 17.4264 96.9497 17.5127ZM111.961 25.1109C112.208 24.507 112.584 23.7737 113.089 22.9109C113.582 22.0482 114.063 21.2224 114.531 20.4336C114.79 20.0146 115.012 19.651 115.197 19.3429C115.123 19.2443 115.086 19.1395 115.086 19.0286C115.086 18.9177 115.123 18.8191 115.197 18.7328C115.517 18.3877 115.751 18.1967 115.899 18.1597L115.936 18.1412C116.047 18.1042 116.146 18.1042 116.232 18.1412C116.417 18.2028 116.534 18.3199 116.583 18.4925C116.583 18.5048 116.583 18.5233 116.583 18.5479C116.583 18.5603 116.583 18.5726 116.583 18.5849C116.583 18.6958 116.552 18.8068 116.491 18.9177C116.035 19.6572 115.523 20.5014 114.956 21.4504C114.402 22.3871 113.909 23.2375 113.477 24.0017C113.773 23.7182 114.248 23.3115 114.901 22.7815C115.566 22.2392 116.226 21.7401 116.879 21.2841C117.545 20.8157 118.019 20.5692 118.303 20.5446C118.746 20.5569 118.999 20.7356 119.061 21.0807C119.122 21.4135 119.122 21.7894 119.061 22.2084C119.024 22.5289 119.017 22.8062 119.042 23.0403C119.067 23.2622 119.19 23.3731 119.412 23.3731C119.646 23.3731 120.04 23.1882 120.595 22.8185C120.755 22.7199 120.866 22.6953 120.928 22.7446C121.002 22.7939 121.026 22.8801 121.002 23.0034C120.977 23.1143 120.909 23.2067 120.798 23.2807C119.689 23.9832 118.956 24.1188 118.598 23.6874C118.241 23.2437 118.148 22.4919 118.321 21.432C118.062 21.4566 117.674 21.6785 117.156 22.0975C116.639 22.5042 116.078 22.9787 115.474 23.521C114.944 23.9894 114.439 24.4207 113.958 24.8151C113.477 25.2095 113.071 25.493 112.738 25.6655C112.491 25.7765 112.282 25.7765 112.109 25.6655C111.937 25.5546 111.887 25.3697 111.961 25.1109ZM130.486 19.4908C130.609 19.4538 130.763 19.4538 130.948 19.4908C131.133 19.5278 131.281 19.6017 131.392 19.7126C131.502 19.8236 131.515 19.9591 131.429 20.1194C131.108 20.8835 130.732 21.6292 130.301 22.3563C130.251 22.4303 130.208 22.5042 130.171 22.5782C129.913 23.0342 129.66 23.4902 129.413 23.9462C129.007 24.6857 128.575 25.4314 128.119 26.1832C127.971 26.4174 127.873 26.5899 127.824 26.7008C127.774 26.8241 127.756 26.9165 127.768 26.9781C127.78 27.0398 127.817 27.1075 127.879 27.1815C127.891 27.1938 127.904 27.2061 127.916 27.2185C127.99 27.3171 128.015 27.4218 127.99 27.5328C127.978 27.6437 127.928 27.7361 127.842 27.8101C127.435 28.1059 127.084 28.4017 126.788 28.6975C126.492 29.0056 126.209 29.3692 125.938 29.7882C125.642 30.2812 125.266 30.9036 124.81 31.6554C123.775 33.3932 122.641 35.205 121.408 37.0907C120.188 38.9887 119.245 40.215 118.58 40.7696C118.112 41.0778 117.748 41.1456 117.489 40.973C117.218 40.8128 117.132 40.4615 117.23 39.9192C117.464 38.9825 117.871 38.0027 118.45 36.9798C119.017 35.9568 119.603 35.0694 120.207 34.3176C121.439 32.74 122.77 31.2487 124.2 29.8437C124.681 29.3753 125.094 28.9378 125.439 28.5311C125.784 28.1367 126.135 27.656 126.492 27.0891L129.21 22.7261C129.432 22.3933 129.635 22.0544 129.82 21.7093C129.956 21.4628 130.011 21.3087 129.987 21.2471C129.974 21.1731 129.913 21.167 129.802 21.2286C129.691 21.2779 129.561 21.358 129.413 21.4689C129.278 21.5799 129.148 21.6908 129.025 21.8017C128.951 21.8633 128.89 21.9126 128.84 21.9496C128.52 22.1961 128.015 22.6151 127.324 23.2067C126.474 23.9339 125.506 24.7412 124.422 25.6286C123.337 26.516 122.32 27.2678 121.371 27.884C120.422 28.5126 119.732 28.8145 119.301 28.7899C118.783 28.7899 118.469 28.6235 118.358 28.2907C118.235 27.9703 118.216 27.5944 118.303 27.163C118.561 25.8689 119.227 24.4762 120.299 22.9849C121.371 21.4813 122.629 20.2118 124.071 19.1765C125.513 18.1412 126.924 17.6667 128.304 17.753C128.674 17.8023 128.939 17.9379 129.099 18.1597C129.259 18.3816 129.29 18.6096 129.192 18.8437C129.105 19.0779 128.865 19.2258 128.471 19.2874C128.347 19.3121 128.261 19.3059 128.212 19.2689C128.162 19.232 128.119 19.1827 128.082 19.121C128.058 19.0594 128.015 19.004 127.953 18.9547C127.904 18.893 127.817 18.8499 127.694 18.8252C127.583 18.8006 127.411 18.8129 127.176 18.8622C126.092 19.0717 124.976 19.6387 123.83 20.5631C122.684 21.4751 121.68 22.535 120.817 23.7429C119.954 24.9384 119.418 26.0661 119.208 27.126C119.134 27.5574 119.202 27.7854 119.412 27.8101C119.621 27.8347 119.892 27.7484 120.225 27.5512C120.546 27.354 120.848 27.1445 121.131 26.9227C121.415 26.7008 121.599 26.5468 121.686 26.4605C123.843 24.6118 126.049 22.8247 128.304 21.0992C129.019 20.5446 129.746 20.0084 130.486 19.4908ZM118.21 40.0302C118.432 39.9439 118.746 39.6049 119.153 39.0134C119.56 38.4341 119.979 37.7809 120.41 37.0537C120.829 36.3265 121.18 35.7041 121.464 35.1865C121.649 34.8537 121.772 34.638 121.834 34.5394C121.858 34.5025 121.895 34.447 121.945 34.3731C122.043 34.2252 122.16 34.0403 122.296 33.8184C122.431 33.6089 122.536 33.4055 122.61 33.2084C122.696 33.0235 122.709 32.9064 122.647 32.8571C122.536 32.8078 122.29 33.0173 121.908 33.4857C121.538 33.9663 121.106 34.5764 120.613 35.3159C120.133 36.0554 119.677 36.7887 119.245 37.5159C118.814 38.2554 118.494 38.8655 118.284 39.3461C118.075 39.8268 118.05 40.0548 118.21 40.0302ZM125.66 35.852C125.525 35.7904 125.469 35.661 125.494 35.4638C125.506 35.2666 125.642 34.9338 125.901 34.4655C126.147 33.9971 126.548 33.3131 127.103 32.4134C127.645 31.5137 128.372 30.3243 129.284 28.8454C130.319 27.1938 131.638 25.0739 133.24 22.4857C133.659 21.6969 134.516 20.218 135.81 18.0488C137.104 15.8673 138.546 13.5132 140.136 10.9866C141.726 8.44772 143.174 6.24157 144.481 4.3682C145.799 2.48249 146.699 1.42872 147.18 1.20687C147.932 0.985025 148.301 1.1699 148.289 1.76149C148.289 2.34076 148.079 3.09258 147.66 4.01694C147.254 4.92898 146.816 5.79172 146.348 6.60516C145.892 7.40627 145.59 7.92392 145.442 8.15809C145.43 8.17041 145.423 8.18274 145.423 8.19506C143.735 10.9189 141.868 13.655 139.822 16.4034C137.788 19.1519 136.223 20.9944 135.126 21.9311C134.916 22.079 134.775 22.1714 134.701 22.2084C134.639 22.2454 134.584 22.2824 134.534 22.3193C134.497 22.3563 134.448 22.4179 134.386 22.5042C134.325 22.5905 134.239 22.7261 134.128 22.9109L126.788 34.8722C126.825 34.8722 126.819 34.9338 126.77 35.0571C126.708 35.1927 126.622 35.3344 126.511 35.4823C126.4 35.6425 126.271 35.7596 126.123 35.8335C125.962 35.9198 125.808 35.926 125.66 35.852ZM136.235 19.5093C136.063 19.7804 135.976 19.9345 135.976 19.9715C135.989 20.0084 136.106 19.8913 136.328 19.6202C137.548 18.0673 138.91 16.2001 140.413 14.0186C141.917 11.8371 143.304 9.72335 144.573 7.67742C146.089 5.16315 146.964 3.54243 147.198 2.81527C147.445 2.0881 147.13 2.29762 146.255 3.44383C145.023 5.14466 143.809 6.96258 142.613 8.89758C141.418 10.8326 140.247 12.7799 139.101 14.7396C138.127 16.3911 137.172 17.981 136.235 19.5093ZM143.094 16.4959C143.427 16.5205 143.581 16.6253 143.556 16.8101C143.532 16.9827 143.408 17.1614 143.186 17.3463C142.977 17.5188 142.749 17.6359 142.502 17.6975C142.268 17.7468 142.096 17.6667 141.985 17.4572C141.96 17.3956 141.966 17.3401 142.003 17.2908C142.053 17.2292 142.114 17.1799 142.188 17.1429C142.274 17.0936 142.348 17.0505 142.41 17.0135C142.459 17.0012 142.496 16.9888 142.521 16.9765C142.546 16.9642 142.558 16.9519 142.558 16.9395C142.57 16.804 142.626 16.693 142.724 16.6068C142.823 16.5205 142.946 16.4835 143.094 16.4959ZM138.971 25.2773C138.491 25.2773 138.207 25.1232 138.121 24.8151C138.035 24.507 138.078 24.1188 138.25 23.6504C138.411 23.1698 138.639 22.6706 138.934 22.153C139.23 21.623 139.526 21.1423 139.822 20.711C140.118 20.2673 140.352 19.9283 140.524 19.6942C140.574 19.6079 140.617 19.5463 140.654 19.5093C140.58 19.3121 140.648 19.0964 140.857 18.8622C141.067 18.6157 141.313 18.437 141.597 18.3261C141.88 18.2028 142.083 18.2213 142.207 18.3816C142.293 18.5171 142.311 18.6465 142.262 18.7698C142.213 18.893 142.145 19.0101 142.059 19.121C142.034 19.1457 142.009 19.1765 141.985 19.2135C141.516 19.879 141.005 20.6247 140.45 21.4504C139.908 22.2639 139.501 22.9479 139.23 23.5025C139.021 23.9832 139.15 24.2482 139.618 24.2975C140.099 24.3468 140.715 24.2728 141.467 24.0756C142.231 23.8784 142.928 23.6689 143.556 23.4471C144.197 23.2129 144.579 23.0588 144.702 22.9849C144.838 22.9109 144.943 22.8986 145.017 22.9479C145.103 22.9972 145.14 23.0773 145.128 23.1882C145.115 23.2868 145.029 23.3916 144.869 23.5025C144.068 23.9462 143.02 24.3529 141.726 24.7227C140.444 25.0924 139.526 25.2773 138.971 25.2773ZM143.26 25.2403C143.359 25.1787 143.476 25.0062 143.612 24.7227C143.747 24.4392 143.901 24.0941 144.074 23.6874C144.394 22.874 144.77 22.079 145.202 21.3025C145.633 20.5261 146.12 20.0885 146.662 19.9899C146.835 20.0269 146.964 20.1132 147.05 20.2488C147.137 20.372 147.112 20.5199 146.976 20.6925C146.767 20.9759 146.582 21.2039 146.422 21.3765C146.274 21.5367 146.12 21.6969 145.96 21.8572C145.799 22.0174 145.602 22.2207 145.368 22.4672C145.208 22.874 145.054 23.2807 144.906 23.6874C144.844 23.8846 144.776 24.0756 144.702 24.2605C144.665 24.3961 144.641 24.4947 144.628 24.5563C144.628 24.6056 144.647 24.6303 144.684 24.6303C144.733 24.6303 144.795 24.6179 144.869 24.5933C144.881 24.581 144.893 24.5748 144.906 24.5748C145.152 24.5008 145.325 24.507 145.423 24.5933C145.522 24.6672 145.553 24.7658 145.516 24.8891C145.479 25.0123 145.386 25.1171 145.239 25.2034C145.103 25.2773 144.967 25.3204 144.832 25.3328C144.672 25.3574 144.518 25.419 144.37 25.5176C144.283 25.5793 144.197 25.6717 144.111 25.795C144.025 25.9182 143.951 26.0353 143.889 26.1462C143.421 27.0459 142.755 27.8902 141.892 28.679C141.03 29.4678 140.007 29.9423 138.823 30.1025C137.899 30.1888 137.449 30.0717 137.474 29.7512C137.499 29.4308 137.825 28.9933 138.454 28.4386C139.07 27.8963 139.822 27.3356 140.709 26.7563C141.597 26.177 142.447 25.6717 143.26 25.2403ZM142.318 26.9966C142.379 26.9227 142.447 26.8364 142.521 26.7378C142.595 26.6515 142.656 26.5653 142.706 26.479C142.755 26.3927 142.78 26.3249 142.78 26.2756C142.78 26.2386 142.743 26.2325 142.669 26.2571C142.398 26.3804 142.028 26.6022 141.56 26.9227C141.079 27.2554 140.592 27.6067 140.099 27.9765C139.606 28.3585 139.212 28.6851 138.916 28.9563C138.608 29.2274 138.491 29.3692 138.565 29.3815C138.971 29.4061 139.557 29.1781 140.321 28.6975C141.085 28.2291 141.751 27.6622 142.318 26.9966ZM148.603 22.5042C148.603 22.5042 148.609 22.4981 148.622 22.4857C148.696 22.4241 148.874 22.2577 149.158 21.9866L158.18 7.49255C158.845 7.0735 159.283 6.96874 159.492 7.17826C159.702 7.37546 159.77 7.74521 159.696 8.2875C159.634 8.81747 159.511 9.35976 159.326 9.91438C159.141 10.469 158.987 10.888 158.864 11.1715C158.087 12.8354 157.064 14.4869 155.795 16.1261C154.525 17.753 153.299 19.1827 152.116 20.4152C150.933 21.6476 150.088 22.4919 149.583 22.9479L148.492 24.5933C148.172 25.0616 148.079 25.2588 148.215 25.1849C148.351 25.1232 148.628 24.9014 149.047 24.5193C150.033 23.595 151.099 22.6336 152.245 21.6353C153.404 20.637 154.482 19.8112 155.48 19.158C156.491 18.4925 157.268 18.209 157.81 18.3076C158.525 18.4925 158.679 19.3182 158.272 20.7849C157.976 21.9434 157.847 22.8185 157.884 23.4101C157.933 24.0017 158.099 24.3406 158.383 24.4269C159.147 24.6241 160.534 24.1311 162.543 22.9479C162.666 22.874 162.771 22.8678 162.857 22.9294C162.955 22.991 162.999 23.0835 162.986 23.2067C162.986 23.3177 162.906 23.4286 162.746 23.5395C161.674 24.2174 160.749 24.7104 159.973 25.0185C159.209 25.3266 158.574 25.4006 158.069 25.2403C156.922 24.9322 156.744 23.3238 157.533 20.4152C157.779 19.4415 157.662 19.0101 157.181 19.121C156.701 19.232 156.01 19.6633 155.111 20.4152C154.211 21.1546 153.25 22.0051 152.227 22.9664C151.056 24.051 150.002 24.9692 149.065 25.721C148.129 26.4728 147.512 26.7563 147.217 26.5714C147.007 26.4235 146.921 26.214 146.958 25.9429C146.995 25.684 147.093 25.4067 147.254 25.1109C147.402 24.8151 147.543 24.5625 147.679 24.3529C147.728 24.279 147.771 24.2112 147.808 24.1496L148.233 23.4656C148.344 23.2437 148.412 23.0465 148.437 22.874C148.461 22.7137 148.517 22.5905 148.603 22.5042ZM153.817 16.4034C152.202 18.8314 152.331 18.8745 154.205 16.5328C155.499 15.0292 156.577 13.4701 157.44 11.8555C157.945 10.8696 158.223 10.2656 158.272 10.0438C158.334 9.82194 158.235 9.87124 157.976 10.1917C157.717 10.5121 157.372 10.9866 156.941 11.6152C156.522 12.2438 156.084 12.9093 155.628 13.6118C155.172 14.302 154.778 14.9121 154.445 15.4421C154.125 15.9351 153.915 16.2555 153.817 16.4034Z" fill="#08D7FC"/>
</svg>
