<svg width="35" height="35" viewBox="0 0 35 35" fill="none" xmlns="http://www.w3.org/2000/svg">
<rect x="0.945312" y="0.569336" width="34" height="34" rx="4" fill="#11181E"/>
<path d="M14.516 25.0264C12.3883 25.0264 10.4048 24.3889 8.73535 23.289C10.1528 23.3835 12.6542 23.1572 14.2101 21.6285C11.8695 21.5178 10.814 19.6687 10.6763 18.8785C10.8752 18.9575 11.8236 19.0523 12.3591 18.831C9.66664 18.1356 9.2536 15.7017 9.34539 14.9589C9.85022 15.3224 10.7069 15.4489 11.0434 15.4173C8.53461 13.5681 9.43718 10.7865 9.88081 10.1859C11.6812 12.7554 14.3795 14.1985 17.7177 14.2787C17.6547 13.9944 17.6215 13.6983 17.6215 13.3943C17.6215 11.2121 19.3338 9.44312 21.4459 9.44312C22.5495 9.44312 23.5439 9.92603 24.242 10.6985C24.9795 10.5205 26.0893 10.1038 26.6319 9.7434C26.3584 10.7549 25.507 11.5987 24.9919 11.9114C24.9878 11.9007 24.9962 11.9221 24.9919 11.9114C25.4444 11.8409 26.6684 11.5986 27.152 11.2606C26.9129 11.8289 26.0102 12.7737 25.2694 13.3026C25.4072 19.5642 20.7565 25.0264 14.516 25.0264Z" fill="white"/>
</svg>
