<svg width="20" height="17" viewBox="0 0 20 17" fill="none" xmlns="http://www.w3.org/2000/svg">
<path d="M6.51604 16.0264C4.38826 16.0264 2.40481 15.3889 0.735352 14.289C2.15277 14.3835 4.6542 14.1572 6.21009 12.6285C3.86952 12.5178 2.81398 10.6687 2.6763 9.87846C2.87517 9.95748 3.82363 10.0523 4.35905 9.83105C1.66664 9.13564 1.2536 6.70174 1.34539 5.95892C1.85022 6.32242 2.70689 6.44886 3.04344 6.41725C0.534605 4.56811 1.43718 1.78651 1.88081 1.18593C3.68125 3.75536 6.37954 5.19845 9.71767 5.27872C9.65474 4.99437 9.6215 4.69833 9.6215 4.39426C9.6215 2.21211 11.3338 0.443115 13.4459 0.443115C14.5495 0.443115 15.5439 0.926032 16.242 1.69848C16.9795 1.52047 18.0893 1.10376 18.6319 0.743403C18.3584 1.7549 17.507 2.59869 16.9919 2.91143C16.9878 2.90075 16.9962 2.92207 16.9919 2.91143C17.4444 2.84094 18.6684 2.59861 19.152 2.26064C18.9129 2.82889 18.0102 3.7737 17.2694 4.30265C17.4072 10.5642 12.7565 16.0264 6.51604 16.0264Z" fill="white"/>
</svg>
