<svg width="35" height="35" viewBox="0 0 35 35" fill="none" xmlns="http://www.w3.org/2000/svg">
<rect x="0.945312" y="0.569336" width="34" height="34" rx="4" fill="#11181E"/>
<path d="M23.473 22.4106H12.8034C11.4037 22.4106 10.269 21.2759 10.269 19.8762V13.6945C10.269 12.2948 11.4037 11.1602 12.8034 11.1602H23.473C24.8726 11.1602 26.0073 12.2948 26.0073 13.6945V19.8763C26.0073 21.2759 24.8726 22.4106 23.473 22.4106Z" fill="white"/>
<path d="M23.474 11.1599H22.524C23.9231 11.1599 25.0573 12.295 25.0573 13.6952V19.875C25.0573 21.2752 23.9231 22.4103 22.524 22.4103H23.474C24.8731 22.4103 26.0073 21.2752 26.0073 19.875V13.6952C26.0073 12.295 24.8731 11.1599 23.474 11.1599Z" fill="white"/>
<path d="M16.2556 14.5808V18.989C16.2556 19.2824 16.5758 19.4632 16.8268 19.3117L20.4779 17.1076C20.7207 16.9611 20.7207 16.6087 20.4779 16.4621L16.8268 14.258C16.5758 14.1065 16.2556 14.2874 16.2556 14.5808Z" fill="#11181E"/>
</svg>
