<svg width="224" height="138" viewBox="0 0 224 138" fill="none" xmlns="http://www.w3.org/2000/svg">
<path d="M72.0888 58.4773L68.6399 59.1205C67.46 59.3962 66.3708 58.4773 66.3708 57.1909V46.1644C66.3708 46.1644 66.9154 44.786 69.1844 44.8779C71.4534 44.9698 77.4436 47.5427 77.3528 48.2778C77.3528 48.8291 74.7208 54.9856 73.7224 57.099C73.4502 57.8341 72.8148 58.2935 72.0888 58.4773Z" fill="url(#paint0_linear_1_4106)"/>
<path d="M99.1381 53.3314L78.8078 40.6509L75.9942 38.3537C73.9975 35.7808 70.2763 39.732 70.2763 39.732C70.2763 39.732 67.8258 40.0995 67.9165 40.9265C68.0073 41.5698 67.9165 44.0507 67.9165 45.429C67.9165 45.8885 67.9165 46.7155 68.4611 47.1749C70.7301 49.1045 73.9975 48.737 75.7219 48.5532C76.6295 48.4613 77.6279 48.8289 78.2632 49.4721L88.3376 59.6716L99.1381 53.3314Z" fill="url(#paint1_linear_1_4106)"/>
<path opacity="0.35" d="M99.1381 53.3314L78.8078 40.6509L75.9942 38.3537C73.9975 35.7808 70.2763 39.732 70.2763 39.732C70.2763 39.732 67.8258 40.0995 67.9165 40.9265C68.0073 41.5698 67.9165 44.0507 67.9165 45.429C67.9165 45.8885 67.9165 46.7155 68.4611 47.1749C70.7301 49.1045 73.9975 48.737 75.7219 48.5532C76.6295 48.4613 77.6279 48.8289 78.2632 49.4721L88.3376 59.6716L99.1381 53.3314Z" fill="url(#paint2_linear_1_4106)"/>
<path d="M78.8963 38.2617V39.3644C78.8963 39.3644 78.624 39.8238 77.9887 40.0076V40.8346C77.9887 40.8346 78.624 40.8346 78.8963 40.1914V41.5697C78.8963 42.3048 76.1734 43.1318 72.8153 43.2236C69.4572 43.3155 66.7344 42.5804 66.7344 41.8453V38.5374L78.8963 38.2617Z" fill="url(#paint3_linear_1_4106)"/>
<path d="M66.7344 38.5375C66.7344 39.2726 69.4572 40.0996 72.8153 39.9158C76.1734 39.8239 78.8963 38.9969 78.8963 38.2618C78.8963 37.5267 76.1734 36.9754 72.8153 37.1592C69.4572 37.3429 66.7344 37.8024 66.7344 38.5375Z" fill="url(#paint4_linear_1_4106)"/>
<g opacity="0.61">
<path d="M70.8197 41.7535C71.4551 41.7535 72.0904 41.7535 72.7257 41.7535C74.8132 41.6616 76.7192 41.3859 77.899 40.9265V40.3752C76.8099 40.8346 74.8132 41.1103 72.8165 41.2022C70.0029 41.2941 67.8247 40.7427 67.0078 40.1914V40.8346C67.6431 41.2941 69.1861 41.6616 70.8197 41.7535Z" fill="url(#paint5_linear_1_4106)"/>
</g>
<g opacity="0.61">
<path d="M70.9096 42.9483C71.5449 42.9483 72.1802 42.9483 72.8156 42.9483C74.903 42.8564 76.809 42.5808 77.9889 42.1213V41.57C76.8998 42.0294 74.903 42.3051 72.9063 42.397C70.0927 42.4889 67.9145 41.9376 67.0977 41.3862V42.0294C67.733 42.4889 69.1851 42.7645 70.9096 42.9483Z" fill="url(#paint6_linear_1_4106)"/>
</g>
<path d="M68.0965 38.17C68.8226 37.8025 70.7286 37.6187 72.9976 37.5268C75.2666 37.4349 77.1725 37.6187 77.8079 37.9863H78.0801V38.2619C78.0801 38.8133 75.7204 39.2727 72.9068 39.4565C70.0932 39.5484 67.8242 39.0889 67.8242 38.5376V38.2619L68.0965 38.17Z" fill="url(#paint7_linear_1_4106)"/>
<path d="M67.8242 38.1698C67.8242 38.7211 70.0932 39.1805 72.9976 39.0887C75.8111 38.9968 78.1709 38.4454 78.1709 37.8941C78.1709 37.3428 75.9019 37.0671 73.0883 37.159C70.184 37.2509 67.8242 37.6185 67.8242 38.1698Z" fill="url(#paint8_linear_1_4106)"/>
<path d="M77.8079 30.1758L77.7171 37.8025C77.7171 38.2619 75.4481 38.7213 72.816 38.8132C70.0932 38.9051 67.915 38.4457 67.915 37.9862L67.8242 33.4837L77.8079 30.1758Z" fill="url(#paint9_linear_1_4106)"/>
<path d="M73.9912 27.6029C73.9912 27.6029 74.082 26.3165 73.9005 25.3057C73.6282 24.295 73.9912 23.5599 75.8972 22.3653C77.5309 21.2627 88.4221 15.5656 91.3265 14.0036C91.6895 13.8198 92.4156 13.8198 92.9602 14.0036L97.4982 15.7494C98.2243 16.0251 98.5873 16.5764 98.1335 16.944L86.6977 27.0516C86.6977 27.0516 85.2455 28.4299 84.2472 28.7056C83.2488 28.9812 79.8907 30.1758 79.1646 30.5433L73.9912 27.6029Z" fill="url(#paint10_linear_1_4106)"/>
<path d="M73.9912 27.2352C73.9912 27.2352 74.082 25.9488 73.9005 24.9381C73.6282 23.9273 73.9912 23.1922 75.8972 21.9976C77.5309 20.895 88.4221 15.198 91.3265 13.6359C91.6895 13.4521 92.4156 13.4521 92.9602 13.6359L97.4982 15.3817C98.2243 15.6574 98.5873 16.2087 98.1335 16.5763L86.6977 26.6839C86.6977 26.6839 85.2455 28.0622 84.2472 28.3379C83.2488 28.6136 80.3445 29.7162 79.8907 30.0838L73.9912 27.2352Z" fill="url(#paint11_linear_1_4106)"/>
<path d="M72.3575 36.1485C72.3575 36.1485 72.539 40.1916 72.0852 41.0185C71.6314 41.8455 70.7238 42.6725 68.9086 43.5914C67.3656 44.4184 57.4728 49.0128 54.5684 50.2992C54.1146 50.483 53.3886 50.483 52.844 50.2073L48.1245 47.9101C47.4891 47.6345 47.2169 47.0831 47.6707 46.8075L61.1032 35.4134C61.1032 35.4134 62.1015 34.127 64.0983 33.8513C66.095 33.5756 67.0026 33.1162 67.0026 33.1162L72.3575 36.1485Z" fill="url(#paint12_linear_1_4106)"/>
<path d="M72.0879 35.8726C72.0879 35.8726 72.2695 39.9157 71.8157 40.7427C71.3619 41.5697 70.4543 42.3966 68.639 43.3155C67.0961 44.1425 57.2032 48.7369 54.2989 50.0233C53.8451 50.2071 53.119 50.2071 52.5745 49.9314L47.8549 47.6342C47.2196 47.3586 46.9473 46.8072 47.4011 46.5316L60.8337 35.1375C60.8337 35.1375 61.832 33.8511 63.8287 33.5754C65.8255 33.2998 66.7331 32.8403 66.7331 32.8403L72.0879 35.8726Z" fill="url(#paint13_linear_1_4106)"/>
<path d="M78.1697 30.6351C78.1697 30.6351 79.8942 30.9108 81.3463 28.7055C82.8893 26.5002 80.2572 25.3056 78.5328 25.3975C76.8083 25.4894 73.1779 26.7758 73.541 27.7866C73.9948 28.7055 78.1697 30.6351 78.1697 30.6351Z" fill="#717481"/>
<path d="M73.4509 34.0347C73.4509 34.0347 73.9047 35.3211 72.271 36.3319C70.5466 37.3427 68.2776 37.6183 66.5531 36.7913C64.8287 35.9643 64.9195 34.2185 65.7363 33.4834C66.5531 32.7483 68.2776 31.5537 69.4575 31.6456C70.5466 31.8294 73.4509 34.0347 73.4509 34.0347Z" fill="#717481"/>
<path d="M69.9106 34.1267C71.4535 34.8618 73.3595 34.9537 74.0856 34.3105L79.2589 30.0836C80.0758 29.4404 79.4404 28.3378 77.8975 27.6027C76.3546 26.8676 74.4486 26.7757 73.7225 27.4189L68.5492 31.6457C67.7324 32.1971 68.3677 33.2997 69.9106 34.1267Z" fill="#252424"/>
<path d="M72.7241 30.2673C72.3611 30.543 72.5426 31.0943 73.1779 31.3699C73.8132 31.6456 74.6301 31.6456 74.9931 31.3699C75.3561 31.0943 75.1746 30.543 74.5393 30.2673C73.904 29.9916 73.0871 29.9916 72.7241 30.2673Z" fill="url(#paint14_radial_1_4106)"/>
<path d="M72.9951 30.359C72.7228 30.6347 72.9044 31.0022 73.3582 31.2779C73.9027 31.5536 74.538 31.5536 74.8103 31.2779C75.0826 31.0022 74.9011 30.6347 74.4473 30.359C73.9027 30.1752 73.2674 30.1752 72.9951 30.359Z" fill="url(#paint15_radial_1_4106)"/>
<path d="M70.3647 32.197C70.0017 32.4726 70.1832 33.024 70.8185 33.2996C71.4538 33.5753 72.2707 33.5753 72.6337 33.2996C72.9968 33.024 72.8152 32.4726 72.1799 32.197C71.5446 31.9213 70.7278 31.9213 70.3647 32.197Z" fill="url(#paint16_radial_1_4106)"/>
<path d="M70.6357 32.2887C70.3635 32.5644 70.545 32.9319 70.9988 33.2076C71.5433 33.4832 72.1787 33.4832 72.4509 33.2076C72.7232 32.9319 72.5417 32.5644 72.0879 32.2887C71.5434 32.1049 70.908 32.1049 70.6357 32.2887Z" fill="url(#paint17_radial_1_4106)"/>
<path d="M74.9038 28.5218C74.5407 28.7974 74.7223 29.3487 75.3576 29.6244C75.9929 29.9001 76.8097 29.9001 77.1728 29.6244C77.5358 29.3487 77.3543 28.7974 76.719 28.5218C76.0837 28.1542 75.3576 28.1542 74.9038 28.5218Z" fill="url(#paint18_radial_1_4106)"/>
<path d="M75.1748 28.6135C74.9025 28.8891 75.084 29.2567 75.5378 29.5324C76.0824 29.808 76.7177 29.808 76.99 29.5324C77.2623 29.2567 77.0808 28.8891 76.627 28.6135C76.0824 28.3378 75.4471 28.3378 75.1748 28.6135Z" fill="url(#paint19_radial_1_4106)"/>
<path d="M31.971 87.881C31.971 87.881 30.8819 89.1674 27.9776 89.0755C24.9825 88.9836 19.6276 101.48 18.9015 101.756C18.1755 101.94 17.7217 101.848 17.9939 97.8967C18.2662 93.8537 18.72 89.8106 18.72 89.8106L26.2531 84.2974H29.8835L31.971 87.881Z" fill="url(#paint20_linear_1_4106)"/>
<path d="M68.7292 89.4432L36.8723 85.6759C36.8723 85.6759 34.5126 85.0326 33.4234 86.8704C32.3343 88.7082 27.3425 88.4325 23.9844 87.5136L27.161 78.7843L33.605 77.6816C33.605 77.6816 34.9664 79.2437 40.8658 79.1518C46.7652 79.06 70.9982 80.622 73.1765 81.3571C75.3547 82.0004 68.7292 89.4432 68.7292 89.4432Z" fill="url(#paint21_linear_1_4106)"/>
<path opacity="0.35" d="M68.7292 89.4432L36.8723 85.6759C36.8723 85.6759 34.5126 85.0326 33.4234 86.8704C32.3343 88.7082 27.3425 88.4325 23.9844 87.5136L27.161 78.7843L33.605 77.6816C33.605 77.6816 34.9664 79.2437 40.8658 79.1518C46.7652 79.06 70.9982 80.622 73.1765 81.3571C75.3547 82.0004 68.7292 89.4432 68.7292 89.4432Z" fill="url(#paint22_linear_1_4106)"/>
<path d="M24.2578 69.9629H31.3371V73.7303H24.2578V69.9629Z" fill="url(#paint23_linear_1_4106)"/>
<path d="M34.0595 79.2432C34.0595 79.2432 33.7872 78.7838 32.4258 79.1513L32.8796 80.0702L33.1519 80.1621L33.8779 79.7945C33.7872 79.7945 34.0595 79.6107 34.0595 79.2432Z" fill="url(#paint24_radial_1_4106)"/>
<path d="M34.0587 77.1299V78.3244C34.0587 78.3244 33.7864 78.8758 33.0603 79.0595V79.8865C33.0603 79.8865 33.7864 79.8865 33.9679 79.2433V80.7135C33.9679 81.5405 31.0636 82.3675 27.4332 82.4594C23.8028 82.6431 20.8984 81.8162 20.8984 80.9892V77.4055L34.0587 77.1299Z" fill="url(#paint25_linear_1_4106)"/>
<path d="M21.0781 77.4055C21.0781 78.2325 23.9825 79.0595 27.6129 78.8757C31.2433 78.6919 34.1476 77.9568 34.1476 77.1298C34.1476 76.3029 31.2433 75.7515 27.7036 75.9353C23.9825 76.1191 21.0781 76.5785 21.0781 77.4055Z" fill="url(#paint26_linear_1_4106)"/>
<g opacity="0.61">
<path d="M25.4367 80.8057C26.072 80.8057 26.7981 80.8057 27.4334 80.8057C29.6117 80.7139 31.6992 80.3463 32.879 79.8869V79.3355C31.6992 79.795 29.6117 80.1625 27.4334 80.2544C24.4383 80.3463 22.0786 79.7031 21.2617 79.2437V79.8869C22.0786 80.3463 23.6215 80.7139 25.4367 80.8057Z" fill="url(#paint27_linear_1_4106)"/>
</g>
<g opacity="0.61">
<path d="M25.4367 82.0919C26.072 82.0919 26.7981 82.0919 27.4334 82.0919C29.6117 82 31.6992 81.6324 32.879 81.173V80.6217C31.6992 81.0811 29.6117 81.4487 27.4334 81.5405C24.4383 81.6324 22.0786 80.9892 21.2617 80.5298V81.173C22.0786 81.6324 23.7122 82 25.4367 82.0919Z" fill="url(#paint28_linear_1_4106)"/>
</g>
<path d="M22.5349 76.9465C23.261 76.579 25.3485 76.3033 27.7083 76.2114C30.068 76.1195 32.1555 76.3033 32.8816 76.6708H33.1539V77.0384C33.1539 77.5897 30.7033 78.141 27.6175 78.3248C24.6224 78.4167 22.1719 77.9573 22.1719 77.4059V77.0384L22.5349 76.9465Z" fill="url(#paint29_linear_1_4106)"/>
<path d="M22.2617 77.0381C22.2617 77.5894 24.7122 78.1407 27.7073 78.0488C30.7024 77.9569 33.153 77.3137 33.2437 76.7624C33.2437 76.2111 30.7932 75.8435 27.7981 76.0273C24.7122 76.0273 22.2617 76.3948 22.2617 77.0381Z" fill="url(#paint30_linear_1_4106)"/>
<path d="M32.0638 72.0763C32.5176 71.9844 32.8807 72.352 32.8807 72.8114L32.7899 76.5788C32.6992 77.0382 30.4302 77.5896 27.5258 77.6814C24.6215 77.7733 22.2617 77.3139 22.2617 76.8544L22.3525 72.7195C22.3525 72.352 22.7155 71.9844 23.0786 72.0763C24.1677 72.1682 26.1644 72.4438 27.5258 72.4438C29.1595 72.4438 31.0655 72.2601 32.0638 72.0763Z" fill="url(#paint31_linear_1_4106)"/>
<path d="M25.1648 67.8498C25.1648 67.8498 25.074 66.7472 24.2572 65.9202C23.4404 65.1851 23.3496 64.5419 24.4387 63.1636C25.3463 61.969 32.3349 54.9856 34.0593 53.1478C34.3316 52.8722 34.9669 52.7803 35.6022 52.7803L40.8663 53.2397C41.7739 53.3316 42.4093 53.6991 42.2277 54.0667L37.3267 64.5419C37.3267 64.5419 36.7821 65.9202 35.9653 66.3796C35.1484 66.8391 33.0609 68.3093 32.3349 68.8606L25.1648 67.8498Z" fill="url(#paint32_linear_1_4106)"/>
<path d="M25.5297 67.4821C25.5297 67.4821 24.8944 66.3794 24.0775 65.6443C23.2607 64.9092 23.1699 64.266 24.259 62.8877C25.1666 61.6932 32.1552 54.7097 33.8796 52.8719C34.1519 52.5963 34.7872 52.5044 35.4226 52.5044L40.6866 52.9638C41.5943 53.0557 42.2296 53.4233 42.0481 53.7908L37.147 64.266C37.147 64.266 36.6024 65.6443 35.7856 66.1038C34.9687 66.5632 32.8813 68.0334 32.6997 68.4928L25.5297 67.4821Z" fill="url(#paint33_linear_1_4106)"/>
<path d="M28.6146 75.1087C28.6146 75.1087 31.1559 78.3248 31.1559 79.0599C31.1559 79.795 30.7928 80.7138 29.7037 81.8165C28.7053 82.7354 22.0798 88.6162 20.1739 90.2701C19.9016 90.5458 19.1755 90.6377 18.5402 90.5458L12.7315 89.7188C11.9147 89.6269 11.2794 89.1675 11.4609 88.7999L17.5418 76.8546C17.5418 76.8546 17.7233 75.66 19.4478 75.0168C21.1722 74.3736 21.7168 73.8223 21.7168 73.8223L28.6146 75.1087Z" fill="url(#paint34_linear_1_4106)"/>
<path d="M28.5238 74.9251C28.5238 74.9251 31.065 78.1412 31.065 78.8763C31.065 79.6114 30.702 80.5302 29.6129 81.6329C28.6145 82.5518 21.989 88.4326 20.083 90.0866C19.8108 90.3622 19.0847 90.4541 18.4494 90.3622L12.6407 89.5352C11.8239 89.4433 11.3701 89.0758 11.5516 88.7082L17.5418 76.671C17.5418 76.671 17.7233 75.4764 19.4477 74.8332C21.1722 74.19 21.7167 73.6387 21.7167 73.6387L28.5238 74.9251Z" fill="url(#paint35_linear_1_4106)"/>
<path d="M31.4257 69.3199C31.4257 69.3199 33.1502 69.1361 33.3317 67.1146C33.5132 65.0931 30.4273 64.6336 28.7937 65.0931C27.16 65.5525 24.5279 67.2984 25.4355 68.0335C26.4339 68.6767 31.4257 69.3199 31.4257 69.3199Z" fill="#717481"/>
<path d="M28.9784 73.0871C28.9784 73.0871 30.249 74.006 29.1599 75.2005C28.1615 76.3951 26.1648 77.0383 24.0773 76.7626C21.9898 76.487 20.9915 75.0168 21.3545 74.2817C21.7176 73.5465 22.6252 72.1682 23.805 72.0764C24.9849 71.8926 28.9784 73.0871 28.9784 73.0871Z" fill="#717481"/>
<path d="M25.6208 73.9144C27.5268 74.1901 29.342 73.8226 29.7051 73.1793L32.1556 68.6768C32.5186 68.0336 31.248 67.2066 29.4328 66.931C27.5268 66.6553 25.7116 67.0229 25.3486 67.6661L22.898 72.1686C22.535 72.9037 23.8056 73.6388 25.6208 73.9144Z" fill="#252424"/>
<path d="M26.1647 70.2386C25.9832 70.6061 26.437 70.8818 27.2539 70.9737C27.9799 71.0656 28.7968 70.8818 28.9783 70.6061C29.1598 70.3305 28.706 69.9629 27.8892 69.871C27.0723 69.7791 26.3463 69.871 26.1647 70.2386Z" fill="url(#paint36_radial_1_4106)"/>
<path d="M26.4388 70.2386C26.2573 70.5142 26.7111 70.7899 27.3464 70.8818C27.9817 70.9737 28.617 70.7899 28.7078 70.6061C28.8893 70.3305 28.4355 70.0548 27.8909 69.9629C27.1649 69.871 26.5295 70.0548 26.4388 70.2386Z" fill="url(#paint37_radial_1_4106)"/>
<path d="M25.0749 72.2601C24.8934 72.5358 25.3472 72.9033 26.164 72.9952C26.8901 73.0871 27.7069 72.9033 27.8885 72.6277C28.07 72.352 27.6162 71.9844 26.7993 71.8926C25.9825 71.8007 25.2564 71.9844 25.0749 72.2601Z" fill="url(#paint38_radial_1_4106)"/>
<path d="M25.3453 72.3521C25.1638 72.6277 25.6176 72.9034 26.1622 72.9953C26.7975 73.0872 27.4328 72.9034 27.5236 72.7196C27.7051 72.444 27.2513 72.1683 26.616 72.0764C26.0714 71.8926 25.4361 72.0764 25.3453 72.3521Z" fill="url(#paint39_radial_1_4106)"/>
<path d="M27.1647 68.3089C26.9832 68.6765 27.437 68.9521 28.2539 69.044C28.9799 69.1359 29.7968 68.9521 29.9783 68.6765C30.1598 68.3089 29.706 68.0333 28.8892 67.9414C28.0723 67.8495 27.3463 68.0333 27.1647 68.3089Z" fill="url(#paint40_radial_1_4106)"/>
<path d="M27.4352 68.4009C27.2537 68.6766 27.7075 68.9522 28.252 69.0441C28.8873 69.136 29.5227 68.9522 29.6134 68.7685C29.795 68.4928 29.3411 68.2171 28.7058 68.1252C28.1613 67.9415 27.6167 68.1252 27.4352 68.4009Z" fill="url(#paint41_radial_1_4106)"/>
<path d="M67.7305 87.6053C67.7305 87.6053 71.9962 64.5416 112.385 36.5158C113.927 35.4132 115.833 34.9537 117.739 35.1375C120.281 35.4132 124.274 35.8726 128.812 36.7915C134.621 38.0779 138.977 42.7642 139.794 48.7369C140.429 53.0556 140.702 58.1094 139.885 62.1525C139.885 62.1525 120.371 95.0482 90.1483 102.215L67.7305 87.6053Z" fill="url(#paint42_linear_1_4106)"/>
<path d="M81.6186 87.5134L79.5311 87.3297C79.5311 87.1459 79.5311 83.1028 82.1632 79.3354L83.9784 80.0706C81.6186 83.3785 81.6186 87.5134 81.6186 87.5134Z" fill="url(#paint43_linear_1_4106)"/>
<path d="M103.219 95.1405C103.219 95.1405 132.444 108.097 133.805 109.842C135.167 111.588 134.894 113.15 136.346 113.977C137.799 114.713 141.61 118.48 146.693 116.458C151.685 114.437 149.779 113.334 149.779 113.334V108.832C149.779 108.832 151.322 108.464 150.505 106.718C149.688 104.881 136.619 102.308 136.619 102.308C136.619 102.308 113.656 90.9136 112.93 89.811C111.932 88.2489 109.754 88.8002 108.211 90.7298C106.668 92.6595 105.034 93.5784 103.945 93.5784C102.765 93.6703 102.311 94.681 103.219 95.1405Z" fill="url(#paint44_linear_1_4106)"/>
<path opacity="0.35" d="M103.219 95.1405C103.219 95.1405 132.444 108.097 133.805 109.842C135.167 111.588 134.894 113.15 136.346 113.977C137.799 114.713 141.61 118.48 146.693 116.458C151.685 114.437 149.779 113.334 149.779 113.334V108.832C149.779 108.832 151.322 108.464 150.505 106.718C149.688 104.881 136.619 102.308 136.619 102.308C136.619 102.308 113.656 90.9136 112.93 89.811C111.932 88.2489 109.754 88.8002 108.211 90.7298C106.668 92.6595 105.034 93.5784 103.945 93.5784C102.765 93.6703 102.311 94.681 103.219 95.1405Z" fill="url(#paint45_linear_1_4106)"/>
<path d="M187.352 76.9466C187.352 76.9466 189.893 77.1304 191.98 80.714C194.068 84.2976 197.335 90.6378 198.334 90.7297C199.423 90.8216 199.967 90.5459 199.695 89.0757C199.423 87.6055 196.791 72.9035 196.428 72.536C196.065 72.1684 195.429 71.709 195.429 71.709L187.352 76.9466Z" fill="url(#paint46_linear_1_4106)"/>
<path d="M151.049 112.599L151.412 128.128C151.412 128.128 151.775 130.15 150.504 130.793C149.234 131.436 145.785 133.182 145.331 132.079C144.877 130.977 138.161 116.183 136.073 113.702C135.257 112.507 136.346 112.14 136.981 112.599C137.616 113.059 141.428 115.815 143.607 115.356C144.423 115.08 143.334 112.967 144.151 112.415C144.968 111.864 148.961 110.394 149.052 110.853C149.052 111.221 148.871 113.242 149.415 113.059C149.96 112.783 150.958 111.956 151.049 112.599Z" fill="url(#paint47_linear_1_4106)"/>
<path d="M129.719 75.9357C129.719 75.9357 182.178 73.271 183.177 74.4655C184.175 75.5682 184.357 77.7735 190.982 76.7627C197.608 75.8438 195.339 71.4332 195.339 71.4332V65.3686C195.339 65.3686 185.264 60.8661 179.909 61.0499C174.645 61.2337 155.313 64.7254 148.779 68.0334H138.16C138.16 68.0334 136.98 67.6658 137.071 66.5632C137.071 66.5632 135.8 64.9092 134.348 66.3794C132.896 67.8496 129.537 72.6277 128.63 73.271C127.631 73.8223 128.721 75.9357 129.719 75.9357Z" fill="url(#paint48_linear_1_4106)"/>
<path d="M129.719 75.9357C129.719 75.9357 182.178 73.271 183.177 74.4655C184.175 75.5682 184.357 77.7735 190.982 76.7627C197.608 75.8438 195.339 71.4332 195.339 71.4332V65.3686C195.339 65.3686 185.264 60.8661 179.909 61.0499C174.645 61.2337 155.313 64.7254 148.779 68.0334H138.16C138.16 68.0334 136.98 67.6658 137.071 66.5632C137.071 66.5632 135.8 64.9092 134.348 66.3794C132.896 67.8496 129.537 72.6277 128.63 73.271C127.631 73.8223 128.721 75.9357 129.719 75.9357Z" fill="url(#paint49_linear_1_4106)"/>
<path opacity="0.35" d="M179.37 68.952C179.37 68.952 154.865 71.7087 148.875 70.606C142.884 69.5953 167.844 61.2335 180.187 62.428L179.37 68.952Z" fill="url(#paint50_linear_1_4106)"/>
<path d="M148.146 103.777V104.88C148.146 104.88 147.874 105.339 147.239 105.523V106.35C147.239 106.35 147.874 106.35 148.146 105.707V107.085C148.146 107.82 145.423 108.647 142.065 108.739C138.707 108.831 135.984 108.096 135.984 107.361V104.053L148.146 103.777Z" fill="url(#paint51_linear_1_4106)"/>
<path d="M135.984 104.054C135.984 104.789 138.707 105.616 142.065 105.432C145.423 105.248 148.146 104.513 148.146 103.778C148.146 103.043 145.423 102.491 142.065 102.675C138.707 102.767 135.984 103.227 135.984 104.054Z" fill="url(#paint52_linear_1_4106)"/>
<g opacity="0.61">
<path d="M140.07 107.177C140.705 107.177 141.34 107.177 141.976 107.177C144.063 107.085 145.969 106.81 147.149 106.35V105.799C145.969 106.258 144.063 106.534 142.066 106.626C139.253 106.718 137.075 106.167 136.258 105.615V106.258C136.893 106.718 138.345 107.085 140.07 107.177Z" fill="url(#paint53_linear_1_4106)"/>
</g>
<g opacity="0.61">
<path d="M140.07 108.372C140.705 108.372 141.34 108.464 141.976 108.372C144.063 108.28 145.969 108.004 147.149 107.545V106.993C145.969 107.453 144.063 107.728 142.066 107.82C139.253 107.912 137.075 107.361 136.258 106.81V107.453C136.893 107.912 138.436 108.28 140.07 108.372Z" fill="url(#paint54_linear_1_4106)"/>
</g>
<path d="M137.347 103.593C138.073 103.226 139.979 103.042 142.248 102.95C144.517 102.858 146.423 103.042 147.058 103.41H147.33V103.685C147.33 104.237 144.97 104.696 142.157 104.88C139.343 104.972 137.074 104.512 137.074 103.961V103.685L137.347 103.593Z" fill="url(#paint55_linear_1_4106)"/>
<path d="M137.074 103.594C137.074 104.145 139.343 104.604 142.248 104.512C145.061 104.421 147.421 103.869 147.421 103.318C147.421 102.767 145.152 102.491 142.338 102.583C139.434 102.767 137.074 103.042 137.074 103.594Z" fill="url(#paint56_linear_1_4106)"/>
<path d="M147.058 95.5996L146.967 103.226C146.876 103.686 144.698 104.145 142.066 104.237C139.343 104.329 137.165 103.869 137.165 103.41L137.074 98.9076L147.058 95.5996Z" fill="url(#paint57_linear_1_4106)"/>
<path d="M143.241 93.0267C143.241 93.0267 143.332 91.7403 143.15 90.7296C142.878 89.7188 143.241 88.9837 145.147 87.7892C146.781 86.6865 157.672 80.9895 160.576 79.4274C160.94 79.2436 161.666 79.2436 162.21 79.4274L166.748 81.1732C167.474 81.4489 167.837 82.0002 167.383 82.3678L156.038 92.3835C156.038 92.3835 154.586 93.7618 153.588 94.0375C152.59 94.3132 149.231 95.5077 148.505 95.8753L143.241 93.0267Z" fill="url(#paint58_linear_1_4106)"/>
<path d="M143.241 92.7514C143.241 92.7514 143.332 91.4649 143.15 90.4542C142.878 89.4434 143.241 88.7083 145.147 87.5138C146.781 86.4111 157.672 80.7141 160.576 79.152C160.94 78.9682 161.666 78.9682 162.21 79.152L166.748 80.8979C167.474 81.1735 167.837 81.7248 167.383 82.0924L156.038 92.1081C156.038 92.1081 154.586 93.4865 153.588 93.7621C152.59 94.0378 149.685 95.1404 149.231 95.508L143.241 92.7514Z" fill="url(#paint59_linear_1_4106)"/>
<path d="M141.611 101.572C141.611 101.572 141.793 105.615 141.339 106.442C140.885 107.269 139.978 108.096 138.162 109.015C136.62 109.842 126.727 114.437 123.822 115.723C123.369 115.907 122.642 115.907 122.098 115.631L117.378 113.334C116.743 113.058 116.471 112.507 116.925 112.231L130.357 100.837C130.357 100.837 131.355 99.5508 133.352 99.2751C135.349 98.9995 136.257 98.54 136.257 98.54L141.611 101.572Z" fill="url(#paint60_linear_1_4106)"/>
<path d="M141.338 101.389C141.338 101.389 141.519 105.432 141.066 106.259C140.612 107.086 139.704 107.913 137.889 108.832C136.346 109.659 126.453 114.253 123.549 115.539C123.095 115.723 122.369 115.723 121.824 115.448L117.105 113.15C116.47 112.875 116.197 112.323 116.651 112.048L130.084 100.654C130.084 100.654 131.082 99.3672 133.079 99.0915C135.075 98.8159 135.983 98.3564 135.983 98.3564L141.338 101.389Z" fill="url(#paint61_linear_1_4106)"/>
<path d="M147.42 96.0594C147.42 96.0594 149.144 96.3351 150.596 94.1298C152.139 91.9245 149.507 90.7299 147.783 90.8218C146.058 90.9137 142.428 92.2001 142.791 93.119C143.245 94.2217 147.42 96.0594 147.42 96.0594Z" fill="#717481"/>
<path d="M142.701 99.5508C142.701 99.5508 143.155 100.837 141.521 101.848C139.797 102.859 137.528 103.134 135.803 102.307C134.079 101.48 134.169 99.7346 134.986 98.9995C135.803 98.2644 137.528 97.0699 138.707 97.1617C139.797 97.2536 142.701 99.5508 142.701 99.5508Z" fill="#717481"/>
<path d="M139.161 99.551C140.704 100.286 142.61 100.378 143.336 99.7348L148.509 95.508C149.326 94.8647 148.69 93.7621 147.148 93.027C145.605 92.2919 143.699 92.2 142.973 92.8432L137.799 97.0701C136.982 97.7133 137.618 98.8159 139.161 99.551Z" fill="#252424"/>
<path d="M141.974 95.7835C141.611 96.0591 141.793 96.6105 142.428 96.8861C143.063 97.1618 143.88 97.1618 144.243 96.8861C144.606 96.6105 144.425 96.0591 143.789 95.7835C143.154 95.4159 142.337 95.4159 141.974 95.7835Z" fill="url(#paint62_radial_1_4106)"/>
<path d="M142.155 95.8752C141.883 96.1509 142.065 96.5184 142.518 96.7941C143.063 97.0697 143.698 97.0697 143.97 96.7941C144.243 96.5184 144.061 96.1509 143.607 95.8752C143.154 95.5995 142.518 95.5995 142.155 95.8752Z" fill="url(#paint63_radial_1_4106)"/>
<path d="M139.615 97.6213C139.252 97.897 139.433 98.4483 140.069 98.7239C140.704 98.9996 141.521 98.9996 141.884 98.7239C142.247 98.4483 142.065 97.897 141.43 97.6213C140.795 97.3456 139.978 97.3456 139.615 97.6213Z" fill="url(#paint64_radial_1_4106)"/>
<path d="M139.886 97.8049C139.613 98.0806 139.795 98.4481 140.249 98.7238C140.793 98.9994 141.429 98.9994 141.701 98.7238C141.973 98.4481 141.792 98.0806 141.338 97.8049C140.793 97.5292 140.158 97.5292 139.886 97.8049Z" fill="url(#paint65_radial_1_4106)"/>
<path d="M144.154 93.946C143.791 94.2217 143.972 94.773 144.608 95.0487C145.243 95.3243 146.06 95.3243 146.423 95.0487C146.786 94.773 146.604 94.2217 145.969 93.946C145.334 93.6703 144.517 93.6703 144.154 93.946Z" fill="url(#paint66_radial_1_4106)"/>
<path d="M144.425 94.0377C144.153 94.3134 144.334 94.6809 144.788 94.9566C145.332 95.2323 145.968 95.2323 146.24 94.9566C146.512 94.6809 146.331 94.3134 145.877 94.0377C145.332 93.854 144.697 93.854 144.425 94.0377Z" fill="url(#paint67_radial_1_4106)"/>
<path d="M183.727 55.6284H191.532V59.6715H183.727V55.6284Z" fill="url(#paint68_linear_1_4106)"/>
<path d="M194.526 65.8282C194.526 65.8282 194.254 65.3687 192.711 65.7363L193.165 66.747L193.437 66.8389L194.254 66.3795C194.254 66.4714 194.526 66.1957 194.526 65.8282Z" fill="url(#paint69_radial_1_4106)"/>
<path d="M194.525 63.5308V64.8172C194.525 64.8172 194.252 65.3685 193.436 65.6442V66.5631C193.436 66.5631 194.162 66.5631 194.525 65.828V67.39C194.525 68.3089 191.257 69.2278 187.355 69.3197C183.361 69.5035 180.185 68.5846 180.185 67.6657L180.094 63.7145L194.525 63.5308Z" fill="url(#paint70_linear_1_4106)"/>
<path d="M180.094 63.8068C180.094 64.7257 183.27 65.6445 187.264 65.4608C191.257 65.277 194.434 64.45 194.434 63.5311C194.434 62.6122 191.257 62.0609 187.264 62.2447C183.361 62.3366 180.094 62.8879 180.094 63.8068Z" fill="url(#paint71_linear_1_4106)"/>
<g opacity="0.61">
<path d="M184.995 67.5741C185.721 67.5741 186.447 67.666 187.173 67.5741C189.624 67.4822 191.893 67.1146 193.254 66.5633V65.9201C191.893 66.4714 189.624 66.839 187.264 66.9309C183.997 67.0228 181.365 66.3795 180.457 65.7363V66.4714C181.274 67.0228 182.998 67.4822 184.995 67.5741Z" fill="url(#paint72_linear_1_4106)"/>
</g>
<g opacity="0.61">
<path d="M184.995 68.9525C185.721 68.9525 186.447 69.0444 187.173 68.9525C189.624 68.8606 191.893 68.4931 193.254 67.9417V67.2985C191.893 67.8498 189.624 68.2174 187.264 68.3093C183.997 68.4012 181.365 67.758 180.457 67.1147V67.8498C181.274 68.4931 182.998 68.8606 184.995 68.9525Z" fill="url(#paint73_linear_1_4106)"/>
</g>
<path d="M181.73 63.347C182.547 62.9794 184.816 62.7038 187.448 62.52C190.08 62.4281 192.349 62.6119 193.166 62.9794H193.529V63.347C193.529 63.9902 190.806 64.6334 187.448 64.7253C184.09 64.8172 181.367 64.2659 181.367 63.6226V63.2551L181.73 63.347Z" fill="url(#paint74_linear_1_4106)"/>
<path d="M181.457 63.3472C181.457 63.9904 184.18 64.5418 187.538 64.4499C190.896 64.358 193.619 63.7148 193.619 63.0716C193.619 62.4283 190.896 62.0608 187.538 62.2446C184.18 62.3365 181.457 62.704 181.457 63.3472Z" fill="url(#paint75_linear_1_4106)"/>
<path d="M192.348 57.9258C192.802 57.8339 193.256 58.2933 193.256 58.7528L193.165 62.8877C193.074 63.4391 190.533 63.9904 187.356 64.0823C184.18 64.1742 181.548 63.7147 181.548 63.1634L181.457 58.6609C181.457 58.2015 181.82 57.8339 182.274 57.9258C183.454 58.1096 185.723 58.2933 187.175 58.2933C188.99 58.2933 191.168 58.1096 192.348 57.9258Z" fill="url(#paint76_linear_1_4106)"/>
<path d="M184.632 53.2395C184.632 53.2395 184.541 51.9531 183.634 51.1261C182.726 50.2991 182.635 49.564 183.815 48.0019C184.814 46.6236 192.528 38.997 194.525 36.9754C194.797 36.6998 195.523 36.516 196.25 36.6079L202.058 37.1592C203.057 37.2511 203.692 37.7105 203.51 38.0781L198.065 49.6559C198.065 49.6559 197.429 51.218 196.613 51.6775C195.705 52.1369 193.436 53.7909 192.619 54.3422L184.632 53.2395Z" fill="url(#paint77_linear_1_4106)"/>
<path d="M185.084 52.8718C185.084 52.8718 184.358 51.6772 183.45 50.8502C182.543 50.0233 182.452 49.2882 183.632 47.7261C184.63 46.3478 192.345 38.7211 194.341 36.6996C194.614 36.4239 195.34 36.2401 196.066 36.332L201.875 36.8833C202.873 36.9752 203.508 37.4347 203.327 37.8022L197.881 49.38C197.881 49.38 197.246 50.9421 196.429 51.4016C195.612 51.861 193.252 53.515 193.071 54.0663L185.084 52.8718Z" fill="url(#paint78_linear_1_4106)"/>
<path d="M188.534 61.2334C188.534 61.2334 191.348 64.817 191.348 65.644C191.348 66.471 190.984 67.3899 189.714 68.6763C188.625 69.7789 181.273 76.2111 179.186 78.0488C178.823 78.3245 178.097 78.4164 177.37 78.3245L171.017 77.4056C170.11 77.3137 169.474 76.7624 169.656 76.303L176.372 63.163C176.372 63.163 176.554 61.7847 178.46 61.1415C180.366 60.4064 181.001 59.7632 181.001 59.7632L188.534 61.2334Z" fill="url(#paint79_linear_1_4106)"/>
<path d="M188.443 61.0498C188.443 61.0498 191.257 64.6334 191.257 65.4604C191.257 66.2874 190.894 67.2063 189.623 68.4927C188.534 69.5953 181.182 76.0275 179.095 77.8652C178.732 78.1409 178.006 78.2328 177.28 78.1409L170.927 77.222C170.019 77.1301 169.474 76.6707 169.656 76.3031L176.281 62.9794C176.281 62.9794 176.463 61.6011 178.369 60.9579C180.275 60.2228 180.91 59.5796 180.91 59.5796L188.443 61.0498Z" fill="url(#paint80_linear_1_4106)"/>
<path d="M191.621 54.8933C191.621 54.8933 193.527 54.7096 193.709 52.4124C193.89 50.1152 190.442 49.6557 188.717 50.1152C186.993 50.5746 183.998 52.5961 184.996 53.3312C186.085 54.1582 191.621 54.8933 191.621 54.8933Z" fill="#717481"/>
<path d="M188.9 59.0283C188.9 59.0283 190.261 60.0391 189.081 61.3255C187.902 62.612 185.723 63.4389 183.454 63.0714C181.185 62.7038 180.096 61.1418 180.459 60.3148C180.822 59.4878 181.911 58.0176 183.182 57.8338C184.453 57.7419 188.9 59.0283 188.9 59.0283Z" fill="#717481"/>
<path d="M185.177 59.9473C187.264 60.223 189.261 59.8554 189.715 59.1203L192.347 54.1584C192.71 53.4233 191.349 52.5963 189.261 52.2287C187.174 51.9531 185.177 52.3206 184.723 53.0557L182.091 58.0177C181.728 58.7528 183.18 59.5797 185.177 59.9473Z" fill="#252424"/>
<path d="M185.719 55.9042C185.537 56.2718 186.082 56.6393 186.898 56.7312C187.715 56.8231 188.532 56.6393 188.804 56.2718C188.986 55.9042 188.441 55.5367 187.625 55.4448C186.808 55.3529 185.9 55.5367 185.719 55.9042Z" fill="url(#paint81_radial_1_4106)"/>
<path d="M186.079 55.9041C185.898 56.1798 186.352 56.5474 186.987 56.6392C187.622 56.7311 188.348 56.5474 188.53 56.2717C188.711 55.996 188.258 55.7204 187.532 55.5366C186.896 55.4447 186.17 55.6285 186.079 55.9041Z" fill="url(#paint82_radial_1_4106)"/>
<path d="M184.543 58.1093C184.361 58.4769 184.906 58.8444 185.723 58.9363C186.54 59.0282 187.356 58.8444 187.629 58.4769C187.81 58.1093 187.266 57.7418 186.449 57.6499C185.541 57.558 184.724 57.7418 184.543 58.1093Z" fill="url(#paint83_radial_1_4106)"/>
<path d="M184.814 58.201C184.632 58.4767 185.086 58.7523 185.721 58.9361C186.357 59.028 187.083 58.8442 187.264 58.5686C187.446 58.2929 186.992 58.0172 186.266 57.8335C185.631 57.7416 184.995 57.9254 184.814 58.201Z" fill="url(#paint84_radial_1_4106)"/>
<path d="M186.902 53.7905C186.721 54.158 187.265 54.5256 188.082 54.6175C188.899 54.7093 189.716 54.5256 189.988 54.158C190.17 53.7905 189.625 53.4229 188.808 53.331C187.901 53.2391 187.084 53.4229 186.902 53.7905Z" fill="url(#paint85_radial_1_4106)"/>
<path d="M187.173 53.7904C186.992 54.066 187.445 54.4336 188.081 54.5255C188.716 54.6174 189.442 54.4336 189.624 54.1579C189.805 53.8823 189.351 53.5147 188.625 53.4228C187.99 53.3309 187.355 53.5147 187.173 53.7904Z" fill="url(#paint86_radial_1_4106)"/>
<path d="M139.797 48.737C139.253 44.7858 137.165 41.386 134.08 39.1807C132.9 41.7535 127.273 52.2287 112.569 63.8065C95.5972 77.1302 104.129 92.3836 104.129 92.3836L121.555 84.3894C133.263 73.5466 140.07 62.1526 140.07 62.1526C140.796 58.2014 140.433 53.0557 139.797 48.737Z" fill="url(#paint87_linear_1_4106)"/>
<path d="M113.111 84.5733C100.676 94.7728 92.5987 96.4268 92.5987 96.4268L89.7852 101.848L90.239 102.216C115.107 96.3349 132.806 72.9036 138.251 64.9093C132.896 58.0178 125.635 74.3738 113.111 84.5733Z" fill="url(#paint88_linear_1_4106)"/>
<path d="M117.741 35.1375C115.835 34.9537 113.929 35.4132 112.386 36.5158C95.8676 48.0018 85.3394 58.6608 78.8047 67.2063C84.6133 64.174 93.1448 58.9364 96.4122 53.6069C100.224 47.3586 113.021 38.9968 119.102 35.2294C118.558 35.2294 118.104 35.1375 117.741 35.1375Z" fill="url(#paint89_linear_1_4106)"/>
<path d="M93.4175 99.7346C91.693 103.41 84.6137 103.778 77.4437 100.47C70.3643 97.1618 66.0079 91.3729 67.7323 87.6974C69.4567 84.0219 76.536 83.6543 83.7061 87.0541C90.7854 90.2702 95.1419 95.9672 93.4175 99.7346Z" fill="url(#paint90_linear_1_4106)"/>
<path d="M89.9714 99.7347C88.7008 102.399 83.1644 102.399 77.5373 99.7347C71.9101 97.07 68.4612 92.6594 69.7319 89.9946C71.0025 87.3299 76.5389 87.3299 82.1661 89.9946C87.7024 92.6594 91.2421 96.9781 89.9714 99.7347Z" fill="url(#paint91_linear_1_4106)"/>
<path d="M85.6116 98.9077C84.8855 100.47 81.2551 100.378 77.6247 98.632C73.9943 96.8861 71.5438 94.1295 72.3606 92.5674C73.0867 91.0053 76.7171 91.0972 80.3475 92.8431C83.978 94.5889 86.3377 97.3456 85.6116 98.9077Z" fill="#372C20"/>
<path d="M83.8894 98.448C83.3448 99.6426 80.622 99.5507 77.8085 98.1724C74.9949 96.7941 73.2704 94.7725 73.815 93.578C74.3596 92.3835 77.0824 92.4754 79.896 93.8537C82.6188 95.232 84.434 97.2535 83.8894 98.448Z" fill="#160605"/>
<path d="M78.3495 95.3239C77.6234 95.0482 76.8973 95.0482 76.7158 95.5076C76.5343 95.8752 76.9881 96.5184 77.7142 96.7941C78.4403 97.0697 79.1663 97.0697 79.3479 96.6103C79.4386 96.2427 78.9848 95.5995 78.3495 95.3239Z" fill="#50402A"/>
<path opacity="0.44" d="M79.4398 97.3453C79.1675 97.2534 78.986 97.2534 78.8952 97.3453C78.8045 97.5291 78.986 97.7128 79.1675 97.8047C79.4398 97.8966 79.6213 97.8966 79.7121 97.8047C79.8028 97.6209 79.7121 97.4372 79.4398 97.3453Z" fill="#FFFF00"/>
<path d="M105.759 66.2874C98.3169 61.1417 89.2409 60.7742 83.7952 61.2336C83.4322 61.6011 83.1599 61.9687 82.7969 62.3362C87.9702 61.7849 97.5001 61.7849 105.215 67.1144C111.568 71.525 115.471 78.6004 117.014 88.2486C117.286 87.9729 117.649 87.6972 117.921 87.5134C116.197 77.8653 112.112 70.7899 105.759 66.2874Z" fill="url(#paint92_linear_1_4106)"/>
<defs>
<linearGradient id="paint0_linear_1_4106" x1="66.3829" y1="52.0275" x2="77.3897" y2="52.0275" gradientUnits="userSpaceOnUse">
<stop stop-color="#575559"/>
<stop offset="1" stop-color="#252424"/>
</linearGradient>
<linearGradient id="paint1_linear_1_4106" x1="67.9098" y1="48.5452" x2="99.0957" y2="48.5452" gradientUnits="userSpaceOnUse">
<stop stop-color="#575559"/>
<stop offset="1" stop-color="#252424"/>
</linearGradient>
<linearGradient id="paint2_linear_1_4106" x1="86.1799" y1="43.4026" x2="82.438" y2="48.298" gradientUnits="userSpaceOnUse">
<stop stop-color="#FFFAE9"/>
<stop offset="1" stop-color="#FFFAE9" stop-opacity="0"/>
</linearGradient>
<linearGradient id="paint3_linear_1_4106" x1="78.9904" y1="41.0298" x2="66.6158" y2="40.3185" gradientUnits="userSpaceOnUse">
<stop stop-color="#343333"/>
<stop offset="0.00553198" stop-color="#383737"/>
<stop offset="0.0696502" stop-color="#626161"/>
<stop offset="0.1321" stop-color="#828182"/>
<stop offset="0.1915" stop-color="#9A999A"/>
<stop offset="0.2468" stop-color="#A8A7A8"/>
<stop offset="0.2938" stop-color="#ADACAD"/>
<stop offset="0.5299" stop-color="#737272"/>
<stop offset="0.7424" stop-color="#454445"/>
<stop offset="0.9057" stop-color="#292828"/>
<stop offset="1" stop-color="#1F1E1E"/>
</linearGradient>
<linearGradient id="paint4_linear_1_4106" x1="78.8822" y1="38.9082" x2="66.7367" y2="38.21" gradientUnits="userSpaceOnUse">
<stop offset="0.0206186"/>
<stop offset="0.0512245" stop-color="#1C1C1C"/>
<stop offset="0.0927999" stop-color="#3C3B3B"/>
<stop offset="0.133" stop-color="#535152"/>
<stop offset="0.1708" stop-color="#615E5F"/>
<stop offset="0.2037" stop-color="#666364"/>
<stop offset="0.2239" stop-color="#5C595A"/>
<stop offset="0.2912" stop-color="#403E3E"/>
<stop offset="0.3671" stop-color="#282727"/>
<stop offset="0.4534" stop-color="#161516"/>
<stop offset="0.5567" stop-color="#090909"/>
<stop offset="0.6937" stop-color="#020202"/>
<stop offset="1"/>
</linearGradient>
<linearGradient id="paint5_linear_1_4106" x1="77.8342" y1="41.249" x2="66.9158" y2="40.6214" gradientUnits="userSpaceOnUse">
<stop stop-color="#393738"/>
<stop offset="0.0090182" stop-color="#3C3A3B"/>
<stop offset="0.0793959" stop-color="#535152"/>
<stop offset="0.1458" stop-color="#615E5F"/>
<stop offset="0.2037" stop-color="#666364"/>
<stop offset="0.2239" stop-color="#5C595A"/>
<stop offset="0.2912" stop-color="#403E3E"/>
<stop offset="0.3671" stop-color="#282727"/>
<stop offset="0.4534" stop-color="#161516"/>
<stop offset="0.5567" stop-color="#090909"/>
<stop offset="0.6937" stop-color="#020202"/>
<stop offset="1"/>
</linearGradient>
<linearGradient id="paint6_linear_1_4106" x1="77.8634" y1="42.4339" x2="66.9441" y2="41.8062" gradientUnits="userSpaceOnUse">
<stop stop-color="#393738"/>
<stop offset="0.0090182" stop-color="#3C3A3B"/>
<stop offset="0.0793959" stop-color="#535152"/>
<stop offset="0.1458" stop-color="#615E5F"/>
<stop offset="0.2037" stop-color="#666364"/>
<stop offset="0.2239" stop-color="#5C595A"/>
<stop offset="0.2912" stop-color="#403E3E"/>
<stop offset="0.3671" stop-color="#282727"/>
<stop offset="0.4534" stop-color="#161516"/>
<stop offset="0.5567" stop-color="#090909"/>
<stop offset="0.6937" stop-color="#020202"/>
<stop offset="1"/>
</linearGradient>
<linearGradient id="paint7_linear_1_4106" x1="78.0937" y1="38.6956" x2="67.84" y2="38.1062" gradientUnits="userSpaceOnUse">
<stop stop-color="#343333"/>
<stop offset="0.00553198" stop-color="#383737"/>
<stop offset="0.0696502" stop-color="#626161"/>
<stop offset="0.1321" stop-color="#828182"/>
<stop offset="0.1915" stop-color="#9A999A"/>
<stop offset="0.2468" stop-color="#A8A7A8"/>
<stop offset="0.2938" stop-color="#ADACAD"/>
<stop offset="0.5299" stop-color="#737272"/>
<stop offset="0.7424" stop-color="#454445"/>
<stop offset="0.9057" stop-color="#292828"/>
<stop offset="1" stop-color="#1F1E1E"/>
</linearGradient>
<linearGradient id="paint8_linear_1_4106" x1="78.3627" y1="38.4081" x2="68.1262" y2="37.8197" gradientUnits="userSpaceOnUse">
<stop offset="0.0206186"/>
<stop offset="0.0512245" stop-color="#1C1C1C"/>
<stop offset="0.0927999" stop-color="#3C3B3B"/>
<stop offset="0.133" stop-color="#535152"/>
<stop offset="0.1708" stop-color="#615E5F"/>
<stop offset="0.2037" stop-color="#666364"/>
<stop offset="0.2239" stop-color="#5C595A"/>
<stop offset="0.2912" stop-color="#403E3E"/>
<stop offset="0.3671" stop-color="#282727"/>
<stop offset="0.4534" stop-color="#161516"/>
<stop offset="0.5567" stop-color="#090909"/>
<stop offset="0.6937" stop-color="#020202"/>
<stop offset="1"/>
</linearGradient>
<linearGradient id="paint9_linear_1_4106" x1="77.957" y1="34.67" x2="67.8826" y2="34.0909" gradientUnits="userSpaceOnUse">
<stop offset="0.0206186"/>
<stop offset="0.0518649" stop-color="#101010"/>
<stop offset="0.1067" stop-color="#272526"/>
<stop offset="0.1585" stop-color="#353233"/>
<stop offset="0.2037" stop-color="#3A3738"/>
<stop offset="0.2734" stop-color="#282627"/>
<stop offset="0.372" stop-color="#161515"/>
<stop offset="0.4907" stop-color="#090909"/>
<stop offset="0.6481" stop-color="#020202"/>
<stop offset="1"/>
</linearGradient>
<linearGradient id="paint10_linear_1_4106" x1="90.3742" y1="25.8474" x2="80.2006" y2="16.8954" gradientUnits="userSpaceOnUse">
<stop stop-color="#ACABAB"/>
<stop offset="1" stop-color="#BCBEC0"/>
</linearGradient>
<linearGradient id="paint11_linear_1_4106" x1="90.3741" y1="25.5041" x2="80.2011" y2="16.5526" gradientUnits="userSpaceOnUse">
<stop stop-color="#252424"/>
<stop offset="1" stop-color="#575559"/>
</linearGradient>
<linearGradient id="paint12_linear_1_4106" x1="66.3973" y1="47.5951" x2="55.4461" y2="37.9589" gradientUnits="userSpaceOnUse">
<stop stop-color="#ACABAB"/>
<stop offset="1" stop-color="#BCBEC0"/>
</linearGradient>
<linearGradient id="paint13_linear_1_4106" x1="66.1695" y1="47.3583" x2="55.219" y2="37.7226" gradientUnits="userSpaceOnUse">
<stop stop-color="#252424"/>
<stop offset="1" stop-color="#575559"/>
</linearGradient>
<radialGradient id="paint14_radial_1_4106" cx="0" cy="0" r="1" gradientUnits="userSpaceOnUse" gradientTransform="translate(74.3779 30.9281) rotate(-154.189) scale(2.03777 1.26623)">
<stop stop-color="#717481"/>
<stop offset="1" stop-color="#ACABAB"/>
</radialGradient>
<radialGradient id="paint15_radial_1_4106" cx="0" cy="0" r="1" gradientUnits="userSpaceOnUse" gradientTransform="translate(74.278 30.9111) rotate(-154.189) scale(1.64814 1.02412)">
<stop stop-color="#EBBB79"/>
<stop offset="1" stop-color="#BE965D"/>
</radialGradient>
<radialGradient id="paint16_radial_1_4106" cx="0" cy="0" r="1" gradientUnits="userSpaceOnUse" gradientTransform="translate(72.0347 32.8394) rotate(-154.189) scale(2.0381 1.26643)">
<stop stop-color="#717481"/>
<stop offset="1" stop-color="#ACABAB"/>
</radialGradient>
<radialGradient id="paint17_radial_1_4106" cx="0" cy="0" r="1" gradientUnits="userSpaceOnUse" gradientTransform="translate(71.9353 32.8209) rotate(-154.189) scale(1.64953 1.02498)">
<stop stop-color="#EBBB79"/>
<stop offset="1" stop-color="#BE965D"/>
</radialGradient>
<radialGradient id="paint18_radial_1_4106" cx="0" cy="0" r="1" gradientUnits="userSpaceOnUse" gradientTransform="translate(76.5848 29.131) rotate(-154.189) scale(2.03903 1.26701)">
<stop stop-color="#717481"/>
<stop offset="1" stop-color="#ACABAB"/>
</radialGradient>
<radialGradient id="paint19_radial_1_4106" cx="0" cy="0" r="1" gradientUnits="userSpaceOnUse" gradientTransform="translate(76.4845 29.1131) rotate(-154.189) scale(1.64879 1.02452)">
<stop stop-color="#EBBB79"/>
<stop offset="1" stop-color="#BE965D"/>
</radialGradient>
<linearGradient id="paint20_linear_1_4106" x1="17.8873" y1="92.9659" x2="31.9668" y2="92.9659" gradientUnits="userSpaceOnUse">
<stop stop-color="#575559"/>
<stop offset="1" stop-color="#252424"/>
</linearGradient>
<linearGradient id="paint21_linear_1_4106" x1="23.9785" y1="83.5601" x2="73.6044" y2="83.5601" gradientUnits="userSpaceOnUse">
<stop stop-color="#575559"/>
<stop offset="1" stop-color="#252424"/>
</linearGradient>
<linearGradient id="paint22_linear_1_4106" x1="49.2471" y1="79.4152" x2="48.8756" y2="83.6751" gradientUnits="userSpaceOnUse">
<stop stop-color="#FFFAE9"/>
<stop offset="1" stop-color="#FFFAE9" stop-opacity="0"/>
</linearGradient>
<linearGradient id="paint23_linear_1_4106" x1="31.3468" y1="71.8483" x2="24.2819" y2="71.8483" gradientUnits="userSpaceOnUse">
<stop offset="0.0206186"/>
<stop offset="0.0518649" stop-color="#101010"/>
<stop offset="0.1067" stop-color="#272526"/>
<stop offset="0.1585" stop-color="#353233"/>
<stop offset="0.2037" stop-color="#3A3738"/>
<stop offset="0.2734" stop-color="#282627"/>
<stop offset="0.372" stop-color="#161515"/>
<stop offset="0.4907" stop-color="#090909"/>
<stop offset="0.6481" stop-color="#020202"/>
<stop offset="1"/>
</linearGradient>
<radialGradient id="paint24_radial_1_4106" cx="0" cy="0" r="1" gradientUnits="userSpaceOnUse" gradientTransform="translate(33.8405 79.2405) rotate(180) scale(1.49745 1.51605)">
<stop offset="0.0206186"/>
<stop offset="0.2544" stop-color="#272627"/>
<stop offset="0.4844" stop-color="#474545"/>
<stop offset="0.6781" stop-color="#5A5758"/>
<stop offset="0.812" stop-color="#615E5F"/>
<stop offset="0.8174" stop-color="#615E5F"/>
<stop offset="1" stop-color="#666364"/>
</radialGradient>
<linearGradient id="paint25_linear_1_4106" x1="34.144" y1="80.0725" x2="20.9362" y2="79.3133" gradientUnits="userSpaceOnUse">
<stop stop-color="#343333"/>
<stop offset="0.00553198" stop-color="#383737"/>
<stop offset="0.0696502" stop-color="#626161"/>
<stop offset="0.1321" stop-color="#828182"/>
<stop offset="0.1915" stop-color="#9A999A"/>
<stop offset="0.2468" stop-color="#A8A7A8"/>
<stop offset="0.2938" stop-color="#ADACAD"/>
<stop offset="0.5299" stop-color="#737272"/>
<stop offset="0.7424" stop-color="#454445"/>
<stop offset="0.9057" stop-color="#292828"/>
<stop offset="1" stop-color="#1F1E1E"/>
</linearGradient>
<linearGradient id="paint26_linear_1_4106" x1="34.025" y1="77.8078" x2="21.0634" y2="77.0627" gradientUnits="userSpaceOnUse">
<stop offset="0.0206186"/>
<stop offset="0.0512245" stop-color="#1C1C1C"/>
<stop offset="0.0927999" stop-color="#3C3B3B"/>
<stop offset="0.133" stop-color="#535152"/>
<stop offset="0.1708" stop-color="#615E5F"/>
<stop offset="0.2037" stop-color="#666364"/>
<stop offset="0.2239" stop-color="#5C595A"/>
<stop offset="0.2912" stop-color="#403E3E"/>
<stop offset="0.3671" stop-color="#282727"/>
<stop offset="0.4534" stop-color="#161516"/>
<stop offset="0.5567" stop-color="#090909"/>
<stop offset="0.6937" stop-color="#020202"/>
<stop offset="1"/>
</linearGradient>
<linearGradient id="paint27_linear_1_4106" x1="32.908" y1="80.3064" x2="21.2565" y2="79.6367" gradientUnits="userSpaceOnUse">
<stop stop-color="#393738"/>
<stop offset="0.0090182" stop-color="#3C3A3B"/>
<stop offset="0.0793959" stop-color="#535152"/>
<stop offset="0.1458" stop-color="#615E5F"/>
<stop offset="0.2037" stop-color="#666364"/>
<stop offset="0.2239" stop-color="#5C595A"/>
<stop offset="0.2912" stop-color="#403E3E"/>
<stop offset="0.3671" stop-color="#282727"/>
<stop offset="0.4534" stop-color="#161516"/>
<stop offset="0.5567" stop-color="#090909"/>
<stop offset="0.6937" stop-color="#020202"/>
<stop offset="1"/>
</linearGradient>
<linearGradient id="paint28_linear_1_4106" x1="32.9389" y1="81.5705" x2="21.2856" y2="80.9006" gradientUnits="userSpaceOnUse">
<stop stop-color="#393738"/>
<stop offset="0.0090182" stop-color="#3C3A3B"/>
<stop offset="0.0793959" stop-color="#535152"/>
<stop offset="0.1458" stop-color="#615E5F"/>
<stop offset="0.2037" stop-color="#666364"/>
<stop offset="0.2239" stop-color="#5C595A"/>
<stop offset="0.2912" stop-color="#403E3E"/>
<stop offset="0.3671" stop-color="#282727"/>
<stop offset="0.4534" stop-color="#161516"/>
<stop offset="0.5567" stop-color="#090909"/>
<stop offset="0.6937" stop-color="#020202"/>
<stop offset="1"/>
</linearGradient>
<linearGradient id="paint29_linear_1_4106" x1="33.1885" y1="77.5814" x2="22.2457" y2="76.9524" gradientUnits="userSpaceOnUse">
<stop stop-color="#343333"/>
<stop offset="0.00553198" stop-color="#383737"/>
<stop offset="0.0696502" stop-color="#626161"/>
<stop offset="0.1321" stop-color="#828182"/>
<stop offset="0.1915" stop-color="#9A999A"/>
<stop offset="0.2468" stop-color="#A8A7A8"/>
<stop offset="0.2938" stop-color="#ADACAD"/>
<stop offset="0.5299" stop-color="#737272"/>
<stop offset="0.7424" stop-color="#454445"/>
<stop offset="0.9057" stop-color="#292828"/>
<stop offset="1" stop-color="#1F1E1E"/>
</linearGradient>
<linearGradient id="paint30_linear_1_4106" x1="33.4747" y1="77.2755" x2="22.5501" y2="76.6475" gradientUnits="userSpaceOnUse">
<stop offset="0.0206186"/>
<stop offset="0.0512245" stop-color="#1C1C1C"/>
<stop offset="0.0927999" stop-color="#3C3B3B"/>
<stop offset="0.133" stop-color="#535152"/>
<stop offset="0.1708" stop-color="#615E5F"/>
<stop offset="0.2037" stop-color="#666364"/>
<stop offset="0.2239" stop-color="#5C595A"/>
<stop offset="0.2912" stop-color="#403E3E"/>
<stop offset="0.3671" stop-color="#282727"/>
<stop offset="0.4534" stop-color="#161516"/>
<stop offset="0.5567" stop-color="#090909"/>
<stop offset="0.6937" stop-color="#020202"/>
<stop offset="1"/>
</linearGradient>
<linearGradient id="paint31_linear_1_4106" x1="32.9325" y1="75.1224" x2="22.2342" y2="74.5074" gradientUnits="userSpaceOnUse">
<stop offset="0.0206186"/>
<stop offset="0.0518649" stop-color="#101010"/>
<stop offset="0.1067" stop-color="#272526"/>
<stop offset="0.1585" stop-color="#353233"/>
<stop offset="0.2037" stop-color="#3A3738"/>
<stop offset="0.2734" stop-color="#282627"/>
<stop offset="0.372" stop-color="#161515"/>
<stop offset="0.4907" stop-color="#090909"/>
<stop offset="0.6481" stop-color="#020202"/>
<stop offset="1"/>
</linearGradient>
<linearGradient id="paint32_linear_1_4106" x1="39.7032" y1="62.5972" x2="25.5507" y2="58.2973" gradientUnits="userSpaceOnUse">
<stop stop-color="#D1D3D4"/>
<stop offset="1" stop-color="#ACABAB"/>
</linearGradient>
<linearGradient id="paint33_linear_1_4106" x1="39.6101" y1="62.2535" x2="25.4545" y2="57.9526" gradientUnits="userSpaceOnUse">
<stop stop-color="#ACABAB"/>
<stop offset="1" stop-color="#575559"/>
</linearGradient>
<linearGradient id="paint34_linear_1_4106" x1="29.487" y1="85.1975" x2="14.0112" y2="80.4956" gradientUnits="userSpaceOnUse">
<stop stop-color="#D1D3D4"/>
<stop offset="1" stop-color="#ACABAB"/>
</linearGradient>
<linearGradient id="paint35_linear_1_4106" x1="29.4038" y1="84.9653" x2="14.0712" y2="80.3069" gradientUnits="userSpaceOnUse">
<stop stop-color="#ACABAB"/>
<stop offset="1" stop-color="#575559"/>
</linearGradient>
<radialGradient id="paint36_radial_1_4106" cx="0" cy="0" r="1" gradientUnits="userSpaceOnUse" gradientTransform="translate(28.059 70.3997) rotate(-171.804) scale(2.26505 1.00596)">
<stop stop-color="#717481"/>
<stop offset="1" stop-color="#ACABAB"/>
</radialGradient>
<radialGradient id="paint37_radial_1_4106" cx="0" cy="0" r="1" gradientUnits="userSpaceOnUse" gradientTransform="translate(27.9591 70.4069) rotate(-171.804) scale(1.83141 0.813368)">
<stop stop-color="#EBBB79"/>
<stop offset="1" stop-color="#BE965D"/>
</radialGradient>
<radialGradient id="paint38_radial_1_4106" cx="0" cy="0" r="1" gradientUnits="userSpaceOnUse" gradientTransform="translate(26.9605 72.439) rotate(-171.804) scale(2.26044 1.00391)">
<stop stop-color="#717481"/>
<stop offset="1" stop-color="#ACABAB"/>
</radialGradient>
<radialGradient id="paint39_radial_1_4106" cx="0" cy="0" r="1" gradientUnits="userSpaceOnUse" gradientTransform="translate(26.8583 72.4467) rotate(-171.804) scale(1.83222 0.813728)">
<stop stop-color="#EBBB79"/>
<stop offset="1" stop-color="#BE965D"/>
</radialGradient>
<radialGradient id="paint40_radial_1_4106" cx="0" cy="0" r="1" gradientUnits="userSpaceOnUse" gradientTransform="translate(29.0941 68.4808) rotate(-171.804) scale(2.2639 1.00545)">
<stop stop-color="#717481"/>
<stop offset="1" stop-color="#ACABAB"/>
</radialGradient>
<radialGradient id="paint41_radial_1_4106" cx="0" cy="0" r="1" gradientUnits="userSpaceOnUse" gradientTransform="translate(28.9905 68.4876) rotate(-171.804) scale(1.831 0.813188)">
<stop stop-color="#EBBB79"/>
<stop offset="1" stop-color="#BE965D"/>
</radialGradient>
<linearGradient id="paint42_linear_1_4106" x1="67.7327" y1="68.6564" x2="140.444" y2="68.6564" gradientUnits="userSpaceOnUse">
<stop offset="0.1838" stop-color="#FF9E15"/>
<stop offset="0.3483" stop-color="#FF9B16"/>
<stop offset="0.4877" stop-color="#FD901B"/>
<stop offset="0.6179" stop-color="#FB7F22"/>
<stop offset="0.7426" stop-color="#F8662C"/>
<stop offset="0.8633" stop-color="#F54638"/>
<stop offset="0.9795" stop-color="#F02048"/>
<stop offset="1" stop-color="#EF184B"/>
</linearGradient>
<linearGradient id="paint43_linear_1_4106" x1="82.091" y1="87.4817" x2="81.3665" y2="79.4208" gradientUnits="userSpaceOnUse">
<stop stop-color="#575559"/>
<stop offset="1" stop-color="#252424"/>
</linearGradient>
<linearGradient id="paint44_linear_1_4106" x1="102.754" y1="102.939" x2="150.75" y2="102.939" gradientUnits="userSpaceOnUse">
<stop stop-color="#575559"/>
<stop offset="1" stop-color="#252424"/>
</linearGradient>
<linearGradient id="paint45_linear_1_4106" x1="129.513" y1="98.4049" x2="126.544" y2="103.885" gradientUnits="userSpaceOnUse">
<stop stop-color="#FFFAE9"/>
<stop offset="1" stop-color="#FFFAE9" stop-opacity="0"/>
</linearGradient>
<linearGradient id="paint46_linear_1_4106" x1="187.365" y1="81.2487" x2="199.808" y2="81.2487" gradientUnits="userSpaceOnUse">
<stop stop-color="#575559"/>
<stop offset="1" stop-color="#252424"/>
</linearGradient>
<linearGradient id="paint47_linear_1_4106" x1="135.776" y1="121.587" x2="151.458" y2="121.587" gradientUnits="userSpaceOnUse">
<stop stop-color="#575559"/>
<stop offset="1" stop-color="#252424"/>
</linearGradient>
<linearGradient id="paint48_linear_1_4106" x1="128.226" y1="68.9954" x2="195.729" y2="68.9954" gradientUnits="userSpaceOnUse">
<stop stop-color="#575559"/>
<stop offset="1" stop-color="#252424"/>
</linearGradient>
<linearGradient id="paint49_linear_1_4106" x1="161.967" y1="72.2068" x2="162.024" y2="79.437" gradientUnits="userSpaceOnUse">
<stop stop-color="#575559"/>
<stop offset="1" stop-color="#575559" stop-opacity="0"/>
</linearGradient>
<linearGradient id="paint50_linear_1_4106" x1="164.504" y1="72.0634" x2="163.916" y2="65.513" gradientUnits="userSpaceOnUse">
<stop stop-color="#FFFAE9"/>
<stop offset="1" stop-color="#FFFAE9" stop-opacity="0"/>
</linearGradient>
<linearGradient id="paint51_linear_1_4106" x1="148.223" y1="106.491" x2="135.848" y2="105.78" gradientUnits="userSpaceOnUse">
<stop stop-color="#343333"/>
<stop offset="0.00553198" stop-color="#383737"/>
<stop offset="0.0696502" stop-color="#626161"/>
<stop offset="0.1321" stop-color="#828182"/>
<stop offset="0.1915" stop-color="#9A999A"/>
<stop offset="0.2468" stop-color="#A8A7A8"/>
<stop offset="0.2938" stop-color="#ADACAD"/>
<stop offset="0.5299" stop-color="#737272"/>
<stop offset="0.7424" stop-color="#454445"/>
<stop offset="0.9057" stop-color="#292828"/>
<stop offset="1" stop-color="#1F1E1E"/>
</linearGradient>
<linearGradient id="paint52_linear_1_4106" x1="148.113" y1="104.369" x2="135.969" y2="103.671" gradientUnits="userSpaceOnUse">
<stop offset="0.0206186"/>
<stop offset="0.0512245" stop-color="#1C1C1C"/>
<stop offset="0.0927999" stop-color="#3C3B3B"/>
<stop offset="0.133" stop-color="#535152"/>
<stop offset="0.1708" stop-color="#615E5F"/>
<stop offset="0.2037" stop-color="#666364"/>
<stop offset="0.2239" stop-color="#5C595A"/>
<stop offset="0.2912" stop-color="#403E3E"/>
<stop offset="0.3671" stop-color="#282727"/>
<stop offset="0.4534" stop-color="#161516"/>
<stop offset="0.5567" stop-color="#090909"/>
<stop offset="0.6937" stop-color="#020202"/>
<stop offset="1"/>
</linearGradient>
<linearGradient id="paint53_linear_1_4106" x1="147.067" y1="106.709" x2="136.148" y2="106.081" gradientUnits="userSpaceOnUse">
<stop stop-color="#393738"/>
<stop offset="0.0090182" stop-color="#3C3A3B"/>
<stop offset="0.0793959" stop-color="#535152"/>
<stop offset="0.1458" stop-color="#615E5F"/>
<stop offset="0.2037" stop-color="#666364"/>
<stop offset="0.2239" stop-color="#5C595A"/>
<stop offset="0.2912" stop-color="#403E3E"/>
<stop offset="0.3671" stop-color="#282727"/>
<stop offset="0.4534" stop-color="#161516"/>
<stop offset="0.5567" stop-color="#090909"/>
<stop offset="0.6937" stop-color="#020202"/>
<stop offset="1"/>
</linearGradient>
<linearGradient id="paint54_linear_1_4106" x1="147.094" y1="107.893" x2="136.177" y2="107.265" gradientUnits="userSpaceOnUse">
<stop stop-color="#393738"/>
<stop offset="0.0090182" stop-color="#3C3A3B"/>
<stop offset="0.0793959" stop-color="#535152"/>
<stop offset="0.1458" stop-color="#615E5F"/>
<stop offset="0.2037" stop-color="#666364"/>
<stop offset="0.2239" stop-color="#5C595A"/>
<stop offset="0.2912" stop-color="#403E3E"/>
<stop offset="0.3671" stop-color="#282727"/>
<stop offset="0.4534" stop-color="#161516"/>
<stop offset="0.5567" stop-color="#090909"/>
<stop offset="0.6937" stop-color="#020202"/>
<stop offset="1"/>
</linearGradient>
<linearGradient id="paint55_linear_1_4106" x1="147.326" y1="104.156" x2="137.071" y2="103.566" gradientUnits="userSpaceOnUse">
<stop stop-color="#343333"/>
<stop offset="0.00553198" stop-color="#383737"/>
<stop offset="0.0696502" stop-color="#626161"/>
<stop offset="0.1321" stop-color="#828182"/>
<stop offset="0.1915" stop-color="#9A999A"/>
<stop offset="0.2468" stop-color="#A8A7A8"/>
<stop offset="0.2938" stop-color="#ADACAD"/>
<stop offset="0.5299" stop-color="#737272"/>
<stop offset="0.7424" stop-color="#454445"/>
<stop offset="0.9057" stop-color="#292828"/>
<stop offset="1" stop-color="#1F1E1E"/>
</linearGradient>
<linearGradient id="paint56_linear_1_4106" x1="147.597" y1="103.869" x2="137.358" y2="103.281" gradientUnits="userSpaceOnUse">
<stop offset="0.0206186"/>
<stop offset="0.0512245" stop-color="#1C1C1C"/>
<stop offset="0.0927999" stop-color="#3C3B3B"/>
<stop offset="0.133" stop-color="#535152"/>
<stop offset="0.1708" stop-color="#615E5F"/>
<stop offset="0.2037" stop-color="#666364"/>
<stop offset="0.2239" stop-color="#5C595A"/>
<stop offset="0.2912" stop-color="#403E3E"/>
<stop offset="0.3671" stop-color="#282727"/>
<stop offset="0.4534" stop-color="#161516"/>
<stop offset="0.5567" stop-color="#090909"/>
<stop offset="0.6937" stop-color="#020202"/>
<stop offset="1"/>
</linearGradient>
<linearGradient id="paint57_linear_1_4106" x1="147.186" y1="100.131" x2="137.114" y2="99.5522" gradientUnits="userSpaceOnUse">
<stop offset="0.0206186"/>
<stop offset="0.0518649" stop-color="#101010"/>
<stop offset="0.1067" stop-color="#272526"/>
<stop offset="0.1585" stop-color="#353233"/>
<stop offset="0.2037" stop-color="#3A3738"/>
<stop offset="0.2734" stop-color="#282627"/>
<stop offset="0.372" stop-color="#161515"/>
<stop offset="0.4907" stop-color="#090909"/>
<stop offset="0.6481" stop-color="#020202"/>
<stop offset="1"/>
</linearGradient>
<linearGradient id="paint58_linear_1_4106" x1="159.606" y1="91.3081" x2="149.432" y2="82.3563" gradientUnits="userSpaceOnUse">
<stop stop-color="#ACABAB"/>
<stop offset="1" stop-color="#BCBEC0"/>
</linearGradient>
<linearGradient id="paint59_linear_1_4106" x1="159.604" y1="90.9637" x2="149.433" y2="82.0133" gradientUnits="userSpaceOnUse">
<stop stop-color="#252424"/>
<stop offset="1" stop-color="#575559"/>
</linearGradient>
<linearGradient id="paint60_linear_1_4106" x1="135.633" y1="113.055" x2="124.682" y2="103.419" gradientUnits="userSpaceOnUse">
<stop stop-color="#ACABAB"/>
<stop offset="1" stop-color="#BCBEC0"/>
</linearGradient>
<linearGradient id="paint61_linear_1_4106" x1="135.402" y1="112.819" x2="124.451" y2="103.183" gradientUnits="userSpaceOnUse">
<stop stop-color="#252424"/>
<stop offset="1" stop-color="#575559"/>
</linearGradient>
<radialGradient id="paint62_radial_1_4106" cx="0" cy="0" r="1" gradientUnits="userSpaceOnUse" gradientTransform="translate(143.611 96.3888) rotate(-154.189) scale(2.03917 1.26709)">
<stop stop-color="#717481"/>
<stop offset="1" stop-color="#ACABAB"/>
</radialGradient>
<radialGradient id="paint63_radial_1_4106" cx="0" cy="0" r="1" gradientUnits="userSpaceOnUse" gradientTransform="translate(143.513 96.3716) rotate(-154.189) scale(1.64828 1.02421)">
<stop stop-color="#EBBB79"/>
<stop offset="1" stop-color="#BE965D"/>
</radialGradient>
<radialGradient id="paint64_radial_1_4106" cx="0" cy="0" r="1" gradientUnits="userSpaceOnUse" gradientTransform="translate(141.267 98.2987) rotate(-154.189) scale(2.03814 1.26646)">
<stop stop-color="#717481"/>
<stop offset="1" stop-color="#ACABAB"/>
</radialGradient>
<radialGradient id="paint65_radial_1_4106" cx="0" cy="0" r="1" gradientUnits="userSpaceOnUse" gradientTransform="translate(141.168 98.2819) rotate(-154.189) scale(1.64838 1.02426)">
<stop stop-color="#EBBB79"/>
<stop offset="1" stop-color="#BE965D"/>
</radialGradient>
<radialGradient id="paint66_radial_1_4106" cx="0" cy="0" r="1" gradientUnits="userSpaceOnUse" gradientTransform="translate(145.816 94.5918) rotate(-154.189) scale(2.0374 1.26599)">
<stop stop-color="#717481"/>
<stop offset="1" stop-color="#ACABAB"/>
</radialGradient>
<radialGradient id="paint67_radial_1_4106" cx="0" cy="0" r="1" gradientUnits="userSpaceOnUse" gradientTransform="translate(145.717 94.5734) rotate(-154.189) scale(1.64568 1.02259)">
<stop stop-color="#EBBB79"/>
<stop offset="1" stop-color="#BE965D"/>
</radialGradient>
<linearGradient id="paint68_linear_1_4106" x1="191.503" y1="57.6573" x2="183.694" y2="57.6573" gradientUnits="userSpaceOnUse">
<stop offset="0.0206186"/>
<stop offset="0.0518649" stop-color="#101010"/>
<stop offset="0.1067" stop-color="#272526"/>
<stop offset="0.1585" stop-color="#353233"/>
<stop offset="0.2037" stop-color="#3A3738"/>
<stop offset="0.2734" stop-color="#282627"/>
<stop offset="0.372" stop-color="#161515"/>
<stop offset="0.4907" stop-color="#090909"/>
<stop offset="0.6481" stop-color="#020202"/>
<stop offset="1"/>
</linearGradient>
<radialGradient id="paint69_radial_1_4106" cx="0" cy="0" r="1" gradientUnits="userSpaceOnUse" gradientTransform="translate(194.255 65.8249) rotate(180) scale(1.65347 1.67401)">
<stop offset="0.0206186"/>
<stop offset="0.2544" stop-color="#272627"/>
<stop offset="0.4844" stop-color="#474545"/>
<stop offset="0.6781" stop-color="#5A5758"/>
<stop offset="0.812" stop-color="#615E5F"/>
<stop offset="0.8174" stop-color="#615E5F"/>
<stop offset="1" stop-color="#666364"/>
</radialGradient>
<linearGradient id="paint70_linear_1_4106" x1="194.591" y1="66.7447" x2="179.994" y2="65.9056" gradientUnits="userSpaceOnUse">
<stop stop-color="#343333"/>
<stop offset="0.00553198" stop-color="#383737"/>
<stop offset="0.0696502" stop-color="#626161"/>
<stop offset="0.1321" stop-color="#828182"/>
<stop offset="0.1915" stop-color="#9A999A"/>
<stop offset="0.2468" stop-color="#A8A7A8"/>
<stop offset="0.2938" stop-color="#ADACAD"/>
<stop offset="0.5299" stop-color="#737272"/>
<stop offset="0.7424" stop-color="#454445"/>
<stop offset="0.9057" stop-color="#292828"/>
<stop offset="1" stop-color="#1F1E1E"/>
</linearGradient>
<linearGradient id="paint71_linear_1_4106" x1="194.461" y1="64.2415" x2="180.137" y2="63.418" gradientUnits="userSpaceOnUse">
<stop offset="0.0206186"/>
<stop offset="0.0512245" stop-color="#1C1C1C"/>
<stop offset="0.0927999" stop-color="#3C3B3B"/>
<stop offset="0.133" stop-color="#535152"/>
<stop offset="0.1708" stop-color="#615E5F"/>
<stop offset="0.2037" stop-color="#666364"/>
<stop offset="0.2239" stop-color="#5C595A"/>
<stop offset="0.2912" stop-color="#403E3E"/>
<stop offset="0.3671" stop-color="#282727"/>
<stop offset="0.4534" stop-color="#161516"/>
<stop offset="0.5567" stop-color="#090909"/>
<stop offset="0.6937" stop-color="#020202"/>
<stop offset="1"/>
</linearGradient>
<linearGradient id="paint72_linear_1_4106" x1="193.225" y1="67.0042" x2="180.349" y2="66.264" gradientUnits="userSpaceOnUse">
<stop stop-color="#393738"/>
<stop offset="0.0090182" stop-color="#3C3A3B"/>
<stop offset="0.0793959" stop-color="#535152"/>
<stop offset="0.1458" stop-color="#615E5F"/>
<stop offset="0.2037" stop-color="#666364"/>
<stop offset="0.2239" stop-color="#5C595A"/>
<stop offset="0.2912" stop-color="#403E3E"/>
<stop offset="0.3671" stop-color="#282727"/>
<stop offset="0.4534" stop-color="#161516"/>
<stop offset="0.5567" stop-color="#090909"/>
<stop offset="0.6937" stop-color="#020202"/>
<stop offset="1"/>
</linearGradient>
<linearGradient id="paint73_linear_1_4106" x1="193.258" y1="68.4005" x2="180.382" y2="67.6603" gradientUnits="userSpaceOnUse">
<stop stop-color="#393738"/>
<stop offset="0.0090182" stop-color="#3C3A3B"/>
<stop offset="0.0793959" stop-color="#535152"/>
<stop offset="0.1458" stop-color="#615E5F"/>
<stop offset="0.2037" stop-color="#666364"/>
<stop offset="0.2239" stop-color="#5C595A"/>
<stop offset="0.2912" stop-color="#403E3E"/>
<stop offset="0.3671" stop-color="#282727"/>
<stop offset="0.4534" stop-color="#161516"/>
<stop offset="0.5567" stop-color="#090909"/>
<stop offset="0.6937" stop-color="#020202"/>
<stop offset="1"/>
</linearGradient>
<linearGradient id="paint74_linear_1_4106" x1="193.535" y1="63.9905" x2="181.439" y2="63.2951" gradientUnits="userSpaceOnUse">
<stop stop-color="#343333"/>
<stop offset="0.00553198" stop-color="#383737"/>
<stop offset="0.0696502" stop-color="#626161"/>
<stop offset="0.1321" stop-color="#828182"/>
<stop offset="0.1915" stop-color="#9A999A"/>
<stop offset="0.2468" stop-color="#A8A7A8"/>
<stop offset="0.2938" stop-color="#ADACAD"/>
<stop offset="0.5299" stop-color="#737272"/>
<stop offset="0.7424" stop-color="#454445"/>
<stop offset="0.9057" stop-color="#292828"/>
<stop offset="1" stop-color="#1F1E1E"/>
</linearGradient>
<linearGradient id="paint75_linear_1_4106" x1="193.851" y1="63.6532" x2="181.776" y2="62.959" gradientUnits="userSpaceOnUse">
<stop offset="0.0206186"/>
<stop offset="0.0512245" stop-color="#1C1C1C"/>
<stop offset="0.0927999" stop-color="#3C3B3B"/>
<stop offset="0.133" stop-color="#535152"/>
<stop offset="0.1708" stop-color="#615E5F"/>
<stop offset="0.2037" stop-color="#666364"/>
<stop offset="0.2239" stop-color="#5C595A"/>
<stop offset="0.2912" stop-color="#403E3E"/>
<stop offset="0.3671" stop-color="#282727"/>
<stop offset="0.4534" stop-color="#161516"/>
<stop offset="0.5567" stop-color="#090909"/>
<stop offset="0.6937" stop-color="#020202"/>
<stop offset="1"/>
</linearGradient>
<linearGradient id="paint76_linear_1_4106" x1="193.254" y1="61.2744" x2="181.43" y2="60.5948" gradientUnits="userSpaceOnUse">
<stop offset="0.0206186"/>
<stop offset="0.0518649" stop-color="#101010"/>
<stop offset="0.1067" stop-color="#272526"/>
<stop offset="0.1585" stop-color="#353233"/>
<stop offset="0.2037" stop-color="#3A3738"/>
<stop offset="0.2734" stop-color="#282627"/>
<stop offset="0.372" stop-color="#161515"/>
<stop offset="0.4907" stop-color="#090909"/>
<stop offset="0.6481" stop-color="#020202"/>
<stop offset="1"/>
</linearGradient>
<linearGradient id="paint77_linear_1_4106" x1="200.734" y1="47.4335" x2="185.094" y2="42.6817" gradientUnits="userSpaceOnUse">
<stop stop-color="#D1D3D4"/>
<stop offset="1" stop-color="#ACABAB"/>
</linearGradient>
<linearGradient id="paint78_linear_1_4106" x1="200.625" y1="47.0531" x2="184.984" y2="42.3009" gradientUnits="userSpaceOnUse">
<stop stop-color="#ACABAB"/>
<stop offset="1" stop-color="#575559"/>
</linearGradient>
<linearGradient id="paint79_linear_1_4106" x1="189.442" y1="72.4086" x2="172.339" y2="67.2125" gradientUnits="userSpaceOnUse">
<stop stop-color="#D1D3D4"/>
<stop offset="1" stop-color="#ACABAB"/>
</linearGradient>
<linearGradient id="paint80_linear_1_4106" x1="189.35" y1="72.1503" x2="172.408" y2="67.0028" gradientUnits="userSpaceOnUse">
<stop stop-color="#ACABAB"/>
<stop offset="1" stop-color="#575559"/>
</linearGradient>
<radialGradient id="paint81_radial_1_4106" cx="0" cy="0" r="1" gradientUnits="userSpaceOnUse" gradientTransform="translate(187.862 56.0567) rotate(-171.804) scale(2.50191 1.11115)">
<stop stop-color="#717481"/>
<stop offset="1" stop-color="#ACABAB"/>
</radialGradient>
<radialGradient id="paint82_radial_1_4106" cx="0" cy="0" r="1" gradientUnits="userSpaceOnUse" gradientTransform="translate(187.747 56.0624) rotate(-171.804) scale(2.02196 0.897995)">
<stop stop-color="#EBBB79"/>
<stop offset="1" stop-color="#BE965D"/>
</radialGradient>
<radialGradient id="paint83_radial_1_4106" cx="0" cy="0" r="1" gradientUnits="userSpaceOnUse" gradientTransform="translate(186.654 58.309) rotate(-171.804) scale(2.50158 1.111)">
<stop stop-color="#717481"/>
<stop offset="1" stop-color="#ACABAB"/>
</radialGradient>
<radialGradient id="paint84_radial_1_4106" cx="0" cy="0" r="1" gradientUnits="userSpaceOnUse" gradientTransform="translate(186.54 58.3149) rotate(-171.804) scale(2.02236 0.898175)">
<stop stop-color="#EBBB79"/>
<stop offset="1" stop-color="#BE965D"/>
</radialGradient>
<radialGradient id="paint85_radial_1_4106" cx="0" cy="0" r="1" gradientUnits="userSpaceOnUse" gradientTransform="translate(189.007 53.9353) rotate(-171.804) scale(2.50225 1.11131)">
<stop stop-color="#717481"/>
<stop offset="1" stop-color="#ACABAB"/>
</radialGradient>
<radialGradient id="paint86_radial_1_4106" cx="0" cy="0" r="1" gradientUnits="userSpaceOnUse" gradientTransform="translate(188.894 53.9429) rotate(-171.804) scale(2.02358 0.898715)">
<stop stop-color="#EBBB79"/>
<stop offset="1" stop-color="#BE965D"/>
</radialGradient>
<linearGradient id="paint87_linear_1_4106" x1="101.964" y1="65.8078" x2="140.447" y2="65.8078" gradientUnits="userSpaceOnUse">
<stop stop-color="#575559"/>
<stop offset="1" stop-color="#252424"/>
</linearGradient>
<linearGradient id="paint88_linear_1_4106" x1="89.7145" y1="82.7393" x2="138.196" y2="82.7393" gradientUnits="userSpaceOnUse">
<stop stop-color="#575559"/>
<stop offset="1" stop-color="#252424"/>
</linearGradient>
<linearGradient id="paint89_linear_1_4106" x1="78.7292" y1="51.1623" x2="118.967" y2="51.1623" gradientUnits="userSpaceOnUse">
<stop stop-color="#575559"/>
<stop offset="1" stop-color="#252424"/>
</linearGradient>
<linearGradient id="paint90_linear_1_4106" x1="67.3635" y1="93.6432" x2="93.7796" y2="93.6432" gradientUnits="userSpaceOnUse">
<stop stop-color="#575559"/>
<stop offset="1" stop-color="#252424"/>
</linearGradient>
<linearGradient id="paint91_linear_1_4106" x1="69.4074" y1="94.8369" x2="90.1892" y2="94.8369" gradientUnits="userSpaceOnUse">
<stop offset="0.1838" stop-color="#FF9E15"/>
<stop offset="0.3483" stop-color="#FF9B16"/>
<stop offset="0.4877" stop-color="#FD901B"/>
<stop offset="0.6179" stop-color="#FB7F22"/>
<stop offset="0.7426" stop-color="#F8662C"/>
<stop offset="0.8633" stop-color="#F54638"/>
<stop offset="0.9795" stop-color="#F02048"/>
<stop offset="1" stop-color="#EF184B"/>
</linearGradient>
<linearGradient id="paint92_linear_1_4106" x1="82.7305" y1="74.714" x2="117.863" y2="74.714" gradientUnits="userSpaceOnUse">
<stop stop-color="#575559"/>
<stop offset="1" stop-color="#252424"/>
</linearGradient>
</defs>
</svg>
