<svg width="228" height="140" viewBox="0 0 228 140" fill="none" xmlns="http://www.w3.org/2000/svg">
<path d="M159.205 67.9713C159.368 69.4332 159.633 70.9077 160.038 72.3653C160.153 72.8258 160.298 73.3243 160.595 73.7046C160.923 74.1228 161.373 74.3847 161.866 74.5833C163.471 75.2634 165.258 75.314 167.006 75.1196C167.779 75.0097 168.589 74.8702 169.234 74.4012C170.069 73.7843 170.471 72.7703 170.767 71.7774C171.3 69.9902 171.637 68.1101 171.766 66.2384C171.419 66.813 170.613 66.9187 169.955 66.9399C166.424 67.0499 162.922 67.198 159.391 67.308L159.205 67.9713Z" fill="black"/>
<path d="M152.986 58.6181C152.986 58.6181 155.48 59.9235 156.628 62.057C157.743 64.1863 159.114 67.3085 159.251 68.1493C159.392 68.9562 160.374 70.4856 165.513 69.6488C170.652 68.812 171.233 67.7515 171.601 66.7332C171.969 65.715 174.708 56.7199 175.325 54.5313C175.942 52.3427 177.223 47.8684 177.223 47.8684L157.006 54.8619C157.006 54.8619 156.242 55.4534 155.463 56.7294C154.726 57.942 152.986 58.6181 152.986 58.6181Z" fill="url(#paint0_linear_1_5162)"/>
<path d="M156.609 55.0186C156.609 55.0186 156.255 56.4846 155.666 57.3381C155.077 58.1916 152.837 59.0114 152.837 59.0114L137.241 64.8976L136.839 62.857L156.609 55.0186Z" fill="url(#paint1_linear_1_5162)"/>
<path d="M131.896 55.721C131.896 55.721 136.981 55.0489 142.666 53.422C148.352 51.7951 151.572 50.5823 153.061 49.4288C154.583 48.2795 155.858 46.0698 157.69 44.9247C159.45 43.805 161.508 43.0655 165.06 42.7865C168.617 42.4737 172.82 42.7903 174.268 43.3479C175.682 43.9013 176.816 44.4885 177.148 45.6968C177.515 46.9094 177.694 47.6868 176.669 49.2754C175.644 50.8641 175.26 53.116 170.481 53.5514C166.229 53.915 162.871 53.4631 158.721 54.9379C155.616 56.0619 152.167 58.276 147.589 59.869C143.011 61.4621 136.902 63.9974 136.902 63.9974L131.896 55.721Z" fill="url(#paint2_radial_1_5162)"/>
<path d="M174.111 40.7201C174.033 42.7354 173.78 43.9396 173.78 43.9396C173.78 43.9396 173.088 44.2311 172.193 44.2227C170.575 44.1932 170.528 43.7412 170.528 43.7412C170.528 43.7412 170.198 41.4005 170.194 40.8851C170.154 39.8162 170.993 38.8909 172.067 38.8528C173.141 38.8147 174.144 39.6258 174.111 40.7201Z" fill="url(#paint3_radial_1_5162)"/>
<path d="M155.001 59.6239C155.013 59.2479 155.875 59.5267 157.388 61.4997C158.966 63.5149 160.177 65.1415 160.642 66.9497C161.017 68.3693 161.031 69.0918 160.296 68.6228C159.561 68.1539 159.688 67.6892 159.003 65.9908C158.142 63.7558 157.428 62.5686 156.68 61.6518C155.931 60.7351 154.98 59.7929 155.001 59.6239Z" fill="#211915"/>
<path d="M157.261 56.987C158.859 58.5586 164.025 62.496 164.025 62.496C164.025 62.496 165.125 63.079 165.077 62.0777C165.029 61.0764 164.909 56.7711 164.828 56.3148C164.747 55.8586 165.212 54.6122 163.001 54.9207C160.79 55.2292 160.404 55.2842 159.572 55.318C158.74 55.3519 158.303 55.2632 157.866 55.7237C157.43 56.1843 157.014 56.7504 157.261 56.987Z" fill="#211915"/>
<path d="M168.459 55.3936L168.702 62.8718C168.702 62.8718 168.593 64.0253 169.289 64.2491C169.99 64.4392 170.86 64.6504 171.365 63.9237C171.869 63.197 173.349 59.0564 173.734 57.6284C174.152 56.2045 175.201 53.3146 174.942 53.1794C174.717 53.0484 175.006 52.947 173.933 53.5344C172.859 54.1217 171.557 54.3372 170.691 54.3668C169.893 54.4049 168.42 54.3247 168.459 55.3936Z" fill="#211915"/>
<path d="M170.483 62.9898C170.457 62.6433 170.238 57.1931 170.137 54.4004C169.339 54.4385 168.427 54.5653 168.462 55.3934L168.705 62.8715C168.705 62.8715 168.617 63.856 169.131 64.1601C169.848 63.9404 170.505 63.37 170.483 62.9898Z" fill="#F7F7F8"/>
<path d="M157.964 46.3321C157.765 46.8222 158.7 48.4487 160.828 49.0908C163.15 49.8258 166.831 49.9059 170.047 48.727C172.325 47.8776 173.095 46.12 172.708 45.6257C171.195 43.6527 168.889 42.7825 165.935 42.9643C162.183 43.1842 159.149 43.7336 157.964 46.3321Z" fill="black"/>
<path d="M160.128 45.2963L159.821 37.7758C159.821 37.7758 160.069 36.0562 164.768 35.9884C169.467 35.9205 170.191 37.5894 170.191 37.5894L170.505 45.0422C170.505 45.0422 171.611 46.9645 165.398 47.2902C160.092 47.5228 160.128 45.2963 160.128 45.2963Z" fill="url(#paint4_linear_1_5162)"/>
<path d="M113.748 36.3716C114.067 44.0653 137.054 49.4635 163.845 48.4016C190.635 47.3396 212.104 40.2616 211.785 32.568C211.466 24.8743 189.472 19.5309 162.682 20.5929C135.891 21.6548 113.429 28.678 113.748 36.3716Z" fill="url(#paint5_radial_1_5162)"/>
<path d="M117.165 31.0645C123.704 26.18 139.027 22.2162 157.018 20.9181L165.035 34.0996L117.165 31.0645Z" fill="url(#paint6_radial_1_5162)"/>
<path d="M161.831 37.1338C161.831 37.1338 161.388 32.1018 161.86 29.964C162.152 28.7303 163.275 27.4627 164.463 27.3359C165.618 27.2049 167.134 27.7709 167.679 29.7609C168.242 31.8902 168.113 37.0912 168.113 37.0912C168.113 37.0912 167.13 38.3418 165.118 38.4349C163.106 38.5279 161.831 37.1338 161.831 37.1338Z" fill="#262626"/>
<path d="M209.891 36.6914C204.596 42.1081 188.926 46.6466 169.606 48.0884L164.118 34.535C164.118 34.535 165.566 34.5433 166.478 34.1419C167.242 33.825 167.789 33.3095 167.789 33.3095L209.891 36.6914Z" fill="url(#paint7_radial_1_5162)"/>
<path d="M70.9568 71.5177C70.9119 72.988 70.7609 74.4794 70.5081 75.9581C70.4153 76.4271 70.3183 76.9299 70.0598 77.344C69.7633 77.7876 69.3477 78.0791 68.8683 78.3284C67.32 79.1313 65.5375 79.3215 63.7845 79.2751C62.9949 79.2456 62.1798 79.1442 61.5045 78.7513C60.6421 78.1979 60.1443 77.2093 59.7781 76.2714C59.101 74.5054 58.6022 72.6929 58.3155 70.8381C58.7279 71.4043 59.5217 71.4 60.1796 71.3788C63.7151 71.235 67.2209 71.0531 70.7565 70.9093L70.9568 71.5177Z" fill="black"/>
<path d="M75.9195 61.5639C75.9195 61.5639 73.9223 63.2033 72.9615 65.3835C72.0006 67.5636 70.9053 70.8254 70.8384 71.6408C70.7715 72.4562 69.9161 74.066 64.6947 73.6226C59.503 73.2173 58.8354 72.2076 58.3757 71.1894C57.916 70.1712 54.4501 61.4341 53.6453 59.309C52.8405 57.1839 51.2136 52.7942 51.2136 52.7942L72.9142 57.9982C72.9142 57.9982 72.8984 58.9573 73.7827 60.1656C74.6587 61.4415 75.9195 61.5639 75.9195 61.5639Z" fill="url(#paint8_linear_1_5162)"/>
<path d="M72.3817 58.4119C72.3817 58.4119 72.8589 59.8441 73.5178 60.6468C74.1767 61.4496 76.478 62.0789 76.478 62.0789L92.5283 66.6833L92.7507 64.6173L72.3817 58.4119Z" fill="url(#paint9_linear_1_5162)"/>
<path d="M97.0989 57.1256C97.0989 57.1256 91.9583 56.8639 86.1715 55.6982C80.3847 54.5324 77.0855 53.6073 75.4882 52.585C73.891 51.5626 72.3943 49.4544 70.483 48.4617C68.6057 47.4731 66.5379 46.9071 62.9512 46.9073C59.3645 46.9075 55.2183 47.5245 53.8226 48.2091C52.461 48.8978 51.3794 49.5528 51.122 50.7907C50.8646 52.0286 50.734 52.8018 51.8904 54.3185C53.0468 55.8352 53.6013 58.0322 58.4232 58.0826C62.6976 58.0993 65.9947 57.3766 70.2662 58.5256C73.438 59.3662 77.0526 61.3601 81.7698 62.5302C86.4828 63.7341 92.78 65.7871 92.78 65.7871L97.0989 57.1256Z" fill="url(#paint10_radial_1_5162)"/>
<path d="M53.7702 45.5601C54.0061 47.5458 54.3768 48.7246 54.3768 48.7246C54.3768 48.7246 55.103 48.9865 55.9773 48.8893C57.5857 48.7117 57.6064 48.2681 57.6064 48.2681C57.6064 48.2681 57.7266 45.9148 57.7217 45.3993C57.6822 44.3304 56.7516 43.4939 55.6778 43.532C54.57 43.5659 53.6288 44.4785 53.7702 45.5601Z" fill="url(#paint11_radial_1_5162)"/>
<path d="M74.4139 62.8522C74.3582 62.4677 73.5225 62.81 72.1923 64.9099C70.7899 67.0351 69.7139 68.7547 69.4148 70.6053C69.1662 72.0502 69.1798 72.7727 69.9007 72.2445C70.6217 71.7164 70.4344 71.2812 70.967 69.494C71.6306 67.2083 72.236 65.945 72.9055 64.9986C73.541 64.0479 74.4269 63.0254 74.4139 62.8522Z" fill="#211915"/>
<path d="M71.921 60.4483C70.4333 62.1511 65.6549 66.4651 65.6549 66.4651C65.6549 66.4651 64.6073 67.1242 64.5933 66.1271C64.5794 65.13 64.2855 60.8375 64.3443 60.3643C64.3989 59.9249 63.8244 58.7208 66.053 58.8263C68.2815 58.9318 68.6551 58.9782 69.487 58.9444C70.3189 58.9105 70.7475 58.7922 71.2107 59.2274C71.6739 59.6625 72.1287 60.1653 71.921 60.4483Z" fill="#211915"/>
<path d="M60.5958 59.7263L60.9743 67.2213C60.9743 67.2213 61.1752 68.379 60.4879 68.6367C59.8006 68.8945 58.9393 69.1649 58.3697 68.4763C57.8 67.7877 55.9869 63.7867 55.4674 62.4179C54.9479 61.049 53.6753 58.2479 53.9043 58.0704C54.1333 57.893 53.8276 57.855 54.9403 58.3366C56.053 58.8181 57.3817 58.949 58.2136 58.9152C59.0794 58.8856 60.5563 58.6573 60.5958 59.7263Z" fill="#211915"/>
<path d="M59.2224 67.4497C59.1965 67.1032 58.9776 61.653 58.8765 58.8603C59.6745 58.8223 60.5999 58.8687 60.6306 59.7306L61.0091 67.2257C61.0091 67.2257 61.1674 68.172 60.6712 68.5565C59.9706 68.3665 59.2399 67.8637 59.2224 67.4497Z" fill="#F7F7F8"/>
<path d="M70.3437 49.8525C70.5989 50.2962 69.7988 52.0158 67.7327 52.8228C65.4799 53.744 61.847 54.116 58.5139 53.1867C56.1828 52.5193 55.2553 50.8251 55.5943 50.3181C56.9585 48.2224 59.1559 47.1914 62.0973 47.111C65.8622 47.0643 68.9314 47.343 70.3437 49.8525Z" fill="black"/>
<path d="M68.1037 48.9907L67.7973 41.4703C67.7973 41.4703 67.4217 39.7761 62.6936 40.0805C57.9655 40.385 57.4073 42.1004 57.4073 42.1004L57.7221 49.5532C57.7221 49.5532 56.7823 51.5643 63.0131 51.3781C68.3102 51.213 68.1037 48.9907 68.1037 48.9907Z" fill="url(#paint12_linear_1_5162)"/>
<path d="M15.1 35.1225C21.6521 30.4113 36.9618 26.5488 54.9531 25.2508L62.9571 37.9844L15.1 35.1225Z" fill="url(#paint13_radial_1_5162)"/>
<path d="M11.6622 40.29C11.9812 47.7091 34.9552 52.9341 61.7458 51.8722C88.5364 50.8102 110.018 43.9054 109.699 36.4864C109.38 29.0673 87.3997 23.8972 60.609 24.9591C33.8184 26.0211 11.3814 32.8414 11.6622 40.29Z" fill="url(#paint14_radial_1_5162)"/>
<path d="M65.7203 41.0049C65.7203 41.0049 65.7608 35.9645 65.0918 33.8563C64.6913 32.6395 63.4929 31.4608 62.2874 31.4482C61.1541 31.4102 59.6566 32.0821 59.2983 34.1312C58.9274 36.2818 59.4559 41.4616 59.4559 41.4616C59.4559 41.4616 60.5143 42.6572 62.5601 42.5683C64.5719 42.4753 65.7203 41.0049 65.7203 41.0049Z" fill="black"/>
<path d="M107.789 40.4707C102.515 45.7184 86.8242 50.1513 67.5087 51.5593L62.0722 38.4241C62.0722 38.4241 63.5196 38.4325 64.4275 38.0649C65.1911 37.7479 65.7338 37.2663 65.7338 37.2663L107.789 40.4707Z" fill="url(#paint15_radial_1_5162)"/>
<path d="M89.2219 71.1109C89.32 68.1027 92.2251 59.1625 94.918 57.1977C97.6448 55.2372 98.5401 54.971 100.083 52.8288C101.625 50.6867 102.769 49.2501 105.982 48.6542C109.478 47.9907 111.249 48.7258 114.14 48.5017C117.039 48.4846 118.735 47.5973 122.272 48.0027C125.54 48.3405 126.752 49.6924 128.503 51.695C130.216 53.7271 131.159 53.9129 134.013 55.6408C136.868 57.3687 140.512 66.0592 140.863 69.0547C141.215 72.0502 140.865 80.4157 139.996 81.8522C139.128 83.2888 136.634 84.7634 135.766 86.1999C134.897 87.6365 134.223 88.3421 133.796 89.2843C133.368 90.2265 131.501 90.5435 131.501 90.5435L115.903 91.1781L100.305 91.8127C100.305 91.8127 98.4283 91.648 97.9178 90.7608C97.4116 89.8398 96.6977 89.2018 95.6943 87.8414C94.6909 86.4811 92.0916 85.1968 91.0882 83.8364C90.1569 82.4507 89.1195 74.1529 89.2219 71.1109Z" fill="black"/>
<path d="M89.223 71.1109C89.2479 70.6334 89.3236 70.025 89.4798 69.3237C90.4904 73.1219 93.0626 76.5651 96.304 78.7873C97.7272 79.8223 97.3732 81.8376 97.8888 83.5149C97.9021 83.9628 98.5351 84.419 99.0361 84.55C99.9871 84.6682 101.201 84.6132 101.868 85.0737C106.379 87.6254 111.1 88.487 115.849 87.7389C120.667 88.0978 125.232 86.8807 129.529 83.9483C130.139 83.4751 131.353 83.4201 132.308 83.2299C132.779 83.0482 133.356 82.5708 133.346 82.0891C133.731 80.3865 133.185 78.3965 134.533 77.2599C137.565 74.7882 139.848 71.125 140.536 67.2633C140.727 67.9393 140.855 68.573 140.937 69.0293C141.288 72.0248 140.938 80.3903 140.07 81.8268C139.201 83.2634 136.707 84.738 135.839 86.1746C134.97 87.6111 134.296 88.3167 133.869 89.2589C133.441 90.2011 131.574 90.5181 131.574 90.5181L115.976 91.1527L100.378 91.7873C100.378 91.7873 98.5015 91.6226 97.9911 90.7354C97.4849 89.8144 96.771 89.1764 95.7676 87.8161C94.7642 86.4557 92.1649 85.1714 91.1615 83.811C90.1581 82.4507 89.1207 74.1529 89.223 71.1109Z" fill="#404040"/>
<path d="M100.482 54.5971C100.948 53.0761 101.955 51.0734 103.032 49.6284C103.782 49.1383 104.72 48.8087 105.98 48.6565C104.84 49.51 103.963 50.7395 103.387 52.0408C102.612 53.8323 102.474 55.4969 102.439 57.4489C102.447 57.6559 102.342 58.2263 102.283 58.4248C102.215 58.691 102.046 58.9445 101.876 59.198C101.164 60.2078 100.418 61.2134 99.7066 62.2232C99.3793 61.805 99.4507 61.2304 99.5138 60.7234C99.8717 58.3996 99.7933 56.811 100.482 54.5971Z" fill="url(#paint16_linear_1_5162)"/>
<path d="M107.007 51.7697C107.607 53.0456 107.371 53.8399 107.283 55.099C107.188 56.9749 105.759 58.4791 104.738 60.0339C102.9 62.8943 102.225 66.38 102.322 69.7557C102.42 73.1315 103.247 76.4607 104.185 79.735C104.501 80.8039 104.846 81.9108 105.454 82.8445C106.096 83.7824 107.035 84.5513 108.19 84.6949C108.628 82.5528 107.726 80.3812 106.947 78.3279C105.81 75.2691 104.995 72.1131 104.533 68.8979C104.302 67.4276 104.143 65.932 104.463 64.4617C104.793 62.9238 105.589 61.5126 106.415 60.1394C107.241 58.7663 108.037 57.3551 108.332 55.813C108.628 54.2708 108.79 52.1287 107.402 51.3726C107.206 51.2796 106.82 51.3346 107.007 51.7697Z" fill="url(#paint17_linear_1_5162)"/>
<path d="M99.2768 55.1339C98.1966 56.8873 96.8573 58.5055 95.8068 60.297C94.7438 62.1898 94.0375 64.2643 93.3652 66.3431C94.2305 62.4349 95.7369 58.6408 97.787 55.1889C98.6225 54.572 99.2499 53.9636 100.08 52.8312C100.411 52.3918 100.708 51.9482 101 51.5383C100.569 52.7889 99.9715 53.9847 99.2768 55.1339Z" fill="url(#paint18_linear_1_5162)"/>
<path d="M89.2425 72.317C89.2292 71.8692 89.2117 71.4551 89.2537 71.1171C89.287 70.5721 89.3753 69.8623 89.5483 69.0257C89.8407 68.6159 90.167 68.2103 90.5189 67.8765C90.7944 67.6019 91.2059 67.3441 91.571 67.4582C91.6904 67.8849 91.814 68.2778 91.9334 68.7045C91.9547 68.8101 91.9761 68.9158 91.9974 69.0214C91.9722 69.2242 91.8493 69.3805 91.7264 69.5368C91.2306 70.196 90.8325 70.9016 90.3069 71.5227C89.9932 71.8269 89.6115 72.1226 89.2425 72.317Z" fill="url(#paint19_linear_1_5162)"/>
<path d="M128.316 53.4593C127.707 51.9764 126.563 50.0837 125.356 48.6979C124.544 48.2882 123.58 47.9967 122.307 47.9756C123.522 48.7445 124.483 49.8937 125.155 51.1442C126.078 52.8722 126.356 54.5199 126.528 56.4634C126.537 56.6704 126.707 57.2408 126.788 57.4224C126.891 57.7097 127.073 57.9041 127.286 58.1364C128.098 59.0955 128.914 60.0207 129.692 60.9755C129.988 60.5319 129.886 59.9699 129.745 59.4376C129.229 57.2111 129.184 55.6267 128.316 53.4593Z" fill="url(#paint20_linear_1_5162)"/>
<path d="M121.565 51.1783C121.057 52.4881 121.372 53.2823 121.564 54.5076C121.817 56.3581 123.368 57.7523 124.495 59.2309C126.574 61.9264 127.529 65.3401 127.728 68.7285C127.928 72.1169 127.367 75.5138 126.713 78.8305C126.507 79.9374 126.228 81.0697 125.694 82.0331C125.157 83.0302 124.258 83.8795 123.125 84.1161C122.524 82.0163 123.251 79.7728 123.826 77.6476C124.696 74.5296 125.235 71.3017 125.465 68.0695C125.582 66.5739 125.597 65.0656 125.188 63.6418C124.757 62.1124 123.818 60.7942 122.912 59.4803C122.006 58.1664 121.066 56.8482 120.636 55.3188C120.205 53.7894 119.846 51.6854 121.195 50.8234C121.314 50.7009 121.721 50.7516 121.565 51.1783Z" fill="url(#paint21_linear_1_5162)"/>
<path d="M129.536 53.9192C130.777 55.5838 132.248 57.0709 133.413 58.7947C134.638 60.5944 135.523 62.6266 136.341 64.6503C135.164 60.7972 133.339 57.1723 130.988 53.8938C130.125 53.3404 129.403 52.7701 128.498 51.7308C128.136 51.3083 127.809 50.89 127.473 50.5394C128.056 51.6759 128.741 52.825 129.536 53.9192Z" fill="url(#paint22_linear_1_5162)"/>
<path d="M140.991 70.24C140.978 69.7922 140.926 69.3739 140.896 69.0613C140.823 68.5374 140.67 67.8318 140.427 67.0122C140.095 66.6277 139.763 66.2433 139.351 65.9518C139.037 65.7067 138.65 65.4871 138.252 65.6434C138.163 66.0786 138.079 66.48 137.99 66.9151C137.977 67.0165 137.965 67.1179 137.948 67.2531C137.995 67.4306 138.114 67.5827 138.233 67.7348C138.777 68.3516 139.211 69.0233 139.831 69.581C140.218 69.8007 140.6 70.0541 140.991 70.24Z" fill="url(#paint23_linear_1_5162)"/>
<path d="M98.0738 65.6557C98.0738 65.6557 94.6178 71.8159 82.6224 75.0951C70.6269 78.3744 60.2344 80.4114 54.4674 81.582C48.7005 82.7527 43.6788 85.9724 42.3738 87.8695C41.0688 89.7665 40.478 92.5762 40.7556 93.9493C41.0332 95.3224 40.4719 97.8954 43.944 97.984C47.4502 98.0767 57.4939 98.8451 62.9787 96.0606C68.4636 93.276 68.8523 91.8141 72.2752 89.8028C75.6939 87.8254 98.3258 77.2194 98.3258 77.2194C98.3258 77.2194 99.8073 73.9027 99.4377 70.2186C99.0681 66.5344 98.0738 65.6557 98.0738 65.6557Z" fill="url(#paint24_radial_1_5162)"/>
<path d="M65.5206 109.146C65.5206 109.146 65.988 109.547 66.0773 109.661C66.1665 109.775 65.9806 110.438 65.6844 111.157C65.3881 111.875 64.9157 114.287 64.569 115.411C64.2223 116.535 63.5203 118.576 61.5007 119.286C59.5151 120 56.7568 120.549 55.1557 119.835C53.5546 119.121 52.9937 118.64 52.7809 118.133C52.5341 117.622 49.8456 112.894 49.7308 112.708C49.6541 112.493 50.0866 112.066 50.269 111.986C50.4938 111.842 65.5206 109.146 65.5206 109.146Z" fill="black"/>
<path d="M65.3702 83.4875C66.3519 84.4676 66.4428 85.9548 65.676 87.1294C64.871 88.3336 62.551 89.7955 59.4871 90.3069C55.9266 90.9282 53.1631 90.6875 51.1334 90.0919C49.1377 89.5005 47.5321 88.5458 47.556 87.2445C47.5546 86.146 48.2367 85.0981 49.1569 84.3545C50.077 83.6108 52.495 82.47 56.1535 82.1698C59.812 81.8696 63.5895 81.7215 65.3702 83.4875Z" fill="black"/>
<path d="M75.2152 84.7452L75.5459 87.9097C75.5459 87.9097 75.7756 88.2815 75.3561 88.8814C74.9408 89.4476 73.5921 90.3096 72.8379 91.3828C72.1176 92.4602 70.5164 95.0755 69.7548 97.0402C69.247 98.35 67.2426 104.485 66.6505 106.196C66.0076 108.038 65.6956 109.715 65.2127 110.548C64.7638 111.384 63.9795 112.145 63.093 112.618C61.8374 113.286 58.1757 114.443 54.4997 114.33C52.3731 114.237 51.7446 114.021 50.9036 113.574C50.3217 113.261 49.9895 112.327 49.9895 112.327L43.4509 96.9614C43.4509 96.9614 51.8223 97.865 56.8593 96.7409C61.8623 95.6126 66.1158 92.469 67.6123 90.9732C69.1851 89.4184 75.2152 84.7452 75.2152 84.7452Z" fill="url(#paint25_radial_1_5162)"/>
<path d="M74.304 87.0698C74.304 87.0698 74.4405 87.6359 74.1821 88.05C73.9576 88.4683 72.5921 89.4654 71.4436 90.9358C70.3291 92.4104 69.8844 93.2131 69.3728 94.8313C68.8612 96.4495 68.2018 98.7015 68.0075 99.4324C67.8131 100.163 67.7462 100.979 67.5256 101.089C67.2711 101.194 67.2375 101.465 67.511 99.5423C67.7845 97.6199 68.1256 95.4314 68.3193 94.1512C68.5172 92.8372 68.6507 90.9317 68.6507 90.9317L74.304 87.0698Z" fill="#211915"/>
<path d="M67.3557 93.8254C67.3557 93.8254 65.4327 104.02 65.1456 105.22C64.8584 106.42 64.6641 107.151 63.6928 107.751C62.7215 108.351 60.202 109.754 59.2598 109.843C58.3176 109.931 57.7479 109.243 57.6111 108.402C57.47 107.595 57.992 100.624 57.9402 99.931C57.8366 98.5452 58.7011 97.4171 59.7578 97.2395C61.4892 96.9057 62.0067 96.6268 64.0809 95.4775C66.1551 94.3282 66.7437 93.2001 67.1597 93.1832C67.5077 93.1578 67.3557 93.8254 67.3557 93.8254Z" fill="#211915"/>
<path d="M57.9105 99.9269C57.8069 98.5411 58.6714 97.413 59.7281 97.2355C60.963 97.0115 61.5782 96.7791 62.5708 96.2848C62.6456 98.4564 62.9639 105.326 62.9639 105.326C62.9639 105.326 63.1911 107.105 60.9684 108.339C58.7458 109.573 58.6264 109.146 58.312 108.901C58.0911 108.736 57.8229 108.119 57.6304 106.894C57.6785 104.566 57.9493 100.447 57.9105 99.9269Z" fill="#F7F7F8"/>
<path d="M45.6787 98.7146C46.2052 98.9174 47.3396 99.7792 47.7867 100.899C48.2337 102.018 51.5011 111.52 51.7738 112.378C52.0804 113.24 52.6427 114.82 52.0653 114.748C51.488 114.676 50.8109 112.91 50.6278 112.441C50.4447 111.972 46.3956 101.824 46.1145 101.034C45.8715 100.214 44.8548 98.4062 45.6787 98.7146Z" fill="black"/>
<path d="M98.705 74.6931C98.705 74.6931 98.6159 78.183 96.5763 79.8857C94.5368 81.5885 95.9069 80.8322 92.699 81.6689C89.4571 82.5014 81.0105 86.0846 78.9486 86.8579C77.8625 87.272 76.9763 88.0199 76.4886 88.3368C75.9627 88.6833 75.7666 88.0411 75.8044 87.7369L75.4229 84.7034L98.705 74.6931Z" fill="#1A1A1A"/>
<path d="M43.8778 86.5809C43.9086 87.4428 44.7323 91.0804 44.7323 91.0804C44.7323 91.0804 45.7557 91.4479 47.0162 91.2958C49.2867 91.0633 49.2987 90.4126 49.2987 90.4126C49.2987 90.4126 49.4686 87.1045 49.4252 86.344C49.3724 84.8272 48.0763 83.602 46.5144 83.6824C44.9525 83.7628 43.825 85.0641 43.8778 86.5809Z" fill="url(#paint26_radial_1_5162)"/>
<path d="M9.20525 67.5454C15.7224 62.0061 31.0017 57.5563 49.0014 56.1907L57.0932 71.2691L9.20525 67.5454Z" fill="url(#paint27_radial_1_5162)"/>
<path d="M63.1296 84.3069L62.393 75.5316C62.393 75.5316 61.7082 74.3825 60.9309 73.9769C60.1494 73.6052 57.882 72.98 55.5096 73.1998C53.1329 73.4535 51.419 74.2014 50.6729 74.9323C49.9267 75.6633 49.822 76.7829 49.822 76.7829L50.1591 85.1653C50.1591 85.1653 50.6335 87.7298 57.5005 87.1421C62.7972 86.7024 63.1296 84.3069 63.1296 84.3069Z" fill="url(#paint28_linear_1_5162)"/>
<path d="M59.9441 74.4378C59.9441 74.4378 60.0007 68.713 59.1913 66.347C58.7057 64.9824 57.2524 63.6347 55.805 63.6264C54.3958 63.5884 52.5758 64.3574 52.1499 66.6728C51.6733 69.119 52.3215 75.0002 52.3215 75.0002C52.3215 75.0002 53.6389 76.331 56.1007 76.2252C58.5624 76.1195 59.9441 74.4378 59.9441 74.4378Z" fill="#D8D9DD"/>
<path d="M5.82992 73.6124C6.18877 82.375 29.232 88.7069 56.0226 87.645C82.8132 86.583 104.222 78.6051 103.867 69.8087C103.508 61.0461 81.488 54.8071 54.6974 55.869C27.8728 56.9267 5.44131 64.8118 5.82992 73.6124Z" fill="url(#paint29_radial_1_5162)"/>
<path d="M101.977 74.4814C96.7251 80.6586 81.0561 85.7464 61.762 87.26L56.2079 71.742C56.2079 71.742 57.6553 71.7503 58.5377 71.3109C59.3055 70.9602 59.8608 70.3771 59.8608 70.3771L101.977 74.4814Z" fill="url(#paint30_radial_1_5162)"/>
<path d="M131.624 64.3018C131.624 64.3018 135.583 70.1828 147.819 72.4594C160.055 74.7359 170.561 75.9395 176.441 76.6363C182.287 77.3289 187.524 80.1424 189.024 81.9422C190.491 83.7377 191.322 86.4839 191.146 87.9035C190.973 89.2893 191.762 91.8242 188.303 92.1835C184.81 92.5386 174.854 94.1151 169.176 91.7959C163.498 89.4767 162.953 88.036 159.373 86.3209C155.792 84.6057 132.356 75.8909 132.356 75.8909C132.356 75.8909 130.578 72.718 130.662 68.9874C130.713 65.2525 131.624 64.3018 131.624 64.3018Z" fill="url(#paint31_radial_1_5162)"/>
<path opacity="0.5" d="M131.828 64.6024C132.814 65.8234 137.2 70.4875 147.78 72.4896C152.395 73.3724 156.76 74.0523 160.721 74.6478C163.17 75.1927 167.636 75.0615 169.348 76.819C168.726 78.4921 166.129 78.8556 165.142 80.1401C164.861 82.9539 165.91 83.6679 168.161 84.7029C170.416 85.7041 172.934 85.9828 175.387 86.2192C174.845 86.9755 173.818 87.1911 172.914 87.2503C168.75 87.4533 164.94 85.0917 161.63 82.5865C158.325 80.0475 155.057 77.2043 151.045 76.1905C147.669 75.3246 143.888 75.7811 140.817 74.1293C138.974 73.1449 137.159 71.3748 135.182 72.0213C134.533 72.2495 133.888 72.7185 133.226 72.4988C132.563 72.2792 132.312 71.5271 132.188 70.8596C131.829 68.7556 131.674 66.6769 131.828 64.6024Z" fill="url(#paint32_linear_1_5162)"/>
<path d="M165.708 79.4557C164.818 80.512 164.836 82.0245 165.699 83.1272C166.592 84.2679 169.022 85.531 172.125 85.8139C175.708 86.1222 178.453 85.6742 180.409 84.922C182.331 84.1656 183.879 83.0882 183.763 81.8038C183.655 80.7264 182.882 79.7378 181.934 79.0365C180.983 78.369 178.443 77.4355 174.755 77.423C171.138 77.3852 167.327 77.529 165.708 79.4557Z" fill="black"/>
<path d="M167.698 105.033C167.698 105.033 167.266 105.46 167.181 105.587C167.096 105.713 167.326 106.36 167.688 107.057C168.049 107.754 168.723 110.103 169.14 111.185C169.558 112.266 170.481 114.269 172.519 114.797C174.557 115.325 177.342 115.671 178.895 114.834C180.413 113.993 180.96 113.478 181.129 112.95C181.298 112.422 183.635 107.495 183.694 107.297C183.754 107.098 183.286 106.697 183.087 106.638C182.895 106.511 167.698 105.033 167.698 105.033Z" fill="black"/>
<path d="M156.009 81.4759L155.924 84.6573C155.924 84.6573 155.737 85.046 156.188 85.5826C156.639 86.1191 158.066 86.8458 158.903 87.8766C159.707 88.9032 161.539 91.3621 162.441 93.259C163.041 94.5349 165.579 100.479 166.272 102.11C167.051 103.889 167.537 105.528 168.06 106.314C168.583 107.1 169.425 107.822 170.342 108.211C171.65 108.785 175.408 109.63 179.045 109.224C181.145 108.971 181.765 108.704 182.588 108.189C183.152 107.813 183.405 106.883 183.405 106.883L188.585 91.0184C188.585 91.0184 180.285 92.5947 175.203 91.8599C170.117 91.1588 165.606 88.3325 164.013 87.0018C162.385 85.6668 156.009 81.4759 156.009 81.4759Z" fill="url(#paint33_radial_1_5162)"/>
<path d="M157.103 83.7399C157.103 83.7399 157.032 84.3145 157.291 84.7243C157.551 85.1341 158.995 86.0001 160.236 87.3901C161.477 88.78 161.971 89.5278 162.601 91.1164C163.231 92.7049 164.099 94.8723 164.355 95.5905C164.577 96.3046 164.718 97.1115 164.981 97.2129C165.244 97.3143 165.317 97.5636 164.864 95.6539C164.408 93.778 163.917 91.6233 163.593 90.3474C163.269 89.0715 162.986 87.1829 162.986 87.1829L157.103 83.7399Z" fill="#211915"/>
<path d="M164.614 89.9249C164.614 89.9249 167.372 99.9126 167.777 101.096C168.182 102.278 168.442 102.963 169.444 103.499C170.446 104.036 173.092 105.223 174.022 105.236C174.951 105.248 175.494 104.492 175.561 103.677C175.628 102.861 174.524 95.928 174.536 95.2774C174.538 93.8704 173.561 92.8565 172.508 92.7256C170.738 92.5398 170.215 92.3032 168.062 91.3147C165.909 90.3262 165.25 89.2488 164.834 89.2658C164.384 89.2785 164.614 89.9249 164.614 89.9249Z" fill="#211915"/>
<path d="M174.505 95.2397C174.508 93.8328 173.53 92.8188 172.477 92.6879C171.217 92.5655 170.584 92.3838 169.535 91.9445C169.61 94.1161 169.928 100.986 169.928 100.986C169.928 100.986 169.841 102.794 172.16 103.838C174.479 104.881 174.567 104.446 174.873 104.209C175.068 104.028 175.288 103.369 175.405 102.147C175.139 99.8491 174.51 95.7552 174.505 95.2397Z" fill="#F7F7F8"/>
<path d="M186.604 93.071C186.091 93.3161 185.04 94.2837 184.693 95.4075C184.342 96.5652 181.892 106.283 181.677 107.183C181.461 108.083 181.022 109.675 181.552 109.57C182.121 109.435 182.658 107.614 182.785 107.149C182.911 106.684 186.107 96.2356 186.348 95.4074C186.555 94.5751 187.415 92.6569 186.604 93.071Z" fill="black"/>
<path d="M131.775 73.3475C131.775 73.3475 132.136 76.8246 134.323 78.3666C136.477 79.9044 135.072 79.2834 138.349 79.8283C141.627 80.3731 150.37 83.2794 152.501 83.8877C153.601 84.196 154.553 84.8635 155.067 85.1677C155.615 85.4761 155.767 84.8085 155.703 84.4917L155.809 81.4159L131.775 73.3475Z" fill="#1A1A1A"/>
<path d="M187.371 80.8101C187.402 81.672 186.872 85.3815 186.872 85.3815C186.872 85.3815 185.888 85.8083 184.614 85.7872C182.348 85.7113 182.249 85.1156 182.249 85.1156C182.249 85.1156 181.8 81.799 181.752 81.0723C181.699 79.5556 182.899 78.2289 184.422 78.1781C185.946 78.1273 187.323 79.2595 187.371 80.8101Z" fill="url(#paint34_radial_1_5162)"/>
<path d="M168.043 80.0894L168.036 71.2677C168.036 71.2677 168.599 70.0677 169.38 69.6156C170.126 69.1593 172.328 68.3691 174.701 68.4239C177.074 68.4787 178.862 69.0785 179.673 69.7629C180.485 70.4473 180.694 71.5374 180.694 71.5374L181.031 79.9197C181.031 79.9197 180.78 82.4969 173.886 82.4635C168.542 82.4511 168.043 80.0894 168.043 80.0894Z" fill="url(#paint35_linear_1_5162)"/>
<path d="M127.654 63.4663C134.172 57.927 149.451 53.4772 167.451 52.1116L175.542 67.19L127.654 63.4663Z" fill="url(#paint36_radial_1_5162)"/>
<path d="M124.286 69.4994C124.645 78.262 147.688 84.5939 174.479 83.532C201.27 82.4701 222.678 74.4921 222.323 65.6957C221.969 56.8994 199.944 50.6941 173.154 51.756C146.363 52.818 123.927 60.7368 124.286 69.4994Z" fill="url(#paint37_radial_1_5162)"/>
<path d="M170.369 70.0122C170.369 70.0122 169.836 64.317 170.448 61.8876C170.795 60.4891 172.147 59.0441 173.611 58.9173C175.007 58.782 176.863 59.3903 177.511 61.6675C178.176 64.0842 178.031 69.9696 178.031 69.9696C178.031 69.9696 176.852 71.4019 174.357 71.5034C171.861 71.605 170.369 70.0122 170.369 70.0122Z" fill="#D8D9DD"/>
<path d="M220.426 70.4023C215.174 76.5795 199.505 81.6673 180.211 83.1809L174.657 67.6629C174.657 67.6629 176.105 67.6712 176.987 67.2318C177.755 66.8811 178.31 66.298 178.31 66.298L220.426 70.4023Z" fill="url(#paint38_radial_1_5162)"/>
<path opacity="0.5" d="M125.907 63.9348C127.812 69.6976 126.746 76.3266 123.11 81.1602C122.818 81.5701 122.495 81.9419 122.025 82.1236C121.482 82.3306 120.874 82.2208 120.289 82.2166C118.425 82.2252 116.708 83.8307 116.549 85.6644C116.565 84.4307 115.104 83.6999 113.843 83.5774C112.582 83.455 111.194 83.5226 110.268 82.6523C109.588 82.0186 109.366 81.03 108.8 80.3076C108.056 79.357 106.799 78.9261 106.056 77.9755C105.107 76.725 104.932 75.3645 104.204 74.0041C103.698 73.0831 103.119 71.9128 102.075 71.9889C101.031 72.0651 100.086 73.0115 100.197 74.0551C98.4391 73.2186 97.3555 72.2258 97.3555 72.2258C97.3555 72.2258 94.3979 72.9907 93.7239 73.6963C92.8846 74.6216 90.6256 73.9288 89.9464 73.8444C92.2195 72.205 94.6621 70.312 95.1425 67.5573C95.2606 66.8856 95.2469 66.1631 95.4329 65.4998C95.7838 64.3421 96.6735 63.0112 97.5978 62.2337C99.031 60.9704 102.779 57.1804 102.064 59.5971C101.815 60.4928 102.318 62.5461 103.611 64.3543C104.291 65.2627 105.859 66.247 106.885 65.7568C107.216 65.5921 107.402 65.2033 107.737 65.0048C109.073 64.2442 111.379 64.5652 113.54 64.9368C113.943 65.0213 114.147 65.0467 115.076 65.0593C115.454 65.0719 117.011 64.2015 117.359 64.1761C121.306 63.7745 123.015 62.7858 125.84 64.7503" fill="url(#paint39_linear_1_5162)"/>
<path opacity="0.88" d="M95.5813 57.1089C95.526 56.999 95.5046 56.8934 95.4833 56.7878C97.7522 55.1822 98.6601 54.8146 100.084 52.7949C101.626 50.6528 102.77 49.2162 105.983 48.6203C109.48 47.9568 111.25 48.6919 114.141 48.4678C117.04 48.4507 118.737 47.5634 122.273 47.9688C125.542 48.3066 126.753 49.6585 128.504 51.6611C129.38 52.6623 130.034 53.2242 130.833 53.7354C130.986 54.1664 131.038 54.5846 130.843 55.0409C130.581 55.7634 129.804 56.1817 129.07 56.262C126.511 56.596 124.483 54.0442 121.919 53.588C119.524 53.153 117.162 54.6783 114.726 54.5813C112.323 54.4885 110.152 52.8113 107.733 52.8537C103.832 52.8835 101.129 57.1466 97.2671 57.6961C96.6646 57.8271 95.8876 57.6961 95.5813 57.1089Z" fill="url(#paint40_linear_1_5162)"/>
<path opacity="0.35" d="M157.325 52.8425C158.585 52.1411 159.698 52.3481 160.835 52.3522C162.695 52.6521 164.702 52.3182 166.569 52.0013C169.145 51.5321 171.793 51.0377 173.88 49.5123C175.398 48.3969 176.482 46.6096 176.603 44.8056C176.811 45.0717 176.982 45.3675 177.08 45.6886C177.446 46.9011 177.625 47.6785 176.6 49.2671C175.575 50.8558 175.191 53.1077 170.412 53.5432C166.16 53.9067 162.802 53.4549 158.652 54.9296C155.547 56.0536 152.099 58.2677 147.521 59.8608C143.592 61.2256 138.543 63.275 137.194 63.8624C136.497 63.0892 135.775 62.2443 135.902 62.3288C135.838 62.2865 135.813 62.2147 135.749 62.1725L134.69 60.4276C134.66 60.3896 134.669 60.322 134.673 60.2882C142.428 60.875 150.492 56.2144 157.325 52.8425Z" fill="url(#paint41_linear_1_5162)"/>
<g opacity="0.7">
<path opacity="0.3" d="M69.4485 55.129C70.7985 55.3655 71.9879 56.0625 73.1814 56.7258C76.6644 58.6691 80.3634 60.2617 84.1808 61.4572C85.2763 61.7993 86.3718 62.1415 87.3277 62.7752C87.9309 63.1934 88.441 63.806 88.705 64.4566C86.6116 63.8188 84.0512 63.0542 81.8433 62.5051C77.1303 61.3012 73.5115 59.341 70.3397 58.5004C69.1721 58.1836 68.0555 58.0105 66.9646 57.9091C64.6797 56.8699 62.1959 56.3208 59.7128 56.3209C58.8512 56.3168 57.8155 56.3253 57.2798 55.6408C60.5097 55.459 63.7397 55.2771 66.9398 55.0573C67.7378 55.0192 68.6036 54.9896 69.4485 55.129Z" fill="url(#paint42_linear_1_5162)"/>
<path opacity="0.75" d="M76.8308 56.768C76.2363 56.5568 75.5567 56.1977 75.5984 55.5851C75.6278 55.3485 75.7931 55.1287 75.9202 54.9386C76.3313 54.4062 76.7042 53.9035 77.1152 53.3711C78.988 54.1188 81.8965 54.858 86.1719 55.6985C88.2225 56.1252 90.1881 56.4039 91.8862 56.6151C91.4496 57.0756 91.0427 57.5742 90.8312 58.1657C90.7129 58.5628 90.6624 58.9684 90.4803 59.3233C90.1712 59.8684 89.5815 60.1726 88.9832 60.2698C87.7483 60.4938 86.4871 60.0967 85.2981 59.6743C82.453 58.7027 79.6419 57.7353 76.8308 56.768Z" fill="url(#paint43_linear_1_5162)"/>
<path opacity="0.7" d="M74.0603 54.0891C72.0093 53.3879 69.7468 53.2782 67.6463 53.8064C68.2097 52.8811 69.3466 52.336 70.4292 52.505C70.7349 52.543 71.0703 52.619 71.329 52.4796C71.5538 52.3359 71.6596 52.0401 71.6932 51.7697C71.8238 50.9966 71.8865 50.2149 71.8473 49.4206C73.0668 50.4303 74.1507 51.6978 75.2935 52.492C75.0778 53.1173 74.6244 53.7131 74.0603 54.0891Z" fill="url(#paint44_linear_1_5162)"/>
<path opacity="0.5" d="M51.1593 50.7611C51.3914 49.7259 52.1589 49.1006 53.1981 48.509C53.0759 49.2146 53.3231 50.0004 53.7271 50.6342C54.365 51.6059 55.3421 52.3452 55.8316 53.4014C54.6131 53.2156 53.4367 52.6917 52.5019 51.8891C52.4651 53.0171 52.8401 54.1621 53.5203 55.0704C52.8365 54.7451 52.1951 54.3565 51.6045 53.8368C50.7922 52.6032 50.9187 51.8638 51.1593 50.7611Z" fill="url(#paint45_linear_1_5162)"/>
</g>
<path opacity="0.5" d="M40.7527 93.949C40.5605 92.9984 40.7664 91.3422 41.3715 89.8042C41.7244 90.2943 42.1495 90.759 42.6253 91.0928C44.0229 92.056 45.7424 92.3728 47.4447 92.5501C52.6916 93.0653 58.0644 92.2918 62.9942 90.365C63.2488 90.2593 63.5373 90.1579 63.8048 90.2255C64.3737 90.3649 64.5106 91.2057 64.1758 91.6789C63.8411 92.1521 63.2301 92.3507 62.6531 92.5535C58.5629 93.8297 54.4726 95.1059 50.2414 95.5751C47.1263 95.9428 43.896 95.85 40.8899 95.0644C40.8384 94.6461 40.8167 94.2658 40.7527 93.949Z" fill="url(#paint46_linear_1_5162)"/>
<path opacity="0.56" d="M75.6696 76.9079C75.6611 76.9755 75.6527 77.0431 75.6485 77.0769C75.569 77.9938 76.2153 78.8979 77.1197 79.1133C77.8203 79.3034 78.7285 79.2104 79.0264 79.8652C79.3541 80.5581 78.5485 81.213 77.8527 81.5384C74.6203 83.1272 71.2517 84.4244 67.785 85.4006C68.3698 84.5809 67.9311 83.3937 67.1833 82.7515C66.4355 82.1094 65.4376 81.8137 64.5669 81.3279C63.9213 80.973 63.2627 80.4449 62.9648 79.7901C66.6439 79.0463 70.9722 78.0743 75.6696 76.9079Z" fill="url(#paint47_linear_1_5162)"/>
<defs>
<linearGradient id="paint0_linear_1_5162" x1="121.446" y1="46.4297" x2="201.919" y2="67.3271" gradientUnits="userSpaceOnUse">
<stop stop-color="#9A999E"/>
<stop offset="1"/>
</linearGradient>
<linearGradient id="paint1_linear_1_5162" x1="136.984" y1="63.6849" x2="160.666" y2="54.7502" gradientUnits="userSpaceOnUse">
<stop stop-color="#9A999E"/>
<stop offset="1"/>
</linearGradient>
<radialGradient id="paint2_radial_1_5162" cx="0" cy="0" r="1" gradientUnits="userSpaceOnUse" gradientTransform="translate(156.483 46.9813) rotate(-9.27723) scale(23.7357 11.3083)">
<stop offset="0.6378" stop-color="#4D4D4D"/>
<stop offset="1"/>
</radialGradient>
<radialGradient id="paint3_radial_1_5162" cx="0" cy="0" r="1" gradientUnits="userSpaceOnUse" gradientTransform="translate(171.556 39.9282) rotate(-2.30071) scale(5.85025 5.82383)">
<stop stop-color="white"/>
<stop offset="1" stop-color="#F21700"/>
</radialGradient>
<linearGradient id="paint4_linear_1_5162" x1="170.413" y1="41.394" x2="159.966" y2="41.8299" gradientUnits="userSpaceOnUse">
<stop stop-color="white"/>
<stop offset="0.1654" stop-color="#F9F9F9"/>
<stop offset="0.3915" stop-color="#E7E7E8"/>
<stop offset="0.6526" stop-color="#CBCACD"/>
<stop offset="0.9379" stop-color="#A4A3A7"/>
<stop offset="1" stop-color="#9A999E"/>
</linearGradient>
<radialGradient id="paint5_radial_1_5162" cx="0" cy="0" r="1" gradientUnits="userSpaceOnUse" gradientTransform="translate(162.057 35.4271) rotate(177.722) scale(52.3189 17.2496)">
<stop offset="0.3622" stop-opacity="0"/>
<stop offset="1" stop-opacity="0.5"/>
</radialGradient>
<radialGradient id="paint6_radial_1_5162" cx="0" cy="0" r="1" gradientUnits="userSpaceOnUse" gradientTransform="translate(129.049 22.2556) rotate(16.431) scale(69.0409 12.6535)">
<stop stop-opacity="0.6"/>
<stop offset="1" stop-opacity="0"/>
</radialGradient>
<radialGradient id="paint7_radial_1_5162" cx="0" cy="0" r="1" gradientUnits="userSpaceOnUse" gradientTransform="translate(207.196 49.4371) rotate(-160.409) scale(96.3751 16.3385)">
<stop offset="0.2083" stop-opacity="0.6"/>
<stop offset="0.9808" stop-opacity="0"/>
</radialGradient>
<linearGradient id="paint8_linear_1_5162" x1="105.924" y1="47.2808" x2="28.7555" y2="74.336" gradientUnits="userSpaceOnUse">
<stop stop-color="#9A999E"/>
<stop offset="1"/>
</linearGradient>
<linearGradient id="paint9_linear_1_5162" x1="92.6803" y1="65.4463" x2="68.3161" y2="58.5016" gradientUnits="userSpaceOnUse">
<stop stop-color="#9A999E"/>
<stop offset="1"/>
</linearGradient>
<radialGradient id="paint10_radial_1_5162" cx="0" cy="0" r="1" gradientUnits="userSpaceOnUse" gradientTransform="translate(71.848 50.3975) rotate(-175.335) scale(23.7451 11.304)">
<stop offset="0.6378" stop-color="#4D4D4D"/>
<stop offset="1"/>
</radialGradient>
<radialGradient id="paint11_radial_1_5162" cx="0" cy="0" r="1" gradientUnits="userSpaceOnUse" gradientTransform="translate(54.4205 44.3148) rotate(177.699) scale(5.56318 5.53806)">
<stop stop-color="white"/>
<stop offset="1" stop-color="#F21700"/>
</radialGradient>
<linearGradient id="paint12_linear_1_5162" x1="67.9454" y1="45.5117" x2="57.4985" y2="45.9476" gradientUnits="userSpaceOnUse">
<stop stop-color="white"/>
<stop offset="0.2525" stop-color="#FCFCFC"/>
<stop offset="0.4413" stop-color="#F3F2F3"/>
<stop offset="0.6094" stop-color="#E3E2E4"/>
<stop offset="0.7654" stop-color="#CCCCCE"/>
<stop offset="0.9117" stop-color="#AFAFB2"/>
<stop offset="1" stop-color="#9A999E"/>
</linearGradient>
<radialGradient id="paint13_radial_1_5162" cx="0" cy="0" r="1" gradientUnits="userSpaceOnUse" gradientTransform="translate(26.986 26.6063) rotate(15.8737) scale(68.8132 12.2853)">
<stop stop-opacity="0.6"/>
<stop offset="1" stop-opacity="0"/>
</radialGradient>
<radialGradient id="paint14_radial_1_5162" cx="0" cy="0" r="1" gradientUnits="userSpaceOnUse" gradientTransform="translate(59.9837 39.3165) rotate(177.722) scale(52.3189 16.6954)">
<stop offset="0.3622" stop-opacity="0"/>
<stop offset="1" stop-opacity="0.5"/>
</radialGradient>
<radialGradient id="paint15_radial_1_5162" cx="0" cy="0" r="1" gradientUnits="userSpaceOnUse" gradientTransform="translate(105.099 52.817) rotate(-161.047) scale(95.9525 15.8837)">
<stop offset="0.2083" stop-opacity="0.6"/>
<stop offset="0.9808" stop-opacity="0"/>
</radialGradient>
<linearGradient id="paint16_linear_1_5162" x1="105.102" y1="55.7207" x2="100.049" y2="55.0924" gradientUnits="userSpaceOnUse">
<stop stop-color="#EA533D"/>
<stop offset="1" stop-color="#EBA435"/>
</linearGradient>
<linearGradient id="paint17_linear_1_5162" x1="110.242" y1="68.3281" x2="102.156" y2="67.3226" gradientUnits="userSpaceOnUse">
<stop stop-color="#EA533D"/>
<stop offset="1" stop-color="#EBA435"/>
</linearGradient>
<linearGradient id="paint18_linear_1_5162" x1="100.035" y1="59.2954" x2="94.172" y2="58.5663" gradientUnits="userSpaceOnUse">
<stop stop-color="#EA533D"/>
<stop offset="1" stop-color="#EBA435"/>
</linearGradient>
<linearGradient id="paint19_linear_1_5162" x1="91.8677" y1="70.0644" x2="89.3319" y2="69.7491" gradientUnits="userSpaceOnUse">
<stop stop-color="#EA533D"/>
<stop offset="1" stop-color="#EBA435"/>
</linearGradient>
<linearGradient id="paint20_linear_1_5162" x1="130.55" y1="55.0175" x2="121.322" y2="53.87" gradientUnits="userSpaceOnUse">
<stop stop-color="#EA533D"/>
<stop offset="1" stop-color="#EBA435"/>
</linearGradient>
<linearGradient id="paint21_linear_1_5162" x1="128.241" y1="68.1857" x2="118.2" y2="66.9371" gradientUnits="userSpaceOnUse">
<stop stop-color="#EA533D"/>
<stop offset="1" stop-color="#EBA435"/>
</linearGradient>
<linearGradient id="paint22_linear_1_5162" x1="137.137" y1="58.2452" x2="126.388" y2="56.9085" gradientUnits="userSpaceOnUse">
<stop stop-color="#EA533D"/>
<stop offset="1" stop-color="#EBA435"/>
</linearGradient>
<linearGradient id="paint23_linear_1_5162" x1="141.257" y1="68.0987" x2="137.802" y2="67.669" gradientUnits="userSpaceOnUse">
<stop stop-color="#EA533D"/>
<stop offset="1" stop-color="#EBA435"/>
</linearGradient>
<radialGradient id="paint24_radial_1_5162" cx="0" cy="0" r="1" gradientUnits="userSpaceOnUse" gradientTransform="translate(65.617 74.7822) rotate(157.306) scale(36.7042 15.7121)">
<stop offset="0.6378" stop-color="#4D4D4D"/>
<stop offset="1"/>
</radialGradient>
<radialGradient id="paint25_radial_1_5162" cx="0" cy="0" r="1" gradientUnits="userSpaceOnUse" gradientTransform="translate(67.2202 98.2284) rotate(75.8969) scale(36.211 22.4386)">
<stop stop-color="#9A999E"/>
<stop offset="1"/>
</radialGradient>
<radialGradient id="paint26_radial_1_5162" cx="0" cy="0" r="1" gradientUnits="userSpaceOnUse" gradientTransform="translate(45.9064 85.6005) rotate(177.699) scale(7.17285 7.14047)">
<stop stop-color="white"/>
<stop offset="1" stop-color="#F21700"/>
</radialGradient>
<radialGradient id="paint27_radial_1_5162" cx="0" cy="0" r="1" gradientUnits="userSpaceOnUse" gradientTransform="translate(21.0416 57.5572) rotate(18.8624) scale(70.1121 14.2351)">
<stop stop-color="white" stop-opacity="0.9"/>
<stop offset="1" stop-color="white" stop-opacity="0"/>
</radialGradient>
<linearGradient id="paint28_linear_1_5162" x1="63.3957" y1="79.9157" x2="50.417" y2="80.4572" gradientUnits="userSpaceOnUse">
<stop stop-color="white"/>
<stop offset="0.2878" stop-color="#FCFCFC"/>
<stop offset="0.4726" stop-color="#F4F4F4"/>
<stop offset="0.6283" stop-color="#E5E5E6"/>
<stop offset="0.7679" stop-color="#D0D0D2"/>
<stop offset="0.8955" stop-color="#B6B5B9"/>
<stop offset="1" stop-color="#9A999E"/>
</linearGradient>
<radialGradient id="paint29_radial_1_5162" cx="0" cy="0" r="1" gradientUnits="userSpaceOnUse" gradientTransform="translate(54.1236 72.7872) rotate(177.711) scale(52.3206 19.7092)">
<stop offset="0.3622" stop-color="white" stop-opacity="0"/>
<stop offset="1" stop-color="white" stop-opacity="0.6"/>
</radialGradient>
<radialGradient id="paint30_radial_1_5162" cx="0" cy="0" r="1" gradientUnits="userSpaceOnUse" gradientTransform="translate(99.3593 89.0479) rotate(-157.655) scale(98.3836 18.2873)">
<stop offset="0.2083" stop-color="white"/>
<stop offset="0.9808" stop-color="white" stop-opacity="0"/>
</radialGradient>
<radialGradient id="paint31_radial_1_5162" cx="0" cy="0" r="1" gradientUnits="userSpaceOnUse" gradientTransform="translate(164.726 70.8005) rotate(18.0659) scale(36.7398 15.6966)">
<stop offset="0.6378" stop-color="#4D4D4D"/>
<stop offset="1"/>
</radialGradient>
<linearGradient id="paint32_linear_1_5162" x1="154.808" y1="72.7249" x2="151.84" y2="79.5065" gradientUnits="userSpaceOnUse">
<stop stop-color="white"/>
<stop offset="1" stop-color="white" stop-opacity="0"/>
</linearGradient>
<radialGradient id="paint33_radial_1_5162" cx="0" cy="0" r="1" gradientUnits="userSpaceOnUse" gradientTransform="translate(165.099 94.2727) rotate(99.3248) scale(36.1855 22.4547)">
<stop stop-color="#9A999E"/>
<stop offset="1"/>
</radialGradient>
<radialGradient id="paint34_radial_1_5162" cx="0" cy="0" r="1" gradientUnits="userSpaceOnUse" gradientTransform="translate(183.803 80.3371) rotate(177.699) scale(5.41959 5.39512)">
<stop stop-color="white"/>
<stop offset="1" stop-color="#F21700"/>
</radialGradient>
<linearGradient id="paint35_linear_1_5162" x1="181.055" y1="75.189" x2="168.077" y2="75.7305" gradientUnits="userSpaceOnUse">
<stop stop-color="white"/>
<stop offset="0.2058" stop-color="#FBFBFB"/>
<stop offset="0.4021" stop-color="#F0F0F0"/>
<stop offset="0.5945" stop-color="#DDDCDE"/>
<stop offset="0.7845" stop-color="#C2C1C4"/>
<stop offset="0.9711" stop-color="#A09FA4"/>
<stop offset="1" stop-color="#9A999E"/>
</linearGradient>
<radialGradient id="paint36_radial_1_5162" cx="0" cy="0" r="1" gradientUnits="userSpaceOnUse" gradientTransform="translate(139.505 53.4676) rotate(18.8624) scale(70.1121 14.2351)">
<stop stop-color="white" stop-opacity="0.9"/>
<stop offset="1" stop-color="white" stop-opacity="0"/>
</radialGradient>
<radialGradient id="paint37_radial_1_5162" cx="0" cy="0" r="1" gradientUnits="userSpaceOnUse" gradientTransform="translate(172.594 68.6986) rotate(177.711) scale(52.3206 19.7092)">
<stop offset="0.3622" stop-color="white" stop-opacity="0"/>
<stop offset="1" stop-color="white" stop-opacity="0.6"/>
</radialGradient>
<radialGradient id="paint38_radial_1_5162" cx="0" cy="0" r="1" gradientUnits="userSpaceOnUse" gradientTransform="translate(217.825 84.9508) rotate(-157.655) scale(98.3836 18.2873)">
<stop offset="0.2083" stop-color="white"/>
<stop offset="0.9808" stop-color="white" stop-opacity="0"/>
</radialGradient>
<linearGradient id="paint39_linear_1_5162" x1="107.472" y1="59.2475" x2="110.092" y2="94.6693" gradientUnits="userSpaceOnUse">
<stop stop-color="white"/>
<stop offset="1" stop-color="white" stop-opacity="0"/>
</linearGradient>
<linearGradient id="paint40_linear_1_5162" x1="112.726" y1="47.2489" x2="113.211" y2="55.3611" gradientUnits="userSpaceOnUse">
<stop stop-color="white"/>
<stop offset="1" stop-color="white" stop-opacity="0"/>
</linearGradient>
<linearGradient id="paint41_linear_1_5162" x1="159.417" y1="56.8263" x2="148.052" y2="45.1681" gradientUnits="userSpaceOnUse">
<stop stop-color="white"/>
<stop offset="1" stop-color="white" stop-opacity="0"/>
</linearGradient>
<linearGradient id="paint42_linear_1_5162" x1="75.8926" y1="51.5203" x2="72.257" y2="62.019" gradientUnits="userSpaceOnUse">
<stop stop-color="white"/>
<stop offset="1" stop-color="white" stop-opacity="0"/>
</linearGradient>
<linearGradient id="paint43_linear_1_5162" x1="84.8053" y1="53.8967" x2="77.0036" y2="69.5958" gradientUnits="userSpaceOnUse">
<stop stop-color="white"/>
<stop offset="1" stop-color="white" stop-opacity="0"/>
</linearGradient>
<linearGradient id="paint44_linear_1_5162" x1="82.7178" y1="56.715" x2="38.7468" y2="39.2308" gradientUnits="userSpaceOnUse">
<stop stop-color="white"/>
<stop offset="1" stop-color="white" stop-opacity="0"/>
</linearGradient>
<linearGradient id="paint45_linear_1_5162" x1="63.5125" y1="50.9103" x2="42.8054" y2="52.7232" gradientUnits="userSpaceOnUse">
<stop stop-color="white"/>
<stop offset="1" stop-color="white" stop-opacity="0"/>
</linearGradient>
<linearGradient id="paint46_linear_1_5162" x1="55.305" y1="86.4867" x2="45.9399" y2="102.259" gradientUnits="userSpaceOnUse">
<stop stop-color="white"/>
<stop offset="1" stop-color="white" stop-opacity="0"/>
</linearGradient>
<linearGradient id="paint47_linear_1_5162" x1="66.8636" y1="85.8383" x2="77.821" y2="70.618" gradientUnits="userSpaceOnUse">
<stop stop-color="white"/>
<stop offset="1" stop-color="white" stop-opacity="0"/>
</linearGradient>
</defs>
</svg>
