<svg width="184" height="57" viewBox="0 0 184 57" fill="none" xmlns="http://www.w3.org/2000/svg">
<g clip-path="url(#clip0_1_4675)">
<path d="M0.293368 0.891113H168.54L183.219 15.4792V56.8911H15.8553L0.21875 41.3472L0.293368 0.891113Z" fill="url(#paint0_linear_1_4675)"/>
<path d="M183.22 7.02894V0.891113H176.594L183.22 7.02894Z" fill="#EA533D"/>
<path d="M53.624 35.3218L49.864 30.8418H51.56L55.336 35.3058V35.3218H53.624ZM43.896 35.3218V23.8178H53.496C53.848 23.8178 54.168 23.9084 54.456 24.0898C54.7547 24.2604 54.9893 24.4898 55.16 24.7778C55.3307 25.0658 55.416 25.3858 55.416 25.7378V29.1138C55.416 29.4658 55.3307 29.7858 55.16 30.0738C54.9893 30.3618 54.7547 30.5964 54.456 30.7778C54.168 30.9484 53.848 31.0338 53.496 31.0338H45.192V35.3218H43.896ZM45.816 29.7218H53.496C53.6667 29.7218 53.8107 29.6631 53.928 29.5458C54.056 29.4284 54.12 29.2844 54.12 29.1138V25.7378C54.12 25.5671 54.056 25.4231 53.928 25.3058C53.8107 25.1778 53.6667 25.1138 53.496 25.1138H45.816C45.6453 25.1138 45.496 25.1778 45.368 25.3058C45.2507 25.4231 45.192 25.5671 45.192 25.7378V29.1138C45.192 29.2844 45.2507 29.4284 45.368 29.5458C45.496 29.6631 45.6453 29.7218 45.816 29.7218ZM58.9551 35.3218C58.6031 35.3218 58.2778 35.2364 57.9791 35.0658C57.6911 34.8844 57.4565 34.6498 57.2751 34.3618C57.1045 34.0631 57.0191 33.7378 57.0191 33.3858V27.9778C57.0191 27.6258 57.1045 27.3058 57.2751 27.0178C57.4565 26.7191 57.6911 26.4844 57.9791 26.3138C58.2778 26.1324 58.6031 26.0418 58.9551 26.0418H64.5231C64.8858 26.0418 65.2111 26.1324 65.4991 26.3138C65.7978 26.4844 66.0325 26.7191 66.2031 27.0178C66.3845 27.3058 66.4751 27.6258 66.4751 27.9778V31.3378H58.3311V33.3858C58.3311 33.5564 58.3898 33.7058 58.5071 33.8338C58.6351 33.9511 58.7845 34.0098 58.9551 34.0098H66.4751V35.3218H58.9551ZM58.3311 30.0258H65.1471V27.9778C65.1471 27.8071 65.0831 27.6631 64.9551 27.5458C64.8378 27.4178 64.6938 27.3538 64.5231 27.3538H58.9551C58.7845 27.3538 58.6351 27.4178 58.5071 27.5458C58.3898 27.6631 58.3311 27.8071 58.3311 27.9778V30.0258ZM70.0493 35.3218C69.6973 35.3218 69.3719 35.2364 69.0733 35.0658C68.7853 34.8844 68.5506 34.6498 68.3693 34.3618C68.1986 34.0631 68.1133 33.7378 68.1133 33.3858V30.0258H76.2413V27.9778C76.2413 27.8071 76.1773 27.6631 76.0493 27.5458C75.9319 27.4178 75.7879 27.3538 75.6173 27.3538H68.1133V26.0418H75.6173C75.9799 26.0418 76.3053 26.1324 76.5933 26.3138C76.8919 26.4844 77.1266 26.7191 77.2973 27.0178C77.4786 27.3058 77.5693 27.6258 77.5693 27.9778V35.3218H70.0493ZM70.0493 34.0098H76.2413V31.3378H69.4253V33.3858C69.4253 33.5564 69.4839 33.7058 69.6013 33.8338C69.7293 33.9511 69.8786 34.0098 70.0493 34.0098ZM80.7106 35.3218C80.348 35.3218 80.0173 35.2364 79.7186 35.0658C79.4306 34.8844 79.196 34.6498 79.0146 34.3618C78.844 34.0631 78.7586 33.7378 78.7586 33.3858V27.9778C78.7586 27.6258 78.844 27.3058 79.0146 27.0178C79.196 26.7191 79.4306 26.4844 79.7186 26.3138C80.0173 26.1324 80.348 26.0418 80.7106 26.0418H86.9026V23.0018H88.2146V35.3218H80.7106ZM80.7106 34.0098H86.2786C86.4493 34.0098 86.5933 33.9511 86.7106 33.8338C86.8386 33.7058 86.9026 33.5564 86.9026 33.3858V27.9778C86.9026 27.8071 86.8386 27.6631 86.7106 27.5458C86.5933 27.4178 86.4493 27.3538 86.2786 27.3538H80.7106C80.54 27.3538 80.3906 27.4178 80.2626 27.5458C80.1453 27.6631 80.0866 27.8071 80.0866 27.9778V33.3858C80.0866 33.5564 80.1453 33.7058 80.2626 33.8338C80.3906 33.9511 80.54 34.0098 80.7106 34.0098ZM94.2859 35.3218V26.0418H106.542C106.905 26.0418 107.23 26.1324 107.518 26.3138C107.817 26.4844 108.051 26.7191 108.222 27.0178C108.393 27.3058 108.478 27.6258 108.478 27.9778V35.3218H107.182V27.9778C107.182 27.8071 107.118 27.6631 106.99 27.5458C106.862 27.4178 106.713 27.3538 106.542 27.3538H102.686C102.515 27.3538 102.366 27.4178 102.238 27.5458C102.121 27.6631 102.062 27.8071 102.062 27.9778V35.3218H100.734V27.9778C100.734 27.8071 100.67 27.6631 100.542 27.5458C100.425 27.4178 100.281 27.3538 100.11 27.3538H96.2379C96.0672 27.3538 95.9179 27.4178 95.7899 27.5458C95.6725 27.6631 95.6139 27.8071 95.6139 27.9778V35.3218H94.2859ZM111.815 35.3218C111.463 35.3218 111.137 35.2364 110.839 35.0658C110.551 34.8844 110.316 34.6498 110.135 34.3618C109.964 34.0631 109.879 33.7378 109.879 33.3858V27.9778C109.879 27.6258 109.964 27.3058 110.135 27.0178C110.316 26.7191 110.551 26.4844 110.839 26.3138C111.137 26.1324 111.463 26.0418 111.815 26.0418H117.383C117.745 26.0418 118.071 26.1324 118.359 26.3138C118.657 26.4844 118.892 26.7191 119.062 27.0178C119.244 27.3058 119.335 27.6258 119.335 27.9778V33.3858C119.335 33.7378 119.244 34.0631 119.062 34.3618C118.892 34.6498 118.657 34.8844 118.359 35.0658C118.071 35.2364 117.745 35.3218 117.383 35.3218H111.815ZM111.815 34.0098H117.383C117.553 34.0098 117.697 33.9511 117.815 33.8338C117.943 33.7058 118.007 33.5564 118.007 33.3858V27.9778C118.007 27.8071 117.943 27.6631 117.815 27.5458C117.697 27.4178 117.553 27.3538 117.383 27.3538H111.815C111.644 27.3538 111.495 27.4178 111.367 27.5458C111.249 27.6631 111.191 27.8071 111.191 27.9778V33.3858C111.191 33.5564 111.249 33.7058 111.367 33.8338C111.495 33.9511 111.644 34.0098 111.815 34.0098ZM120.816 35.3218V27.9778C120.816 27.6258 120.902 27.3058 121.072 27.0178C121.254 26.7191 121.488 26.4844 121.776 26.3138C122.075 26.1324 122.4 26.0418 122.752 26.0418H127.968V27.3538H122.752C122.582 27.3538 122.432 27.4178 122.304 27.5458C122.187 27.6631 122.128 27.8071 122.128 27.9778V35.3218H120.816ZM130.924 35.3218C130.572 35.3218 130.247 35.2364 129.948 35.0658C129.66 34.8844 129.425 34.6498 129.244 34.3618C129.073 34.0631 128.988 33.7378 128.988 33.3858V27.9778C128.988 27.6258 129.073 27.3058 129.244 27.0178C129.425 26.7191 129.66 26.4844 129.948 26.3138C130.247 26.1324 130.572 26.0418 130.924 26.0418H136.492C136.855 26.0418 137.18 26.1324 137.468 26.3138C137.767 26.4844 138.001 26.7191 138.172 27.0178C138.353 27.3058 138.444 27.6258 138.444 27.9778V31.3378H130.3V33.3858C130.3 33.5564 130.359 33.7058 130.476 33.8338C130.604 33.9511 130.753 34.0098 130.924 34.0098H138.444V35.3218H130.924ZM130.3 30.0258H137.116V27.9778C137.116 27.8071 137.052 27.6631 136.924 27.5458C136.807 27.4178 136.663 27.3538 136.492 27.3538H130.924C130.753 27.3538 130.604 27.4178 130.476 27.5458C130.359 27.6631 130.3 27.8071 130.3 27.9778V30.0258Z" fill="white"/>
</g>
<defs>
<linearGradient id="paint0_linear_1_4675" x1="0.21875" y1="28.8911" x2="188.279" y2="28.8911" gradientUnits="userSpaceOnUse">
<stop stop-color="#EA533D"/>
<stop offset="1" stop-color="#EBA435"/>
</linearGradient>
<clipPath id="clip0_1_4675">
<rect width="183.273" height="56" fill="white" transform="translate(0 0.891113)"/>
</clipPath>
</defs>
</svg>
