<svg width="153" height="57" viewBox="0 0 153 57" fill="none" xmlns="http://www.w3.org/2000/svg">
<g clip-path="url(#clip0_1_5309)">
<path d="M0.272823 0.154053H139.811L151.985 14.7422V56.1541H13.1794L0.210938 40.6102L0.272823 0.154053Z" fill="url(#paint0_linear_1_5309)"/>
<path d="M151.984 6.29188V0.154053H146.488L151.984 6.29188Z" fill="#EA533D"/>
<path d="M21.896 33.9304V22.4104H23.672L28.456 28.1064L33.24 22.4104H35.016V33.9304H33.72V23.8824L28.456 30.1384L23.192 23.8824V33.9304H21.896ZM38.5958 33.9304C38.2438 33.9304 37.9184 33.8451 37.6198 33.6744C37.3318 33.4931 37.0971 33.2584 36.9158 32.9704C36.7451 32.6718 36.6598 32.3464 36.6598 31.9944V26.5864C36.6598 26.2344 36.7451 25.9144 36.9158 25.6264C37.0971 25.3278 37.3318 25.0931 37.6198 24.9224C37.9184 24.7411 38.2438 24.6504 38.5958 24.6504H44.1638C44.5264 24.6504 44.8518 24.7411 45.1398 24.9224C45.4384 25.0931 45.6731 25.3278 45.8438 25.6264C46.0251 25.9144 46.1158 26.2344 46.1158 26.5864V31.9944C46.1158 32.3464 46.0251 32.6718 45.8438 32.9704C45.6731 33.2584 45.4384 33.4931 45.1398 33.6744C44.8518 33.8451 44.5264 33.9304 44.1638 33.9304H38.5958ZM38.5958 32.6184H44.1638C44.3344 32.6184 44.4784 32.5598 44.5958 32.4424C44.7238 32.3144 44.7878 32.1651 44.7878 31.9944V26.5864C44.7878 26.4158 44.7238 26.2718 44.5958 26.1544C44.4784 26.0264 44.3344 25.9624 44.1638 25.9624H38.5958C38.4251 25.9624 38.2758 26.0264 38.1478 26.1544C38.0304 26.2718 37.9718 26.4158 37.9718 26.5864V31.9944C37.9718 32.1651 38.0304 32.3144 38.1478 32.4424C38.2758 32.5598 38.4251 32.6184 38.5958 32.6184ZM47.5976 33.9304V26.5864C47.5976 26.2344 47.683 25.9144 47.8536 25.6264C48.035 25.3278 48.2696 25.0931 48.5576 24.9224C48.8563 24.7411 49.1816 24.6504 49.5336 24.6504H54.7496V25.9624H49.5336C49.363 25.9624 49.2136 26.0264 49.0856 26.1544C48.9683 26.2718 48.9096 26.4158 48.9096 26.5864V33.9304H47.5976ZM57.7051 33.9304C57.3531 33.9304 57.0278 33.8451 56.7291 33.6744C56.4411 33.4931 56.2065 33.2584 56.0251 32.9704C55.8545 32.6718 55.7691 32.3464 55.7691 31.9944V26.5864C55.7691 26.2344 55.8545 25.9144 56.0251 25.6264C56.2065 25.3278 56.4411 25.0931 56.7291 24.9224C57.0278 24.7411 57.3531 24.6504 57.7051 24.6504H63.2731C63.6358 24.6504 63.9611 24.7411 64.2491 24.9224C64.5478 25.0931 64.7825 25.3278 64.9531 25.6264C65.1345 25.9144 65.2251 26.2344 65.2251 26.5864V29.9464H57.0811V31.9944C57.0811 32.1651 57.1398 32.3144 57.2571 32.4424C57.3851 32.5598 57.5345 32.6184 57.7051 32.6184H65.2251V33.9304H57.7051ZM57.0811 28.6344H63.8971V26.5864C63.8971 26.4158 63.8331 26.2718 63.7051 26.1544C63.5878 26.0264 63.4438 25.9624 63.2731 25.9624H57.7051C57.5345 25.9624 57.3851 26.0264 57.2571 26.1544C57.1398 26.2718 57.0811 26.4158 57.0811 26.5864V28.6344ZM71.3186 33.9304V22.4104H80.9186C81.2706 22.4104 81.5906 22.4958 81.8786 22.6664C82.1773 22.8371 82.412 23.0718 82.5826 23.3704C82.7533 23.6584 82.8386 23.9784 82.8386 24.3304V32.0104C82.8386 32.3624 82.7533 32.6878 82.5826 32.9864C82.412 33.2744 82.1773 33.5038 81.8786 33.6744C81.5906 33.8451 81.2706 33.9304 80.9186 33.9304H71.3186ZM73.2386 32.6344H80.9186C81.0893 32.6344 81.2333 32.5758 81.3506 32.4584C81.4786 32.3304 81.5426 32.1811 81.5426 32.0104V24.3304C81.5426 24.1598 81.4786 24.0158 81.3506 23.8984C81.2333 23.7704 81.0893 23.7064 80.9186 23.7064H73.2386C73.068 23.7064 72.9186 23.7704 72.7906 23.8984C72.6733 24.0158 72.6146 24.1598 72.6146 24.3304V32.0104C72.6146 32.1811 72.6733 32.3304 72.7906 32.4584C72.9186 32.5758 73.068 32.6344 73.2386 32.6344ZM86.4864 33.9304C86.1344 33.9304 85.809 33.8451 85.5104 33.6744C85.2224 33.4931 84.9877 33.2584 84.8064 32.9704C84.6357 32.6718 84.5504 32.3464 84.5504 31.9944V26.5864C84.5504 26.2344 84.6357 25.9144 84.8064 25.6264C84.9877 25.3278 85.2224 25.0931 85.5104 24.9224C85.809 24.7411 86.1344 24.6504 86.4864 24.6504H92.0544C92.417 24.6504 92.7424 24.7411 93.0304 24.9224C93.329 25.0931 93.5637 25.3278 93.7344 25.6264C93.9157 25.9144 94.0064 26.2344 94.0064 26.5864V29.9464H85.8624V31.9944C85.8624 32.1651 85.921 32.3144 86.0384 32.4424C86.1664 32.5598 86.3157 32.6184 86.4864 32.6184H94.0064V33.9304H86.4864ZM85.8624 28.6344H92.6784V26.5864C92.6784 26.4158 92.6144 26.2718 92.4864 26.1544C92.369 26.0264 92.225 25.9624 92.0544 25.9624H86.4864C86.3157 25.9624 86.1664 26.0264 86.0384 26.1544C85.921 26.2718 85.8624 26.4158 85.8624 26.5864V28.6344ZM97.5965 33.9304C97.2338 33.9304 96.9032 33.8451 96.6045 33.6744C96.3165 33.4931 96.0872 33.2584 95.9165 32.9704C95.7458 32.6718 95.6605 32.3464 95.6605 31.9944V21.6104H96.9725V24.6504H100.989V25.9624H96.9725V31.9944C96.9725 32.1651 97.0312 32.3144 97.1485 32.4424C97.2765 32.5598 97.4258 32.6184 97.5965 32.6184H100.989V33.9304H97.5965ZM104.143 33.9304C103.791 33.9304 103.466 33.8451 103.167 33.6744C102.879 33.4931 102.644 33.2584 102.463 32.9704C102.292 32.6718 102.207 32.3464 102.207 31.9944V28.6344H110.335V26.5864C110.335 26.4158 110.271 26.2718 110.143 26.1544C110.026 26.0264 109.882 25.9624 109.711 25.9624H102.207V24.6504H109.711C110.074 24.6504 110.399 24.7411 110.687 24.9224C110.986 25.0931 111.22 25.3278 111.391 25.6264C111.572 25.9144 111.663 26.2344 111.663 26.5864V33.9304H104.143ZM104.143 32.6184H110.335V29.9464H103.519V31.9944C103.519 32.1651 103.578 32.3144 103.695 32.4424C103.823 32.5598 103.972 32.6184 104.143 32.6184ZM113.316 33.9304V24.6504H114.628V33.9304H113.316ZM113.316 22.9224V21.6104H114.628V22.9224H113.316ZM118.581 33.9304C118.229 33.9304 117.903 33.8451 117.605 33.6744C117.317 33.4931 117.082 33.2584 116.901 32.9704C116.73 32.6718 116.645 32.3464 116.645 31.9944V21.6104H117.957V31.9944C117.957 32.1651 118.015 32.3144 118.133 32.4424C118.261 32.5598 118.41 32.6184 118.581 32.6184H120.149V33.9304H118.581ZM123.345 33.9304C122.993 33.9304 122.667 33.8451 122.369 33.6744C122.081 33.4931 121.846 33.2584 121.665 32.9704C121.494 32.6718 121.409 32.3464 121.409 31.9944V31.8664H122.721V31.9944C122.721 32.1651 122.779 32.3144 122.897 32.4424C123.025 32.5598 123.174 32.6184 123.345 32.6184H128.913C129.083 32.6184 129.227 32.5598 129.345 32.4424C129.473 32.3144 129.537 32.1651 129.537 31.9944V30.5704C129.537 30.3998 129.473 30.2558 129.345 30.1384C129.227 30.0104 129.083 29.9464 128.913 29.9464H123.345C122.993 29.9464 122.667 29.8611 122.369 29.6904C122.081 29.5091 121.846 29.2744 121.665 28.9864C121.494 28.6878 121.409 28.3624 121.409 28.0104V26.5864C121.409 26.2344 121.494 25.9144 121.665 25.6264C121.846 25.3278 122.081 25.0931 122.369 24.9224C122.667 24.7411 122.993 24.6504 123.345 24.6504H128.913C129.275 24.6504 129.601 24.7411 129.889 24.9224C130.187 25.0931 130.422 25.3278 130.593 25.6264C130.774 25.9144 130.865 26.2344 130.865 26.5864V26.7144H129.537V26.5864C129.537 26.4158 129.473 26.2718 129.345 26.1544C129.227 26.0264 129.083 25.9624 128.913 25.9624H123.345C123.174 25.9624 123.025 26.0264 122.897 26.1544C122.779 26.2718 122.721 26.4158 122.721 26.5864V28.0104C122.721 28.1811 122.779 28.3304 122.897 28.4584C123.025 28.5758 123.174 28.6344 123.345 28.6344H128.913C129.275 28.6344 129.601 28.7251 129.889 28.9064C130.187 29.0771 130.422 29.3118 130.593 29.6104C130.774 29.8984 130.865 30.2184 130.865 30.5704V31.9944C130.865 32.3464 130.774 32.6718 130.593 32.9704C130.422 33.2584 130.187 33.4931 129.889 33.6744C129.601 33.8451 129.275 33.9304 128.913 33.9304H123.345Z" fill="white"/>
</g>
<defs>
<linearGradient id="paint0_linear_1_5309" x1="0.210937" y1="28.1541" x2="156.182" y2="28.1541" gradientUnits="userSpaceOnUse">
<stop stop-color="#EA533D"/>
<stop offset="1" stop-color="#EBA435"/>
</linearGradient>
<clipPath id="clip0_1_5309">
<rect width="152" height="56" fill="white" transform="translate(0.0273438 0.154053)"/>
</clipPath>
</defs>
</svg>
