<svg width="223" height="138" viewBox="0 0 223 138" fill="none" xmlns="http://www.w3.org/2000/svg">
<path d="M151.38 58.4773L154.829 59.1205C156.009 59.3962 157.098 58.4773 157.098 57.1909V46.1644C157.098 46.1644 156.553 44.786 154.284 44.8779C152.015 44.9698 146.025 47.5427 146.116 48.2778C146.116 48.8291 148.748 54.9856 149.746 57.099C150.019 57.8341 150.654 58.2935 151.38 58.4773Z" fill="url(#paint0_linear_1_3962)"/>
<path d="M124.331 53.3314L144.661 40.6509L147.475 38.3537C149.471 35.7808 153.192 39.732 153.192 39.732C153.192 39.732 155.643 40.0995 155.552 40.9265C155.461 41.5698 155.552 44.0507 155.552 45.429C155.552 45.8885 155.552 46.7155 155.008 47.1749C152.739 49.1045 149.471 48.737 147.747 48.5532C146.839 48.4613 145.841 48.8289 145.206 49.4721L135.131 59.6716L124.331 53.3314Z" fill="url(#paint1_linear_1_3962)"/>
<path opacity="0.35" d="M124.331 53.3314L144.661 40.6509L147.475 38.3537C149.471 35.7808 153.192 39.732 153.192 39.732C153.192 39.732 155.643 40.0995 155.552 40.9265C155.461 41.5698 155.552 44.0507 155.552 45.429C155.552 45.8885 155.552 46.7155 155.008 47.1749C152.739 49.1045 149.471 48.737 147.747 48.5532C146.839 48.4613 145.841 48.8289 145.206 49.4721L135.131 59.6716L124.331 53.3314Z" fill="url(#paint2_linear_1_3962)"/>
<path d="M144.572 38.2617V39.3644C144.572 39.3644 144.845 39.8238 145.48 40.0076V40.8346C145.48 40.8346 144.845 40.8346 144.572 40.1914V41.5697C144.572 42.3048 147.295 43.1318 150.653 43.2236C154.012 43.3155 156.734 42.5804 156.734 41.8453V38.5374L144.572 38.2617Z" fill="url(#paint3_linear_1_3962)"/>
<path d="M156.734 38.5375C156.734 39.2726 154.012 40.0996 150.653 39.9158C147.295 39.8239 144.572 38.9969 144.572 38.2618C144.572 37.5267 147.295 36.9754 150.653 37.1592C154.012 37.3429 156.734 37.8024 156.734 38.5375Z" fill="url(#paint4_linear_1_3962)"/>
<g opacity="0.61">
<path d="M152.649 41.7535C152.014 41.7535 151.378 41.7535 150.743 41.7535C148.656 41.6616 146.75 41.3859 145.57 40.9265V40.3752C146.659 40.8346 148.656 41.1103 150.652 41.2022C153.466 41.2941 155.644 40.7427 156.461 40.1914V40.8346C155.826 41.2941 154.283 41.6616 152.649 41.7535Z" fill="url(#paint5_linear_1_3962)"/>
</g>
<g opacity="0.61">
<path d="M152.559 42.9483C151.924 42.9483 151.289 42.9483 150.653 42.9483C148.566 42.8564 146.66 42.5808 145.48 42.1213V41.57C146.569 42.0294 148.566 42.3051 150.562 42.397C153.376 42.4889 155.554 41.9376 156.371 41.3862V42.0294C155.736 42.4889 154.284 42.7645 152.559 42.9483Z" fill="url(#paint6_linear_1_3962)"/>
</g>
<path d="M155.372 38.17C154.646 37.8025 152.74 37.6187 150.471 37.5268C148.202 37.4349 146.296 37.6187 145.661 37.9863H145.389V38.2619C145.389 38.8133 147.748 39.2727 150.562 39.4565C153.376 39.5484 155.645 39.0889 155.645 38.5376V38.2619L155.372 38.17Z" fill="url(#paint7_linear_1_3962)"/>
<path d="M155.645 38.1698C155.645 38.7211 153.376 39.1805 150.471 39.0887C147.658 38.9968 145.298 38.4454 145.298 37.8941C145.298 37.3428 147.567 37.0671 150.38 37.159C153.285 37.2509 155.645 37.6185 155.645 38.1698Z" fill="url(#paint8_linear_1_3962)"/>
<path d="M145.661 30.1758L145.752 37.8025C145.752 38.2619 148.021 38.7213 150.653 38.8132C153.376 38.9051 155.554 38.4457 155.554 37.9862L155.645 33.4837L145.661 30.1758Z" fill="url(#paint9_linear_1_3962)"/>
<path d="M149.478 27.6029C149.478 27.6029 149.387 26.3165 149.568 25.3057C149.841 24.295 149.478 23.5599 147.572 22.3653C145.938 21.2627 135.047 15.5656 132.142 14.0036C131.779 13.8198 131.053 13.8198 130.509 14.0036L125.971 15.7494C125.244 16.0251 124.881 16.5764 125.335 16.944L136.771 27.0516C136.771 27.0516 138.223 28.4299 139.222 28.7056C140.22 28.9812 143.578 30.1758 144.304 30.5433L149.478 27.6029Z" fill="url(#paint10_linear_1_3962)"/>
<path d="M149.478 27.2352C149.478 27.2352 149.387 25.9488 149.568 24.9381C149.841 23.9273 149.478 23.1922 147.572 21.9976C145.938 20.895 135.047 15.198 132.142 13.6359C131.779 13.4521 131.053 13.4521 130.509 13.6359L125.971 15.3817C125.244 15.6574 124.881 16.2087 125.335 16.5763L136.771 26.6839C136.771 26.6839 138.223 28.0622 139.222 28.3379C140.22 28.6136 143.124 29.7162 143.578 30.0838L149.478 27.2352Z" fill="url(#paint11_linear_1_3962)"/>
<path d="M151.111 36.1485C151.111 36.1485 150.93 40.1916 151.384 41.0185C151.837 41.8455 152.745 42.6725 154.56 43.5914C156.103 44.4184 165.996 49.0128 168.9 50.2992C169.354 50.483 170.08 50.483 170.625 50.2073L175.344 47.9101C175.98 47.6345 176.252 47.0831 175.798 46.8075L162.366 35.4134C162.366 35.4134 161.367 34.127 159.37 33.8513C157.374 33.5756 156.466 33.1162 156.466 33.1162L151.111 36.1485Z" fill="url(#paint12_linear_1_3962)"/>
<path d="M151.381 35.8726C151.381 35.8726 151.199 39.9157 151.653 40.7427C152.107 41.5697 153.014 42.3966 154.83 43.3155C156.373 44.1425 166.266 48.7369 169.17 50.0233C169.624 50.2071 170.35 50.2071 170.894 49.9314L175.614 47.6342C176.249 47.3586 176.521 46.8072 176.068 46.5316L162.635 35.1375C162.635 35.1375 161.637 33.8511 159.64 33.5754C157.643 33.2998 156.736 32.8403 156.736 32.8403L151.381 35.8726Z" fill="url(#paint13_linear_1_3962)"/>
<path d="M145.299 30.6351C145.299 30.6351 143.575 30.9108 142.122 28.7055C140.579 26.5002 143.212 25.3056 144.936 25.3975C146.66 25.4894 150.291 26.7758 149.928 27.7866C149.474 28.7055 145.299 30.6351 145.299 30.6351Z" fill="#717481"/>
<path d="M150.018 34.0347C150.018 34.0347 149.564 35.3211 151.198 36.3319C152.922 37.3427 155.191 37.6183 156.916 36.7913C158.64 35.9643 158.549 34.2185 157.732 33.4834C156.916 32.7483 155.191 31.5537 154.011 31.6456C152.922 31.8294 150.018 34.0347 150.018 34.0347Z" fill="#717481"/>
<path d="M153.558 34.1267C152.015 34.8618 150.109 34.9537 149.383 34.3105L144.21 30.0836C143.393 29.4404 144.028 28.3378 145.571 27.6027C147.114 26.8676 149.02 26.7757 149.746 27.4189L154.92 31.6457C155.736 32.1971 155.101 33.2997 153.558 34.1267Z" fill="#252424"/>
<path d="M150.745 30.2673C151.108 30.543 150.926 31.0943 150.291 31.3699C149.656 31.6456 148.839 31.6456 148.476 31.3699C148.113 31.0943 148.294 30.543 148.929 30.2673C149.565 29.9916 150.382 29.9916 150.745 30.2673Z" fill="url(#paint14_radial_1_3962)"/>
<path d="M150.474 30.359C150.746 30.6347 150.564 31.0022 150.111 31.2779C149.566 31.5536 148.931 31.5536 148.658 31.2779C148.386 31.0022 148.568 30.6347 149.021 30.359C149.566 30.1752 150.201 30.1752 150.474 30.359Z" fill="url(#paint15_radial_1_3962)"/>
<path d="M153.104 32.197C153.467 32.4726 153.286 33.024 152.65 33.2996C152.015 33.5753 151.198 33.5753 150.835 33.2996C150.472 33.024 150.654 32.4726 151.289 32.197C151.924 31.9213 152.741 31.9213 153.104 32.197Z" fill="url(#paint16_radial_1_3962)"/>
<path d="M152.833 32.2887C153.105 32.5644 152.924 32.9319 152.47 33.2076C151.925 33.4832 151.29 33.4832 151.018 33.2076C150.746 32.9319 150.927 32.5644 151.381 32.2887C151.925 32.1049 152.561 32.1049 152.833 32.2887Z" fill="url(#paint17_radial_1_3962)"/>
<path d="M148.565 28.5218C148.928 28.7974 148.746 29.3487 148.111 29.6244C147.476 29.9001 146.659 29.9001 146.296 29.6244C145.933 29.3487 146.114 28.7974 146.75 28.5218C147.385 28.1542 148.111 28.1542 148.565 28.5218Z" fill="url(#paint18_radial_1_3962)"/>
<path d="M148.294 28.6135C148.566 28.8891 148.385 29.2567 147.931 29.5324C147.386 29.808 146.751 29.808 146.479 29.5324C146.206 29.2567 146.388 28.8891 146.842 28.6135C147.386 28.3378 148.022 28.3378 148.294 28.6135Z" fill="url(#paint19_radial_1_3962)"/>
<path d="M191.498 87.881C191.498 87.881 192.587 89.1674 195.491 89.0755C198.486 88.9836 203.841 101.48 204.567 101.756C205.293 101.94 205.747 101.848 205.475 97.8967C205.203 93.8537 204.749 89.8106 204.749 89.8106L197.216 84.2974H193.585L191.498 87.881Z" fill="url(#paint20_linear_1_3962)"/>
<path d="M154.74 89.4432L186.596 85.6759C186.596 85.6759 188.956 85.0326 190.045 86.8704C191.134 88.7082 196.126 88.4325 199.484 87.5136L196.308 78.7843L189.864 77.6816C189.864 77.6816 188.502 79.2437 182.603 79.1518C176.704 79.06 152.471 80.622 150.292 81.3571C148.114 82.0004 154.74 89.4432 154.74 89.4432Z" fill="url(#paint21_linear_1_3962)"/>
<path opacity="0.35" d="M154.74 89.4432L186.596 85.6759C186.596 85.6759 188.956 85.0326 190.045 86.8704C191.134 88.7082 196.126 88.4325 199.484 87.5136L196.308 78.7843L189.864 77.6816C189.864 77.6816 188.502 79.2437 182.603 79.1518C176.704 79.06 152.471 80.622 150.292 81.3571C148.114 82.0004 154.74 89.4432 154.74 89.4432Z" fill="url(#paint22_linear_1_3962)"/>
<path d="M199.211 69.9629H192.132V73.7303H199.211V69.9629Z" fill="url(#paint23_linear_1_3962)"/>
<path d="M189.409 79.2432C189.409 79.2432 189.682 78.7838 191.043 79.1513L190.589 80.0702L190.317 80.1621L189.591 79.7945C189.682 79.7945 189.409 79.6107 189.409 79.2432Z" fill="url(#paint24_radial_1_3962)"/>
<path d="M189.41 77.1299V78.3244C189.41 78.3244 189.682 78.8758 190.408 79.0595V79.8865C190.408 79.8865 189.682 79.8865 189.501 79.2433V80.7135C189.501 81.5405 192.405 82.3675 196.036 82.4594C199.666 82.6431 202.57 81.8162 202.57 80.9892V77.4055L189.41 77.1299Z" fill="url(#paint25_linear_1_3962)"/>
<path d="M202.391 77.4055C202.391 78.2325 199.486 79.0595 195.856 78.8757C192.225 78.6919 189.321 77.9568 189.321 77.1298C189.321 76.3029 192.225 75.7515 195.765 75.9353C199.486 76.1191 202.391 76.5785 202.391 77.4055Z" fill="url(#paint26_linear_1_3962)"/>
<g opacity="0.61">
<path d="M198.032 80.8057C197.397 80.8057 196.671 80.8057 196.035 80.8057C193.857 80.7139 191.77 80.3463 190.59 79.8869V79.3355C191.77 79.795 193.857 80.1625 196.035 80.2544C199.03 80.3463 201.39 79.7031 202.207 79.2437V79.8869C201.39 80.3463 199.847 80.7139 198.032 80.8057Z" fill="url(#paint27_linear_1_3962)"/>
</g>
<g opacity="0.61">
<path d="M198.032 82.0919C197.397 82.0919 196.671 82.0919 196.035 82.0919C193.857 82 191.77 81.6324 190.59 81.173V80.6217C191.77 81.0811 193.857 81.4487 196.035 81.5405C199.03 81.6324 201.39 80.9892 202.207 80.5298V81.173C201.39 81.6324 199.757 82 198.032 82.0919Z" fill="url(#paint28_linear_1_3962)"/>
</g>
<path d="M200.934 76.9465C200.208 76.579 198.12 76.3033 195.76 76.2114C193.401 76.1195 191.313 76.3033 190.587 76.6708H190.315V77.0384C190.315 77.5897 192.765 78.141 195.851 78.3248C198.846 78.4167 201.297 77.9573 201.297 77.4059V77.0384L200.934 76.9465Z" fill="url(#paint29_linear_1_3962)"/>
<path d="M201.207 77.0381C201.207 77.5894 198.757 78.1407 195.761 78.0488C192.766 77.9569 190.316 77.3137 190.225 76.7624C190.225 76.2111 192.676 75.8435 195.671 76.0273C198.757 76.0273 201.207 76.3948 201.207 77.0381Z" fill="url(#paint30_linear_1_3962)"/>
<path d="M191.405 72.0763C190.951 71.9844 190.588 72.352 190.588 72.8114L190.679 76.5788C190.77 77.0382 193.039 77.5896 195.943 77.6814C198.847 77.7733 201.207 77.3139 201.207 76.8544L201.116 72.7195C201.116 72.352 200.753 71.9844 200.39 72.0763C199.301 72.1682 197.304 72.4438 195.943 72.4438C194.309 72.4438 192.403 72.2601 191.405 72.0763Z" fill="url(#paint31_linear_1_3962)"/>
<path d="M198.304 67.8498C198.304 67.8498 198.395 66.7472 199.212 65.9202C200.028 65.1851 200.119 64.5419 199.03 63.1636C198.122 61.969 191.134 54.9856 189.409 53.1478C189.137 52.8722 188.502 52.7803 187.867 52.7803L182.602 53.2397C181.695 53.3316 181.059 53.6991 181.241 54.0667L186.142 64.5419C186.142 64.5419 186.687 65.9202 187.503 66.3796C188.32 66.8391 190.408 68.3093 191.134 68.8606L198.304 67.8498Z" fill="url(#paint32_linear_1_3962)"/>
<path d="M197.939 67.4821C197.939 67.4821 198.574 66.3794 199.391 65.6443C200.208 64.9092 200.299 64.266 199.21 62.8877C198.302 61.6932 191.314 54.7097 189.589 52.8719C189.317 52.5963 188.682 52.5044 188.046 52.5044L182.782 52.9638C181.874 53.0557 181.239 53.4233 181.421 53.7908L186.322 64.266C186.322 64.266 186.866 65.6443 187.683 66.1038C188.5 66.5632 190.587 68.0334 190.769 68.4928L197.939 67.4821Z" fill="url(#paint33_linear_1_3962)"/>
<path d="M194.854 75.1087C194.854 75.1087 192.313 78.3248 192.313 79.0599C192.313 79.795 192.676 80.7138 193.765 81.8165C194.763 82.7354 201.389 88.6162 203.295 90.2701C203.567 90.5458 204.293 90.6377 204.929 90.5458L210.737 89.7188C211.554 89.6269 212.189 89.1675 212.008 88.7999L205.927 76.8546C205.927 76.8546 205.745 75.66 204.021 75.0168C202.297 74.3736 201.752 73.8223 201.752 73.8223L194.854 75.1087Z" fill="url(#paint34_linear_1_3962)"/>
<path d="M194.945 74.9251C194.945 74.9251 192.404 78.1412 192.404 78.8763C192.404 79.6114 192.767 80.5302 193.856 81.6329C194.854 82.5518 201.48 88.4326 203.386 90.0866C203.658 90.3622 204.384 90.4541 205.019 90.3622L210.828 89.5352C211.645 89.4433 212.099 89.0758 211.917 88.7082L205.927 76.671C205.927 76.671 205.745 75.4764 204.021 74.8332C202.297 74.19 201.752 73.6387 201.752 73.6387L194.945 74.9251Z" fill="url(#paint35_linear_1_3962)"/>
<path d="M192.043 69.3199C192.043 69.3199 190.319 69.1361 190.137 67.1146C189.956 65.0931 193.041 64.6336 194.675 65.0931C196.309 65.5525 198.941 67.2984 198.033 68.0335C197.035 68.6767 192.043 69.3199 192.043 69.3199Z" fill="#717481"/>
<path d="M194.49 73.0871C194.49 73.0871 193.22 74.006 194.309 75.2005C195.307 76.3951 197.304 77.0383 199.391 76.7626C201.479 76.487 202.477 75.0168 202.114 74.2817C201.751 73.5465 200.844 72.1682 199.664 72.0764C198.484 71.8926 194.49 73.0871 194.49 73.0871Z" fill="#717481"/>
<path d="M197.848 73.9144C195.942 74.1901 194.127 73.8226 193.764 73.1793L191.313 68.6768C190.95 68.0336 192.221 67.2066 194.036 66.931C195.942 66.6553 197.757 67.0229 198.12 67.6661L200.571 72.1686C200.934 72.9037 199.663 73.6388 197.848 73.9144Z" fill="#252424"/>
<path d="M197.304 70.2386C197.486 70.6061 197.032 70.8818 196.215 70.9737C195.489 71.0656 194.672 70.8818 194.49 70.6061C194.309 70.3305 194.763 69.9629 195.58 69.871C196.396 69.7791 197.122 69.871 197.304 70.2386Z" fill="url(#paint36_radial_1_3962)"/>
<path d="M197.03 70.2386C197.211 70.5142 196.758 70.7899 196.122 70.8818C195.487 70.9737 194.852 70.7899 194.761 70.6061C194.579 70.3305 195.033 70.0548 195.578 69.9629C196.304 69.871 196.939 70.0548 197.03 70.2386Z" fill="url(#paint37_radial_1_3962)"/>
<path d="M198.394 72.2601C198.575 72.5358 198.122 72.9033 197.305 72.9952C196.579 73.0871 195.762 72.9033 195.58 72.6277C195.399 72.352 195.853 71.9844 196.669 71.8926C197.486 71.8007 198.212 71.9844 198.394 72.2601Z" fill="url(#paint38_radial_1_3962)"/>
<path d="M198.123 72.3521C198.305 72.6277 197.851 72.9034 197.307 72.9953C196.671 73.0872 196.036 72.9034 195.945 72.7196C195.764 72.444 196.217 72.1683 196.853 72.0764C197.397 71.8926 198.033 72.0764 198.123 72.3521Z" fill="url(#paint39_radial_1_3962)"/>
<path d="M196.304 68.3089C196.486 68.6765 196.032 68.9521 195.215 69.044C194.489 69.1359 193.672 68.9521 193.49 68.6765C193.309 68.3089 193.763 68.0333 194.58 67.9414C195.396 67.8495 196.122 68.0333 196.304 68.3089Z" fill="url(#paint40_radial_1_3962)"/>
<path d="M196.034 68.4009C196.215 68.6766 195.761 68.9522 195.217 69.0441C194.581 69.136 193.946 68.9522 193.855 68.7685C193.674 68.4928 194.128 68.2171 194.763 68.1252C195.307 67.9415 195.852 68.1252 196.034 68.4009Z" fill="url(#paint41_radial_1_3962)"/>
<path d="M155.738 87.6053C155.738 87.6053 151.473 64.5416 111.084 36.5158C109.541 35.4132 107.635 34.9537 105.729 35.1375C103.188 35.4132 99.1946 35.8726 94.6566 36.7915C88.8479 38.0779 84.4914 42.7642 83.6746 48.7369C83.0393 53.0556 82.767 58.1094 83.5838 62.1525C83.5838 62.1525 103.097 95.0482 133.32 102.215L155.738 87.6053Z" fill="url(#paint42_linear_1_3962)"/>
<path d="M141.85 87.5134L143.938 87.3297C143.938 87.1459 143.938 83.1028 141.306 79.3354L139.49 80.0706C141.85 83.3785 141.85 87.5134 141.85 87.5134Z" fill="url(#paint43_linear_1_3962)"/>
<path d="M120.25 95.1405C120.25 95.1405 91.025 108.097 89.6636 109.842C88.3022 111.588 88.5745 113.15 87.1223 113.977C85.6702 114.713 81.8583 118.48 76.7757 116.458C71.7839 114.437 73.6898 113.334 73.6898 113.334V108.832C73.6898 108.832 72.1469 108.464 72.9637 106.718C73.7806 104.881 86.8501 102.308 86.8501 102.308C86.8501 102.308 109.812 90.9136 110.539 89.811C111.537 88.2489 113.715 88.8002 115.258 90.7298C116.801 92.6595 118.435 93.5784 119.524 93.5784C120.704 93.6703 121.157 94.681 120.25 95.1405Z" fill="url(#paint44_linear_1_3962)"/>
<path opacity="0.35" d="M120.25 95.1405C120.25 95.1405 91.025 108.097 89.6636 109.842C88.3022 111.588 88.5745 113.15 87.1223 113.977C85.6702 114.713 81.8583 118.48 76.7757 116.458C71.7839 114.437 73.6898 113.334 73.6898 113.334V108.832C73.6898 108.832 72.1469 108.464 72.9637 106.718C73.7806 104.881 86.8501 102.308 86.8501 102.308C86.8501 102.308 109.812 90.9136 110.539 89.811C111.537 88.2489 113.715 88.8002 115.258 90.7298C116.801 92.6595 118.435 93.5784 119.524 93.5784C120.704 93.6703 121.157 94.681 120.25 95.1405Z" fill="url(#paint45_linear_1_3962)"/>
<path d="M36.1172 76.9466C36.1172 76.9466 33.5759 77.1304 31.4884 80.714C29.4009 84.2976 26.1336 90.6378 25.1352 90.7297C24.0461 90.8216 23.5015 90.5459 23.7738 89.0757C24.0461 87.6055 26.6781 72.9035 27.0412 72.536C27.4042 72.1684 28.0395 71.709 28.0395 71.709L36.1172 76.9466Z" fill="url(#paint46_linear_1_3962)"/>
<path d="M72.4198 112.599L72.0568 128.128C72.0568 128.128 71.6938 130.15 72.9644 130.793C74.235 131.436 77.6839 133.182 78.1377 132.079C78.5915 130.977 85.3078 116.183 87.3953 113.702C88.2121 112.507 87.123 112.14 86.4877 112.599C85.8524 113.059 82.0404 115.815 79.8622 115.356C79.0453 115.08 80.1345 112.967 79.3176 112.415C78.5008 111.864 74.5073 110.394 74.4166 110.853C74.4166 111.221 74.5981 113.242 74.0535 113.059C73.509 112.783 72.5106 111.956 72.4198 112.599Z" fill="url(#paint47_linear_1_3962)"/>
<path d="M93.7498 75.9357C93.7498 75.9357 41.2903 73.271 40.292 74.4655C39.2936 75.5682 39.1121 77.7735 32.4866 76.7627C25.8611 75.8438 28.1301 71.4332 28.1301 71.4332V65.3686C28.1301 65.3686 38.2045 60.8661 43.5593 61.0499C48.8234 61.2337 68.1554 64.7254 74.6901 68.0334H85.3091C85.3091 68.0334 86.489 67.6658 86.3982 66.5632C86.3982 66.5632 87.6689 64.9092 89.121 66.3794C90.5732 67.8496 93.9313 72.6277 94.8389 73.271C95.8373 73.8223 94.7482 75.9357 93.7498 75.9357Z" fill="url(#paint48_linear_1_3962)"/>
<path d="M93.7498 75.9357C93.7498 75.9357 41.2903 73.271 40.292 74.4655C39.2936 75.5682 39.1121 77.7735 32.4866 76.7627C25.8611 75.8438 28.1301 71.4332 28.1301 71.4332V65.3686C28.1301 65.3686 38.2045 60.8661 43.5593 61.0499C48.8234 61.2337 68.1554 64.7254 74.6901 68.0334H85.3091C85.3091 68.0334 86.489 67.6658 86.3982 66.5632C86.3982 66.5632 87.6689 64.9092 89.121 66.3794C90.5732 67.8496 93.9313 72.6277 94.8389 73.271C95.8373 73.8223 94.7482 75.9357 93.7498 75.9357Z" fill="url(#paint49_linear_1_3962)"/>
<path opacity="0.35" d="M44.0986 68.952C44.0986 68.952 68.6039 71.7087 74.5941 70.606C80.5843 69.5953 55.6252 61.2335 43.2818 62.428L44.0986 68.952Z" fill="url(#paint50_linear_1_3962)"/>
<path d="M75.3225 103.777V104.88C75.3225 104.88 75.5948 105.339 76.2301 105.523V106.35C76.2301 106.35 75.5948 106.35 75.3225 105.707V107.085C75.3225 107.82 78.0453 108.647 81.4034 108.739C84.7616 108.831 87.4844 108.096 87.4844 107.361V104.053L75.3225 103.777Z" fill="url(#paint51_linear_1_3962)"/>
<path d="M87.4844 104.054C87.4844 104.789 84.7616 105.616 81.4034 105.432C78.0453 105.248 75.3225 104.513 75.3225 103.778C75.3225 103.043 78.0453 102.491 81.4034 102.675C84.7616 102.767 87.4844 103.227 87.4844 104.054Z" fill="url(#paint52_linear_1_3962)"/>
<g opacity="0.61">
<path d="M83.399 107.177C82.7637 107.177 82.1284 107.177 81.493 107.177C79.4055 107.085 77.4996 106.81 76.3197 106.35V105.799C77.4996 106.258 79.4056 106.534 81.4023 106.626C84.2159 106.718 86.3941 106.167 87.2109 105.615V106.258C86.5756 106.718 85.1235 107.085 83.399 107.177Z" fill="url(#paint53_linear_1_3962)"/>
</g>
<g opacity="0.61">
<path d="M83.399 108.372C82.7637 108.372 82.1284 108.464 81.493 108.372C79.4055 108.28 77.4996 108.004 76.3197 107.545V106.993C77.4996 107.453 79.4056 107.728 81.4023 107.82C84.2159 107.912 86.3941 107.361 87.2109 106.81V107.453C86.5756 107.912 85.0327 108.28 83.399 108.372Z" fill="url(#paint54_linear_1_3962)"/>
</g>
<path d="M86.1222 103.593C85.3962 103.226 83.4902 103.042 81.2212 102.95C78.9522 102.858 77.0462 103.042 76.4109 103.41H76.1386V103.685C76.1386 104.237 78.4984 104.696 81.3119 104.88C84.1255 104.972 86.3945 104.512 86.3945 103.961V103.685L86.1222 103.593Z" fill="url(#paint55_linear_1_3962)"/>
<path d="M86.3945 103.594C86.3945 104.145 84.1255 104.604 81.2212 104.512C78.4076 104.421 76.0478 103.869 76.0478 103.318C76.0478 102.767 78.3169 102.491 81.1304 102.583C84.0348 102.767 86.3945 103.042 86.3945 103.594Z" fill="url(#paint56_linear_1_3962)"/>
<path d="M76.4109 95.5996L76.5016 103.226C76.5924 103.686 78.7707 104.145 81.4027 104.237C84.1255 104.329 86.3038 103.869 86.3038 103.41L86.3945 98.9076L76.4109 95.5996Z" fill="url(#paint57_linear_1_3962)"/>
<path d="M80.2275 93.0267C80.2275 93.0267 80.1367 91.7403 80.3183 90.7296C80.5905 89.7188 80.2275 88.9837 78.3215 87.7892C76.6879 86.6865 65.7966 80.9895 62.8923 79.4274C62.5292 79.2436 61.8032 79.2436 61.2586 79.4274L56.7206 81.1732C55.9945 81.4489 55.6315 82.0002 56.0853 82.3678L67.4303 92.3835C67.4303 92.3835 68.8825 93.7618 69.8808 94.0375C70.8792 94.3132 74.2373 95.5077 74.9634 95.8753L80.2275 93.0267Z" fill="url(#paint58_linear_1_3962)"/>
<path d="M80.2275 92.7514C80.2275 92.7514 80.1367 91.4649 80.3183 90.4542C80.5905 89.4434 80.2275 88.7083 78.3215 87.5138C76.6879 86.4111 65.7966 80.7141 62.8923 79.152C62.5292 78.9682 61.8032 78.9682 61.2586 79.152L56.7206 80.8979C55.9945 81.1735 55.6315 81.7248 56.0853 82.0924L67.4303 92.1081C67.4303 92.1081 68.8825 93.4865 69.8808 93.7621C70.8792 94.0378 73.7835 95.1404 74.2373 95.508L80.2275 92.7514Z" fill="url(#paint59_linear_1_3962)"/>
<path d="M81.8613 101.572C81.8613 101.572 81.6798 105.615 82.1336 106.442C82.5874 107.269 83.495 108.096 85.3102 109.015C86.8531 109.842 96.746 114.437 99.6503 115.723C100.104 115.907 100.83 115.907 101.375 115.631L106.094 113.334C106.73 113.058 107.002 112.507 106.548 112.231L93.1156 100.837C93.1156 100.837 92.1172 99.5508 90.1205 99.2751C88.1237 98.9995 87.2161 98.54 87.2161 98.54L81.8613 101.572Z" fill="url(#paint60_linear_1_3962)"/>
<path d="M82.1308 101.389C82.1308 101.389 81.9493 105.432 82.4031 106.259C82.8569 107.086 83.7645 107.913 85.5797 108.832C87.1226 109.659 97.0155 114.253 99.9198 115.539C100.374 115.723 101.1 115.723 101.644 115.448L106.364 113.15C106.999 112.875 107.271 112.323 106.818 112.048L93.3851 100.654C93.3851 100.654 92.3867 99.3672 90.39 99.0915C88.3933 98.8159 87.4857 98.3564 87.4857 98.3564L82.1308 101.389Z" fill="url(#paint61_linear_1_3962)"/>
<path d="M76.049 96.0594C76.049 96.0594 74.3246 96.3351 72.8724 94.1298C71.3295 91.9245 73.9615 90.7299 75.686 90.8218C77.4104 90.9137 81.0408 92.2001 80.6778 93.119C80.224 94.2217 76.049 96.0594 76.049 96.0594Z" fill="#717481"/>
<path d="M80.7678 99.5508C80.7678 99.5508 80.314 100.837 81.9477 101.848C83.6722 102.859 85.9412 103.134 87.6656 102.307C89.3901 101.48 89.2993 99.7346 88.4824 98.9995C87.6656 98.2644 85.9412 97.0699 84.7613 97.1617C83.6722 97.2536 80.7678 99.5508 80.7678 99.5508Z" fill="#717481"/>
<path d="M84.3081 99.551C82.7652 100.286 80.8592 100.378 80.1332 99.7348L74.9598 95.508C74.143 94.8647 74.7783 93.7621 76.3212 93.027C77.8642 92.2919 79.7701 92.2 80.4962 92.8432L85.6695 97.0701C86.4864 97.7133 85.8511 98.8159 84.3081 99.551Z" fill="#252424"/>
<path d="M81.4947 95.7835C81.8577 96.0591 81.6762 96.6105 81.0409 96.8861C80.4055 97.1618 79.5887 97.1618 79.2256 96.8861C78.8626 96.6105 79.0441 96.0591 79.6795 95.7835C80.3148 95.4159 81.1316 95.4159 81.4947 95.7835Z" fill="url(#paint62_radial_1_3962)"/>
<path d="M81.3135 95.8752C81.5858 96.1509 81.4042 96.5184 80.9504 96.7941C80.4059 97.0697 79.7705 97.0697 79.4983 96.7941C79.226 96.5184 79.4075 96.1509 79.8613 95.8752C80.3151 95.5995 80.9504 95.5995 81.3135 95.8752Z" fill="url(#paint63_radial_1_3962)"/>
<path d="M83.854 97.6213C84.2171 97.897 84.0356 98.4483 83.4002 98.7239C82.7649 98.9996 81.9481 98.9996 81.585 98.7239C81.222 98.4483 81.4035 97.897 82.0388 97.6213C82.6741 97.3456 83.491 97.3456 83.854 97.6213Z" fill="url(#paint64_radial_1_3962)"/>
<path d="M83.583 97.8049C83.8553 98.0806 83.6738 98.4481 83.22 98.7238C82.6754 98.9994 82.0401 98.9994 81.7678 98.7238C81.4955 98.4481 81.677 98.0806 82.1308 97.8049C82.6754 97.5292 83.3107 97.5292 83.583 97.8049Z" fill="url(#paint65_radial_1_3962)"/>
<path d="M79.315 93.946C79.678 94.2217 79.4965 94.773 78.8612 95.0487C78.2258 95.3243 77.409 95.3243 77.046 95.0487C76.6829 94.773 76.8644 94.2217 77.4998 93.946C78.1351 93.6703 78.9519 93.6703 79.315 93.946Z" fill="url(#paint66_radial_1_3962)"/>
<path d="M79.0439 94.0377C79.3162 94.3134 79.1347 94.6809 78.6809 94.9566C78.1363 95.2323 77.501 95.2323 77.2287 94.9566C76.9565 94.6809 77.138 94.3134 77.5918 94.0377C78.1363 93.854 78.7717 93.854 79.0439 94.0377Z" fill="url(#paint67_radial_1_3962)"/>
<path d="M39.7422 55.6284H31.9368V59.6715H39.7422V55.6284Z" fill="url(#paint68_linear_1_3962)"/>
<path d="M28.9426 65.8282C28.9426 65.8282 29.2149 65.3687 30.7578 65.7363L30.304 66.747L30.0317 66.8389L29.2149 66.3795C29.2149 66.4714 28.9426 66.1957 28.9426 65.8282Z" fill="url(#paint69_radial_1_3962)"/>
<path d="M28.9441 63.5308V64.8172C28.9441 64.8172 29.2164 65.3685 30.0332 65.6442V66.5631C30.0332 66.5631 29.3072 66.5631 28.9441 65.828V67.39C28.9441 68.3089 32.2115 69.2278 36.1142 69.3197C40.1076 69.5035 43.2842 68.5846 43.2842 67.6657L43.375 63.7145L28.9441 63.5308Z" fill="url(#paint70_linear_1_3962)"/>
<path d="M43.375 63.8068C43.375 64.7257 40.1984 65.6445 36.2049 65.4608C32.2115 65.277 29.0349 64.45 29.0349 63.5311C29.0349 62.6122 32.2115 62.0609 36.2049 62.2447C40.1076 62.3366 43.375 62.8879 43.375 63.8068Z" fill="url(#paint71_linear_1_3962)"/>
<g opacity="0.61">
<path d="M38.4737 67.5741C37.7476 67.5741 37.0215 67.666 36.2954 67.5741C33.8449 67.4822 31.5759 67.1146 30.2145 66.5633V65.9201C31.5759 66.4714 33.8449 66.839 36.2047 66.9309C39.4721 67.0228 42.1041 66.3795 43.0117 65.7363V66.4714C42.1949 67.0228 40.4704 67.4822 38.4737 67.5741Z" fill="url(#paint72_linear_1_3962)"/>
</g>
<g opacity="0.61">
<path d="M38.4737 68.9525C37.7476 68.9525 37.0215 69.0444 36.2954 68.9525C33.8449 68.8606 31.5759 68.4931 30.2145 67.9417V67.2985C31.5759 67.8498 33.8449 68.2174 36.2047 68.3093C39.4721 68.4012 42.1041 67.758 43.0117 67.1147V67.8498C42.1949 68.4931 40.4704 68.8606 38.4737 68.9525Z" fill="url(#paint73_linear_1_3962)"/>
</g>
<path d="M41.7385 63.347C40.9217 62.9794 38.6527 62.7038 36.0206 62.52C33.3886 62.4281 31.1196 62.6119 30.3027 62.9794H29.9397V63.347C29.9397 63.9902 32.6625 64.6334 36.0206 64.7253C39.3788 64.8172 42.1016 64.2659 42.1016 63.6226V63.2551L41.7385 63.347Z" fill="url(#paint74_linear_1_3962)"/>
<path d="M42.0117 63.3472C42.0117 63.9904 39.2889 64.5418 35.9308 64.4499C32.5726 64.358 29.8498 63.7148 29.8498 63.0716C29.8498 62.4283 32.5726 62.0608 35.9308 62.2446C39.2889 62.3365 42.0117 62.704 42.0117 63.3472Z" fill="url(#paint75_linear_1_3962)"/>
<path d="M31.1205 57.9258C30.6667 57.8339 30.2129 58.2933 30.2129 58.7528L30.3036 62.8877C30.3944 63.4391 32.9357 63.9904 36.1123 64.0823C39.2889 64.1742 41.921 63.7147 41.921 63.1634L42.0117 58.6609C42.0117 58.2015 41.6487 57.8339 41.1949 57.9258C40.015 58.1096 37.746 58.2933 36.2938 58.2933C34.4786 58.2933 32.3004 58.1096 31.1205 57.9258Z" fill="url(#paint76_linear_1_3962)"/>
<path d="M38.8366 53.2395C38.8366 53.2395 38.9273 51.9531 39.8349 51.1261C40.7425 50.2991 40.8333 49.564 39.6534 48.0019C38.655 46.6236 30.9404 38.997 28.9437 36.9754C28.6714 36.6998 27.9453 36.516 27.2192 36.6079L21.4106 37.1592C20.4122 37.2511 19.7769 37.7105 19.9584 38.0781L25.404 49.6559C25.404 49.6559 26.0394 51.218 26.8562 51.6775C27.7638 52.1369 30.0328 53.7909 30.8496 54.3422L38.8366 53.2395Z" fill="url(#paint77_linear_1_3962)"/>
<path d="M38.3848 52.8718C38.3848 52.8718 39.1109 51.6772 40.0185 50.8502C40.9261 50.0233 41.0169 49.2882 39.837 47.7261C38.8386 46.3478 31.124 38.7211 29.1273 36.6996C28.855 36.4239 28.1289 36.2401 27.4028 36.332L21.5942 36.8833C20.5958 36.9752 19.9605 37.4347 20.142 37.8022L25.5876 49.38C25.5876 49.38 26.2229 50.9421 27.0398 51.4016C27.8566 51.861 30.2164 53.515 30.3979 54.0663L38.3848 52.8718Z" fill="url(#paint78_linear_1_3962)"/>
<path d="M34.9347 61.2334C34.9347 61.2334 32.1212 64.817 32.1212 65.644C32.1212 66.471 32.4842 67.3899 33.7549 68.6763C34.844 69.7789 42.1956 76.2111 44.2831 78.0488C44.6461 78.3245 45.3722 78.4164 46.0983 78.3245L52.4515 77.4056C53.3591 77.3137 53.9944 76.7624 53.8129 76.303L47.0966 63.163C47.0966 63.163 46.9151 61.7847 45.0091 61.1415C43.1032 60.4064 42.4678 59.7632 42.4678 59.7632L34.9347 61.2334Z" fill="url(#paint79_linear_1_3962)"/>
<path d="M35.0255 61.0498C35.0255 61.0498 32.2119 64.6334 32.2119 65.4604C32.2119 66.2874 32.575 67.2063 33.8456 68.4927C34.9347 69.5953 42.2863 76.0275 44.3738 77.8652C44.7368 78.1409 45.4629 78.2328 46.189 78.1409L52.5422 77.222C53.4498 77.1301 53.9944 76.6707 53.8129 76.3031L47.1874 62.9794C47.1874 62.9794 47.0059 61.6011 45.0999 60.9579C43.1939 60.2228 42.5586 59.5796 42.5586 59.5796L35.0255 61.0498Z" fill="url(#paint80_linear_1_3962)"/>
<path d="M31.8474 54.8933C31.8474 54.8933 29.9414 54.7096 29.7599 52.4124C29.5784 50.1152 33.0272 49.6557 34.7517 50.1152C36.4761 50.5746 39.4712 52.5961 38.4729 53.3312C37.3837 54.1582 31.8474 54.8933 31.8474 54.8933Z" fill="#717481"/>
<path d="M34.5688 59.0283C34.5688 59.0283 33.2074 60.0391 34.3873 61.3255C35.5672 62.612 37.7454 63.4389 40.0144 63.0714C42.2834 62.7038 43.3726 61.1418 43.0095 60.3148C42.6465 59.4878 41.5573 58.0176 40.2867 57.8338C39.0161 57.7419 34.5688 59.0283 34.5688 59.0283Z" fill="#717481"/>
<path d="M38.2919 59.9473C36.2045 60.223 34.2077 59.8554 33.7539 59.1203L31.1219 54.1584C30.7588 53.4233 32.1202 52.5963 34.2077 52.2287C36.2952 51.9531 38.2919 52.3206 38.7458 53.0557L41.3778 58.0177C41.7408 58.7528 40.2887 59.5797 38.2919 59.9473Z" fill="#252424"/>
<path d="M37.7502 55.9042C37.9317 56.2718 37.3871 56.6393 36.5703 56.7312C35.7534 56.8231 34.9366 56.6393 34.6643 56.2718C34.4828 55.9042 35.0274 55.5367 35.8442 55.4448C36.661 55.3529 37.5687 55.5367 37.7502 55.9042Z" fill="url(#paint81_radial_1_3962)"/>
<path d="M37.3894 55.9041C37.5709 56.1798 37.1171 56.5474 36.4818 56.6392C35.8464 56.7311 35.1203 56.5474 34.9388 56.2717C34.7573 55.996 35.2111 55.7204 35.9372 55.5366C36.5725 55.4447 37.2986 55.6285 37.3894 55.9041Z" fill="url(#paint82_radial_1_3962)"/>
<path d="M38.926 58.1093C39.1075 58.4769 38.5629 58.8444 37.7461 58.9363C36.9292 59.0282 36.1124 58.8444 35.8401 58.4769C35.6586 58.1093 36.2031 57.7418 37.02 57.6499C37.9276 57.558 38.7444 57.7418 38.926 58.1093Z" fill="url(#paint83_radial_1_3962)"/>
<path d="M38.655 58.201C38.8365 58.4767 38.3827 58.7523 37.7474 58.9361C37.1121 59.028 36.386 58.8442 36.2045 58.5686C36.0229 58.2929 36.4767 58.0172 37.2028 57.8335C37.8381 57.7416 38.4735 57.9254 38.655 58.201Z" fill="url(#paint84_radial_1_3962)"/>
<path d="M36.5666 53.7905C36.7481 54.158 36.2035 54.5256 35.3867 54.6175C34.5699 54.7093 33.753 54.5256 33.4807 54.158C33.2992 53.7905 33.8438 53.4229 34.6606 53.331C35.5682 53.2391 36.3851 53.4229 36.5666 53.7905Z" fill="url(#paint85_radial_1_3962)"/>
<path d="M36.2956 53.7904C36.4771 54.066 36.0233 54.4336 35.388 54.5255C34.7527 54.6174 34.0266 54.4336 33.8451 54.1579C33.6636 53.8823 34.1174 53.5147 34.8434 53.4228C35.4788 53.3309 36.1141 53.5147 36.2956 53.7904Z" fill="url(#paint86_radial_1_3962)"/>
<path d="M83.6713 48.737C84.2159 44.7858 86.3034 41.386 89.3892 39.1807C90.5691 41.7535 96.1962 52.2287 110.899 63.8065C127.872 77.1302 119.34 92.3836 119.34 92.3836L101.914 84.3894C90.2061 73.5466 83.399 62.1526 83.399 62.1526C82.673 58.2014 83.036 53.0557 83.6713 48.737Z" fill="url(#paint87_linear_1_3962)"/>
<path d="M110.358 84.5733C122.792 94.7728 130.87 96.4268 130.87 96.4268L133.684 101.848L133.23 102.216C108.361 96.3349 90.6632 72.9036 85.2176 64.9093C90.5724 58.0178 97.8333 74.3738 110.358 84.5733Z" fill="url(#paint88_linear_1_3962)"/>
<path d="M105.728 35.1375C107.634 34.9537 109.54 35.4132 111.083 36.5158C127.601 48.0018 138.129 58.6608 144.664 67.2063C138.855 64.174 130.324 58.9364 127.057 53.6069C123.245 47.3586 110.447 38.9968 104.366 35.2294C104.911 35.2294 105.365 35.1375 105.728 35.1375Z" fill="url(#paint89_linear_1_3962)"/>
<path d="M130.051 99.7346C131.776 103.41 138.855 103.778 146.025 100.47C153.104 97.1618 157.461 91.3729 155.737 87.6974C154.012 84.0219 146.933 83.6543 139.763 87.0541C132.683 90.2702 128.327 95.9672 130.051 99.7346Z" fill="url(#paint90_linear_1_3962)"/>
<path d="M133.497 99.7347C134.768 102.399 140.304 102.399 145.931 99.7347C151.559 97.07 155.008 92.6594 153.737 89.9946C152.466 87.3299 146.93 87.3299 141.303 89.9946C135.766 92.6594 132.227 96.9781 133.497 99.7347Z" fill="url(#paint91_linear_1_3962)"/>
<path d="M137.857 98.9077C138.583 100.47 142.214 100.378 145.844 98.632C149.474 96.8861 151.925 94.1295 151.108 92.5674C150.382 91.0053 146.752 91.0972 143.121 92.8431C139.491 94.5889 137.131 97.3456 137.857 98.9077Z" fill="#372C20"/>
<path d="M139.579 98.448C140.124 99.6426 142.847 99.5507 145.66 98.1724C148.474 96.7941 150.198 94.7725 149.654 93.578C149.109 92.3835 146.386 92.4754 143.573 93.8537C140.85 95.232 139.035 97.2535 139.579 98.448Z" fill="#160605"/>
<path d="M145.119 95.3239C145.845 95.0482 146.571 95.0482 146.753 95.5076C146.934 95.8752 146.481 96.5184 145.755 96.7941C145.028 97.0697 144.302 97.0697 144.121 96.6103C144.03 96.2427 144.484 95.5995 145.119 95.3239Z" fill="#50402A"/>
<path opacity="0.44" d="M144.029 97.3453C144.301 97.2534 144.483 97.2534 144.574 97.3453C144.664 97.5291 144.483 97.7128 144.301 97.8047C144.029 97.8966 143.847 97.8966 143.757 97.8047C143.666 97.6209 143.757 97.4372 144.029 97.3453Z" fill="#FFFF00"/>
<path d="M117.71 66.2874C125.152 61.1417 134.228 60.7742 139.674 61.2336C140.037 61.6011 140.309 61.9687 140.672 62.3362C135.499 61.7849 125.969 61.7849 118.254 67.1144C111.901 71.525 107.998 78.6004 106.455 88.2486C106.183 87.9729 105.82 87.6972 105.548 87.5134C107.272 77.8653 111.356 70.7899 117.71 66.2874Z" fill="url(#paint92_linear_1_3962)"/>
<defs>
<linearGradient id="paint0_linear_1_3962" x1="157.086" y1="52.0275" x2="146.079" y2="52.0275" gradientUnits="userSpaceOnUse">
<stop stop-color="#575559"/>
<stop offset="1" stop-color="#252424"/>
</linearGradient>
<linearGradient id="paint1_linear_1_3962" x1="155.559" y1="48.5452" x2="124.373" y2="48.5452" gradientUnits="userSpaceOnUse">
<stop stop-color="#575559"/>
<stop offset="1" stop-color="#252424"/>
</linearGradient>
<linearGradient id="paint2_linear_1_3962" x1="137.289" y1="43.4026" x2="141.031" y2="48.298" gradientUnits="userSpaceOnUse">
<stop stop-color="#FFFAE9"/>
<stop offset="1" stop-color="#FFFAE9" stop-opacity="0"/>
</linearGradient>
<linearGradient id="paint3_linear_1_3962" x1="144.478" y1="41.0298" x2="156.853" y2="40.3185" gradientUnits="userSpaceOnUse">
<stop stop-color="#343333"/>
<stop offset="0.00553198" stop-color="#383737"/>
<stop offset="0.0696502" stop-color="#626161"/>
<stop offset="0.1321" stop-color="#828182"/>
<stop offset="0.1915" stop-color="#9A999A"/>
<stop offset="0.2468" stop-color="#A8A7A8"/>
<stop offset="0.2938" stop-color="#ADACAD"/>
<stop offset="0.5299" stop-color="#737272"/>
<stop offset="0.7424" stop-color="#454445"/>
<stop offset="0.9057" stop-color="#292828"/>
<stop offset="1" stop-color="#1F1E1E"/>
</linearGradient>
<linearGradient id="paint4_linear_1_3962" x1="144.587" y1="38.9082" x2="156.732" y2="38.21" gradientUnits="userSpaceOnUse">
<stop offset="0.0206186"/>
<stop offset="0.0512245" stop-color="#1C1C1C"/>
<stop offset="0.0927999" stop-color="#3C3B3B"/>
<stop offset="0.133" stop-color="#535152"/>
<stop offset="0.1708" stop-color="#615E5F"/>
<stop offset="0.2037" stop-color="#666364"/>
<stop offset="0.2239" stop-color="#5C595A"/>
<stop offset="0.2912" stop-color="#403E3E"/>
<stop offset="0.3671" stop-color="#282727"/>
<stop offset="0.4534" stop-color="#161516"/>
<stop offset="0.5567" stop-color="#090909"/>
<stop offset="0.6937" stop-color="#020202"/>
<stop offset="1"/>
</linearGradient>
<linearGradient id="paint5_linear_1_3962" x1="145.635" y1="41.249" x2="156.553" y2="40.6214" gradientUnits="userSpaceOnUse">
<stop stop-color="#393738"/>
<stop offset="0.0090182" stop-color="#3C3A3B"/>
<stop offset="0.0793959" stop-color="#535152"/>
<stop offset="0.1458" stop-color="#615E5F"/>
<stop offset="0.2037" stop-color="#666364"/>
<stop offset="0.2239" stop-color="#5C595A"/>
<stop offset="0.2912" stop-color="#403E3E"/>
<stop offset="0.3671" stop-color="#282727"/>
<stop offset="0.4534" stop-color="#161516"/>
<stop offset="0.5567" stop-color="#090909"/>
<stop offset="0.6937" stop-color="#020202"/>
<stop offset="1"/>
</linearGradient>
<linearGradient id="paint6_linear_1_3962" x1="145.605" y1="42.4339" x2="156.525" y2="41.8062" gradientUnits="userSpaceOnUse">
<stop stop-color="#393738"/>
<stop offset="0.0090182" stop-color="#3C3A3B"/>
<stop offset="0.0793959" stop-color="#535152"/>
<stop offset="0.1458" stop-color="#615E5F"/>
<stop offset="0.2037" stop-color="#666364"/>
<stop offset="0.2239" stop-color="#5C595A"/>
<stop offset="0.2912" stop-color="#403E3E"/>
<stop offset="0.3671" stop-color="#282727"/>
<stop offset="0.4534" stop-color="#161516"/>
<stop offset="0.5567" stop-color="#090909"/>
<stop offset="0.6937" stop-color="#020202"/>
<stop offset="1"/>
</linearGradient>
<linearGradient id="paint7_linear_1_3962" x1="145.375" y1="38.6956" x2="155.629" y2="38.1062" gradientUnits="userSpaceOnUse">
<stop stop-color="#343333"/>
<stop offset="0.00553198" stop-color="#383737"/>
<stop offset="0.0696502" stop-color="#626161"/>
<stop offset="0.1321" stop-color="#828182"/>
<stop offset="0.1915" stop-color="#9A999A"/>
<stop offset="0.2468" stop-color="#A8A7A8"/>
<stop offset="0.2938" stop-color="#ADACAD"/>
<stop offset="0.5299" stop-color="#737272"/>
<stop offset="0.7424" stop-color="#454445"/>
<stop offset="0.9057" stop-color="#292828"/>
<stop offset="1" stop-color="#1F1E1E"/>
</linearGradient>
<linearGradient id="paint8_linear_1_3962" x1="145.106" y1="38.4081" x2="155.343" y2="37.8197" gradientUnits="userSpaceOnUse">
<stop offset="0.0206186"/>
<stop offset="0.0512245" stop-color="#1C1C1C"/>
<stop offset="0.0927999" stop-color="#3C3B3B"/>
<stop offset="0.133" stop-color="#535152"/>
<stop offset="0.1708" stop-color="#615E5F"/>
<stop offset="0.2037" stop-color="#666364"/>
<stop offset="0.2239" stop-color="#5C595A"/>
<stop offset="0.2912" stop-color="#403E3E"/>
<stop offset="0.3671" stop-color="#282727"/>
<stop offset="0.4534" stop-color="#161516"/>
<stop offset="0.5567" stop-color="#090909"/>
<stop offset="0.6937" stop-color="#020202"/>
<stop offset="1"/>
</linearGradient>
<linearGradient id="paint9_linear_1_3962" x1="145.512" y1="34.67" x2="155.586" y2="34.0909" gradientUnits="userSpaceOnUse">
<stop offset="0.0206186"/>
<stop offset="0.0518649" stop-color="#101010"/>
<stop offset="0.1067" stop-color="#272526"/>
<stop offset="0.1585" stop-color="#353233"/>
<stop offset="0.2037" stop-color="#3A3738"/>
<stop offset="0.2734" stop-color="#282627"/>
<stop offset="0.372" stop-color="#161515"/>
<stop offset="0.4907" stop-color="#090909"/>
<stop offset="0.6481" stop-color="#020202"/>
<stop offset="1"/>
</linearGradient>
<linearGradient id="paint10_linear_1_3962" x1="133.095" y1="25.8474" x2="143.268" y2="16.8954" gradientUnits="userSpaceOnUse">
<stop stop-color="#ACABAB"/>
<stop offset="1" stop-color="#BCBEC0"/>
</linearGradient>
<linearGradient id="paint11_linear_1_3962" x1="133.095" y1="25.5041" x2="143.268" y2="16.5526" gradientUnits="userSpaceOnUse">
<stop stop-color="#252424"/>
<stop offset="1" stop-color="#575559"/>
</linearGradient>
<linearGradient id="paint12_linear_1_3962" x1="157.071" y1="47.5951" x2="168.023" y2="37.9589" gradientUnits="userSpaceOnUse">
<stop stop-color="#ACABAB"/>
<stop offset="1" stop-color="#BCBEC0"/>
</linearGradient>
<linearGradient id="paint13_linear_1_3962" x1="157.299" y1="47.3583" x2="168.25" y2="37.7226" gradientUnits="userSpaceOnUse">
<stop stop-color="#252424"/>
<stop offset="1" stop-color="#575559"/>
</linearGradient>
<radialGradient id="paint14_radial_1_3962" cx="0" cy="0" r="1" gradientUnits="userSpaceOnUse" gradientTransform="translate(149.091 30.9281) rotate(-25.8114) scale(2.03777 1.26623)">
<stop stop-color="#717481"/>
<stop offset="1" stop-color="#ACABAB"/>
</radialGradient>
<radialGradient id="paint15_radial_1_3962" cx="0" cy="0" r="1" gradientUnits="userSpaceOnUse" gradientTransform="translate(149.191 30.9111) rotate(-25.8114) scale(1.64814 1.02412)">
<stop stop-color="#EBBB79"/>
<stop offset="1" stop-color="#BE965D"/>
</radialGradient>
<radialGradient id="paint16_radial_1_3962" cx="0" cy="0" r="1" gradientUnits="userSpaceOnUse" gradientTransform="translate(151.434 32.8394) rotate(-25.8115) scale(2.0381 1.26643)">
<stop stop-color="#717481"/>
<stop offset="1" stop-color="#ACABAB"/>
</radialGradient>
<radialGradient id="paint17_radial_1_3962" cx="0" cy="0" r="1" gradientUnits="userSpaceOnUse" gradientTransform="translate(151.533 32.8209) rotate(-25.8114) scale(1.64953 1.02498)">
<stop stop-color="#EBBB79"/>
<stop offset="1" stop-color="#BE965D"/>
</radialGradient>
<radialGradient id="paint18_radial_1_3962" cx="0" cy="0" r="1" gradientUnits="userSpaceOnUse" gradientTransform="translate(146.884 29.131) rotate(-25.8115) scale(2.03903 1.26701)">
<stop stop-color="#717481"/>
<stop offset="1" stop-color="#ACABAB"/>
</radialGradient>
<radialGradient id="paint19_radial_1_3962" cx="0" cy="0" r="1" gradientUnits="userSpaceOnUse" gradientTransform="translate(146.984 29.1131) rotate(-25.8114) scale(1.64879 1.02452)">
<stop stop-color="#EBBB79"/>
<stop offset="1" stop-color="#BE965D"/>
</radialGradient>
<linearGradient id="paint20_linear_1_3962" x1="205.581" y1="92.9659" x2="191.502" y2="92.9659" gradientUnits="userSpaceOnUse">
<stop stop-color="#575559"/>
<stop offset="1" stop-color="#252424"/>
</linearGradient>
<linearGradient id="paint21_linear_1_3962" x1="199.49" y1="83.5601" x2="149.864" y2="83.5601" gradientUnits="userSpaceOnUse">
<stop stop-color="#575559"/>
<stop offset="1" stop-color="#252424"/>
</linearGradient>
<linearGradient id="paint22_linear_1_3962" x1="174.222" y1="79.4152" x2="174.593" y2="83.6751" gradientUnits="userSpaceOnUse">
<stop stop-color="#FFFAE9"/>
<stop offset="1" stop-color="#FFFAE9" stop-opacity="0"/>
</linearGradient>
<linearGradient id="paint23_linear_1_3962" x1="192.122" y1="71.8483" x2="199.187" y2="71.8483" gradientUnits="userSpaceOnUse">
<stop offset="0.0206186"/>
<stop offset="0.0518649" stop-color="#101010"/>
<stop offset="0.1067" stop-color="#272526"/>
<stop offset="0.1585" stop-color="#353233"/>
<stop offset="0.2037" stop-color="#3A3738"/>
<stop offset="0.2734" stop-color="#282627"/>
<stop offset="0.372" stop-color="#161515"/>
<stop offset="0.4907" stop-color="#090909"/>
<stop offset="0.6481" stop-color="#020202"/>
<stop offset="1"/>
</linearGradient>
<radialGradient id="paint24_radial_1_3962" cx="0" cy="0" r="1" gradientUnits="userSpaceOnUse" gradientTransform="translate(189.628 79.2405) scale(1.49745 1.51605)">
<stop offset="0.0206186"/>
<stop offset="0.2544" stop-color="#272627"/>
<stop offset="0.4844" stop-color="#474545"/>
<stop offset="0.6781" stop-color="#5A5758"/>
<stop offset="0.812" stop-color="#615E5F"/>
<stop offset="0.8174" stop-color="#615E5F"/>
<stop offset="1" stop-color="#666364"/>
</radialGradient>
<linearGradient id="paint25_linear_1_3962" x1="189.325" y1="80.0725" x2="202.533" y2="79.3133" gradientUnits="userSpaceOnUse">
<stop stop-color="#343333"/>
<stop offset="0.00553198" stop-color="#383737"/>
<stop offset="0.0696502" stop-color="#626161"/>
<stop offset="0.1321" stop-color="#828182"/>
<stop offset="0.1915" stop-color="#9A999A"/>
<stop offset="0.2468" stop-color="#A8A7A8"/>
<stop offset="0.2938" stop-color="#ADACAD"/>
<stop offset="0.5299" stop-color="#737272"/>
<stop offset="0.7424" stop-color="#454445"/>
<stop offset="0.9057" stop-color="#292828"/>
<stop offset="1" stop-color="#1F1E1E"/>
</linearGradient>
<linearGradient id="paint26_linear_1_3962" x1="189.444" y1="77.8078" x2="202.405" y2="77.0627" gradientUnits="userSpaceOnUse">
<stop offset="0.0206186"/>
<stop offset="0.0512245" stop-color="#1C1C1C"/>
<stop offset="0.0927999" stop-color="#3C3B3B"/>
<stop offset="0.133" stop-color="#535152"/>
<stop offset="0.1708" stop-color="#615E5F"/>
<stop offset="0.2037" stop-color="#666364"/>
<stop offset="0.2239" stop-color="#5C595A"/>
<stop offset="0.2912" stop-color="#403E3E"/>
<stop offset="0.3671" stop-color="#282727"/>
<stop offset="0.4534" stop-color="#161516"/>
<stop offset="0.5567" stop-color="#090909"/>
<stop offset="0.6937" stop-color="#020202"/>
<stop offset="1"/>
</linearGradient>
<linearGradient id="paint27_linear_1_3962" x1="190.561" y1="80.3064" x2="202.212" y2="79.6367" gradientUnits="userSpaceOnUse">
<stop stop-color="#393738"/>
<stop offset="0.0090182" stop-color="#3C3A3B"/>
<stop offset="0.0793959" stop-color="#535152"/>
<stop offset="0.1458" stop-color="#615E5F"/>
<stop offset="0.2037" stop-color="#666364"/>
<stop offset="0.2239" stop-color="#5C595A"/>
<stop offset="0.2912" stop-color="#403E3E"/>
<stop offset="0.3671" stop-color="#282727"/>
<stop offset="0.4534" stop-color="#161516"/>
<stop offset="0.5567" stop-color="#090909"/>
<stop offset="0.6937" stop-color="#020202"/>
<stop offset="1"/>
</linearGradient>
<linearGradient id="paint28_linear_1_3962" x1="190.53" y1="81.5705" x2="202.183" y2="80.9006" gradientUnits="userSpaceOnUse">
<stop stop-color="#393738"/>
<stop offset="0.0090182" stop-color="#3C3A3B"/>
<stop offset="0.0793959" stop-color="#535152"/>
<stop offset="0.1458" stop-color="#615E5F"/>
<stop offset="0.2037" stop-color="#666364"/>
<stop offset="0.2239" stop-color="#5C595A"/>
<stop offset="0.2912" stop-color="#403E3E"/>
<stop offset="0.3671" stop-color="#282727"/>
<stop offset="0.4534" stop-color="#161516"/>
<stop offset="0.5567" stop-color="#090909"/>
<stop offset="0.6937" stop-color="#020202"/>
<stop offset="1"/>
</linearGradient>
<linearGradient id="paint29_linear_1_3962" x1="190.28" y1="77.5814" x2="201.223" y2="76.9524" gradientUnits="userSpaceOnUse">
<stop stop-color="#343333"/>
<stop offset="0.00553198" stop-color="#383737"/>
<stop offset="0.0696502" stop-color="#626161"/>
<stop offset="0.1321" stop-color="#828182"/>
<stop offset="0.1915" stop-color="#9A999A"/>
<stop offset="0.2468" stop-color="#A8A7A8"/>
<stop offset="0.2938" stop-color="#ADACAD"/>
<stop offset="0.5299" stop-color="#737272"/>
<stop offset="0.7424" stop-color="#454445"/>
<stop offset="0.9057" stop-color="#292828"/>
<stop offset="1" stop-color="#1F1E1E"/>
</linearGradient>
<linearGradient id="paint30_linear_1_3962" x1="189.994" y1="77.2755" x2="200.919" y2="76.6475" gradientUnits="userSpaceOnUse">
<stop offset="0.0206186"/>
<stop offset="0.0512245" stop-color="#1C1C1C"/>
<stop offset="0.0927999" stop-color="#3C3B3B"/>
<stop offset="0.133" stop-color="#535152"/>
<stop offset="0.1708" stop-color="#615E5F"/>
<stop offset="0.2037" stop-color="#666364"/>
<stop offset="0.2239" stop-color="#5C595A"/>
<stop offset="0.2912" stop-color="#403E3E"/>
<stop offset="0.3671" stop-color="#282727"/>
<stop offset="0.4534" stop-color="#161516"/>
<stop offset="0.5567" stop-color="#090909"/>
<stop offset="0.6937" stop-color="#020202"/>
<stop offset="1"/>
</linearGradient>
<linearGradient id="paint31_linear_1_3962" x1="190.536" y1="75.1224" x2="201.235" y2="74.5074" gradientUnits="userSpaceOnUse">
<stop offset="0.0206186"/>
<stop offset="0.0518649" stop-color="#101010"/>
<stop offset="0.1067" stop-color="#272526"/>
<stop offset="0.1585" stop-color="#353233"/>
<stop offset="0.2037" stop-color="#3A3738"/>
<stop offset="0.2734" stop-color="#282627"/>
<stop offset="0.372" stop-color="#161515"/>
<stop offset="0.4907" stop-color="#090909"/>
<stop offset="0.6481" stop-color="#020202"/>
<stop offset="1"/>
</linearGradient>
<linearGradient id="paint32_linear_1_3962" x1="183.766" y1="62.5972" x2="197.918" y2="58.2973" gradientUnits="userSpaceOnUse">
<stop stop-color="#D1D3D4"/>
<stop offset="1" stop-color="#ACABAB"/>
</linearGradient>
<linearGradient id="paint33_linear_1_3962" x1="183.859" y1="62.2535" x2="198.014" y2="57.9526" gradientUnits="userSpaceOnUse">
<stop stop-color="#ACABAB"/>
<stop offset="1" stop-color="#575559"/>
</linearGradient>
<linearGradient id="paint34_linear_1_3962" x1="193.982" y1="85.1975" x2="209.458" y2="80.4956" gradientUnits="userSpaceOnUse">
<stop stop-color="#D1D3D4"/>
<stop offset="1" stop-color="#ACABAB"/>
</linearGradient>
<linearGradient id="paint35_linear_1_3962" x1="194.065" y1="84.9653" x2="209.398" y2="80.3069" gradientUnits="userSpaceOnUse">
<stop stop-color="#ACABAB"/>
<stop offset="1" stop-color="#575559"/>
</linearGradient>
<radialGradient id="paint36_radial_1_3962" cx="0" cy="0" r="1" gradientUnits="userSpaceOnUse" gradientTransform="translate(195.41 70.3997) rotate(-8.19568) scale(2.26505 1.00596)">
<stop stop-color="#717481"/>
<stop offset="1" stop-color="#ACABAB"/>
</radialGradient>
<radialGradient id="paint37_radial_1_3962" cx="0" cy="0" r="1" gradientUnits="userSpaceOnUse" gradientTransform="translate(195.51 70.4069) rotate(-8.19567) scale(1.83141 0.813368)">
<stop stop-color="#EBBB79"/>
<stop offset="1" stop-color="#BE965D"/>
</radialGradient>
<radialGradient id="paint38_radial_1_3962" cx="0" cy="0" r="1" gradientUnits="userSpaceOnUse" gradientTransform="translate(196.508 72.439) rotate(-8.19566) scale(2.26044 1.00391)">
<stop stop-color="#717481"/>
<stop offset="1" stop-color="#ACABAB"/>
</radialGradient>
<radialGradient id="paint39_radial_1_3962" cx="0" cy="0" r="1" gradientUnits="userSpaceOnUse" gradientTransform="translate(196.61 72.4467) rotate(-8.19565) scale(1.83222 0.813728)">
<stop stop-color="#EBBB79"/>
<stop offset="1" stop-color="#BE965D"/>
</radialGradient>
<radialGradient id="paint40_radial_1_3962" cx="0" cy="0" r="1" gradientUnits="userSpaceOnUse" gradientTransform="translate(194.375 68.4808) rotate(-8.19568) scale(2.2639 1.00545)">
<stop stop-color="#717481"/>
<stop offset="1" stop-color="#ACABAB"/>
</radialGradient>
<radialGradient id="paint41_radial_1_3962" cx="0" cy="0" r="1" gradientUnits="userSpaceOnUse" gradientTransform="translate(194.478 68.4876) rotate(-8.19567) scale(1.831 0.813188)">
<stop stop-color="#EBBB79"/>
<stop offset="1" stop-color="#BE965D"/>
</radialGradient>
<linearGradient id="paint42_linear_1_3962" x1="155.736" y1="68.6564" x2="83.025" y2="68.6564" gradientUnits="userSpaceOnUse">
<stop offset="0.1838" stop-color="#FF9E15"/>
<stop offset="0.3483" stop-color="#FF9B16"/>
<stop offset="0.4877" stop-color="#FD901B"/>
<stop offset="0.6179" stop-color="#FB7F22"/>
<stop offset="0.7426" stop-color="#F8662C"/>
<stop offset="0.8633" stop-color="#F54638"/>
<stop offset="0.9795" stop-color="#F02048"/>
<stop offset="1" stop-color="#EF184B"/>
</linearGradient>
<linearGradient id="paint43_linear_1_3962" x1="141.378" y1="87.4817" x2="142.102" y2="79.4208" gradientUnits="userSpaceOnUse">
<stop stop-color="#575559"/>
<stop offset="1" stop-color="#252424"/>
</linearGradient>
<linearGradient id="paint44_linear_1_3962" x1="120.715" y1="102.939" x2="72.7188" y2="102.939" gradientUnits="userSpaceOnUse">
<stop stop-color="#575559"/>
<stop offset="1" stop-color="#252424"/>
</linearGradient>
<linearGradient id="paint45_linear_1_3962" x1="93.9555" y1="98.4049" x2="96.925" y2="103.885" gradientUnits="userSpaceOnUse">
<stop stop-color="#FFFAE9"/>
<stop offset="1" stop-color="#FFFAE9" stop-opacity="0"/>
</linearGradient>
<linearGradient id="paint46_linear_1_3962" x1="36.1036" y1="81.2487" x2="23.6607" y2="81.2487" gradientUnits="userSpaceOnUse">
<stop stop-color="#575559"/>
<stop offset="1" stop-color="#252424"/>
</linearGradient>
<linearGradient id="paint47_linear_1_3962" x1="87.6931" y1="121.587" x2="72.0111" y2="121.587" gradientUnits="userSpaceOnUse">
<stop stop-color="#575559"/>
<stop offset="1" stop-color="#252424"/>
</linearGradient>
<linearGradient id="paint48_linear_1_3962" x1="95.2429" y1="68.9954" x2="27.7395" y2="68.9954" gradientUnits="userSpaceOnUse">
<stop stop-color="#575559"/>
<stop offset="1" stop-color="#252424"/>
</linearGradient>
<linearGradient id="paint49_linear_1_3962" x1="61.5015" y1="72.2068" x2="61.4445" y2="79.437" gradientUnits="userSpaceOnUse">
<stop stop-color="#575559"/>
<stop offset="1" stop-color="#575559" stop-opacity="0"/>
</linearGradient>
<linearGradient id="paint50_linear_1_3962" x1="58.9644" y1="72.0634" x2="59.5531" y2="65.513" gradientUnits="userSpaceOnUse">
<stop stop-color="#FFFAE9"/>
<stop offset="1" stop-color="#FFFAE9" stop-opacity="0"/>
</linearGradient>
<linearGradient id="paint51_linear_1_3962" x1="75.2454" y1="106.491" x2="87.6209" y2="105.78" gradientUnits="userSpaceOnUse">
<stop stop-color="#343333"/>
<stop offset="0.00553198" stop-color="#383737"/>
<stop offset="0.0696502" stop-color="#626161"/>
<stop offset="0.1321" stop-color="#828182"/>
<stop offset="0.1915" stop-color="#9A999A"/>
<stop offset="0.2468" stop-color="#A8A7A8"/>
<stop offset="0.2938" stop-color="#ADACAD"/>
<stop offset="0.5299" stop-color="#737272"/>
<stop offset="0.7424" stop-color="#454445"/>
<stop offset="0.9057" stop-color="#292828"/>
<stop offset="1" stop-color="#1F1E1E"/>
</linearGradient>
<linearGradient id="paint52_linear_1_3962" x1="75.3554" y1="104.369" x2="87.5" y2="103.671" gradientUnits="userSpaceOnUse">
<stop offset="0.0206186"/>
<stop offset="0.0512245" stop-color="#1C1C1C"/>
<stop offset="0.0927999" stop-color="#3C3B3B"/>
<stop offset="0.133" stop-color="#535152"/>
<stop offset="0.1708" stop-color="#615E5F"/>
<stop offset="0.2037" stop-color="#666364"/>
<stop offset="0.2239" stop-color="#5C595A"/>
<stop offset="0.2912" stop-color="#403E3E"/>
<stop offset="0.3671" stop-color="#282727"/>
<stop offset="0.4534" stop-color="#161516"/>
<stop offset="0.5567" stop-color="#090909"/>
<stop offset="0.6937" stop-color="#020202"/>
<stop offset="1"/>
</linearGradient>
<linearGradient id="paint53_linear_1_3962" x1="76.4014" y1="106.709" x2="87.3208" y2="106.081" gradientUnits="userSpaceOnUse">
<stop stop-color="#393738"/>
<stop offset="0.0090182" stop-color="#3C3A3B"/>
<stop offset="0.0793959" stop-color="#535152"/>
<stop offset="0.1458" stop-color="#615E5F"/>
<stop offset="0.2037" stop-color="#666364"/>
<stop offset="0.2239" stop-color="#5C595A"/>
<stop offset="0.2912" stop-color="#403E3E"/>
<stop offset="0.3671" stop-color="#282727"/>
<stop offset="0.4534" stop-color="#161516"/>
<stop offset="0.5567" stop-color="#090909"/>
<stop offset="0.6937" stop-color="#020202"/>
<stop offset="1"/>
</linearGradient>
<linearGradient id="paint54_linear_1_3962" x1="76.3749" y1="107.893" x2="87.2916" y2="107.265" gradientUnits="userSpaceOnUse">
<stop stop-color="#393738"/>
<stop offset="0.0090182" stop-color="#3C3A3B"/>
<stop offset="0.0793959" stop-color="#535152"/>
<stop offset="0.1458" stop-color="#615E5F"/>
<stop offset="0.2037" stop-color="#666364"/>
<stop offset="0.2239" stop-color="#5C595A"/>
<stop offset="0.2912" stop-color="#403E3E"/>
<stop offset="0.3671" stop-color="#282727"/>
<stop offset="0.4534" stop-color="#161516"/>
<stop offset="0.5567" stop-color="#090909"/>
<stop offset="0.6937" stop-color="#020202"/>
<stop offset="1"/>
</linearGradient>
<linearGradient id="paint55_linear_1_3962" x1="76.1428" y1="104.156" x2="86.3974" y2="103.566" gradientUnits="userSpaceOnUse">
<stop stop-color="#343333"/>
<stop offset="0.00553198" stop-color="#383737"/>
<stop offset="0.0696502" stop-color="#626161"/>
<stop offset="0.1321" stop-color="#828182"/>
<stop offset="0.1915" stop-color="#9A999A"/>
<stop offset="0.2468" stop-color="#A8A7A8"/>
<stop offset="0.2938" stop-color="#ADACAD"/>
<stop offset="0.5299" stop-color="#737272"/>
<stop offset="0.7424" stop-color="#454445"/>
<stop offset="0.9057" stop-color="#292828"/>
<stop offset="1" stop-color="#1F1E1E"/>
</linearGradient>
<linearGradient id="paint56_linear_1_3962" x1="75.8721" y1="103.869" x2="86.1112" y2="103.281" gradientUnits="userSpaceOnUse">
<stop offset="0.0206186"/>
<stop offset="0.0512245" stop-color="#1C1C1C"/>
<stop offset="0.0927999" stop-color="#3C3B3B"/>
<stop offset="0.133" stop-color="#535152"/>
<stop offset="0.1708" stop-color="#615E5F"/>
<stop offset="0.2037" stop-color="#666364"/>
<stop offset="0.2239" stop-color="#5C595A"/>
<stop offset="0.2912" stop-color="#403E3E"/>
<stop offset="0.3671" stop-color="#282727"/>
<stop offset="0.4534" stop-color="#161516"/>
<stop offset="0.5567" stop-color="#090909"/>
<stop offset="0.6937" stop-color="#020202"/>
<stop offset="1"/>
</linearGradient>
<linearGradient id="paint57_linear_1_3962" x1="76.2824" y1="100.131" x2="86.3552" y2="99.5522" gradientUnits="userSpaceOnUse">
<stop offset="0.0206186"/>
<stop offset="0.0518649" stop-color="#101010"/>
<stop offset="0.1067" stop-color="#272526"/>
<stop offset="0.1585" stop-color="#353233"/>
<stop offset="0.2037" stop-color="#3A3738"/>
<stop offset="0.2734" stop-color="#282627"/>
<stop offset="0.372" stop-color="#161515"/>
<stop offset="0.4907" stop-color="#090909"/>
<stop offset="0.6481" stop-color="#020202"/>
<stop offset="1"/>
</linearGradient>
<linearGradient id="paint58_linear_1_3962" x1="63.8632" y1="91.3081" x2="74.0365" y2="82.3563" gradientUnits="userSpaceOnUse">
<stop stop-color="#ACABAB"/>
<stop offset="1" stop-color="#BCBEC0"/>
</linearGradient>
<linearGradient id="paint59_linear_1_3962" x1="63.8644" y1="90.9637" x2="74.0361" y2="82.0133" gradientUnits="userSpaceOnUse">
<stop stop-color="#252424"/>
<stop offset="1" stop-color="#575559"/>
</linearGradient>
<linearGradient id="paint60_linear_1_3962" x1="87.8392" y1="113.055" x2="98.7905" y2="103.419" gradientUnits="userSpaceOnUse">
<stop stop-color="#ACABAB"/>
<stop offset="1" stop-color="#BCBEC0"/>
</linearGradient>
<linearGradient id="paint61_linear_1_3962" x1="88.0663" y1="112.819" x2="99.0173" y2="103.183" gradientUnits="userSpaceOnUse">
<stop stop-color="#252424"/>
<stop offset="1" stop-color="#575559"/>
</linearGradient>
<radialGradient id="paint62_radial_1_3962" cx="0" cy="0" r="1" gradientUnits="userSpaceOnUse" gradientTransform="translate(79.8581 96.3888) rotate(-25.8114) scale(2.03917 1.26709)">
<stop stop-color="#717481"/>
<stop offset="1" stop-color="#ACABAB"/>
</radialGradient>
<radialGradient id="paint63_radial_1_3962" cx="0" cy="0" r="1" gradientUnits="userSpaceOnUse" gradientTransform="translate(79.9561 96.3716) rotate(-25.8114) scale(1.64828 1.02421)">
<stop stop-color="#EBBB79"/>
<stop offset="1" stop-color="#BE965D"/>
</radialGradient>
<radialGradient id="paint64_radial_1_3962" cx="0" cy="0" r="1" gradientUnits="userSpaceOnUse" gradientTransform="translate(82.2014 98.2987) rotate(-25.8114) scale(2.03814 1.26646)">
<stop stop-color="#717481"/>
<stop offset="1" stop-color="#ACABAB"/>
</radialGradient>
<radialGradient id="paint65_radial_1_3962" cx="0" cy="0" r="1" gradientUnits="userSpaceOnUse" gradientTransform="translate(82.3012 98.2819) rotate(-25.8114) scale(1.64838 1.02426)">
<stop stop-color="#EBBB79"/>
<stop offset="1" stop-color="#BE965D"/>
</radialGradient>
<radialGradient id="paint66_radial_1_3962" cx="0" cy="0" r="1" gradientUnits="userSpaceOnUse" gradientTransform="translate(77.6525 94.5918) rotate(-25.8114) scale(2.0374 1.26599)">
<stop stop-color="#717481"/>
<stop offset="1" stop-color="#ACABAB"/>
</radialGradient>
<radialGradient id="paint67_radial_1_3962" cx="0" cy="0" r="1" gradientUnits="userSpaceOnUse" gradientTransform="translate(77.7519 94.5734) rotate(-25.8114) scale(1.64568 1.02259)">
<stop stop-color="#EBBB79"/>
<stop offset="1" stop-color="#BE965D"/>
</radialGradient>
<linearGradient id="paint68_linear_1_3962" x1="31.9661" y1="57.6573" x2="39.7747" y2="57.6573" gradientUnits="userSpaceOnUse">
<stop offset="0.0206186"/>
<stop offset="0.0518649" stop-color="#101010"/>
<stop offset="0.1067" stop-color="#272526"/>
<stop offset="0.1585" stop-color="#353233"/>
<stop offset="0.2037" stop-color="#3A3738"/>
<stop offset="0.2734" stop-color="#282627"/>
<stop offset="0.372" stop-color="#161515"/>
<stop offset="0.4907" stop-color="#090909"/>
<stop offset="0.6481" stop-color="#020202"/>
<stop offset="1"/>
</linearGradient>
<radialGradient id="paint69_radial_1_3962" cx="0" cy="0" r="1" gradientUnits="userSpaceOnUse" gradientTransform="translate(29.2136 65.8249) scale(1.65347 1.67401)">
<stop offset="0.0206186"/>
<stop offset="0.2544" stop-color="#272627"/>
<stop offset="0.4844" stop-color="#474545"/>
<stop offset="0.6781" stop-color="#5A5758"/>
<stop offset="0.812" stop-color="#615E5F"/>
<stop offset="0.8174" stop-color="#615E5F"/>
<stop offset="1" stop-color="#666364"/>
</radialGradient>
<linearGradient id="paint70_linear_1_3962" x1="28.8781" y1="66.7447" x2="43.4748" y2="65.9056" gradientUnits="userSpaceOnUse">
<stop stop-color="#343333"/>
<stop offset="0.00553198" stop-color="#383737"/>
<stop offset="0.0696502" stop-color="#626161"/>
<stop offset="0.1321" stop-color="#828182"/>
<stop offset="0.1915" stop-color="#9A999A"/>
<stop offset="0.2468" stop-color="#A8A7A8"/>
<stop offset="0.2938" stop-color="#ADACAD"/>
<stop offset="0.5299" stop-color="#737272"/>
<stop offset="0.7424" stop-color="#454445"/>
<stop offset="0.9057" stop-color="#292828"/>
<stop offset="1" stop-color="#1F1E1E"/>
</linearGradient>
<linearGradient id="paint71_linear_1_3962" x1="29.0074" y1="64.2415" x2="43.3322" y2="63.418" gradientUnits="userSpaceOnUse">
<stop offset="0.0206186"/>
<stop offset="0.0512245" stop-color="#1C1C1C"/>
<stop offset="0.0927999" stop-color="#3C3B3B"/>
<stop offset="0.133" stop-color="#535152"/>
<stop offset="0.1708" stop-color="#615E5F"/>
<stop offset="0.2037" stop-color="#666364"/>
<stop offset="0.2239" stop-color="#5C595A"/>
<stop offset="0.2912" stop-color="#403E3E"/>
<stop offset="0.3671" stop-color="#282727"/>
<stop offset="0.4534" stop-color="#161516"/>
<stop offset="0.5567" stop-color="#090909"/>
<stop offset="0.6937" stop-color="#020202"/>
<stop offset="1"/>
</linearGradient>
<linearGradient id="paint72_linear_1_3962" x1="30.2436" y1="67.0042" x2="43.1196" y2="66.264" gradientUnits="userSpaceOnUse">
<stop stop-color="#393738"/>
<stop offset="0.0090182" stop-color="#3C3A3B"/>
<stop offset="0.0793959" stop-color="#535152"/>
<stop offset="0.1458" stop-color="#615E5F"/>
<stop offset="0.2037" stop-color="#666364"/>
<stop offset="0.2239" stop-color="#5C595A"/>
<stop offset="0.2912" stop-color="#403E3E"/>
<stop offset="0.3671" stop-color="#282727"/>
<stop offset="0.4534" stop-color="#161516"/>
<stop offset="0.5567" stop-color="#090909"/>
<stop offset="0.6937" stop-color="#020202"/>
<stop offset="1"/>
</linearGradient>
<linearGradient id="paint73_linear_1_3962" x1="30.211" y1="68.4005" x2="43.0868" y2="67.6603" gradientUnits="userSpaceOnUse">
<stop stop-color="#393738"/>
<stop offset="0.0090182" stop-color="#3C3A3B"/>
<stop offset="0.0793959" stop-color="#535152"/>
<stop offset="0.1458" stop-color="#615E5F"/>
<stop offset="0.2037" stop-color="#666364"/>
<stop offset="0.2239" stop-color="#5C595A"/>
<stop offset="0.2912" stop-color="#403E3E"/>
<stop offset="0.3671" stop-color="#282727"/>
<stop offset="0.4534" stop-color="#161516"/>
<stop offset="0.5567" stop-color="#090909"/>
<stop offset="0.6937" stop-color="#020202"/>
<stop offset="1"/>
</linearGradient>
<linearGradient id="paint74_linear_1_3962" x1="29.9338" y1="63.9905" x2="42.0297" y2="63.2951" gradientUnits="userSpaceOnUse">
<stop stop-color="#343333"/>
<stop offset="0.00553198" stop-color="#383737"/>
<stop offset="0.0696502" stop-color="#626161"/>
<stop offset="0.1321" stop-color="#828182"/>
<stop offset="0.1915" stop-color="#9A999A"/>
<stop offset="0.2468" stop-color="#A8A7A8"/>
<stop offset="0.2938" stop-color="#ADACAD"/>
<stop offset="0.5299" stop-color="#737272"/>
<stop offset="0.7424" stop-color="#454445"/>
<stop offset="0.9057" stop-color="#292828"/>
<stop offset="1" stop-color="#1F1E1E"/>
</linearGradient>
<linearGradient id="paint75_linear_1_3962" x1="29.6174" y1="63.6532" x2="41.6931" y2="62.959" gradientUnits="userSpaceOnUse">
<stop offset="0.0206186"/>
<stop offset="0.0512245" stop-color="#1C1C1C"/>
<stop offset="0.0927999" stop-color="#3C3B3B"/>
<stop offset="0.133" stop-color="#535152"/>
<stop offset="0.1708" stop-color="#615E5F"/>
<stop offset="0.2037" stop-color="#666364"/>
<stop offset="0.2239" stop-color="#5C595A"/>
<stop offset="0.2912" stop-color="#403E3E"/>
<stop offset="0.3671" stop-color="#282727"/>
<stop offset="0.4534" stop-color="#161516"/>
<stop offset="0.5567" stop-color="#090909"/>
<stop offset="0.6937" stop-color="#020202"/>
<stop offset="1"/>
</linearGradient>
<linearGradient id="paint76_linear_1_3962" x1="30.2149" y1="61.2744" x2="42.0383" y2="60.5948" gradientUnits="userSpaceOnUse">
<stop offset="0.0206186"/>
<stop offset="0.0518649" stop-color="#101010"/>
<stop offset="0.1067" stop-color="#272526"/>
<stop offset="0.1585" stop-color="#353233"/>
<stop offset="0.2037" stop-color="#3A3738"/>
<stop offset="0.2734" stop-color="#282627"/>
<stop offset="0.372" stop-color="#161515"/>
<stop offset="0.4907" stop-color="#090909"/>
<stop offset="0.6481" stop-color="#020202"/>
<stop offset="1"/>
</linearGradient>
<linearGradient id="paint77_linear_1_3962" x1="22.7345" y1="47.4335" x2="38.3745" y2="42.6817" gradientUnits="userSpaceOnUse">
<stop stop-color="#D1D3D4"/>
<stop offset="1" stop-color="#ACABAB"/>
</linearGradient>
<linearGradient id="paint78_linear_1_3962" x1="22.8433" y1="47.0531" x2="38.4846" y2="42.3009" gradientUnits="userSpaceOnUse">
<stop stop-color="#ACABAB"/>
<stop offset="1" stop-color="#575559"/>
</linearGradient>
<linearGradient id="paint79_linear_1_3962" x1="34.0269" y1="72.4086" x2="51.1294" y2="67.2125" gradientUnits="userSpaceOnUse">
<stop stop-color="#D1D3D4"/>
<stop offset="1" stop-color="#ACABAB"/>
</linearGradient>
<linearGradient id="paint80_linear_1_3962" x1="34.1183" y1="72.1503" x2="51.0608" y2="67.0028" gradientUnits="userSpaceOnUse">
<stop stop-color="#ACABAB"/>
<stop offset="1" stop-color="#575559"/>
</linearGradient>
<radialGradient id="paint81_radial_1_3962" cx="0" cy="0" r="1" gradientUnits="userSpaceOnUse" gradientTransform="translate(35.6071 56.0567) rotate(-8.1957) scale(2.50191 1.11115)">
<stop stop-color="#717481"/>
<stop offset="1" stop-color="#ACABAB"/>
</radialGradient>
<radialGradient id="paint82_radial_1_3962" cx="0" cy="0" r="1" gradientUnits="userSpaceOnUse" gradientTransform="translate(35.7215 56.0624) rotate(-8.19565) scale(2.02196 0.897995)">
<stop stop-color="#EBBB79"/>
<stop offset="1" stop-color="#BE965D"/>
</radialGradient>
<radialGradient id="paint83_radial_1_3962" cx="0" cy="0" r="1" gradientUnits="userSpaceOnUse" gradientTransform="translate(36.8151 58.309) rotate(-8.19566) scale(2.50158 1.111)">
<stop stop-color="#717481"/>
<stop offset="1" stop-color="#ACABAB"/>
</radialGradient>
<radialGradient id="paint84_radial_1_3962" cx="0" cy="0" r="1" gradientUnits="userSpaceOnUse" gradientTransform="translate(36.9285 58.3149) rotate(-8.19569) scale(2.02236 0.898175)">
<stop stop-color="#EBBB79"/>
<stop offset="1" stop-color="#BE965D"/>
</radialGradient>
<radialGradient id="paint85_radial_1_3962" cx="0" cy="0" r="1" gradientUnits="userSpaceOnUse" gradientTransform="translate(34.4618 53.9353) rotate(-8.1957) scale(2.50225 1.11131)">
<stop stop-color="#717481"/>
<stop offset="1" stop-color="#ACABAB"/>
</radialGradient>
<radialGradient id="paint86_radial_1_3962" cx="0" cy="0" r="1" gradientUnits="userSpaceOnUse" gradientTransform="translate(34.5747 53.9429) rotate(-8.19567) scale(2.02358 0.898715)">
<stop stop-color="#EBBB79"/>
<stop offset="1" stop-color="#BE965D"/>
</radialGradient>
<linearGradient id="paint87_linear_1_3962" x1="121.505" y1="65.8078" x2="83.0217" y2="65.8078" gradientUnits="userSpaceOnUse">
<stop stop-color="#575559"/>
<stop offset="1" stop-color="#252424"/>
</linearGradient>
<linearGradient id="paint88_linear_1_3962" x1="133.754" y1="82.7393" x2="85.2728" y2="82.7393" gradientUnits="userSpaceOnUse">
<stop stop-color="#575559"/>
<stop offset="1" stop-color="#252424"/>
</linearGradient>
<linearGradient id="paint89_linear_1_3962" x1="144.74" y1="51.1623" x2="104.502" y2="51.1623" gradientUnits="userSpaceOnUse">
<stop stop-color="#575559"/>
<stop offset="1" stop-color="#252424"/>
</linearGradient>
<linearGradient id="paint90_linear_1_3962" x1="156.105" y1="93.6432" x2="129.689" y2="93.6432" gradientUnits="userSpaceOnUse">
<stop stop-color="#575559"/>
<stop offset="1" stop-color="#252424"/>
</linearGradient>
<linearGradient id="paint91_linear_1_3962" x1="154.061" y1="94.8369" x2="133.28" y2="94.8369" gradientUnits="userSpaceOnUse">
<stop offset="0.1838" stop-color="#FF9E15"/>
<stop offset="0.3483" stop-color="#FF9B16"/>
<stop offset="0.4877" stop-color="#FD901B"/>
<stop offset="0.6179" stop-color="#FB7F22"/>
<stop offset="0.7426" stop-color="#F8662C"/>
<stop offset="0.8633" stop-color="#F54638"/>
<stop offset="0.9795" stop-color="#F02048"/>
<stop offset="1" stop-color="#EF184B"/>
</linearGradient>
<linearGradient id="paint92_linear_1_3962" x1="140.738" y1="74.714" x2="105.606" y2="74.714" gradientUnits="userSpaceOnUse">
<stop stop-color="#575559"/>
<stop offset="1" stop-color="#252424"/>
</linearGradient>
</defs>
</svg>
