<svg width="12" height="135" viewBox="0 0 12 135" fill="none" xmlns="http://www.w3.org/2000/svg">
<path d="M0.666667 5.56934C0.666667 8.51485 3.05448 10.9027 6 10.9027C8.94552 10.9027 11.3333 8.51485 11.3333 5.56934C11.3333 2.62382 8.94552 0.236002 6 0.236002C3.05448 0.236002 0.666667 2.62382 0.666667 5.56934ZM0.666667 129.569C0.666667 132.515 3.05448 134.903 6 134.903C8.94552 134.903 11.3333 132.515 11.3333 129.569C11.3333 126.624 8.94552 124.236 6 124.236C3.05448 124.236 0.666667 126.624 0.666667 129.569ZM6 5.56934H5V129.569H6H7V5.56934H6Z" fill="#08D7FC"/>
</svg>
