<svg width="1440" height="870" viewBox="0 0 1440 870" fill="none" xmlns="http://www.w3.org/2000/svg">
<g opacity="0.12">
<path fill-rule="evenodd" clip-rule="evenodd" d="M0.390503 892.05C60.3895 884.051 120.389 876.051 180.387 868.051C181.887 871.051 180.887 872.051 178.388 872.551C170.888 873.551 162.888 874.551 155.388 875.551C132.888 878.551 110.389 881.551 88.389 884.551C66.3894 887.55 43.8898 890.55 21.8901 893.05C14.8903 894.05 7.89038 895.05 0.390503 896.05C0.390503 894.55 0.390503 893.55 0.390503 892.05Z" fill="#08D7FC"/>
<path fill-rule="evenodd" clip-rule="evenodd" d="M0.390503 532.056C60.3895 524.056 120.389 516.057 180.387 508.057C181.887 511.057 180.887 512.057 178.388 512.557C170.888 513.557 162.888 514.557 155.388 515.557C132.888 518.556 110.389 521.556 88.389 524.556C66.3894 527.556 43.8898 530.556 21.8901 533.056C14.8903 534.056 7.89038 535.056 0.390503 536.056C0.390503 535.056 0.390503 533.556 0.390503 532.056Z" fill="#08D7FC"/>
<path fill-rule="evenodd" clip-rule="evenodd" d="M0.390503 172.563C60.3895 164.563 120.389 156.563 180.387 148.563C181.887 151.563 180.887 152.563 178.388 153.063C170.888 154.063 162.888 155.063 155.388 156.063C132.888 159.063 110.389 162.063 88.389 165.063C66.3894 168.063 43.8898 171.063 21.8901 173.563C14.3903 174.563 7.39039 175.563 0.390503 176.563C0.390503 175.063 0.390503 174.063 0.390503 172.563Z" fill="#08D7FC"/>
<path fill-rule="evenodd" clip-rule="evenodd" d="M0.390617 570.056C11.3904 568.556 22.8902 567.056 33.8901 566.056C53.3897 563.556 72.3894 561.556 91.8891 559.556C110.889 557.556 130.388 555.057 149.388 553.057C156.888 552.057 164.888 551.057 172.388 550.557C174.888 550.057 177.888 550.057 180.388 550.057C181.888 553.557 179.388 554.057 177.388 554.057C171.388 554.557 165.888 555.557 159.888 556.057C125.389 560.056 91.3891 564.056 56.8897 567.556C38.89 569.556 21.3903 571.556 3.39057 573.556C2.39058 573.556 0.890608 574.056 -0.109375 574.556C0.390617 573.056 0.390617 571.556 0.390617 570.056Z" fill="#08D7FC"/>
<path fill-rule="evenodd" clip-rule="evenodd" d="M0.390625 210.562C11.3904 209.062 22.8903 207.562 33.8901 206.562C53.3897 204.062 72.8894 202.062 92.3891 199.562C111.389 197.562 130.888 195.062 149.888 193.062C157.388 192.062 164.888 191.062 172.388 190.562C174.888 190.062 177.888 190.062 180.388 190.062C181.888 193.562 179.388 194.062 177.388 194.062C171.388 194.562 165.888 195.562 159.888 196.062C125.389 200.062 91.3891 204.062 56.8897 207.562C39.39 209.562 21.3903 211.562 3.89057 213.562C2.89058 213.562 1.39061 214.062 0.390625 214.562C0.390625 213.062 0.390625 212.062 0.390625 210.562Z" fill="#08D7FC"/>
<path fill-rule="evenodd" clip-rule="evenodd" d="M1080.38 895.55C1080.38 894.05 1080.38 893.55 1080.38 892.05C1139.87 884.051 1199.87 876.551 1259.37 868.551C1260.87 871.551 1259.37 872.551 1256.87 873.051C1243.87 874.551 1230.87 876.551 1218.37 878.051C1196.37 881.051 1173.87 884.051 1151.87 887.05C1129.37 890.05 1106.37 893.05 1083.87 896.05C1082.87 895.55 1081.87 895.55 1080.38 895.55Z" fill="#08D7FC"/>
<path fill-rule="evenodd" clip-rule="evenodd" d="M720.879 895.55C720.879 894.05 720.879 893.55 720.879 892.05C780.378 884.051 839.877 876.551 899.876 868.551C901.376 871.551 900.376 872.551 897.876 873.051C884.876 874.551 871.876 876.551 859.377 878.051C837.377 881.051 814.877 884.051 792.878 887.05C770.378 890.05 747.378 893.05 724.879 896.05C722.879 895.55 722.379 895.55 720.879 895.55Z" fill="#08D7FC"/>
<path fill-rule="evenodd" clip-rule="evenodd" d="M361.387 176.063C361.387 174.563 361.387 173.563 361.387 172.063C421.386 164.063 480.885 156.063 540.384 148.563C541.884 151.563 540.884 152.563 538.384 153.063C530.884 154.063 522.884 155.063 515.384 156.063C493.384 159.063 470.885 162.063 448.885 165.063C426.886 168.063 404.386 171.063 382.386 173.563C375.386 174.563 368.387 175.063 361.387 176.063Z" fill="#08D7FC"/>
<path fill-rule="evenodd" clip-rule="evenodd" d="M361.883 895.55C360.383 892.55 361.883 891.55 363.883 891.55C370.383 890.55 376.383 890.05 382.882 889.05C404.882 886.05 427.382 883.051 449.381 880.051C468.381 877.551 487.881 875.051 506.88 872.551C516.88 871.051 526.38 870.051 536.38 868.551C537.38 868.551 538.88 868.551 539.88 868.051C540.88 871.551 540.88 871.551 537.88 872.051C527.88 873.551 517.38 874.551 507.38 876.051C487.881 878.551 468.881 881.051 449.381 883.551C426.882 886.551 404.382 889.55 382.382 892.55C375.383 894.05 368.383 894.55 361.883 895.55Z" fill="#08D7FC"/>
<path fill-rule="evenodd" clip-rule="evenodd" d="M1080.88 176.063C1080.88 174.563 1080.87 174.063 1080.38 172.063C1140.37 164.063 1199.87 156.063 1259.37 148.563C1260.87 151.563 1259.37 152.563 1257.37 153.063C1247.37 154.563 1236.87 155.563 1226.87 157.063C1207.37 159.563 1188.37 162.063 1168.87 164.563C1146.37 167.563 1123.87 170.563 1101.87 173.563C1094.87 174.563 1087.87 175.063 1080.88 176.063Z" fill="#08D7FC"/>
<path fill-rule="evenodd" clip-rule="evenodd" d="M899.876 148.563C900.876 151.563 899.876 152.563 897.876 153.063C890.376 154.063 882.376 155.063 874.876 156.063C852.377 159.063 829.877 162.063 807.877 165.063C785.878 168.063 763.378 171.063 741.379 173.563C734.879 174.563 728.379 175.063 721.379 176.063C721.379 174.563 721.379 173.563 721.379 172.063C780.378 164.563 840.377 156.563 899.876 148.563Z" fill="#08D7FC"/>
<path fill-rule="evenodd" clip-rule="evenodd" d="M1259.37 508.558C1260.87 511.558 1259.87 512.558 1257.37 513.058C1247.37 514.557 1236.87 515.557 1226.87 517.057C1207.37 519.557 1188.37 522.057 1168.87 524.557C1146.37 527.557 1123.87 530.557 1101.87 533.557C1094.87 534.557 1088.37 535.057 1081.37 536.057C1081.37 534.557 1080.88 533.557 1080.88 532.057C1140.37 524.057 1199.87 516.057 1259.37 508.558Z" fill="#08D7FC"/>
<path fill-rule="evenodd" clip-rule="evenodd" d="M899.876 508.558C900.876 511.558 899.876 512.558 897.876 513.058C890.376 514.057 882.376 515.058 874.876 516.057C852.877 519.057 830.377 522.057 808.378 525.057C786.378 528.057 763.878 531.057 741.879 533.557C735.379 534.557 728.879 535.057 721.879 536.057C721.879 535.057 721.379 533.557 721.379 532.057C780.378 524.057 840.377 516.057 899.876 508.558Z" fill="#08D7FC"/>
<path fill-rule="evenodd" clip-rule="evenodd" d="M361.383 536.057C361.383 534.557 361.383 533.557 360.883 532.057C420.382 524.057 480.381 516.057 539.88 508.558C540.88 512.558 540.88 512.558 537.88 512.558C527.88 514.058 517.38 515.057 507.38 516.557C487.881 519.057 468.881 521.557 449.381 524.057C426.882 527.057 404.382 530.057 382.382 533.057C375.383 534.057 368.383 535.057 361.383 536.057Z" fill="#08D7FC"/>
<path fill-rule="evenodd" clip-rule="evenodd" d="M1033.38 489.558C1034.87 489.558 1035.87 489.558 1037.37 489.558C1045.37 549.557 1052.87 609.056 1060.87 669.055C1059.37 669.055 1058.37 669.055 1056.87 669.055C1049.37 609.056 1041.37 549.557 1033.38 489.558Z" fill="#08D7FC"/>
<path fill-rule="evenodd" clip-rule="evenodd" d="M1393.37 849.051C1394.87 849.051 1395.87 849.051 1397.37 849.051C1405.37 908.55 1413.37 968.049 1420.87 1028.05C1419.87 1028.05 1418.37 1028.55 1416.87 1028.55C1408.87 969.049 1400.87 909.05 1393.37 849.051Z" fill="#08D7FC"/>
<path fill-rule="evenodd" clip-rule="evenodd" d="M1033.38 849.051C1034.87 849.051 1035.87 849.051 1037.37 849.051C1045.37 908.55 1052.87 968.049 1060.87 1028.05C1059.37 1028.05 1058.37 1028.05 1056.87 1028.55C1049.37 968.549 1041.37 909.05 1033.38 849.051Z" fill="#08D7FC"/>
<path fill-rule="evenodd" clip-rule="evenodd" d="M701.379 1028.55C699.879 1028.55 698.879 1028.55 697.379 1028.55C689.379 969.05 681.379 909.051 673.879 849.052C675.379 849.052 676.379 849.052 677.879 848.552C685.379 908.551 693.379 968.55 701.379 1028.55Z" fill="#08D7FC"/>
<path fill-rule="evenodd" clip-rule="evenodd" d="M341.382 1028.55C339.882 1028.55 338.882 1028.55 337.382 1028.55C329.383 969.049 321.883 909.55 313.883 849.551C314.883 849.551 316.383 849.051 317.883 849.051C325.883 908.55 333.382 968.549 341.382 1028.55Z" fill="#08D7FC"/>
<path fill-rule="evenodd" clip-rule="evenodd" d="M1079.87 802.053C1080.87 806.053 1078.87 806.053 1076.87 806.553C1070.87 807.553 1065.37 808.053 1059.37 809.053C1026.37 813.553 993.374 817.552 960.374 822.052C941.375 824.552 922.375 827.052 903.375 829.552C902.875 829.552 901.875 829.552 901.375 829.552C900.375 826.052 900.375 826.052 903.375 825.552C913.875 824.052 923.875 823.052 934.375 821.552C956.875 818.552 979.374 815.553 1001.87 812.553C1023.87 809.553 1045.87 806.553 1067.87 804.053C1071.87 803.053 1075.87 802.553 1079.87 802.053Z" fill="#08D7FC"/>
<path fill-rule="evenodd" clip-rule="evenodd" d="M719.881 802.053C721.381 805.553 718.881 806.053 716.882 806.053C710.882 807.053 704.882 807.553 698.882 808.553C676.882 811.553 654.383 814.553 632.383 817.553C610.383 820.552 588.384 823.552 566.384 826.052C559.884 827.052 553.384 827.552 546.384 828.552C544.884 828.552 542.884 829.052 541.384 829.052C539.884 826.052 540.884 825.052 543.384 825.052C553.884 823.552 563.884 822.552 574.384 821.052C596.884 818.052 619.383 815.053 641.883 812.053C663.882 809.053 686.382 806.053 708.382 803.553C712.882 803.053 716.382 802.553 719.881 802.053Z" fill="#08D7FC"/>
<path fill-rule="evenodd" clip-rule="evenodd" d="M360.383 802.052C361.883 805.552 359.883 806.052 357.883 806.052C352.383 807.052 346.883 807.552 341.383 808.052C316.384 811.052 291.884 814.552 266.885 817.552C239.885 821.051 212.885 824.551 185.386 828.551C183.886 828.551 182.886 828.551 181.386 829.051C180.386 826.551 180.886 825.051 183.886 825.051C194.386 823.551 204.886 822.551 215.385 821.051C237.385 818.052 259.885 815.052 281.884 812.052C303.884 809.052 325.884 806.052 347.883 803.552C352.383 803.052 355.883 802.552 360.383 802.052Z" fill="#08D7FC"/>
<path fill-rule="evenodd" clip-rule="evenodd" d="M360.384 82.5645C361.384 86.0644 359.384 86.5644 357.384 86.5644C351.884 87.5644 346.384 88.0644 340.384 88.5644C307.885 93.0643 275.386 97.0642 242.886 101.564C223.386 104.064 204.387 106.564 184.887 109.064C183.887 109.064 182.387 109.064 181.387 109.064C180.387 106.064 181.387 105.564 183.887 105.064C199.387 103.064 214.887 101.064 230.386 99.0642C252.386 96.0642 274.886 93.0643 296.885 90.0643C316.385 87.5644 335.385 85.0644 354.884 82.5645C356.884 83.0644 358.384 83.0644 360.384 82.5645Z" fill="#08D7FC"/>
<path fill-rule="evenodd" clip-rule="evenodd" d="M719.879 82.5645C721.379 86.5644 718.879 86.5644 716.879 86.5644C710.879 87.5644 704.879 88.0644 698.879 89.0644C676.88 92.0643 654.38 95.0642 632.381 98.0642C610.381 101.064 588.381 104.064 566.382 106.564C559.882 107.564 553.382 108.064 546.382 109.064C544.882 109.064 542.882 109.564 541.382 109.564C540.382 106.564 540.882 105.564 543.882 105.064C554.382 103.564 564.882 102.564 575.382 101.064C597.381 98.0642 619.881 95.0643 641.88 92.0643C663.88 89.0644 685.88 86.0644 707.879 83.5644C711.879 83.5644 715.879 83.0644 719.879 82.5645Z" fill="#08D7FC"/>
<path fill-rule="evenodd" clip-rule="evenodd" d="M341.382 668.555C339.882 668.555 338.882 668.555 337.382 668.555C329.383 609.056 321.883 549.057 313.883 489.058C315.383 489.058 316.383 489.058 317.883 489.058C325.883 549.057 333.382 608.556 341.382 668.555Z" fill="#08D7FC"/>
<path fill-rule="evenodd" clip-rule="evenodd" d="M1393.37 129.563C1394.87 129.563 1395.87 129.563 1397.37 129.563C1405.37 189.062 1412.87 248.562 1420.87 308.561C1420.37 309.061 1419.87 309.061 1419.37 309.061C1418.87 309.061 1417.87 309.061 1416.87 309.061C1408.87 249.062 1400.87 189.562 1393.37 129.563Z" fill="#08D7FC"/>
<path fill-rule="evenodd" clip-rule="evenodd" d="M317.883 129.563C325.883 189.562 333.882 249.062 341.382 309.061C339.882 309.061 338.882 309.061 337.382 309.061C329.383 249.062 321.883 189.562 313.883 130.063C315.383 129.563 316.383 129.563 317.883 129.563Z" fill="#08D7FC"/>
<path fill-rule="evenodd" clip-rule="evenodd" d="M701.379 309.061C699.879 309.061 698.879 309.061 697.379 309.061C689.379 249.561 681.879 190.062 673.879 130.063C674.379 129.563 674.879 129.563 675.379 129.563C675.879 129.563 676.879 129.563 677.879 129.563C685.379 189.062 693.379 249.062 701.379 309.061Z" fill="#08D7FC"/>
<path fill-rule="evenodd" clip-rule="evenodd" d="M1060.87 309.06C1059.37 309.06 1058.37 309.06 1056.87 309.06C1049.37 249.561 1041.37 189.562 1033.38 129.563C1034.87 129.563 1035.87 129.563 1037.37 129.063C1045.37 189.562 1052.87 249.061 1060.87 309.06Z" fill="#08D7FC"/>
<path fill-rule="evenodd" clip-rule="evenodd" d="M360.387 442.559C361.887 446.559 359.387 446.558 357.387 446.558C351.387 447.558 345.387 448.058 339.387 449.058C317.388 452.058 294.888 455.058 272.888 458.058C250.889 461.058 228.889 464.058 206.889 466.558C200.39 467.558 193.89 468.058 186.89 469.058C185.39 469.058 183.39 469.558 181.89 469.558C180.89 466.558 181.39 465.558 184.39 465.058C194.89 463.558 205.39 462.558 215.889 461.058C237.889 458.058 260.389 455.058 282.388 452.058C304.388 449.058 326.388 446.059 348.387 443.559C352.387 443.059 356.387 443.059 360.387 442.559Z" fill="#08D7FC"/>
<path fill-rule="evenodd" clip-rule="evenodd" d="M719.88 442.559C720.88 446.059 719.38 446.558 717.38 446.558C712.38 447.058 707.38 448.058 701.881 448.558C676.881 452.058 651.881 455.058 626.882 458.558C599.882 462.058 572.883 465.558 545.383 469.558C543.883 469.558 542.383 470.058 540.883 470.058C539.883 467.058 540.883 466.058 543.383 466.058C556.383 464.558 569.383 462.558 582.382 461.058C607.382 457.558 631.882 454.558 656.881 451.058C675.881 448.558 695.381 446.059 714.38 443.559C716.38 442.559 718.38 442.559 719.88 442.559Z" fill="#08D7FC"/>
<path fill-rule="evenodd" clip-rule="evenodd" d="M1079.87 82.5645C1080.87 86.0644 1078.87 86.5644 1076.87 86.5644C1071.37 87.5644 1065.87 88.0644 1059.87 88.5644C1022.37 93.5643 984.372 98.5642 946.873 103.564C932.873 105.564 918.373 107.564 904.373 109.064C903.373 109.064 901.873 109.064 900.873 109.064C899.874 106.564 900.373 105.564 902.873 105.064C910.873 104.064 918.373 103.064 926.373 102.064C948.373 99.0642 970.872 96.0642 992.872 93.0643C1017.87 89.5643 1042.87 86.5644 1068.37 83.0645C1072.37 83.5644 1075.87 83.0644 1079.87 82.5645Z" fill="#08D7FC"/>
<path fill-rule="evenodd" clip-rule="evenodd" d="M901.377 469.558C900.377 466.558 901.377 465.558 903.377 465.058C913.877 463.558 923.876 462.558 934.376 461.058C956.876 458.058 979.375 455.058 1001.88 452.058C1023.87 449.058 1045.87 446.059 1067.87 443.559C1071.87 443.059 1075.37 442.559 1079.37 442.059C1080.87 445.559 1078.37 446.059 1076.37 446.059C1070.37 447.059 1064.37 447.559 1058.37 448.559C1036.37 451.558 1013.87 454.558 991.875 457.558C969.876 460.558 947.876 463.558 925.876 466.058C919.376 467.058 912.877 467.558 905.877 468.558C904.877 469.058 902.877 469.558 901.377 469.558Z" fill="#08D7FC"/>
<path fill-rule="evenodd" clip-rule="evenodd" d="M767.378 848.052C764.378 849.051 763.378 848.052 763.378 845.552C762.379 837.552 761.379 829.052 760.379 821.052C757.379 798.552 754.379 776.553 751.379 754.053C747.879 729.553 744.879 704.554 741.379 680.054C740.879 676.554 740.379 673.054 739.879 669.555C742.879 668.055 743.879 669.555 744.379 672.054C744.879 677.554 745.879 682.554 746.379 688.054C750.879 721.554 755.379 755.053 759.879 788.553C762.379 807.052 764.878 825.552 767.378 844.052C766.878 845.052 766.878 846.552 767.378 848.052Z" fill="#08D7FC"/>
<path fill-rule="evenodd" clip-rule="evenodd" d="M20.3906 669.055C21.8906 669.055 22.8906 669.055 24.3906 669.055C32.3904 728.554 39.8903 788.053 47.8902 848.052C44.8902 849.552 43.8902 848.052 43.3902 845.552C41.8903 834.552 40.3903 824.052 39.3903 813.052C35.8904 788.053 32.8904 763.053 29.3905 738.554C26.8905 719.054 24.3906 700.054 21.8906 680.555C21.3906 677.055 20.8906 673.055 20.3906 669.055Z" fill="#08D7FC"/>
<path fill-rule="evenodd" clip-rule="evenodd" d="M47.8902 488.558C44.3902 489.558 43.8902 488.058 43.3902 486.058C41.8903 475.058 40.3903 464.558 39.3903 453.558C35.8904 428.559 32.8904 403.559 29.3905 379.059C26.8905 359.56 24.3906 340.56 21.8906 321.06C21.3906 317.56 20.8906 313.56 20.3906 309.561C21.8906 309.561 22.8906 309.561 24.3906 309.561C32.3904 369.06 39.8903 428.559 47.8902 488.558Z" fill="#08D7FC"/>
<path fill-rule="evenodd" clip-rule="evenodd" d="M380.383 669.554C383.883 668.554 384.383 670.054 384.383 672.554C384.883 678.054 385.883 683.054 386.383 688.554C390.883 722.054 395.383 755.553 399.882 789.052C402.382 807.552 404.882 826.052 407.382 844.552C407.382 846.051 407.382 847.051 407.882 848.551C405.382 849.551 403.882 849.051 403.882 846.051C402.882 837.552 401.882 829.552 400.883 821.052C397.383 793.552 393.383 766.053 389.883 738.553C386.883 717.054 384.383 695.554 381.383 674.054C380.383 672.554 380.383 671.054 380.383 669.554Z" fill="#08D7FC"/>
<path fill-rule="evenodd" clip-rule="evenodd" d="M380.383 309.56C383.883 308.56 384.383 310.06 384.883 312.06C385.383 317.56 386.383 322.56 386.883 328.06C391.383 361.56 395.883 395.059 400.382 428.559C402.882 447.058 405.382 465.558 407.882 484.058C407.882 485.558 407.882 486.558 408.382 488.058C405.882 489.557 404.382 488.557 404.382 485.558C403.382 477.558 402.382 469.058 401.382 461.058C398.383 438.558 395.383 416.559 392.383 394.059C388.883 369.559 385.883 344.56 382.383 320.06C380.883 317.06 380.883 313.56 380.383 309.56Z" fill="#08D7FC"/>
<path fill-rule="evenodd" clip-rule="evenodd" d="M1126.87 129.064C1125.37 129.064 1124.87 129.064 1123.37 129.064C1115.37 69.5652 1107.87 10.0662 1099.88 -49.9328C1102.87 -51.4328 1103.87 -49.9328 1104.37 -47.4328C1104.87 -42.4329 1105.87 -37.433 1106.37 -32.4331C1111.37 5.56628 1116.37 43.0657 1121.37 81.065C1123.37 95.0648 1125.37 109.565 1126.87 123.564C1126.87 125.564 1126.87 127.064 1126.87 129.064Z" fill="#08D7FC"/>
<path fill-rule="evenodd" clip-rule="evenodd" d="M740.379 309.56C743.379 308.56 744.379 310.06 744.379 312.06C744.879 317.06 745.879 322.06 746.379 327.56C751.379 365.56 756.379 403.059 761.379 441.058C763.379 455.058 765.379 469.558 766.878 483.558C766.878 485.058 766.879 487.058 767.379 488.558C763.879 490.057 763.379 488.057 763.379 485.558C762.379 477.558 761.379 469.558 760.379 461.558C756.879 433.558 752.879 406.059 749.379 378.059C746.379 356.56 743.879 335.56 740.879 314.06C740.379 313.06 740.379 311.56 740.379 309.56Z" fill="#08D7FC"/>
<path fill-rule="evenodd" clip-rule="evenodd" d="M1127.37 848.052C1123.87 849.052 1123.37 847.552 1122.87 845.552C1121.37 834.552 1119.87 824.052 1118.87 813.052C1115.37 788.053 1112.37 763.053 1108.87 738.554C1106.37 719.054 1103.87 700.054 1101.37 680.555C1100.87 677.055 1100.37 673.055 1099.88 669.055C1101.37 669.055 1102.37 669.055 1103.87 669.055C1111.37 729.054 1119.37 788.553 1127.37 848.052Z" fill="#08D7FC"/>
<path fill-rule="evenodd" clip-rule="evenodd" d="M1099.88 309.56C1103.37 308.56 1103.87 310.56 1103.87 312.56C1104.37 318.06 1105.37 323.56 1105.87 329.06C1109.37 357.059 1113.37 385.059 1116.87 413.058C1119.87 437.058 1123.37 461.057 1126.37 484.557C1126.37 486.057 1126.37 487.057 1126.87 488.557C1124.37 489.557 1122.87 488.557 1122.87 486.057C1121.37 475.557 1120.37 465.057 1118.87 454.558C1115.37 429.058 1111.87 403.558 1108.87 378.559C1105.87 357.559 1103.37 336.059 1100.37 315.06C1099.87 313.06 1099.88 311.56 1099.88 309.56Z" fill="#08D7FC"/>
<path fill-rule="evenodd" clip-rule="evenodd" d="M740.379 -49.9332C743.879 -50.9332 744.379 -48.9332 744.379 -46.9333C744.879 -40.9334 745.879 -35.4335 746.379 -29.4336C749.879 -4.43399 752.879 20.5656 756.379 45.5652C758.879 65.0649 761.379 84.5645 763.879 104.064C764.878 110.564 765.378 116.564 766.378 123.064C766.878 125.064 766.878 127.064 766.878 129.064C763.879 130.064 762.879 129.064 762.879 126.564C761.379 115.564 759.879 105.064 758.879 94.0644C755.379 69.0648 752.379 44.0652 748.879 19.5656C745.879 -1.93403 743.379 -23.4337 740.379 -44.9333C740.379 -46.9333 740.379 -48.4333 740.379 -49.9332Z" fill="#08D7FC"/>
<path fill-rule="evenodd" clip-rule="evenodd" d="M1420.87 668.555C1419.37 668.555 1418.37 668.555 1416.87 668.555C1408.87 609.056 1401.37 549.557 1393.37 489.558C1394.87 489.558 1395.87 489.058 1397.37 489.058C1404.87 549.057 1412.87 608.556 1420.87 668.555Z" fill="#08D7FC"/>
<path fill-rule="evenodd" clip-rule="evenodd" d="M380.383 -50.4336C381.883 -50.4336 382.883 -50.4336 384.383 -50.4336C392.383 9.06541 399.882 68.5644 407.882 128.563C404.882 130.063 403.882 128.563 403.382 126.063C401.882 115.064 400.382 104.564 399.383 93.564C395.883 68.5644 392.883 43.5648 389.383 19.0653C386.883 -0.434422 384.383 -19.4341 381.883 -38.9338C381.383 -42.4337 380.883 -46.4337 380.383 -50.4336Z" fill="#08D7FC"/>
<path fill-rule="evenodd" clip-rule="evenodd" d="M47.8902 129.064C44.3902 130.064 43.8902 128.564 43.8902 126.064C42.8903 118.064 41.8903 109.565 40.8903 101.565C37.3904 74.0652 33.3904 46.5656 29.8905 18.5661C26.8905 -2.93357 24.3906 -23.9332 21.3906 -45.4329C21.3906 -46.9328 21.3906 -48.4328 20.8906 -49.9328C23.8906 -51.4328 24.8906 -49.9328 24.8906 -47.4328C25.8905 -38.933 26.8905 -30.9331 27.8905 -22.4332C30.8905 0.0663795 33.8904 22.566 36.8904 45.0656C39.3903 64.5653 41.8903 84.065 44.3902 103.565C45.3902 110.065 45.8902 116.064 46.8902 122.564C47.3902 124.564 47.3902 126.564 47.8902 129.064Z" fill="#08D7FC"/>
<path fill-rule="evenodd" clip-rule="evenodd" d="M701.379 668.554C699.879 668.554 698.879 668.554 697.379 668.554C689.379 609.055 681.879 549.556 673.879 489.557C676.879 488.057 677.879 489.057 677.879 491.557C678.879 501.057 680.379 510.557 681.879 520.057C684.879 542.056 687.879 564.056 690.379 586.056C692.379 603.055 694.879 620.055 696.879 637.055C698.379 647.555 699.879 658.055 701.379 668.554Z" fill="#08D7FC"/>
<path fill-rule="evenodd" clip-rule="evenodd" d="M540.381 549.557C541.381 553.057 539.381 553.557 537.381 553.557C530.882 554.057 524.382 555.057 517.882 555.557C488.882 559.056 460.383 562.056 431.383 565.556C408.884 568.056 386.384 570.556 363.884 573.056C362.884 573.056 362.384 573.056 361.384 573.056C359.884 570.056 360.884 569.556 363.384 569.056C369.884 568.556 376.384 567.556 382.884 566.556C402.384 564.556 421.383 562.056 440.883 560.056C464.383 557.557 487.382 554.557 510.882 552.057C518.382 551.057 525.382 550.057 532.882 549.557C535.382 549.557 537.881 549.557 540.381 549.557Z" fill="#08D7FC"/>
<path fill-rule="evenodd" clip-rule="evenodd" d="M721.377 573.556C720.377 571.056 720.877 570.056 723.377 569.556C726.877 569.056 730.877 568.556 734.377 568.056C756.377 565.556 778.876 563.056 800.876 560.556C824.376 558.056 847.375 555.057 870.875 552.557C878.375 551.557 885.375 550.557 892.875 550.057C895.375 549.557 897.375 549.557 899.874 549.557C901.374 553.057 899.374 553.557 897.375 553.557C891.375 554.057 885.375 555.057 879.375 555.557C843.875 559.556 808.376 563.556 772.877 568.056C757.377 570.056 742.377 571.556 726.877 573.556C725.377 573.556 723.377 573.556 721.377 573.556Z" fill="#08D7FC"/>
<path fill-rule="evenodd" clip-rule="evenodd" d="M540.38 189.562C541.38 193.562 539.38 193.562 537.38 194.062C531.38 194.562 525.38 195.562 518.88 196.062C484.881 200.062 450.381 204.062 416.382 207.562C398.882 209.562 381.882 211.562 364.383 213.562C363.383 213.562 362.883 213.562 361.383 213.562C361.383 212.562 361.383 211.562 360.883 210.062C420.882 203.062 480.381 196.562 540.38 189.562Z" fill="#08D7FC"/>
<path fill-rule="evenodd" clip-rule="evenodd" d="M720.879 214.062C720.879 212.562 720.879 212.062 720.879 210.562C780.378 203.562 840.377 196.562 899.876 190.062C901.376 194.062 898.876 194.062 896.876 194.562C890.876 195.062 885.376 196.062 879.376 196.562C844.877 200.562 810.877 204.562 776.378 208.062C759.878 210.062 743.879 212.062 727.379 213.562C725.379 213.562 723.379 213.562 720.879 214.062Z" fill="#08D7FC"/>
<path fill-rule="evenodd" clip-rule="evenodd" d="M1080.87 214.062C1079.87 210.562 1081.37 210.062 1083.37 210.062C1089.87 209.562 1096.37 208.562 1102.87 207.562C1122.87 205.062 1142.37 203.062 1162.37 200.562C1184.87 198.062 1207.37 195.562 1230.37 192.562C1237.87 191.562 1244.87 190.562 1252.37 190.062C1254.87 189.562 1257.37 189.563 1259.87 189.563C1261.37 193.062 1258.87 193.562 1256.87 193.562C1250.87 194.062 1245.37 195.062 1239.37 195.562C1204.87 199.562 1170.87 203.562 1136.37 207.062C1119.87 209.062 1103.87 211.062 1087.37 212.562C1085.37 213.562 1083.37 213.562 1080.87 214.062Z" fill="#08D7FC"/>
<path fill-rule="evenodd" clip-rule="evenodd" d="M1080.87 573.556C1079.87 570.056 1081.37 569.556 1083.37 569.556C1089.87 569.056 1096.37 568.056 1102.87 567.056C1122.87 564.556 1142.87 562.556 1162.87 560.056C1185.37 557.557 1207.87 555.057 1230.37 552.557C1237.87 551.557 1244.87 550.557 1252.37 550.057C1254.87 549.557 1257.37 549.557 1259.87 549.557C1260.37 551.557 1260.37 553.057 1258.37 553.557C1256.87 554.057 1254.87 554.057 1253.37 554.057C1227.87 557.056 1202.87 560.056 1177.37 563.056C1155.37 565.556 1132.87 568.056 1110.87 570.556C1103.87 571.556 1097.37 572.056 1090.37 573.056C1087.37 573.056 1084.37 573.556 1080.87 573.556Z" fill="#08D7FC"/>
<path fill-rule="evenodd" clip-rule="evenodd" d="M1355.37 129.563C1356.37 129.563 1357.37 129.563 1359.37 129.063C1366.37 189.062 1373.37 248.562 1379.87 308.561C1376.87 309.56 1375.87 309.061 1375.37 306.061C1374.37 297.061 1373.37 288.061 1372.37 279.061C1369.87 256.061 1366.87 233.062 1364.37 210.062C1361.87 188.062 1359.37 166.063 1356.87 143.563C1356.37 139.563 1355.87 134.563 1355.37 129.563Z" fill="#08D7FC"/>
<path fill-rule="evenodd" clip-rule="evenodd" d="M275.887 489.558C277.387 489.558 278.387 489.558 279.887 489.558C286.887 549.057 293.886 608.556 300.386 668.555C298.886 668.555 297.886 669.055 296.386 669.055C289.886 609.056 282.887 549.557 275.887 489.558Z" fill="#08D7FC"/>
<path fill-rule="evenodd" clip-rule="evenodd" d="M1379.87 668.555C1376.37 669.555 1375.87 668.555 1375.37 666.055C1374.37 656.555 1373.37 647.055 1372.37 637.555C1369.87 615.056 1366.87 592.556 1364.37 570.556C1362.37 555.057 1360.87 539.057 1358.87 523.557C1357.37 512.557 1356.37 501.057 1354.87 489.558C1355.87 489.558 1356.87 489.558 1358.87 489.058C1365.87 549.057 1372.87 608.556 1379.87 668.555Z" fill="#08D7FC"/>
<path fill-rule="evenodd" clip-rule="evenodd" d="M1260.87 469.557C1259.87 466.557 1261.37 465.557 1263.87 465.557C1279.37 463.557 1294.87 461.557 1310.37 459.557C1332.37 456.557 1354.87 453.557 1376.87 450.557C1395.87 448.057 1415.37 445.558 1434.37 443.058C1435.86 443.058 1437.86 443.058 1439.36 442.558C1440.86 445.558 1438.86 446.557 1436.86 446.557C1431.87 447.057 1426.87 448.058 1421.37 448.558C1383.37 453.557 1345.87 458.557 1307.87 463.557C1293.87 465.557 1279.37 467.557 1265.37 469.057C1263.37 469.557 1262.37 469.557 1260.87 469.557Z" fill="#08D7FC"/>
<path fill-rule="evenodd" clip-rule="evenodd" d="M995.375 129.563C996.375 129.563 997.375 129.563 999.375 129.063C1006.37 189.062 1013.37 248.562 1019.87 308.561C1016.87 309.56 1015.87 309.061 1015.37 306.061C1014.37 297.061 1013.37 288.061 1012.37 279.061C1009.87 256.061 1006.87 233.062 1004.37 210.062C1001.87 188.062 999.375 166.063 996.875 143.563C996.875 139.563 996.375 134.563 995.375 129.563Z" fill="#08D7FC"/>
<path fill-rule="evenodd" clip-rule="evenodd" d="M61.3906 669.055C62.8906 669.055 63.8906 669.055 65.3906 669.055C72.3904 729.054 79.3903 788.553 85.8902 848.552C84.3902 848.552 83.3903 848.552 81.8903 848.552C74.8904 789.053 68.3905 729.554 61.3906 669.055Z" fill="#08D7FC"/>
<path fill-rule="evenodd" clip-rule="evenodd" d="M635.879 129.563C637.379 129.563 637.879 129.563 639.879 129.063C646.879 189.062 653.879 248.561 660.378 308.06C657.379 309.56 656.379 308.56 655.879 305.561C654.379 294.061 653.379 282.061 651.879 270.561C649.379 247.561 646.379 224.562 643.879 201.062C641.879 181.563 639.379 162.563 637.379 143.063C636.879 139.063 636.379 134.563 635.879 129.563Z" fill="#08D7FC"/>
<path fill-rule="evenodd" clip-rule="evenodd" d="M420.883 669.055C422.383 669.055 423.383 669.055 424.883 669.055C431.883 728.554 438.882 788.053 445.382 848.052C443.882 848.052 442.882 848.552 441.382 848.552C434.883 789.053 427.883 729.554 420.883 669.055Z" fill="#08D7FC"/>
<path fill-rule="evenodd" clip-rule="evenodd" d="M300.886 309.061C299.386 309.061 298.386 309.061 296.886 309.061C289.886 249.561 282.887 189.562 275.887 130.063C276.887 130.063 277.887 129.563 279.887 129.563C286.887 189.062 293.886 249.062 300.886 309.061Z" fill="#08D7FC"/>
<path fill-rule="evenodd" clip-rule="evenodd" d="M780.875 669.555C782.375 669.555 783.375 669.555 784.875 669.055C791.875 729.054 798.875 788.553 805.375 848.052C804.375 848.552 803.875 848.552 803.875 848.552C803.375 848.552 802.375 848.552 801.875 848.052C794.375 788.553 787.375 729.054 780.875 669.555Z" fill="#08D7FC"/>
<path fill-rule="evenodd" clip-rule="evenodd" d="M1260.87 109.564C1259.87 106.564 1261.37 105.564 1263.37 105.564C1273.87 104.064 1284.37 103.064 1294.87 101.564C1316.87 98.5642 1339.37 95.5642 1361.37 92.5643C1383.37 89.5643 1405.37 86.5644 1427.37 84.0644C1430.87 83.5645 1434.87 83.0644 1438.37 82.5645C1439.87 85.5644 1438.37 86.5644 1435.87 86.5644C1430.87 87.0644 1425.87 88.0644 1420.87 88.5644C1388.37 93.0643 1355.37 97.0642 1322.87 101.564C1303.37 104.064 1284.37 106.564 1264.87 109.064C1263.87 109.564 1262.37 109.564 1260.87 109.564Z" fill="#08D7FC"/>
<path fill-rule="evenodd" clip-rule="evenodd" d="M1140.37 669.555C1141.37 669.555 1141.87 669.055 1142.37 669.055C1142.87 669.055 1143.37 669.055 1144.37 669.555C1151.37 729.054 1157.87 788.553 1164.87 848.552C1163.37 848.552 1162.37 849.052 1160.87 849.052C1154.37 789.053 1147.37 729.554 1140.37 669.555Z" fill="#08D7FC"/>
<path fill-rule="evenodd" clip-rule="evenodd" d="M1164.87 489.058C1162.87 489.058 1162.37 489.058 1160.87 488.558C1153.87 428.559 1146.87 369.06 1140.37 309.561C1141.87 309.561 1142.87 309.561 1144.37 309.061C1151.37 369.06 1158.37 428.559 1164.87 489.058Z" fill="#08D7FC"/>
<path fill-rule="evenodd" clip-rule="evenodd" d="M805.375 489.058C803.875 489.058 802.875 489.058 801.375 489.058C794.375 429.559 787.375 369.56 780.875 309.561C782.375 309.561 783.375 309.561 784.875 309.061C791.375 369.06 798.375 428.559 805.375 489.058Z" fill="#08D7FC"/>
<path fill-rule="evenodd" clip-rule="evenodd" d="M420.883 309.561C422.383 309.561 423.383 309.561 424.883 309.561C431.883 369.06 438.882 429.059 445.382 488.558C443.882 488.558 442.882 488.558 441.382 489.058C434.883 429.059 427.883 369.56 420.883 309.561Z" fill="#08D7FC"/>
<path fill-rule="evenodd" clip-rule="evenodd" d="M635.879 489.558C637.379 489.558 638.379 489.558 639.879 489.558C646.879 549.057 653.879 609.056 660.378 669.055C658.878 669.055 657.878 669.055 656.379 669.055C649.379 609.056 642.879 549.557 635.879 489.558Z" fill="#08D7FC"/>
<path fill-rule="evenodd" clip-rule="evenodd" d="M300.886 1028.55C298.886 1028.55 298.386 1028.55 296.886 1028.55C289.886 968.549 282.887 909.05 276.387 849.551C277.387 849.551 278.387 849.551 280.387 849.051C286.887 908.55 293.886 968.049 300.886 1028.55Z" fill="#08D7FC"/>
<path fill-rule="evenodd" clip-rule="evenodd" d="M85.8902 489.058C83.8902 489.058 83.3903 489.058 81.8903 489.058C74.8904 429.559 67.8905 369.56 61.3906 310.061C62.8906 310.061 63.8906 310.061 65.3906 309.561C71.8905 369.06 78.8903 428.559 85.8902 489.058Z" fill="#08D7FC"/>
<path fill-rule="evenodd" clip-rule="evenodd" d="M635.879 849.052C637.379 849.052 638.379 849.052 639.879 848.552C646.879 908.551 653.879 968.05 660.378 1027.55C657.379 1029.05 656.379 1028.05 655.879 1025.05C654.379 1013.55 653.379 1001.55 651.879 990.049C649.379 967.05 646.379 944.05 643.879 920.551C641.879 901.051 639.379 882.051 637.379 862.552C636.879 858.552 636.379 854.052 635.879 849.052Z" fill="#08D7FC"/>
<path fill-rule="evenodd" clip-rule="evenodd" d="M1140.37 -50.4336C1141.87 -50.4336 1142.87 -50.4336 1144.37 -50.4336C1151.37 9.06542 1158.37 69.0644 1164.87 129.063C1163.37 129.063 1162.37 129.063 1160.87 129.063C1154.37 69.5644 1147.37 9.56541 1140.37 -50.4336Z" fill="#08D7FC"/>
<path fill-rule="evenodd" clip-rule="evenodd" d="M1020.37 1028.05C1016.87 1029.05 1016.37 1028.05 1015.87 1025.55C1014.37 1014.05 1013.37 1002.05 1011.87 990.549C1009.37 967.55 1006.37 944.55 1003.87 921.051C1001.87 901.551 999.375 882.551 997.375 863.051C996.875 858.552 996.375 854.052 995.875 849.052C997.375 849.052 998.375 849.052 999.875 848.552C1006.37 908.551 1013.37 968.05 1020.37 1028.05Z" fill="#08D7FC"/>
<path fill-rule="evenodd" clip-rule="evenodd" d="M780.875 -50.4336C782.375 -50.4336 783.375 -50.4336 784.875 -50.4336C791.875 9.56541 798.875 69.0644 805.375 129.063C803.875 129.063 802.875 129.063 801.375 129.063C794.375 69.5644 787.875 10.0654 780.875 -50.4336Z" fill="#08D7FC"/>
<path fill-rule="evenodd" clip-rule="evenodd" d="M1355.37 849.051C1356.87 849.051 1357.87 849.051 1359.37 849.051C1366.37 908.55 1373.37 968.549 1380.37 1028.55C1378.87 1028.55 1377.87 1028.55 1376.37 1028.55C1368.87 968.549 1362.37 909.05 1355.37 849.051Z" fill="#08D7FC"/>
<path fill-rule="evenodd" clip-rule="evenodd" d="M420.883 -49.9336C422.383 -49.9336 423.383 -49.9336 424.883 -50.4336C431.883 9.56541 438.882 69.0644 445.382 129.063C443.882 129.063 442.882 129.063 441.382 129.063C434.883 69.0644 427.883 9.5654 420.883 -49.9336Z" fill="#08D7FC"/>
<path fill-rule="evenodd" clip-rule="evenodd" d="M61.3906 -50.4336C62.8906 -50.4336 63.8906 -50.4336 65.3906 -50.4336C72.3904 9.06542 79.3903 69.0644 85.8902 128.563C84.3902 128.563 83.3903 128.563 81.8903 129.063C74.8904 69.5644 68.3905 10.0654 61.3906 -50.4336Z" fill="#08D7FC"/>
<path fill-rule="evenodd" clip-rule="evenodd" d="M1020.37 668.555C1018.87 668.555 1017.87 668.555 1016.37 668.555C1009.37 609.056 1002.37 549.557 995.875 489.558C996.875 489.558 998.375 489.058 999.875 489.058C1006.37 549.057 1013.37 608.556 1020.37 668.555Z" fill="#08D7FC"/>
<path fill-rule="evenodd" clip-rule="evenodd" d="M1438.87 802.052C1440.37 805.552 1438.37 806.052 1436.37 806.552C1431.37 807.052 1425.87 808.052 1420.37 808.552C1389.37 812.552 1358.87 816.552 1327.87 820.552C1306.87 823.552 1285.37 826.052 1264.37 829.052C1263.37 829.052 1261.87 829.052 1260.87 829.052C1259.87 826.552 1260.37 825.552 1262.87 825.052C1270.87 824.052 1278.37 823.052 1286.37 822.052C1308.37 819.052 1330.87 816.052 1352.87 813.052C1377.87 809.552 1402.87 806.552 1428.37 803.052C1431.87 803.052 1435.37 802.552 1438.87 802.052Z" fill="#08D7FC"/>
<path fill-rule="evenodd" clip-rule="evenodd" d="M181.387 788.052C180.387 784.552 182.387 784.552 184.387 784.052C191.387 783.052 197.887 782.552 204.887 781.552C224.386 779.052 244.386 777.053 263.886 774.553C285.885 772.053 307.885 769.553 330.385 767.053C337.884 766.053 345.884 765.053 353.384 764.553C355.384 764.553 357.884 764.053 359.884 764.053C361.384 767.053 359.884 768.053 357.384 768.053C350.884 768.553 344.384 769.553 337.884 770.053C318.385 772.053 298.885 774.553 279.885 776.553C260.386 779.052 240.886 781.052 221.386 783.052C209.387 784.552 196.887 786.052 184.887 787.052C183.887 788.552 182.887 788.052 181.387 788.052Z" fill="#08D7FC"/>
<path fill-rule="evenodd" clip-rule="evenodd" d="M719.88 764.053C720.88 767.553 719.38 768.053 717.38 768.053C710.88 768.553 704.38 769.553 697.88 770.053C678.381 772.053 658.881 774.553 639.881 776.552C620.382 778.552 600.882 781.052 581.882 783.052C569.383 784.552 556.883 786.052 544.883 787.052C543.883 787.052 542.883 787.052 541.883 787.052C540.383 784.052 542.383 783.552 544.383 783.052C551.383 782.052 557.883 781.552 564.883 780.552C584.882 778.052 604.882 776.053 624.382 773.553C646.881 771.053 668.881 768.553 691.381 766.053C698.88 765.053 706.38 764.053 713.88 763.553C715.38 764.553 717.88 764.553 719.88 764.053Z" fill="#08D7FC"/>
<path fill-rule="evenodd" clip-rule="evenodd" d="M901.377 788.552C900.377 785.552 901.377 784.552 903.377 784.552C906.877 784.052 910.877 783.552 914.376 783.052C949.876 779.052 985.375 775.053 1020.87 770.553C1038.87 768.553 1056.37 766.553 1074.37 764.553C1075.87 764.553 1077.87 764.553 1079.87 764.053C1080.87 766.553 1080.37 767.553 1077.87 768.053C1074.37 768.553 1070.37 769.053 1066.87 769.553C1047.37 772.053 1027.87 774.053 1008.37 776.553C988.875 778.552 969.376 781.052 950.376 783.052C936.876 784.552 923.376 786.052 909.877 787.552C906.877 788.052 903.877 788.052 901.377 788.552Z" fill="#08D7FC"/>
<path fill-rule="evenodd" clip-rule="evenodd" d="M900.876 69.0641C899.876 65.0641 902.376 65.0641 904.376 65.0641C910.876 64.0641 917.876 63.5641 924.376 62.5642C944.375 60.0642 964.375 58.0642 983.875 55.5643C1005.87 53.0643 1027.87 50.5644 1050.37 48.0644C1057.87 47.0644 1065.87 46.0644 1073.37 45.5645C1075.37 45.5645 1077.87 45.0645 1079.87 45.0645C1081.37 48.0644 1079.37 49.0644 1077.37 49.0644C1070.87 49.5644 1064.37 50.5644 1057.87 51.0644C1038.37 53.0643 1018.87 55.5643 999.874 57.5642C980.375 59.5642 960.875 62.0642 941.875 64.0642C929.876 65.5641 917.876 66.5641 905.876 68.0641C903.876 69.0641 902.376 69.0641 900.876 69.0641Z" fill="#08D7FC"/>
<path fill-rule="evenodd" clip-rule="evenodd" d="M541.379 69.0641C539.879 65.0641 542.379 65.0641 544.379 65.0641C550.879 64.0641 557.879 63.5641 564.379 62.5642C584.379 60.0642 604.378 58.0642 623.878 55.5643C646.378 53.0643 668.377 50.5644 690.877 48.0644C698.377 47.0644 705.877 46.0644 713.377 45.5645C715.377 45.0645 717.876 45.0645 719.876 45.0645C721.376 48.0644 719.876 49.0644 717.377 49.0644C710.877 49.5644 704.377 50.5644 697.877 51.0644C678.377 53.0643 658.877 55.5643 639.878 57.5642C620.378 59.5642 600.878 62.0642 581.879 64.0642C569.379 65.5641 556.879 67.0641 544.879 68.0641C543.379 69.0641 542.379 69.0641 541.379 69.0641Z" fill="#08D7FC"/>
<path fill-rule="evenodd" clip-rule="evenodd" d="M181.387 69.0641C179.887 65.0641 182.387 65.0641 184.387 65.0641C191.387 64.0641 197.887 63.5641 204.887 62.5642C224.387 60.0642 244.386 58.0642 263.886 55.5643C285.886 53.0643 307.885 50.5644 330.385 48.0644C337.885 47.0644 345.885 46.0644 353.384 45.5645C355.384 45.5645 357.884 45.0645 359.884 45.0645C361.384 48.0644 359.884 49.0644 357.384 49.0644C350.884 49.5644 343.885 50.5644 337.385 51.5644C318.385 53.5643 298.885 56.0643 279.886 58.0642C260.386 60.5642 240.886 62.5642 221.387 64.5641C209.387 66.0641 196.887 67.5641 184.887 68.5641C183.887 69.0641 182.887 69.0641 181.387 69.0641Z" fill="#08D7FC"/>
<path fill-rule="evenodd" clip-rule="evenodd" d="M719.876 404.559C721.376 408.059 719.376 408.559 716.876 408.559C710.376 409.059 704.377 410.058 697.877 410.558C674.877 413.058 651.877 416.058 628.878 418.558C606.378 421.058 584.379 423.558 561.879 426.058C554.879 427.058 547.879 427.558 540.879 428.558C539.879 425.058 539.879 424.558 542.879 424.558C549.879 423.558 556.379 423.058 563.379 422.058C586.879 419.558 609.878 416.558 633.378 414.058C655.377 411.558 677.377 409.059 699.877 406.559C704.377 406.059 708.877 405.559 713.376 405.059C715.876 405.059 717.876 404.559 719.876 404.559Z" fill="#08D7FC"/>
<path fill-rule="evenodd" clip-rule="evenodd" d="M1079.87 405.058C1080.87 407.558 1079.87 408.558 1077.87 408.558C1074.37 409.058 1070.87 409.558 1067.37 410.058C1047.87 412.058 1028.37 414.558 1009.37 416.558C989.375 419.058 969.376 421.058 949.876 423.558C936.376 425.058 922.876 426.558 909.377 428.558C906.877 429.058 904.377 429.058 901.877 429.058C900.377 426.558 901.377 425.558 903.877 425.058C907.377 424.558 911.377 424.058 914.876 423.558C950.376 419.558 985.875 415.558 1021.37 411.058C1039.37 409.058 1056.87 407.058 1074.87 405.058C1076.37 404.558 1078.37 405.058 1079.87 405.058Z" fill="#08D7FC"/>
<path fill-rule="evenodd" clip-rule="evenodd" d="M181.388 428.558C180.388 424.558 182.888 424.558 184.888 424.558C191.388 423.558 198.388 423.058 204.887 422.058C224.887 419.558 244.887 417.558 264.386 415.058C286.386 412.558 308.386 410.058 330.885 407.559C338.385 406.559 346.385 405.559 353.885 405.059C355.885 405.059 358.385 404.559 360.385 404.559C361.885 408.059 359.885 408.559 357.885 408.559C351.385 409.059 344.885 410.058 338.385 410.558C318.886 412.558 299.386 415.058 280.386 417.058C260.886 419.058 241.387 421.558 222.387 423.558C211.887 424.558 200.887 426.058 190.388 427.058C187.388 428.558 184.388 428.558 181.388 428.558Z" fill="#08D7FC"/>
<path fill-rule="evenodd" clip-rule="evenodd" d="M1438.87 404.559C1440.37 408.559 1437.87 408.559 1435.87 409.059C1426.37 410.059 1417.37 411.058 1407.87 412.058C1385.37 414.558 1362.87 417.058 1339.87 420.058C1320.87 422.058 1301.37 424.558 1282.37 426.558C1275.37 427.558 1268.37 428.058 1260.87 429.058C1259.37 426.558 1260.37 425.058 1262.87 425.058C1266.87 424.558 1270.87 424.058 1274.37 423.558C1300.87 420.558 1326.87 417.558 1353.37 414.558C1375.37 412.058 1397.37 409.559 1419.87 407.059C1426.37 406.059 1432.37 405.059 1438.87 404.559Z" fill="#08D7FC"/>
<path fill-rule="evenodd" clip-rule="evenodd" d="M1438.87 764.553C1439.86 768.053 1438.37 768.553 1436.37 768.553C1430.37 769.053 1424.37 770.053 1417.87 770.553C1394.87 773.053 1371.87 776.053 1348.87 778.553C1326.37 781.052 1304.37 783.552 1281.87 786.052C1274.87 787.052 1267.87 787.552 1260.37 788.552C1258.87 785.052 1260.37 784.552 1262.87 784.552C1269.87 783.552 1276.37 783.052 1283.37 782.052C1303.37 779.552 1323.37 777.553 1342.87 775.053C1361.87 773.053 1380.87 770.553 1399.87 768.553C1410.37 767.553 1421.37 766.053 1431.87 765.053C1434.87 764.553 1436.87 764.553 1438.87 764.553Z" fill="#08D7FC"/>
<path fill-rule="evenodd" clip-rule="evenodd" d="M1438.87 45.0645C1439.87 48.5644 1438.37 49.0644 1436.37 49.0644C1430.37 49.5644 1424.37 50.5644 1417.87 51.0644C1394.87 53.5643 1371.87 56.5643 1348.87 59.0642C1326.37 61.5642 1304.37 64.0642 1281.87 66.5641C1275.87 67.0641 1269.87 68.0641 1263.37 68.5641C1262.37 68.5641 1261.37 68.5641 1260.37 68.5641C1258.87 65.5641 1260.87 65.0641 1262.87 64.5641C1269.87 63.5642 1276.37 63.0642 1283.37 62.0642C1303.37 59.5642 1323.37 57.5642 1342.87 55.0643C1365.37 52.5643 1387.37 50.0644 1409.87 47.5644C1417.37 46.5644 1424.87 45.5644 1432.37 45.0645C1434.87 45.0645 1436.87 45.0645 1438.87 45.0645Z" fill="#08D7FC"/>
</g>
</svg>
