<svg width="184" height="57" viewBox="0 0 184 57" fill="none" xmlns="http://www.w3.org/2000/svg">
<g clip-path="url(#clip0_1_2729)">
<path d="M169.061 1.06934L183.446 15.3643V56.0693H16.7888L1.44604 40.8174L1.51929 1.06934H169.061Z" stroke="white"/>
<path d="M183.947 6.70717V0.569336H177.321L183.947 6.70717Z" fill="white"/>
<path d="M33.762 34.5693C33.41 34.5693 33.0847 34.484 32.786 34.3133C32.498 34.1427 32.2687 33.9133 32.098 33.6253C31.9274 33.3267 31.842 33.0013 31.842 32.6493V24.9693C31.842 24.6173 31.9274 24.2973 32.098 24.0093C32.2687 23.7107 32.498 23.476 32.786 23.3053C33.0847 23.1347 33.41 23.0493 33.762 23.0493H43.33V24.3453H33.762C33.5914 24.3453 33.442 24.4093 33.314 24.5373C33.1967 24.6547 33.138 24.7987 33.138 24.9693V32.6493C33.138 32.82 33.1967 32.9693 33.314 33.0973C33.442 33.2147 33.5914 33.2733 33.762 33.2733H43.33V34.5693H33.762ZM46.8863 34.5693C46.5343 34.5693 46.209 34.484 45.9103 34.3133C45.6223 34.1427 45.393 33.9133 45.2223 33.6253C45.0516 33.3267 44.9663 33.0013 44.9663 32.6493V24.9693C44.9663 24.6173 45.0516 24.2973 45.2223 24.0093C45.393 23.7107 45.6223 23.476 45.9103 23.3053C46.209 23.1347 46.5343 23.0493 46.8863 23.0493H54.5663C54.9183 23.0493 55.2383 23.1347 55.5263 23.3053C55.825 23.476 56.0596 23.7107 56.2303 24.0093C56.401 24.2973 56.4863 24.6173 56.4863 24.9693V32.6493C56.4863 33.0013 56.401 33.3267 56.2303 33.6253C56.0596 33.9133 55.825 34.1427 55.5263 34.3133C55.2383 34.484 54.9183 34.5693 54.5663 34.5693H46.8863ZM46.8863 33.2733H54.5663C54.737 33.2733 54.881 33.2147 54.9983 33.0973C55.1263 32.9693 55.1903 32.82 55.1903 32.6493V24.9693C55.1903 24.7987 55.1263 24.6547 54.9983 24.5373C54.881 24.4093 54.737 24.3453 54.5663 24.3453H46.8863C46.7156 24.3453 46.5663 24.4093 46.4383 24.5373C46.321 24.6547 46.2623 24.7987 46.2623 24.9693V32.6493C46.2623 32.82 46.321 32.9693 46.4383 33.0973C46.5663 33.2147 46.7156 33.2733 46.8863 33.2733ZM58.2483 34.5693V23.0493H60.0243L68.4723 33.0973V23.0493H69.7683V34.5693H67.9923L59.5443 24.5213V34.5693H58.2483ZM76.1048 34.5693V24.3453H70.9848V23.0493H82.5048V24.3453H77.4008V34.5693H76.1048ZM83.7334 34.5693V24.9693C83.7334 24.6173 83.8188 24.2973 83.9894 24.0093C84.1601 23.7107 84.3894 23.476 84.6774 23.3053C84.9761 23.1347 85.3014 23.0493 85.6534 23.0493H93.3334C93.6854 23.0493 94.0054 23.1347 94.2934 23.3053C94.5921 23.476 94.8268 23.7107 94.9974 24.0093C95.1681 24.2973 95.2534 24.6173 95.2534 24.9693V34.5693H93.9574V30.3613H85.0294V34.5693H83.7334ZM85.0294 29.0653H93.9574V24.9693C93.9574 24.7987 93.8934 24.6547 93.7654 24.5373C93.6481 24.4093 93.5041 24.3453 93.3334 24.3453H85.6534C85.4828 24.3453 85.3334 24.4093 85.2054 24.5373C85.0881 24.6547 85.0294 24.7987 85.0294 24.9693V29.0653ZM98.9964 34.5693C98.6444 34.5693 98.3191 34.484 98.0204 34.3133C97.7324 34.1427 97.5031 33.9133 97.3324 33.6253C97.1618 33.3267 97.0764 33.0013 97.0764 32.6493V24.9693C97.0764 24.6173 97.1618 24.2973 97.3324 24.0093C97.5031 23.7107 97.7324 23.476 98.0204 23.3053C98.3191 23.1347 98.6444 23.0493 98.9964 23.0493H108.564V24.3453H98.9964C98.8258 24.3453 98.6764 24.4093 98.5484 24.5373C98.4311 24.6547 98.3724 24.7987 98.3724 24.9693V32.6493C98.3724 32.82 98.4311 32.9693 98.5484 33.0973C98.6764 33.2147 98.8258 33.2733 98.9964 33.2733H108.564V34.5693H98.9964ZM114.777 34.5693V24.3453H109.657V23.0493H121.177V24.3453H116.073V34.5693H114.777ZM128.621 34.5693C128.269 34.5693 127.943 34.484 127.645 34.3133C127.357 34.1427 127.127 33.9133 126.957 33.6253C126.786 33.3267 126.701 33.0013 126.701 32.6493V23.0493H127.997V32.6493C127.997 32.82 128.055 32.9693 128.173 33.0973C128.301 33.2147 128.45 33.2733 128.621 33.2733H136.301C136.471 33.2733 136.615 33.2147 136.733 33.0973C136.861 32.9693 136.925 32.82 136.925 32.6493V23.0493H138.221V32.6493C138.221 33.0013 138.135 33.3267 137.965 33.6253C137.794 33.9133 137.559 34.1427 137.261 34.3133C136.973 34.484 136.653 34.5693 136.301 34.5693H128.621ZM141.823 34.5693C141.471 34.5693 141.145 34.484 140.847 34.3133C140.559 34.1427 140.329 33.9133 140.159 33.6253C139.988 33.3267 139.903 33.0013 139.903 32.6493V32.2013H141.199V32.6493C141.199 32.82 141.257 32.9693 141.375 33.0973C141.503 33.2147 141.652 33.2733 141.823 33.2733H149.503C149.673 33.2733 149.817 33.2147 149.935 33.0973C150.063 32.9693 150.127 32.82 150.127 32.6493V30.0733C150.127 29.9027 150.063 29.7587 149.935 29.6413C149.817 29.524 149.673 29.4653 149.503 29.4653H141.823C141.471 29.4653 141.145 29.38 140.847 29.2093C140.559 29.028 140.329 28.7933 140.159 28.5053C139.988 28.2173 139.903 27.8973 139.903 27.5453V24.9693C139.903 24.6173 139.988 24.2973 140.159 24.0093C140.329 23.7107 140.559 23.476 140.847 23.3053C141.145 23.1347 141.471 23.0493 141.823 23.0493H149.503C149.855 23.0493 150.175 23.1347 150.463 23.3053C150.761 23.476 150.996 23.7107 151.167 24.0093C151.337 24.2973 151.423 24.6173 151.423 24.9693V25.4173H150.127V24.9693C150.127 24.7987 150.063 24.6547 149.935 24.5373C149.817 24.4093 149.673 24.3453 149.503 24.3453H141.823C141.652 24.3453 141.503 24.4093 141.375 24.5373C141.257 24.6547 141.199 24.7987 141.199 24.9693V27.5453C141.199 27.716 141.257 27.86 141.375 27.9773C141.503 28.0947 141.652 28.1533 141.823 28.1533H149.503C149.855 28.1533 150.175 28.244 150.463 28.4253C150.761 28.596 150.996 28.8253 151.167 29.1133C151.337 29.4013 151.423 29.7213 151.423 30.0733V32.6493C151.423 33.0013 151.337 33.3267 151.167 33.6253C150.996 33.9133 150.761 34.1427 150.463 34.3133C150.175 34.484 149.855 34.5693 149.503 34.5693H141.823Z" fill="white"/>
</g>
<defs>
<clipPath id="clip0_1_2729">
<rect width="183.273" height="56" fill="white" transform="translate(0.672607 0.569336)"/>
</clipPath>
</defs>
</svg>
