<svg width="228" height="141" viewBox="0 0 228 141" fill="none" xmlns="http://www.w3.org/2000/svg">
<g clip-path="url(#clip0_1_2358)">
<path d="M68.7876 68.6852C68.6245 70.147 68.3595 71.6215 67.9545 73.0791C67.8393 73.5397 67.6944 74.0382 67.3968 74.4184C67.0694 74.8367 66.6192 75.0986 66.1266 75.2972C64.5213 75.9773 62.7342 76.0279 60.9857 75.8334C60.2133 75.7236 59.4028 75.5841 58.7582 75.1151C57.9227 74.4982 57.5208 73.4842 57.2249 72.4913C56.6922 70.7041 56.355 68.824 56.2257 66.9523C56.5731 67.5269 57.3794 67.6326 58.0373 67.6537C61.5687 67.7638 65.0703 67.9118 68.6016 68.0219L68.7876 68.6852Z" fill="black"/>
<path d="M75.0057 59.3307C75.0057 59.3307 72.5125 60.6361 71.3638 62.7697C70.2491 64.899 68.8785 68.0212 68.7417 68.8619C68.6006 69.6689 67.6182 71.1983 62.479 70.3615C57.3398 69.5246 56.7596 68.4641 56.3916 67.4459C56.0236 66.4276 53.2842 57.4325 52.6672 55.2439C52.0501 53.0554 50.7695 48.5811 50.7695 48.5811L70.9864 55.5745C70.9864 55.5745 71.7497 56.166 72.5292 57.442C73.2662 58.6546 75.0057 59.3307 75.0057 59.3307Z" fill="url(#paint0_linear_1_2358)"/>
<path d="M71.3828 55.7314C71.3828 55.7314 71.7376 57.1975 72.3265 58.051C72.9154 58.9045 75.1556 59.7243 75.1556 59.7243L90.7515 65.6105L91.153 63.5699L71.3828 55.7314Z" fill="url(#paint1_linear_1_2358)"/>
<path d="M96.0959 56.4339C96.0959 56.4339 91.0117 55.7618 85.326 54.1349C79.6402 52.508 76.42 51.2952 74.9316 50.1417C73.4092 48.9924 72.1343 46.7827 70.302 45.6376C68.5419 44.5179 66.4842 43.7784 62.9318 43.4994C59.3752 43.1865 55.1727 43.5032 53.7246 44.0608C52.3104 44.6142 51.1764 45.2014 50.8438 46.4097C50.4773 47.6223 50.2981 48.3997 51.3233 49.9883C52.3485 51.577 52.732 53.8289 57.5109 54.2643C61.7636 54.6279 65.1216 54.176 69.271 55.6508C72.3767 56.7748 75.8248 58.9889 80.4028 60.5819C84.9807 62.175 91.0898 64.7103 91.0898 64.7103L96.0959 56.4339Z" fill="url(#paint2_radial_1_2358)"/>
<path d="M53.881 41.4332C53.9592 43.4486 54.2124 44.6527 54.2124 44.6527C54.2124 44.6527 54.9039 44.9443 55.7995 44.9359C57.4167 44.9064 57.464 44.4543 57.464 44.4543C57.464 44.4543 57.7937 42.1137 57.7986 41.5982C57.8381 40.5293 56.9988 39.604 55.925 39.5659C54.8511 39.5278 53.8484 40.339 53.881 41.4332Z" fill="url(#paint3_radial_1_2358)"/>
<path d="M72.9917 60.3368C72.9794 59.9608 72.1174 60.2396 70.6039 62.2126C69.0266 64.2278 67.8149 65.8544 67.35 67.6626C66.9748 69.0822 66.9611 69.8047 67.696 69.3357C68.4309 68.8668 68.3042 68.4021 68.9896 66.7036C69.8498 64.4687 70.5644 63.2815 71.3125 62.3647C72.0607 61.4479 73.0127 60.5058 72.9917 60.3368Z" fill="#211915"/>
<path d="M70.7314 57.6999C69.1335 59.2715 63.9672 63.2089 63.9672 63.2089C63.9672 63.2089 62.8672 63.7919 62.9151 62.7906C62.963 61.7893 63.0829 57.484 63.1641 57.0277C63.2453 56.5714 62.78 55.325 64.991 55.6336C67.2021 55.9421 67.5883 55.9971 68.4202 56.0309C69.2521 56.0648 69.6894 55.9761 70.126 56.4366C70.5626 56.8972 70.9779 57.4633 70.7314 57.6999Z" fill="#211915"/>
<path d="M59.5329 56.1065L59.2902 63.5847C59.2902 63.5847 59.3992 64.7382 58.7028 64.962C58.0022 65.1521 57.1318 65.3633 56.6276 64.6366C56.1233 63.9099 54.6428 59.7693 54.2583 58.3413C53.8399 56.9174 52.7908 54.0275 53.0499 53.8923C53.275 53.7613 52.9865 53.6599 54.0596 54.2472C55.1328 54.8346 56.4356 55.0501 57.3015 55.0797C58.0994 55.1178 59.5724 55.0376 59.5329 56.1065Z" fill="#211915"/>
<path d="M57.5129 63.7026C57.5388 63.3562 57.7578 57.906 57.8588 55.1133C58.6568 55.1514 59.5692 55.2782 59.5342 56.1062L59.2916 63.5844C59.2916 63.5844 59.3795 64.5689 58.8655 64.873C58.1484 64.6533 57.4912 64.0829 57.5129 63.7026Z" fill="#F7F7F8"/>
<path d="M70.0287 47.0449C70.2276 47.5351 69.2918 49.1616 67.1644 49.8037C64.8417 50.5387 61.1616 50.6188 57.9456 49.4398C55.6673 48.5905 54.8969 46.8329 55.2838 46.3386C56.7973 44.3656 59.1032 43.4954 62.0572 43.6772C65.8092 43.8971 68.8434 44.4465 70.0287 47.0449Z" fill="black"/>
<path d="M67.8646 46.0094L68.171 38.489C68.171 38.489 67.9227 36.7694 63.224 36.7015C58.5253 36.6337 57.8017 38.3025 57.8017 38.3025L57.4869 45.7553C57.4869 45.7553 56.3809 47.6776 62.5946 48.0033C67.9001 48.236 67.8646 46.0094 67.8646 46.0094Z" fill="url(#paint4_linear_1_2358)"/>
<path d="M114.244 37.0845C113.925 44.7782 90.9379 50.1764 64.1473 49.1145C37.3567 48.0525 15.8877 40.9745 16.2071 33.2809C16.5264 25.5872 38.52 20.2438 65.3106 21.3058C92.1013 22.3677 114.564 29.3908 114.244 37.0845Z" fill="url(#paint5_radial_1_2358)"/>
<path d="M110.827 31.7774C104.288 26.8929 88.9655 22.9291 70.9742 21.631L62.9569 34.8125L110.827 31.7774Z" fill="url(#paint6_radial_1_2358)"/>
<path d="M66.1612 37.8464C66.1612 37.8464 66.6046 32.8145 66.1318 30.6766C65.8405 29.4429 64.7172 28.1754 63.5289 28.0485C62.3745 27.9175 60.8585 28.4836 60.3127 30.4735C59.7498 32.6029 59.8792 37.8038 59.8792 37.8038C59.8792 37.8038 60.8624 39.0545 62.8743 39.1475C64.8861 39.2406 66.1612 37.8464 66.1612 37.8464Z" fill="#262626"/>
<path d="M18.1016 37.4043C23.3964 42.821 39.0661 47.3595 58.3858 48.8013L63.8738 35.2479C63.8738 35.2479 62.4263 35.2562 61.5142 34.8548C60.7506 34.5379 60.2037 34.0224 60.2037 34.0224L18.1016 37.4043Z" fill="url(#paint7_radial_1_2358)"/>
<path d="M157.035 72.2306C157.08 73.7009 157.231 75.1923 157.484 76.671C157.577 77.14 157.674 77.6428 157.932 78.0569C158.229 78.5005 158.645 78.792 159.124 79.0413C160.672 79.8442 162.455 80.0344 164.208 79.988C164.997 79.9585 165.812 79.8571 166.488 79.4642C167.35 78.9108 167.848 77.9222 168.214 76.9843C168.891 75.2183 169.39 73.4058 169.677 71.551C169.264 72.1172 168.471 72.1129 167.813 72.0917C164.277 71.9479 160.771 71.766 157.236 71.6222L157.035 72.2306Z" fill="black"/>
<path d="M152.069 62.2758C152.069 62.2758 154.066 63.9152 155.027 66.0954C155.988 68.2755 157.083 71.5373 157.15 72.3527C157.217 73.1681 158.072 74.7779 163.294 74.3345C168.485 73.9292 169.153 72.9195 169.613 71.9013C170.072 70.8831 173.538 62.1461 174.343 60.0209C175.148 57.8958 176.775 53.5062 176.775 53.5062L155.074 58.7101C155.074 58.7101 155.09 59.6692 154.206 60.8775C153.33 62.1534 152.069 62.2758 152.069 62.2758Z" fill="url(#paint8_linear_1_2358)"/>
<path d="M155.61 59.1248C155.61 59.1248 155.133 60.557 154.474 61.3597C153.816 62.1624 151.514 62.7918 151.514 62.7918L135.464 67.3962L135.241 65.3302L155.61 59.1248Z" fill="url(#paint9_linear_1_2358)"/>
<path d="M130.893 57.8385C130.893 57.8385 136.034 57.5768 141.821 56.4111C147.608 55.2453 150.907 54.3202 152.504 53.2978C154.101 52.2755 155.598 50.1673 157.509 49.1745C159.386 48.186 161.454 47.62 165.041 47.6202C168.628 47.6204 172.774 48.2374 174.17 48.922C175.531 49.6107 176.613 50.2656 176.87 51.5036C177.128 52.7415 177.258 53.5147 176.102 55.0314C174.945 56.5481 174.391 58.745 169.569 58.7955C165.295 58.8121 161.997 58.0895 157.726 59.2384C154.554 60.079 150.94 62.073 146.222 63.2431C141.509 64.4469 135.212 66.4999 135.212 66.4999L130.893 57.8385Z" fill="url(#paint10_radial_1_2358)"/>
<path d="M174.222 46.273C173.986 48.2587 173.615 49.4375 173.615 49.4375C173.615 49.4375 172.889 49.6994 172.015 49.6022C170.406 49.4246 170.386 48.981 170.386 48.981C170.386 48.981 170.266 46.6277 170.27 46.1122C170.31 45.0433 171.241 44.2068 172.314 44.2449C173.422 44.2788 174.363 45.1914 174.222 46.273Z" fill="url(#paint11_radial_1_2358)"/>
<path d="M153.578 63.5651C153.634 63.1806 154.47 63.5229 155.8 65.6228C157.202 67.748 158.278 69.4676 158.577 71.3182C158.826 72.7631 158.812 73.4856 158.091 72.9574C157.371 72.4293 157.558 71.9941 157.025 70.2069C156.362 67.9212 155.756 66.6579 155.087 65.7114C154.451 64.7608 153.565 63.7383 153.578 63.5651Z" fill="#211915"/>
<path d="M156.071 61.1612C157.559 62.864 162.337 67.178 162.337 67.178C162.337 67.178 163.385 67.8371 163.399 66.84C163.413 65.8429 163.707 61.5504 163.648 61.0772C163.593 60.6378 164.168 59.4337 161.939 59.5392C159.711 59.6447 159.337 59.6911 158.505 59.6573C157.673 59.6234 157.245 59.5051 156.782 59.9403C156.318 60.3754 155.864 60.8782 156.071 61.1612Z" fill="#211915"/>
<path d="M167.396 60.4392L167.018 67.9342C167.018 67.9342 166.817 69.0919 167.504 69.3496C168.192 69.6074 169.053 69.8778 169.623 69.1892C170.192 68.5006 172.005 64.4996 172.525 63.1307C173.044 61.7619 174.317 58.9608 174.088 58.7833C173.859 58.6059 174.165 58.5679 173.052 59.0494C171.939 59.531 170.611 59.6619 169.779 59.6281C168.913 59.5985 167.436 59.3702 167.396 60.4392Z" fill="#211915"/>
<path d="M168.77 68.1626C168.796 67.8161 169.015 62.3659 169.116 59.5732C168.318 59.5351 167.392 59.5816 167.362 60.4435L166.983 67.9385C166.983 67.9385 166.825 68.8849 167.321 69.2694C168.022 69.0793 168.752 68.5766 168.77 68.1626Z" fill="#F7F7F8"/>
<path d="M157.648 50.5654C157.393 51.009 158.193 52.7287 160.259 53.5357C162.512 54.4569 166.145 54.8289 169.478 53.8996C171.809 53.2322 172.737 51.538 172.398 51.031C171.034 48.9353 168.836 47.9043 165.895 47.8239C162.13 47.7772 159.061 48.0559 157.648 50.5654Z" fill="black"/>
<path d="M159.888 49.7036L160.195 42.1832C160.195 42.1832 160.57 40.489 165.299 40.7934C170.027 41.0979 170.585 42.8133 170.585 42.8133L170.27 50.2661C170.27 50.2661 171.21 52.2772 164.979 52.091C159.682 51.9259 159.888 49.7036 159.888 49.7036Z" fill="url(#paint12_linear_1_2358)"/>
<path d="M212.892 35.8354C206.34 31.1242 191.03 27.2617 173.039 25.9637L165.035 38.6973L212.892 35.8354Z" fill="url(#paint13_radial_1_2358)"/>
<path d="M216.33 41.0029C216.011 48.422 193.037 53.647 166.246 52.5851C139.456 51.5231 117.974 44.6183 118.293 37.1993C118.612 29.7802 140.593 24.6101 167.383 25.672C194.174 26.734 216.611 33.5543 216.33 41.0029Z" fill="url(#paint14_radial_1_2358)"/>
<path d="M162.272 41.7178C162.272 41.7178 162.231 36.6774 162.9 34.5692C163.301 33.3524 164.499 32.1737 165.705 32.1611C166.838 32.1231 168.336 32.795 168.694 34.8441C169.065 36.9947 168.536 42.1744 168.536 42.1744C168.536 42.1744 167.478 43.3701 165.432 43.2812C163.42 43.1882 162.272 41.7178 162.272 41.7178Z" fill="black"/>
<path d="M120.203 41.1836C125.477 46.4313 141.168 50.8642 160.483 52.2721L165.92 39.137C165.92 39.137 164.473 39.1454 163.565 38.7777C162.801 38.4608 162.258 37.9792 162.258 37.9792L120.203 41.1836Z" fill="url(#paint15_radial_1_2358)"/>
<path d="M138.774 71.8238C138.676 68.8156 135.771 59.8754 133.078 57.9106C130.351 55.9501 129.456 55.6839 127.914 53.5417C126.371 51.3996 125.227 49.963 122.014 49.3671C118.518 48.7036 116.747 49.4387 113.856 49.2146C110.957 49.1975 109.261 48.3102 105.724 48.7156C102.456 49.0534 101.244 50.4053 99.4931 52.4079C97.78 54.44 96.8374 54.6258 93.9829 56.3537C91.1284 58.0815 87.4844 66.7721 87.1326 69.7676C86.7809 72.7631 87.1314 81.1286 87.9997 82.5651C88.8681 84.0016 91.3621 85.4763 92.2305 86.9128C93.0989 88.3494 93.7729 89.055 94.2004 89.9972C94.628 90.9394 96.4952 91.2564 96.4952 91.2564L112.093 91.891L127.691 92.5256C127.691 92.5256 129.568 92.3609 130.078 91.4737C130.584 90.5527 131.298 89.9147 132.302 88.5543C133.305 87.1939 135.904 85.9097 136.908 84.5493C137.839 83.1636 138.877 74.8658 138.774 71.8238Z" fill="black"/>
<path d="M138.773 71.8238C138.748 71.3463 138.672 70.7379 138.516 70.0366C137.506 73.8348 134.933 77.278 131.692 79.5001C130.269 80.5352 130.623 82.5505 130.107 84.2278C130.094 84.6757 129.461 85.1319 128.96 85.2629C128.009 85.3811 126.795 85.3261 126.128 85.7866C121.617 88.3382 116.896 89.1999 112.147 88.4518C107.329 88.8107 102.764 87.5936 98.4674 84.6612C97.8568 84.188 96.6429 84.133 95.6881 83.9428C95.2172 83.7611 94.6405 83.2837 94.6496 82.802C94.2654 81.0994 94.8112 79.1094 93.4628 77.9728C90.4309 75.501 88.1476 71.8379 87.4605 67.9762C87.2687 68.6522 87.1405 69.2859 87.0593 69.7422C86.7076 72.7377 87.0581 81.1032 87.9264 82.5397C88.7948 83.9763 91.2888 85.4509 92.1572 86.8875C93.0256 88.324 93.6996 89.0296 94.1271 89.9718C94.5547 90.914 96.4219 91.231 96.4219 91.231L112.02 91.8656L127.618 92.5002C127.618 92.5002 129.494 92.3355 130.005 91.4483C130.511 90.5273 131.225 89.8893 132.228 88.529C133.232 87.1686 135.831 85.8843 136.835 84.5239C137.838 83.1635 138.875 74.8657 138.773 71.8238Z" fill="#404040"/>
<path d="M127.51 55.3078C127.045 53.7868 126.037 51.7841 124.961 50.3391C124.21 49.849 123.272 49.5194 122.012 49.3672C123.152 50.2207 124.03 51.4502 124.605 52.7515C125.38 54.543 125.518 56.2076 125.554 58.1596C125.545 58.3666 125.65 58.937 125.709 59.1355C125.777 59.4017 125.947 59.6552 126.116 59.9087C126.828 60.9185 127.574 61.9241 128.286 62.9339C128.613 62.5157 128.541 61.9411 128.478 61.4341C128.12 59.1103 128.199 57.5217 127.51 55.3078Z" fill="#08D7FC"/>
<path d="M120.985 52.4814C120.385 53.7573 120.621 54.5516 120.709 55.8107C120.804 57.6866 122.233 59.1907 123.254 60.7456C125.093 63.606 125.767 67.0916 125.67 70.4674C125.572 73.8431 124.745 77.1724 123.807 80.4467C123.492 81.5156 123.146 82.6225 122.538 83.5562C121.896 84.4941 120.957 85.263 119.802 85.4066C119.364 83.2645 120.266 81.0929 121.045 79.0396C122.183 75.9808 122.997 72.8248 123.46 69.6096C123.691 68.1393 123.849 66.6437 123.529 65.1734C123.199 63.6355 122.403 62.2243 121.577 60.8511C120.751 59.4779 119.955 58.0668 119.66 56.5246C119.365 54.9825 119.202 52.8404 120.591 52.0842C120.786 51.9913 121.172 52.0462 120.985 52.4814Z" fill="#08D7FC"/>
<path d="M128.715 55.8446C129.796 57.598 131.135 59.2162 132.185 61.0077C133.248 62.9005 133.955 64.975 134.627 67.0538C133.762 63.1456 132.255 59.3515 130.205 55.8996C129.37 55.2827 128.742 54.6743 127.912 53.5419C127.581 53.1025 127.285 52.6589 126.992 52.249C127.424 53.4996 128.021 54.6953 128.715 55.8446Z" fill="#08D7FC"/>
<path d="M138.75 73.0277C138.763 72.5799 138.78 72.1658 138.738 71.8278C138.705 71.2828 138.617 70.573 138.444 69.7364C138.151 69.3266 137.825 68.921 137.473 68.5872C137.198 68.3125 136.786 68.0548 136.421 68.1689C136.302 68.5956 136.178 68.9885 136.059 69.4152C136.037 69.5208 136.016 69.6264 135.995 69.7321C136.02 69.9349 136.143 70.0912 136.266 70.2475C136.762 70.9067 137.16 71.6123 137.685 72.2334C137.999 72.5376 138.381 72.8333 138.75 73.0277Z" fill="#08D7FC"/>
<path d="M99.6764 54.17C100.285 52.6871 101.429 50.7944 102.637 49.4086C103.448 48.9989 104.412 48.7074 105.685 48.6863C104.47 49.4552 103.509 50.6044 102.837 51.8549C101.914 53.5829 101.636 55.2306 101.464 57.1741C101.455 57.3811 101.285 57.9515 101.204 58.1331C101.102 58.4204 100.919 58.6148 100.706 58.8471C99.8944 59.8062 99.0783 60.7314 98.3004 61.6862C98.0038 61.2425 98.1064 60.6806 98.2471 60.1483C98.7634 57.9218 98.8079 56.3374 99.6764 54.17Z" fill="#08D7FC"/>
<path d="M106.428 51.889C106.935 53.1988 106.62 53.993 106.428 55.2183C106.175 57.0688 104.624 58.463 103.497 59.9416C101.418 62.6371 100.463 66.0508 100.264 69.4392C100.065 72.8276 100.625 76.2245 101.279 79.5412C101.485 80.6481 101.764 81.7804 102.298 82.7438C102.836 83.7409 103.734 84.5902 104.867 84.8268C105.469 82.727 104.741 80.4835 104.167 78.3583C103.296 75.2403 102.757 72.0123 102.527 68.7802C102.41 67.2846 102.395 65.7763 102.804 64.3525C103.235 62.823 104.175 61.5049 105.08 60.191C105.986 58.8771 106.926 57.5589 107.356 56.0295C107.787 54.5001 108.146 52.3961 106.797 51.5341C106.679 51.4116 106.271 51.4623 106.428 51.889Z" fill="#08D7FC"/>
<path d="M98.4561 54.6299C97.2146 56.2945 95.7442 57.7816 94.579 59.5053C93.3544 61.3051 92.469 63.3373 91.6515 65.361C92.8278 61.5079 94.6532 57.883 97.0045 54.6045C97.8668 54.0511 98.5891 53.4807 99.4945 52.4415C99.8558 52.019 100.183 51.6007 100.519 51.2501C99.936 52.3866 99.2512 53.5357 98.4561 54.6299Z" fill="#08D7FC"/>
<path d="M87.0013 70.9507C87.0146 70.5029 87.066 70.0846 87.0961 69.772C87.1689 69.2481 87.3226 68.5425 87.5656 67.7229C87.8971 67.3384 88.2287 66.954 88.6408 66.6625C88.9552 66.4174 89.3417 66.1978 89.7405 66.3541C89.8291 66.7893 89.9135 67.1907 90.0021 67.6258C90.0147 67.7272 90.0273 67.8286 90.0441 67.9638C89.9972 68.1413 89.8782 68.2934 89.7591 68.4455C89.2151 69.0623 88.7813 69.734 88.1609 70.2917C87.7744 70.5114 87.392 70.7648 87.0013 70.9507Z" fill="#08D7FC"/>
<path d="M129.918 66.3686C129.918 66.3686 133.374 72.5288 145.37 75.808C157.365 79.0873 167.758 81.1243 173.525 82.2949C179.292 83.4656 184.313 86.6853 185.618 88.5823C186.923 90.4794 187.514 93.2891 187.237 94.6622C186.959 96.0353 187.52 98.6083 184.048 98.6969C180.542 98.7896 170.498 99.558 165.013 96.7734C159.529 93.9889 159.14 92.527 155.717 90.5157C152.298 88.5383 129.666 77.9323 129.666 77.9323C129.666 77.9323 128.185 74.6156 128.554 70.9315C128.924 67.2473 129.918 66.3686 129.918 66.3686Z" fill="url(#paint16_radial_1_2358)"/>
<path d="M162.472 109.858C162.472 109.858 162.004 110.26 161.915 110.374C161.826 110.488 162.012 111.151 162.308 111.87C162.604 112.588 163.076 115 163.423 116.124C163.77 117.248 164.472 119.289 166.491 119.999C168.477 120.713 171.235 121.262 172.836 120.548C174.438 119.834 174.998 119.353 175.211 118.846C175.458 118.334 178.147 113.607 178.261 113.421C178.338 113.206 177.906 112.779 177.723 112.698C177.498 112.555 162.472 109.858 162.472 109.858Z" fill="black"/>
<path d="M162.622 84.2004C161.64 85.1805 161.549 86.6677 162.316 87.8423C163.121 89.0464 165.441 90.5084 168.505 91.0198C172.066 91.6411 174.829 91.4004 176.859 90.8048C178.854 90.2134 180.46 89.2587 180.436 87.9574C180.438 86.8589 179.755 85.811 178.835 85.0674C177.915 84.3237 175.497 83.1829 171.839 82.8827C168.18 82.5825 164.403 82.4344 162.622 84.2004Z" fill="black"/>
<path d="M152.777 85.4581L152.446 88.6226C152.446 88.6226 152.217 88.9944 152.636 89.5943C153.051 90.1605 154.4 91.0225 155.154 92.0957C155.875 93.1731 157.476 95.7884 158.237 97.7531C158.745 99.0628 160.75 105.198 161.342 106.909C161.985 108.751 162.297 110.428 162.779 111.261C163.228 112.097 164.013 112.858 164.899 113.331C166.155 113.999 169.816 115.156 173.492 115.043C175.619 114.95 176.248 114.734 177.089 114.286C177.67 113.974 178.003 113.04 178.003 113.04L184.541 97.6742C184.541 97.6742 176.17 98.5779 171.133 97.4538C166.13 96.3255 161.876 93.1818 160.38 91.6861C158.807 90.1312 152.777 85.4581 152.777 85.4581Z" fill="url(#paint17_radial_1_2358)"/>
<path d="M153.688 87.7827C153.688 87.7827 153.552 88.3488 153.81 88.7629C154.035 89.1812 155.4 90.1783 156.549 91.6487C157.663 93.1233 158.108 93.926 158.619 95.5442C159.131 97.1624 159.79 99.4144 159.985 100.145C160.179 100.876 160.246 101.692 160.467 101.802C160.721 101.907 160.755 102.178 160.481 100.255C160.208 98.3328 159.867 96.1443 159.673 94.8641C159.475 93.5501 159.342 91.6446 159.342 91.6446L153.688 87.7827Z" fill="#211915"/>
<path d="M160.633 94.5382C160.633 94.5382 162.556 104.733 162.843 105.933C163.13 107.133 163.324 107.864 164.295 108.464C165.267 109.064 167.786 110.467 168.729 110.556C169.671 110.644 170.24 109.956 170.377 109.115C170.518 108.308 169.996 101.337 170.048 100.644C170.152 99.2581 169.287 98.1299 168.23 97.9524C166.499 97.6186 165.982 97.3397 163.907 96.1904C161.833 95.0411 161.245 93.913 160.829 93.8961C160.481 93.8707 160.633 94.5382 160.633 94.5382Z" fill="#211915"/>
<path d="M170.082 100.64C170.185 99.254 169.321 98.1259 168.264 97.9484C167.029 97.7244 166.414 97.492 165.421 96.9976C165.347 99.1693 165.028 106.039 165.028 106.039C165.028 106.039 164.801 107.818 167.024 109.052C169.246 110.285 169.366 109.859 169.68 109.614C169.901 109.449 170.169 108.832 170.362 107.607C170.314 105.279 170.043 101.159 170.082 100.64Z" fill="#F7F7F8"/>
<path d="M182.314 99.4275C181.787 99.6303 180.653 100.492 180.206 101.612C179.758 102.731 176.491 112.233 176.218 113.091C175.912 113.953 175.35 115.533 175.927 115.461C176.504 115.389 177.181 113.623 177.364 113.154C177.547 112.685 181.597 102.537 181.878 101.747C182.121 100.927 183.137 99.1191 182.314 99.4275Z" fill="black"/>
<path d="M129.287 75.406C129.287 75.406 129.376 78.8958 131.416 80.5986C133.455 82.3014 132.085 81.5451 135.293 82.3818C138.535 83.2143 146.982 86.7975 149.044 87.5708C150.13 87.9849 151.016 88.7328 151.504 89.0497C152.03 89.3962 152.226 88.754 152.188 88.4498L152.569 85.4163L129.287 75.406Z" fill="#1A1A1A"/>
<path d="M184.114 87.2935C184.084 88.1554 183.26 91.7931 183.26 91.7931C183.26 91.7931 182.236 92.1606 180.976 92.0084C178.705 91.7759 178.694 91.1253 178.694 91.1253C178.694 91.1253 178.524 87.8171 178.567 87.0566C178.62 85.5399 179.916 84.3147 181.478 84.395C183.04 84.4754 184.167 85.7768 184.114 87.2935Z" fill="url(#paint18_radial_1_2358)"/>
<path d="M218.787 68.2582C212.27 62.7189 196.99 58.2692 178.991 56.9035L170.899 71.982L218.787 68.2582Z" fill="url(#paint19_radial_1_2358)"/>
<path d="M164.863 85.0198L165.599 76.2445C165.599 76.2445 166.284 75.0954 167.061 74.6898C167.843 74.3181 170.11 73.6929 172.483 73.9127C174.859 74.1663 176.573 74.9143 177.319 75.6452C178.065 76.3762 178.17 77.4958 178.17 77.4958L177.833 85.8781C177.833 85.8781 177.359 88.4427 170.492 87.855C165.195 87.4153 164.863 85.0198 164.863 85.0198Z" fill="url(#paint20_linear_1_2358)"/>
<path d="M168.052 75.1507C168.052 75.1507 167.995 69.4259 168.805 67.0599C169.29 65.6953 170.744 64.3476 172.191 64.3392C173.6 64.3013 175.42 65.0703 175.846 67.3857C176.323 69.8319 175.675 75.7131 175.675 75.7131C175.675 75.7131 174.357 77.0439 171.895 76.9381C169.434 76.8323 168.052 75.1507 168.052 75.1507Z" fill="#D8D9DD"/>
<path d="M222.162 74.3253C221.803 83.0878 198.76 89.4198 171.97 88.3579C145.179 87.2959 123.771 79.318 124.125 70.5216C124.484 61.759 146.504 55.52 173.295 56.5819C200.119 57.6396 222.551 65.5247 222.162 74.3253Z" fill="url(#paint21_radial_1_2358)"/>
<path d="M126.016 75.1943C131.267 81.3715 146.936 86.4593 166.23 87.9729L171.784 72.4548C171.784 72.4548 170.337 72.4632 169.455 72.0238C168.687 71.6731 168.131 71.09 168.131 71.09L126.016 75.1943Z" fill="url(#paint22_radial_1_2358)"/>
<path d="M96.3681 65.0147C96.3681 65.0147 92.4091 70.8957 80.1733 73.1723C67.9376 75.4488 57.4307 76.6524 51.5511 77.3492C45.7054 78.0418 40.4684 80.8553 38.9678 82.6551C37.5012 84.4506 36.6701 87.1968 36.8467 88.6164C37.019 90.0022 36.2306 92.5371 39.6895 92.8964C43.1824 93.2515 53.1383 94.828 58.8162 92.5088C64.494 90.1896 65.0391 88.7489 68.6194 87.0338C72.1998 85.3186 95.6364 76.6038 95.6364 76.6038C95.6364 76.6038 97.4146 73.4309 97.3301 69.7003C97.2795 65.9654 96.3681 65.0147 96.3681 65.0147Z" fill="url(#paint23_radial_1_2358)"/>
<path opacity="0.5" d="M96.1642 65.3153C95.1779 66.5363 90.7917 71.2004 80.2117 73.2025C75.5967 74.0852 71.2325 74.7652 67.2715 75.3607C64.8217 75.9056 60.3565 75.7744 58.6438 77.5319C59.2657 79.205 61.863 79.5685 62.8504 80.853C63.1313 83.6668 62.082 84.3808 59.8311 85.4158C57.576 86.417 55.0586 86.6957 52.6049 86.9321C53.1473 87.6884 54.1742 87.904 55.0782 87.9632C59.2419 88.1662 63.0522 85.8046 66.3619 83.2994C69.6673 80.7604 72.9349 77.9172 76.9473 76.9034C80.3228 76.0374 84.1042 76.494 87.1751 74.8422C89.0185 73.8578 90.8331 72.0877 92.8103 72.7342C93.4594 72.9624 94.104 73.4314 94.7664 73.2117C95.4289 72.9921 95.6802 72.24 95.8042 71.5725C96.1633 69.4685 96.3187 67.3898 96.1642 65.3153Z" fill="url(#paint24_linear_1_2358)"/>
<path d="M62.2845 80.1686C63.1746 81.2249 63.1558 82.7374 62.2927 83.8401C61.4 84.9808 58.9705 86.2439 55.8674 86.5268C52.2845 86.8351 49.5388 86.3871 47.583 85.6349C45.6611 84.8785 44.1132 83.8011 44.2294 82.5167C44.3368 81.4393 45.1105 80.4507 46.0579 79.7494C47.0096 79.0819 49.549 78.1484 53.2375 78.1359C56.854 78.0981 60.6655 78.2419 62.2845 80.1686Z" fill="black"/>
<path d="M60.2903 105.746C60.2903 105.746 60.7227 106.173 60.8074 106.3C60.8922 106.426 60.6622 107.073 60.3005 107.77C59.9389 108.467 59.2653 110.816 58.848 111.898C58.4307 112.979 57.5072 114.982 55.4691 115.51C53.4311 116.038 50.6462 116.384 49.0937 115.547C47.5752 114.707 47.0282 114.191 46.8591 113.663C46.69 113.135 44.353 108.208 44.2938 108.01C44.2347 107.811 44.7021 107.41 44.9016 107.351C45.0928 107.224 60.2903 105.746 60.2903 105.746Z" fill="black"/>
<path d="M71.9832 82.1878L72.0684 85.3693C72.0684 85.3693 72.2547 85.758 71.8041 86.2945C71.3535 86.8311 69.9264 87.5577 69.089 88.5885C68.2855 89.6152 66.453 92.074 65.5508 93.9709C64.9508 95.2469 62.4137 101.191 61.7198 102.822C60.9408 104.601 60.4549 106.24 59.9319 107.026C59.4088 107.812 58.5675 108.534 57.6502 108.923C56.3421 109.497 52.5846 110.342 48.9475 109.936C46.8467 109.683 46.2274 109.416 45.4045 108.901C44.8405 108.525 44.5869 107.595 44.5869 107.595L39.4068 91.7303C39.4068 91.7303 47.7073 93.3066 52.789 92.5718C57.8749 91.8707 62.3862 89.0445 63.9796 87.7137C65.6069 86.3787 71.9832 82.1878 71.9832 82.1878Z" fill="url(#paint25_radial_1_2358)"/>
<path d="M70.8889 84.4528C70.8889 84.4528 70.9603 85.0274 70.7009 85.4372C70.4415 85.847 68.9972 86.713 67.7561 88.103C66.515 89.4929 66.0217 90.2407 65.3915 91.8293C64.7614 93.4178 63.8928 95.5852 63.6372 96.3034C63.4156 97.0174 63.2746 97.8244 63.0113 97.9258C62.748 98.0272 62.6755 98.2764 63.1278 96.3668C63.5843 94.4909 64.0751 92.3362 64.3992 91.0603C64.7234 89.7844 65.0059 87.8958 65.0059 87.8958L70.8889 84.4528Z" fill="#211915"/>
<path d="M63.3784 90.6378C63.3784 90.6378 60.6198 100.625 60.2151 101.808C59.8104 102.991 59.5506 103.676 58.5483 104.212C57.5459 104.749 54.9 105.936 53.9704 105.949C53.0409 105.961 52.4985 105.205 52.4316 104.389C52.3647 103.574 53.4683 96.6409 53.4564 95.9903C53.4539 94.5833 54.4314 93.5694 55.4842 93.4385C57.2544 93.2527 57.7768 93.0161 59.93 92.0276C62.0833 91.0391 62.7425 89.9617 63.1584 89.9786C63.6084 89.9913 63.3784 90.6378 63.3784 90.6378Z" fill="#211915"/>
<path d="M53.487 95.9526C53.4845 94.5457 54.462 93.5317 55.5148 93.4008C56.7756 93.2784 57.4083 93.0967 58.4573 92.6574C58.3824 94.829 58.0641 101.699 58.0641 101.699C58.0641 101.699 58.151 103.507 55.8322 104.551C53.5133 105.594 53.4247 105.159 53.1194 104.922C52.9244 104.741 52.7045 104.081 52.5871 102.86C52.8531 100.562 53.4821 96.468 53.487 95.9526Z" fill="#F7F7F8"/>
<path d="M41.3879 93.7839C41.9012 94.029 42.9526 94.9966 43.2993 96.1204C43.6502 97.2781 46.1001 106.996 46.3155 107.896C46.5308 108.796 46.9703 110.388 46.4399 110.283C45.8712 110.147 45.3344 108.326 45.2077 107.862C45.0809 107.397 41.8848 96.9484 41.6439 96.1203C41.437 95.288 40.5777 93.3698 41.3879 93.7839Z" fill="black"/>
<path d="M96.2174 74.0604C96.2174 74.0604 95.8566 77.5375 93.6687 79.0795C91.5148 80.6173 92.9206 79.9963 89.6431 80.5411C86.3656 81.086 77.6223 83.9923 75.4908 84.6006C74.3911 84.9089 73.4395 85.5764 72.9255 85.8806C72.3775 86.189 72.2256 85.5214 72.2896 85.2046L72.1831 82.1288L96.2174 74.0604Z" fill="#1A1A1A"/>
<path d="M40.6207 81.523C40.5899 82.3849 41.1202 86.0944 41.1202 86.0944C41.1202 86.0944 42.1044 86.5212 43.3778 86.5001C45.6445 86.4242 45.7429 85.8285 45.7429 85.8285C45.7429 85.8285 46.1926 82.5119 46.2402 81.7852C46.293 80.2685 45.0934 78.9418 43.5697 78.891C42.0459 78.8402 40.6693 79.9724 40.6207 81.523Z" fill="url(#paint26_radial_1_2358)"/>
<path d="M59.9492 80.8023L59.9559 71.9805C59.9559 71.9805 59.3928 70.7806 58.6124 70.3285C57.8659 69.8722 55.6639 69.082 53.2911 69.1368C50.9183 69.1916 49.1306 69.7914 48.319 70.4758C47.5075 71.1602 47.2981 72.2503 47.2981 72.2503L46.961 80.6326C46.961 80.6326 47.2125 83.2098 54.1057 83.1764C59.4497 83.164 59.9492 80.8023 59.9492 80.8023Z" fill="url(#paint27_linear_1_2358)"/>
<path d="M100.334 64.1791C93.8167 58.6398 78.5374 54.1901 60.5377 52.8244L52.4459 67.9029L100.334 64.1791Z" fill="url(#paint28_radial_1_2358)"/>
<path d="M103.706 70.2123C103.347 78.9749 80.3039 85.3068 53.5133 84.2449C26.7227 83.1829 5.31425 75.205 5.6689 66.4086C6.02354 57.6123 28.0479 51.407 54.8386 52.4689C81.6292 53.5309 104.065 61.4497 103.706 70.2123Z" fill="url(#paint29_radial_1_2358)"/>
<path d="M57.6231 70.7251C57.6231 70.7251 58.1565 65.0299 57.544 62.6005C57.1977 61.202 55.8454 59.757 54.3812 59.6302C52.9849 59.4949 51.1292 60.1032 50.4813 62.3804C49.8161 64.7971 49.9617 70.6825 49.9617 70.6825C49.9617 70.6825 51.1399 72.1148 53.6356 72.2163C56.1313 72.3179 57.6231 70.7251 57.6231 70.7251Z" fill="#D8D9DD"/>
<path d="M7.56641 71.1152C12.8179 77.2924 28.4869 82.3802 47.781 83.8938L53.3351 68.3757C53.3351 68.3757 51.8877 68.3841 51.0053 67.9447C50.2375 67.594 49.6822 67.0109 49.6822 67.0109L7.56641 71.1152Z" fill="url(#paint30_radial_1_2358)"/>
<path opacity="0.5" d="M102.085 64.6477C100.181 70.4105 101.246 77.0395 104.882 81.8731C105.175 82.2829 105.497 82.6548 105.968 82.8365C106.511 83.0435 107.118 82.9337 107.704 82.9295C109.567 82.9381 111.284 84.5436 111.443 86.3773C111.428 85.1436 112.889 84.4128 114.149 84.2903C115.41 84.1678 116.798 84.2355 117.725 83.3652C118.404 82.7315 118.626 81.7429 119.192 81.0204C119.936 80.0699 121.193 79.639 121.937 78.6884C122.885 77.4379 123.06 76.0774 123.788 74.717C124.294 73.796 124.873 72.6257 125.917 72.7018C126.961 72.7779 127.906 73.7244 127.795 74.768C129.553 73.9315 130.637 72.9387 130.637 72.9387C130.637 72.9387 133.594 73.7036 134.268 74.4092C135.108 75.3345 137.367 74.6417 138.046 74.5573C135.773 72.9179 133.33 71.0249 132.85 68.2702C132.732 67.5984 132.745 66.876 132.559 66.2126C132.208 65.055 131.319 63.7241 130.394 62.9466C128.961 61.6833 125.214 57.8933 125.928 60.31C126.177 61.2057 125.674 63.259 124.381 65.0672C123.701 65.9756 122.134 66.9599 121.107 66.4697C120.776 66.3049 120.59 65.9162 120.255 65.7176C118.919 64.9571 116.613 65.278 114.453 65.6497C114.049 65.7342 113.845 65.7595 112.916 65.7722C112.538 65.7848 110.981 64.9144 110.633 64.889C106.686 64.4874 104.977 63.4987 102.152 65.4631" fill="url(#paint31_linear_1_2358)"/>
<path opacity="0.88" d="M132.411 57.8218C132.466 57.7119 132.488 57.6063 132.509 57.5007C130.24 55.8951 129.332 55.5274 127.908 53.5078C126.366 51.3657 125.222 49.9291 122.009 49.3332C118.513 48.6697 116.742 49.4048 113.851 49.1807C110.952 49.1636 109.256 48.2763 105.719 48.6817C102.451 49.0195 101.239 50.3714 99.488 52.374C98.6124 53.3752 97.958 53.9371 97.1594 54.4483C97.006 54.8792 96.9546 55.2975 97.1493 55.7538C97.4116 56.4763 98.1878 56.8946 98.922 56.9749C101.481 57.3089 103.509 54.7571 106.073 54.3009C108.468 53.8659 110.83 55.3912 113.267 55.2942C115.669 55.2014 117.84 53.5242 120.26 53.5666C124.16 53.5963 126.863 57.8595 130.725 58.409C131.328 58.54 132.105 58.409 132.411 57.8218Z" fill="url(#paint32_linear_1_2358)"/>
<path opacity="0.35" d="M70.6667 53.5554C69.4069 52.854 68.2946 53.061 67.157 53.0651C65.2975 53.365 63.2902 53.0311 61.423 52.7141C58.8471 52.245 56.1991 51.7506 54.1126 50.2252C52.5944 49.1098 51.51 47.3225 51.3891 45.5185C51.1808 45.7846 51.0107 46.0804 50.9126 46.4015C50.5461 47.614 50.3669 48.3914 51.3921 49.98C52.4173 51.5687 52.8008 53.8206 57.5797 54.256C61.8324 54.6196 65.1904 54.1677 69.3398 55.6425C72.4455 56.7665 75.8936 58.9806 80.4716 60.5736C84.4004 61.9385 89.4489 63.9879 90.798 64.5753C91.4951 63.8021 92.2177 62.9572 92.0902 63.0417C92.154 62.9994 92.1795 62.9276 92.2432 62.8854L93.3023 61.1405C93.3321 61.1025 93.3236 61.0349 93.3194 61.0011C85.5638 61.5879 77.5006 56.9273 70.6667 53.5554Z" fill="url(#paint33_linear_1_2358)"/>
<g opacity="0.7">
<path opacity="0.3" d="M158.548 55.8418C157.197 56.0784 156.008 56.7754 154.815 57.4387C151.332 59.382 147.633 60.9746 143.815 62.17C142.72 62.5122 141.624 62.8544 140.668 63.4881C140.065 63.9063 139.555 64.5189 139.291 65.1695C141.384 64.5317 143.945 63.7671 146.153 63.218C150.866 62.0141 154.485 60.0539 157.656 59.2133C158.824 58.8965 159.94 58.7234 161.031 58.622C163.316 57.5828 165.8 57.0337 168.283 57.0338C169.145 57.0296 170.181 57.0382 170.716 56.3537C167.486 56.1719 164.256 55.99 161.056 55.7702C160.258 55.7321 159.392 55.7025 158.548 55.8418Z" fill="url(#paint34_linear_1_2358)"/>
<path opacity="0.75" d="M151.165 57.4809C151.76 57.2697 152.439 56.9106 152.398 56.2979C152.368 56.0613 152.203 55.8416 152.076 55.6515C151.665 55.1191 151.292 54.6163 150.881 54.084C149.008 54.8317 146.1 55.5709 141.824 56.4114C139.773 56.838 137.808 57.1168 136.11 57.3279C136.546 57.7885 136.953 58.2871 137.165 58.8786C137.283 59.2757 137.334 59.6813 137.516 60.0362C137.825 60.5813 138.414 60.8855 139.013 60.9827C140.248 61.2067 141.509 60.8096 142.698 60.3872C145.543 59.4156 148.354 58.4482 151.165 57.4809Z" fill="url(#paint35_linear_1_2358)"/>
<path opacity="0.7" d="M153.936 54.802C155.987 54.1008 158.249 53.991 160.35 54.5193C159.786 53.594 158.649 53.0489 157.567 53.2178C157.261 53.2559 156.926 53.3319 156.667 53.1924C156.442 53.0488 156.336 52.753 156.303 52.4826C156.172 51.7094 156.109 50.9278 156.149 50.1335C154.929 51.1432 153.845 52.4107 152.703 53.2049C152.918 53.8302 153.372 54.426 153.936 54.802Z" fill="url(#paint36_linear_1_2358)"/>
<path opacity="0.5" d="M176.837 51.4739C176.605 50.4388 175.837 49.8135 174.798 49.2219C174.92 49.9275 174.673 50.7133 174.269 51.3471C173.631 52.3188 172.654 53.0581 172.164 54.1143C173.383 53.9285 174.559 53.4046 175.494 52.6019C175.531 53.73 175.156 54.875 174.476 55.7833C175.159 55.458 175.801 55.0693 176.392 54.5497C177.204 53.3161 177.077 52.5767 176.837 51.4739Z" fill="url(#paint37_linear_1_2358)"/>
</g>
<path opacity="0.5" d="M187.24 94.6628C187.432 93.7122 187.226 92.056 186.621 90.5181C186.268 91.0082 185.843 91.4729 185.367 91.8067C183.969 92.7699 182.25 93.0867 180.548 93.264C175.301 93.7792 169.928 93.0057 164.998 91.0788C164.743 90.9732 164.455 90.8718 164.187 90.9394C163.618 91.0788 163.482 91.9195 163.816 92.3927C164.151 92.866 164.762 93.0646 165.339 93.2674C169.429 94.5436 173.52 95.8197 177.751 96.2889C180.866 96.6567 184.096 96.5639 187.102 95.7782C187.154 95.36 187.175 94.9797 187.24 94.6628Z" fill="url(#paint38_linear_1_2358)"/>
<path opacity="0.56" d="M152.323 77.6208C152.331 77.6884 152.339 77.756 152.344 77.7898C152.423 78.7067 151.777 79.6108 150.873 79.8262C150.172 80.0163 149.264 79.9233 148.966 80.5781C148.638 81.271 149.444 81.9259 150.139 82.2513C153.372 83.8401 156.741 85.1373 160.207 86.1135C159.622 85.2938 160.061 84.1066 160.809 83.4644C161.557 82.8223 162.555 82.5266 163.425 82.0408C164.071 81.6859 164.729 81.1578 165.027 80.503C161.348 79.7592 157.02 78.7872 152.323 77.6208Z" fill="url(#paint39_linear_1_2358)"/>
</g>
<defs>
<linearGradient id="paint0_linear_1_2358" x1="106.546" y1="47.1423" x2="26.0735" y2="68.0397" gradientUnits="userSpaceOnUse">
<stop stop-color="#9A999E"/>
<stop offset="1"/>
</linearGradient>
<linearGradient id="paint1_linear_1_2358" x1="91.008" y1="64.3978" x2="67.326" y2="55.4631" gradientUnits="userSpaceOnUse">
<stop stop-color="#9A999E"/>
<stop offset="1"/>
</linearGradient>
<radialGradient id="paint2_radial_1_2358" cx="0" cy="0" r="1" gradientUnits="userSpaceOnUse" gradientTransform="translate(71.5097 47.6942) rotate(-170.723) scale(23.7357 11.3083)">
<stop offset="0.6378" stop-color="#4D4D4D"/>
<stop offset="1"/>
</radialGradient>
<radialGradient id="paint3_radial_1_2358" cx="0" cy="0" r="1" gradientUnits="userSpaceOnUse" gradientTransform="translate(56.436 40.6414) rotate(-177.699) scale(5.85025 5.82383)">
<stop stop-color="white"/>
<stop offset="1" stop-color="#F21700"/>
</radialGradient>
<linearGradient id="paint4_linear_1_2358" x1="57.5795" y1="42.1071" x2="68.0264" y2="42.543" gradientUnits="userSpaceOnUse">
<stop stop-color="white"/>
<stop offset="0.1654" stop-color="#F9F9F9"/>
<stop offset="0.3915" stop-color="#E7E7E8"/>
<stop offset="0.6526" stop-color="#CBCACD"/>
<stop offset="0.9379" stop-color="#A4A3A7"/>
<stop offset="1" stop-color="#9A999E"/>
</linearGradient>
<radialGradient id="paint5_radial_1_2358" cx="0" cy="0" r="1" gradientUnits="userSpaceOnUse" gradientTransform="translate(65.935 36.14) rotate(2.2782) scale(52.3189 17.2496)">
<stop offset="0.3622" stop-opacity="0"/>
<stop offset="1" stop-opacity="0.5"/>
</radialGradient>
<radialGradient id="paint6_radial_1_2358" cx="0" cy="0" r="1" gradientUnits="userSpaceOnUse" gradientTransform="translate(98.9433 22.9685) rotate(163.569) scale(69.0409 12.6535)">
<stop stop-opacity="0.6"/>
<stop offset="1" stop-opacity="0"/>
</radialGradient>
<radialGradient id="paint7_radial_1_2358" cx="0" cy="0" r="1" gradientUnits="userSpaceOnUse" gradientTransform="translate(20.796 50.15) rotate(-19.5907) scale(96.3751 16.3385)">
<stop offset="0.2083" stop-opacity="0.6"/>
<stop offset="0.9808" stop-opacity="0"/>
</radialGradient>
<linearGradient id="paint8_linear_1_2358" x1="122.064" y1="47.9927" x2="199.233" y2="75.0479" gradientUnits="userSpaceOnUse">
<stop stop-color="#9A999E"/>
<stop offset="1"/>
</linearGradient>
<linearGradient id="paint9_linear_1_2358" x1="135.312" y1="66.1592" x2="159.676" y2="59.2145" gradientUnits="userSpaceOnUse">
<stop stop-color="#9A999E"/>
<stop offset="1"/>
</linearGradient>
<radialGradient id="paint10_radial_1_2358" cx="0" cy="0" r="1" gradientUnits="userSpaceOnUse" gradientTransform="translate(156.144 51.1104) rotate(-4.66507) scale(23.7451 11.304)">
<stop offset="0.6378" stop-color="#4D4D4D"/>
<stop offset="1"/>
</radialGradient>
<radialGradient id="paint11_radial_1_2358" cx="0" cy="0" r="1" gradientUnits="userSpaceOnUse" gradientTransform="translate(173.572 45.0277) rotate(2.30071) scale(5.56318 5.53806)">
<stop stop-color="white"/>
<stop offset="1" stop-color="#F21700"/>
</radialGradient>
<linearGradient id="paint12_linear_1_2358" x1="160.047" y1="46.2246" x2="170.494" y2="46.6605" gradientUnits="userSpaceOnUse">
<stop stop-color="white"/>
<stop offset="0.2525" stop-color="#FCFCFC"/>
<stop offset="0.4413" stop-color="#F3F2F3"/>
<stop offset="0.6094" stop-color="#E3E2E4"/>
<stop offset="0.7654" stop-color="#CCCCCE"/>
<stop offset="0.9117" stop-color="#AFAFB2"/>
<stop offset="1" stop-color="#9A999E"/>
</linearGradient>
<radialGradient id="paint13_radial_1_2358" cx="0" cy="0" r="1" gradientUnits="userSpaceOnUse" gradientTransform="translate(201.006 27.3192) rotate(164.126) scale(68.8132 12.2853)">
<stop stop-opacity="0.6"/>
<stop offset="1" stop-opacity="0"/>
</radialGradient>
<radialGradient id="paint14_radial_1_2358" cx="0" cy="0" r="1" gradientUnits="userSpaceOnUse" gradientTransform="translate(168.008 40.0294) rotate(2.2782) scale(52.3189 16.6954)">
<stop offset="0.3622" stop-opacity="0"/>
<stop offset="1" stop-opacity="0.5"/>
</radialGradient>
<radialGradient id="paint15_radial_1_2358" cx="0" cy="0" r="1" gradientUnits="userSpaceOnUse" gradientTransform="translate(122.893 53.5299) rotate(-18.9525) scale(95.9525 15.8837)">
<stop offset="0.2083" stop-opacity="0.6"/>
<stop offset="0.9808" stop-opacity="0"/>
</radialGradient>
<radialGradient id="paint16_radial_1_2358" cx="0" cy="0" r="1" gradientUnits="userSpaceOnUse" gradientTransform="translate(162.375 75.4951) rotate(22.6941) scale(36.7042 15.7121)">
<stop offset="0.6378" stop-color="#4D4D4D"/>
<stop offset="1"/>
</radialGradient>
<radialGradient id="paint17_radial_1_2358" cx="0" cy="0" r="1" gradientUnits="userSpaceOnUse" gradientTransform="translate(160.772 98.9413) rotate(104.103) scale(36.211 22.4386)">
<stop stop-color="#9A999E"/>
<stop offset="1"/>
</radialGradient>
<radialGradient id="paint18_radial_1_2358" cx="0" cy="0" r="1" gradientUnits="userSpaceOnUse" gradientTransform="translate(182.086 86.3131) rotate(2.30071) scale(7.17285 7.14047)">
<stop stop-color="white"/>
<stop offset="1" stop-color="#F21700"/>
</radialGradient>
<radialGradient id="paint19_radial_1_2358" cx="0" cy="0" r="1" gradientUnits="userSpaceOnUse" gradientTransform="translate(206.951 58.2701) rotate(161.138) scale(70.1121 14.2351)">
<stop stop-color="white" stop-opacity="0.9"/>
<stop offset="1" stop-color="white" stop-opacity="0"/>
</radialGradient>
<linearGradient id="paint20_linear_1_2358" x1="164.597" y1="80.6286" x2="177.575" y2="81.1701" gradientUnits="userSpaceOnUse">
<stop stop-color="white"/>
<stop offset="0.2878" stop-color="#FCFCFC"/>
<stop offset="0.4726" stop-color="#F4F4F4"/>
<stop offset="0.6283" stop-color="#E5E5E6"/>
<stop offset="0.7679" stop-color="#D0D0D2"/>
<stop offset="0.8955" stop-color="#B6B5B9"/>
<stop offset="1" stop-color="#9A999E"/>
</linearGradient>
<radialGradient id="paint21_radial_1_2358" cx="0" cy="0" r="1" gradientUnits="userSpaceOnUse" gradientTransform="translate(173.869 73.5001) rotate(2.28946) scale(52.3206 19.7092)">
<stop offset="0.3622" stop-color="white" stop-opacity="0"/>
<stop offset="1" stop-color="white" stop-opacity="0.6"/>
</radialGradient>
<radialGradient id="paint22_radial_1_2358" cx="0" cy="0" r="1" gradientUnits="userSpaceOnUse" gradientTransform="translate(128.633 89.7608) rotate(-22.3445) scale(98.3836 18.2873)">
<stop offset="0.2083" stop-color="white"/>
<stop offset="0.9808" stop-color="white" stop-opacity="0"/>
</radialGradient>
<radialGradient id="paint23_radial_1_2358" cx="0" cy="0" r="1" gradientUnits="userSpaceOnUse" gradientTransform="translate(63.2664 71.5134) rotate(161.934) scale(36.7398 15.6966)">
<stop offset="0.6378" stop-color="#4D4D4D"/>
<stop offset="1"/>
</radialGradient>
<linearGradient id="paint24_linear_1_2358" x1="73.1846" y1="73.4377" x2="76.1522" y2="80.2194" gradientUnits="userSpaceOnUse">
<stop stop-color="white"/>
<stop offset="1" stop-color="white" stop-opacity="0"/>
</linearGradient>
<radialGradient id="paint25_radial_1_2358" cx="0" cy="0" r="1" gradientUnits="userSpaceOnUse" gradientTransform="translate(62.8936 94.9846) rotate(80.6752) scale(36.1855 22.4547)">
<stop stop-color="#9A999E"/>
<stop offset="1"/>
</radialGradient>
<radialGradient id="paint26_radial_1_2358" cx="0" cy="0" r="1" gradientUnits="userSpaceOnUse" gradientTransform="translate(44.1892 81.05) rotate(2.30071) scale(5.41959 5.39512)">
<stop stop-color="white"/>
<stop offset="1" stop-color="#F21700"/>
</radialGradient>
<linearGradient id="paint27_linear_1_2358" x1="46.9369" y1="75.9019" x2="59.9155" y2="76.4434" gradientUnits="userSpaceOnUse">
<stop stop-color="white"/>
<stop offset="0.2058" stop-color="#FBFBFB"/>
<stop offset="0.4021" stop-color="#F0F0F0"/>
<stop offset="0.5945" stop-color="#DDDCDE"/>
<stop offset="0.7845" stop-color="#C2C1C4"/>
<stop offset="0.9711" stop-color="#A09FA4"/>
<stop offset="1" stop-color="#9A999E"/>
</linearGradient>
<radialGradient id="paint28_radial_1_2358" cx="0" cy="0" r="1" gradientUnits="userSpaceOnUse" gradientTransform="translate(88.4838 54.1805) rotate(161.138) scale(70.1121 14.2351)">
<stop stop-color="white" stop-opacity="0.9"/>
<stop offset="1" stop-color="white" stop-opacity="0"/>
</radialGradient>
<radialGradient id="paint29_radial_1_2358" cx="0" cy="0" r="1" gradientUnits="userSpaceOnUse" gradientTransform="translate(55.3984 69.4115) rotate(2.28946) scale(52.3206 19.7092)">
<stop offset="0.3622" stop-color="white" stop-opacity="0"/>
<stop offset="1" stop-color="white" stop-opacity="0.6"/>
</radialGradient>
<radialGradient id="paint30_radial_1_2358" cx="0" cy="0" r="1" gradientUnits="userSpaceOnUse" gradientTransform="translate(10.1675 85.6637) rotate(-22.3445) scale(98.3836 18.2873)">
<stop offset="0.2083" stop-color="white"/>
<stop offset="0.9808" stop-color="white" stop-opacity="0"/>
</radialGradient>
<linearGradient id="paint31_linear_1_2358" x1="120.52" y1="59.9604" x2="117.901" y2="95.3822" gradientUnits="userSpaceOnUse">
<stop stop-color="white"/>
<stop offset="1" stop-color="white" stop-opacity="0"/>
</linearGradient>
<linearGradient id="paint32_linear_1_2358" x1="115.266" y1="47.9618" x2="114.781" y2="56.074" gradientUnits="userSpaceOnUse">
<stop stop-color="white"/>
<stop offset="1" stop-color="white" stop-opacity="0"/>
</linearGradient>
<linearGradient id="paint33_linear_1_2358" x1="68.5754" y1="57.5392" x2="79.9402" y2="45.881" gradientUnits="userSpaceOnUse">
<stop stop-color="white"/>
<stop offset="1" stop-color="white" stop-opacity="0"/>
</linearGradient>
<linearGradient id="paint34_linear_1_2358" x1="152.103" y1="52.2332" x2="155.739" y2="62.7319" gradientUnits="userSpaceOnUse">
<stop stop-color="white"/>
<stop offset="1" stop-color="white" stop-opacity="0"/>
</linearGradient>
<linearGradient id="paint35_linear_1_2358" x1="143.191" y1="54.6096" x2="150.992" y2="70.3087" gradientUnits="userSpaceOnUse">
<stop stop-color="white"/>
<stop offset="1" stop-color="white" stop-opacity="0"/>
</linearGradient>
<linearGradient id="paint36_linear_1_2358" x1="145.278" y1="57.4279" x2="189.249" y2="39.9437" gradientUnits="userSpaceOnUse">
<stop stop-color="white"/>
<stop offset="1" stop-color="white" stop-opacity="0"/>
</linearGradient>
<linearGradient id="paint37_linear_1_2358" x1="164.483" y1="51.6232" x2="185.191" y2="53.4361" gradientUnits="userSpaceOnUse">
<stop stop-color="white"/>
<stop offset="1" stop-color="white" stop-opacity="0"/>
</linearGradient>
<linearGradient id="paint38_linear_1_2358" x1="172.687" y1="87.2006" x2="182.052" y2="102.972" gradientUnits="userSpaceOnUse">
<stop stop-color="white"/>
<stop offset="1" stop-color="white" stop-opacity="0"/>
</linearGradient>
<linearGradient id="paint39_linear_1_2358" x1="161.129" y1="86.5512" x2="150.171" y2="71.3309" gradientUnits="userSpaceOnUse">
<stop stop-color="white"/>
<stop offset="1" stop-color="white" stop-opacity="0"/>
</linearGradient>
<clipPath id="clip0_1_2358">
<rect width="214" height="114" fill="white" transform="translate(0.726562 27.209) rotate(-7.08823)"/>
</clipPath>
</defs>
</svg>
