<svg width="132" height="32" viewBox="0 0 132 32" fill="none" xmlns="http://www.w3.org/2000/svg">
<path d="M2.32227 23.9053C1.4043 22.8311 1.05762 21.5469 1.28223 20.0527C1.5166 18.5586 2.16602 16.9668 3.23047 15.2773C4.30469 13.5879 5.65234 11.918 7.27344 10.2676C8.89453 8.61719 10.6426 7.10352 12.5176 5.72656C14.3926 4.33984 16.248 3.20703 18.084 2.32812C19.9199 1.43945 21.5898 0.921875 23.0938 0.775391C25.418 0.609375 27.0293 0.956055 27.9277 1.81543C28.8262 2.6748 29.1094 3.82227 28.7773 5.25781C28.4551 6.68359 27.6299 8.16797 26.3018 9.71094C26.1846 9.82812 26.0723 9.88672 25.9648 9.88672C25.8672 9.87695 25.8037 9.82324 25.7744 9.72559C25.7451 9.61816 25.7939 9.48633 25.9209 9.33008C27.0928 7.98242 27.8301 6.68848 28.1328 5.44824C28.4355 4.19824 28.1963 3.20215 27.415 2.45996C26.6436 1.71777 25.2227 1.4248 23.1523 1.58105C21.7168 1.71777 20.1152 2.21582 18.3477 3.0752C16.5898 3.9248 14.8076 5.01855 13.001 6.35645C11.2041 7.68457 9.52441 9.13965 7.96191 10.7217C6.39941 12.3037 5.0957 13.8955 4.05078 15.4971C3.00586 17.0986 2.35645 18.5928 2.10254 19.9795C1.84863 21.3662 2.13184 22.5283 2.95215 23.4658C3.80176 24.3154 5.03711 24.7109 6.6582 24.6523C8.28906 24.6035 10.0322 24.2471 11.8877 23.583C13.7432 22.9287 15.4277 22.123 16.9414 21.166C18.4648 20.2188 19.5391 19.2764 20.1641 18.3389C20.7207 17.4697 21.2773 16.6006 21.834 15.7314C22.1562 15.2529 22.2979 14.9795 22.2588 14.9111C22.2295 14.8428 21.9951 14.8965 21.5557 15.0723C21.4287 15.1113 21.2822 15.1602 21.1162 15.2188C19.6611 15.707 18.2354 16.2441 16.8389 16.8301C16.7412 16.8789 16.668 16.9229 16.6191 16.9619C16.5801 16.9912 16.5557 17.0254 16.5459 17.0645C16.5361 17.0938 16.5312 17.123 16.5312 17.1523C16.5215 17.1816 16.5068 17.2158 16.4873 17.2549C16.4775 17.2939 16.4434 17.3379 16.3848 17.3867C16.3359 17.4258 16.2578 17.4746 16.1504 17.5332C15.7109 17.6309 15.3008 17.6553 14.9199 17.6064C14.5488 17.5576 14.3242 17.46 14.2461 17.3135C14.168 17.167 14.3584 17.001 14.8174 16.8154C15.6963 16.4834 16.5801 16.1416 17.4688 15.79C19.0801 15.1455 20.7109 14.5352 22.3613 13.959C22.5078 13.9102 22.6299 13.8711 22.7275 13.8418C22.835 13.8125 22.9229 13.7832 22.9912 13.7539C23.0693 13.7148 23.1475 13.6611 23.2256 13.5928C23.3037 13.5146 23.4062 13.4023 23.5332 13.2559C23.7578 12.9922 23.9336 12.8213 24.0605 12.7432C24.1875 12.665 24.2852 12.6504 24.3535 12.6992C24.4316 12.7383 24.4951 12.8018 24.5439 12.8896C24.5928 12.9678 24.6465 13.0312 24.7051 13.0801C24.7734 13.1289 24.8662 13.1338 24.9834 13.0947C25.7354 12.8311 26.5068 12.626 27.2979 12.4795C27.6396 12.4014 27.9766 12.3232 28.3086 12.2451C28.5918 12.2158 28.7822 12.2402 28.8799 12.3184C28.9873 12.3965 29.0264 12.4941 28.9971 12.6113C28.9678 12.7188 28.8994 12.8066 28.792 12.875C28.6846 12.9336 28.5674 12.9287 28.4404 12.8604C27.5713 13.085 26.7119 13.3438 25.8623 13.6367C25.54 13.7441 25.2129 13.8516 24.8809 13.959C24.7051 14.0176 24.5781 14.0811 24.5 14.1494C24.4316 14.2178 24.3584 14.335 24.2803 14.501C24.0264 15.0381 23.7334 15.5459 23.4014 16.0244C22.6494 17.1279 21.7852 18.1387 20.8086 19.0566C20.4863 19.3887 20.1641 19.7988 19.8418 20.2871C19.5195 20.7754 19.2217 21.2588 18.9482 21.7373C18.8115 21.9521 18.6895 22.1523 18.582 22.3379C18.25 22.8652 17.9326 23.3975 17.6299 23.9346C17.5713 24.0518 17.5469 24.1348 17.5566 24.1836C17.5762 24.2422 17.6055 24.291 17.6445 24.3301C17.6738 24.3594 17.6934 24.3936 17.7031 24.4326C17.7227 24.4717 17.7275 24.5205 17.7178 24.5791C17.708 24.6475 17.6689 24.7305 17.6006 24.8281C17.4639 25.0332 17.293 25.165 17.0879 25.2236C16.8926 25.2822 16.707 25.2041 16.5312 24.9893C16.4629 24.7939 16.5361 24.4619 16.751 23.9932C16.9658 23.5342 17.2148 23.0703 17.498 22.6016C17.7812 22.1426 17.9863 21.8154 18.1133 21.6201C18.2402 21.4248 18.2891 21.3125 18.2598 21.2832C18.2402 21.2637 18.1719 21.2979 18.0547 21.3857C17.1465 22.0498 15.9844 22.7139 14.5684 23.3779C13.1621 24.0518 11.6729 24.5938 10.1006 25.0039C8.53809 25.4141 7.06348 25.5605 5.67676 25.4434C4.2998 25.3262 3.18164 24.8135 2.32227 23.9053ZM34.0508 16.5078C34.3145 16.3711 34.4707 16.3613 34.5195 16.4785C34.5684 16.5957 34.4756 16.7373 34.2412 16.9033C33.8701 17.1279 33.3916 17.3477 32.8057 17.5625C32.2295 17.7676 31.7119 17.8311 31.2529 17.7529C30.7939 17.665 30.5547 17.2939 30.5352 16.6396V16.5664C30.5449 16.4297 30.5352 16.3613 30.5059 16.3613C30.4766 16.3516 30.3936 16.3906 30.2568 16.4785C28.7432 17.4648 27.6299 18.0801 26.917 18.3242C26.2139 18.5684 25.7988 18.5781 25.6719 18.3535C25.5156 18.041 25.7109 17.5576 26.2578 16.9033C26.8047 16.2393 27.5078 15.6094 28.3672 15.0137C29.2363 14.418 30.0664 14.0615 30.8574 13.9443C31.6484 13.8174 32.2051 14.1299 32.5273 14.8818C32.5566 14.9795 32.542 15.0674 32.4834 15.1455C32.4248 15.2236 32.3467 15.2773 32.249 15.3066C32.1514 15.3359 32.0391 15.3164 31.9121 15.248C31.7949 15.1797 31.7119 15.0967 31.6631 14.999C31.6631 14.9795 31.668 14.96 31.6777 14.9404C31.6875 14.9209 31.6973 14.9014 31.707 14.8818C31.7168 14.8623 31.7266 14.8428 31.7363 14.8232C31.7461 14.8037 31.7461 14.7842 31.7363 14.7646C31.4922 14.4326 31.0723 14.3838 30.4766 14.6182C29.8809 14.8525 29.251 15.2188 28.5869 15.7168C27.9229 16.2148 27.3613 16.6885 26.9023 17.1377C26.4434 17.5771 26.2285 17.8457 26.2578 17.9434C26.2969 18.041 26.6826 17.8799 27.415 17.46C28.1475 17.04 29.3486 16.2539 31.0186 15.1016C31.1064 15.0527 31.1943 15.0381 31.2822 15.0576C31.3799 15.0674 31.458 15.1162 31.5166 15.2041C31.585 15.3213 31.5898 15.4385 31.5312 15.5557C31.1602 16.3564 31.1162 16.8496 31.3994 17.0352C31.6924 17.2207 32.1074 17.2354 32.6445 17.0791C33.1914 16.9229 33.6602 16.7324 34.0508 16.5078ZM36.7754 12.2891C36.502 11.957 36.3457 11.6348 36.3066 11.3223C36.2871 10.8535 36.4287 10.5215 36.7314 10.3262C37.0342 10.1309 37.3955 10.1943 37.8154 10.5166C37.9717 10.6924 38.0693 10.9121 38.1084 11.1758C38.1572 11.4395 38.1133 11.7422 37.9766 12.084C37.918 12.2012 37.8936 12.2939 37.9033 12.3623C37.9229 12.4209 37.9961 12.4795 38.123 12.5381C38.8945 12.8799 39.4268 13.2754 39.7197 13.7246C40.0127 14.1738 39.8809 14.7646 39.3242 15.4971C39.0312 15.8779 38.7529 16.3467 38.4893 16.9033C38.2256 17.4502 38.1426 17.9336 38.2402 18.3535C38.3574 18.627 38.665 18.6904 39.1631 18.5439C39.6709 18.4072 40.2275 18.168 40.833 17.8262C41.4385 17.4844 41.9609 17.1523 42.4004 16.8301C42.5371 16.7129 42.6445 16.6592 42.7227 16.6689C42.8008 16.6689 42.8398 16.708 42.8398 16.7861C42.8496 16.8643 42.8105 16.9473 42.7227 17.0352C41.4238 18.1777 40.2568 18.8662 39.2217 19.1006C38.1865 19.335 37.5664 19.1152 37.3613 18.4414C37.1562 17.7676 37.6445 16.6445 38.8262 15.0723C39.1582 14.6133 39.207 14.2422 38.9727 13.959C38.7383 13.666 38.3818 13.3877 37.9033 13.124C37.8838 13.1143 37.8691 13.1045 37.8594 13.0947C37.7617 13.0264 37.6738 13.002 37.5957 13.0215C37.5273 13.0312 37.4346 13.1191 37.3174 13.2852C37.2002 13.4414 37.1123 13.5537 37.0537 13.6221C36.8975 13.8174 36.7607 13.9248 36.6436 13.9443C36.5264 13.9541 36.4385 13.915 36.3799 13.8271C36.3311 13.7393 36.3164 13.6416 36.3359 13.5342C36.3652 13.4365 36.4141 13.3828 36.4824 13.373C36.5508 13.3633 36.6924 13.2363 36.9072 12.9922C37.0049 12.8555 37.0293 12.7334 36.9805 12.626C36.9414 12.5088 36.873 12.3965 36.7754 12.2891ZM37.4785 11.7178C37.5176 11.4736 37.4932 11.2588 37.4053 11.0732C37.3174 10.8877 37.2197 10.7949 37.1123 10.7949C37.0049 10.7852 36.9561 10.9365 36.9658 11.249C36.9756 11.2979 37.0049 11.3809 37.0537 11.498C37.1025 11.6055 37.1562 11.708 37.2148 11.8057C37.2832 11.9033 37.3467 11.9521 37.4053 11.9521C37.4248 11.9521 37.4346 11.9424 37.4346 11.9229C37.4443 11.8936 37.4492 11.8643 37.4492 11.835C37.459 11.7959 37.4688 11.7568 37.4785 11.7178ZM44.4512 15.0283C44.041 15.4385 43.626 15.9951 43.2061 16.6982C42.7959 17.3916 42.5615 17.9287 42.5029 18.3096C42.5029 18.5635 42.7227 18.6318 43.1621 18.5146C43.6113 18.4072 44.1387 18.2119 44.7441 17.9287C45.3594 17.6357 45.9062 17.3525 46.3848 17.0791C46.873 16.8057 47.1514 16.6396 47.2197 16.5811C47.3662 16.4736 47.4834 16.4297 47.5713 16.4492C47.6592 16.4688 47.7031 16.5176 47.7031 16.5957C47.7031 16.6738 47.6543 16.7568 47.5566 16.8447C47.2832 17.0693 46.7949 17.3867 46.0918 17.7969C45.3887 18.207 44.6611 18.5537 43.9092 18.8369C43.1572 19.1201 42.5762 19.1787 42.166 19.0127C41.7461 18.8467 41.6924 18.3047 42.0049 17.3867C42.2686 16.6934 42.7178 15.9512 43.3525 15.1602C43.9873 14.3594 44.5635 13.8857 45.0811 13.7393C45.3154 13.7002 45.5059 13.7393 45.6523 13.8564C45.8086 13.9736 45.9062 14.1299 45.9453 14.3252C45.9062 14.54 45.8135 14.7109 45.667 14.8379C45.5205 14.9551 45.3691 15.0234 45.2129 15.043C45.0566 15.0625 44.9443 15.0234 44.876 14.9258C44.8662 14.8965 44.8564 14.8721 44.8467 14.8525C44.8369 14.8135 44.8223 14.7891 44.8027 14.7793C44.7832 14.7598 44.7441 14.7695 44.6855 14.8086C44.6367 14.8477 44.5586 14.9209 44.4512 15.0283ZM50.7939 11.7617C51.0576 11.7812 51.1797 11.8643 51.1602 12.0107C51.1406 12.1475 51.043 12.2891 50.8672 12.4355C50.7012 12.5723 50.5205 12.665 50.3252 12.7139C50.1396 12.7529 50.0029 12.6895 49.915 12.5234C49.8955 12.4746 49.9004 12.4307 49.9297 12.3916C49.9688 12.3428 50.0176 12.3037 50.0762 12.2744C50.1445 12.2354 50.2031 12.2012 50.252 12.1719C50.291 12.1621 50.3203 12.1523 50.3398 12.1426C50.3594 12.1328 50.3691 12.123 50.3691 12.1133C50.3789 12.0059 50.4229 11.918 50.501 11.8496C50.5791 11.7812 50.6768 11.752 50.7939 11.7617ZM47.5273 18.7197C47.1465 18.7197 46.9219 18.5977 46.8535 18.3535C46.7852 18.1094 46.8193 17.8018 46.9561 17.4307C47.083 17.0498 47.2637 16.6543 47.498 16.2441C47.7324 15.8242 47.9668 15.4434 48.2012 15.1016C48.4355 14.75 48.6211 14.4814 48.7578 14.2959C48.7969 14.2275 48.8311 14.1787 48.8604 14.1494C48.8018 13.9932 48.8555 13.8223 49.0215 13.6367C49.1875 13.4414 49.3828 13.2998 49.6074 13.2119C49.832 13.1143 49.9932 13.1289 50.0908 13.2559C50.1592 13.3633 50.1738 13.4658 50.1348 13.5635C50.0957 13.6611 50.042 13.7539 49.9736 13.8418C49.9541 13.8613 49.9346 13.8857 49.915 13.915C49.5439 14.4424 49.1387 15.0332 48.6992 15.6875C48.2695 16.332 47.9473 16.874 47.7324 17.3135C47.5664 17.6943 47.6689 17.9043 48.04 17.9434C48.4209 17.9824 48.9092 17.9238 49.5049 17.7676C50.1104 17.6113 50.6621 17.4453 51.1602 17.2695C51.668 17.084 51.9707 16.9619 52.0684 16.9033C52.1758 16.8447 52.2588 16.835 52.3174 16.874C52.3857 16.9131 52.415 16.9766 52.4053 17.0645C52.3955 17.1426 52.3271 17.2256 52.2002 17.3135C51.5654 17.665 50.7354 17.9873 49.71 18.2803C48.6943 18.5732 47.9668 18.7197 47.5273 18.7197ZM59.5684 16.5078C59.832 16.3711 59.9883 16.3613 60.0371 16.4785C60.0859 16.5957 59.9932 16.7373 59.7588 16.9033C59.3877 17.1279 58.9092 17.3477 58.3232 17.5625C57.7471 17.7676 57.2295 17.8311 56.7705 17.7529C56.3115 17.665 56.0723 17.2939 56.0527 16.6396V16.5664C56.0625 16.4297 56.0527 16.3613 56.0234 16.3613C55.9941 16.3516 55.9111 16.3906 55.7744 16.4785C54.2607 17.4648 53.1475 18.0801 52.4346 18.3242C51.7314 18.5684 51.3164 18.5781 51.1895 18.3535C51.0332 18.041 51.2285 17.5576 51.7754 16.9033C52.3223 16.2393 53.0254 15.6094 53.8848 15.0137C54.7539 14.418 55.584 14.0615 56.375 13.9443C57.166 13.8174 57.7227 14.1299 58.0449 14.8818C58.0742 14.9795 58.0596 15.0674 58.001 15.1455C57.9424 15.2236 57.8643 15.2773 57.7666 15.3066C57.6689 15.3359 57.5566 15.3164 57.4297 15.248C57.3125 15.1797 57.2295 15.0967 57.1807 14.999C57.1807 14.9795 57.1855 14.96 57.1953 14.9404C57.2051 14.9209 57.2148 14.9014 57.2246 14.8818C57.2344 14.8623 57.2441 14.8428 57.2539 14.8232C57.2637 14.8037 57.2637 14.7842 57.2539 14.7646C57.0098 14.4326 56.5898 14.3838 55.9941 14.6182C55.3984 14.8525 54.7686 15.2188 54.1045 15.7168C53.4404 16.2148 52.8789 16.6885 52.4199 17.1377C51.9609 17.5771 51.7461 17.8457 51.7754 17.9434C51.8145 18.041 52.2002 17.8799 52.9326 17.46C53.665 17.04 54.8662 16.2539 56.5361 15.1016C56.624 15.0527 56.7119 15.0381 56.7998 15.0576C56.8975 15.0674 56.9756 15.1162 57.0342 15.2041C57.1025 15.3213 57.1074 15.4385 57.0488 15.5557C56.6777 16.3564 56.6338 16.8496 56.917 17.0352C57.21 17.2207 57.625 17.2354 58.1621 17.0791C58.709 16.9229 59.1777 16.7324 59.5684 16.5078ZM67.7861 15.3213C67.5225 14.374 67.9766 13.2754 69.1484 12.0254C70.3301 10.7754 71.9365 9.51562 73.9678 8.24609C76.0088 6.97656 78.1816 5.84863 80.4863 4.8623C82.791 3.86621 84.9395 3.15332 86.9316 2.72363C88.9336 2.28418 90.4814 2.27441 91.5752 2.69434C92.5615 3.15332 92.9961 3.79785 92.8789 4.62793C92.7617 5.44824 92.2783 6.29785 91.4287 7.17676C90.5791 8.05566 89.5488 8.80273 88.3379 9.41797C87.1367 10.0332 85.9355 10.3555 84.7344 10.3848C84.373 10.375 84.1777 10.2627 84.1484 10.0479C84.1191 9.83301 84.1875 9.60352 84.3535 9.35938C84.5195 9.11523 84.71 8.93945 84.9248 8.83203C85.1494 8.72461 85.335 8.76367 85.4814 8.94922C85.4912 8.96875 85.501 8.98828 85.5107 9.00781C85.5498 9.06641 85.5791 9.12012 85.5986 9.16895C85.6182 9.21777 85.6084 9.27637 85.5693 9.34473C85.5693 9.36426 85.5645 9.37891 85.5547 9.38867C85.5254 9.42773 85.5107 9.45703 85.5107 9.47656C85.5107 9.49609 85.54 9.50586 85.5986 9.50586C86.3506 9.39844 87.1904 9.0957 88.1182 8.59766C89.0557 8.08984 89.8955 7.49902 90.6377 6.8252C91.3799 6.1416 91.8486 5.49219 92.0439 4.87695C92.2393 4.25195 91.9805 3.77344 91.2676 3.44141C90.2324 3.05078 88.7725 3.0752 86.8877 3.51465C85.0029 3.9541 82.9668 4.66211 80.7793 5.63867C78.5918 6.61523 76.5264 7.7041 74.583 8.90527C72.6494 10.0967 71.1064 11.2539 69.9541 12.377C68.8115 13.5 68.333 14.4277 68.5186 15.1602C68.7041 15.5703 69.3096 15.7949 70.335 15.834C71.3701 15.8633 72.6152 15.7949 74.0703 15.6289C75.5352 15.4531 76.9951 15.2529 78.4502 15.0283C80.5303 14.7061 82.0928 14.5254 83.1377 14.4863C83.3623 14.4766 83.6699 14.4863 84.0605 14.5156C84.4512 14.5352 84.8125 14.6084 85.1445 14.7354C85.4863 14.8525 85.6914 15.0527 85.7598 15.3359C85.7988 15.6973 85.5254 16.1465 84.9395 16.6836C84.3535 17.2109 83.6162 17.7627 82.7275 18.3389C81.8389 18.9053 80.9551 19.4326 80.0762 19.9209C79.207 20.4189 78.5039 20.8096 77.9668 21.0928C77.752 21.21 77.5859 21.2979 77.4688 21.3564C77.127 21.542 76.7217 21.7617 76.2529 22.0156C75.042 22.6406 73.748 23.3535 72.3711 24.1543C70.9941 24.9551 69.9883 25.6875 69.3535 26.3516C69.2266 26.4883 69.1143 26.5518 69.0166 26.542C68.9189 26.542 68.8604 26.4883 68.8408 26.3809C68.8213 26.2734 68.8701 26.1465 68.9873 26C69.6611 25.2969 70.7061 24.5107 72.1221 23.6416C73.5479 22.7822 74.8418 22.0352 76.0039 21.4004C76.3555 21.2051 76.6582 21.0342 76.9121 20.8877C77 20.8389 77.1514 20.7559 77.3662 20.6387C78.0498 20.2578 79.002 19.7109 80.2227 18.998C81.4434 18.2852 82.5518 17.5869 83.5479 16.9033C84.5537 16.2197 85.0615 15.7314 85.0713 15.4385C85.0322 15.3115 84.8467 15.2285 84.5146 15.1895C84.1826 15.1504 83.8359 15.1357 83.4746 15.1455C83.123 15.1553 82.8936 15.1699 82.7861 15.1895C81.9268 15.2578 80.7402 15.4238 79.2266 15.6875C77.6934 15.9609 76.0967 16.2002 74.4365 16.4053C72.7764 16.6104 71.3262 16.6592 70.0859 16.5518C68.8457 16.4346 68.0791 16.0244 67.7861 15.3213ZM81.3652 30.6436C81.4922 30.3604 81.8975 29.5156 82.5811 28.1094C83.2549 26.7031 84.124 24.999 85.1885 22.9971C86.5361 20.4775 87.8594 18.0996 89.1582 15.8633C89.4902 15.2773 89.7979 14.7402 90.0811 14.252C90.9795 12.6211 91.6631 11.5176 92.1318 10.9414C92.6104 10.3652 93.0449 10.3408 93.4355 10.8682C93.4453 11.0928 93.3232 11.376 93.0693 11.7178C92.8154 12.0498 92.5127 12.4062 92.1611 12.7871C91.6533 13.334 91.2383 13.8613 90.916 14.3691C90.1934 15.6289 89.3389 17.1426 88.3525 18.9102C87.3564 20.6875 86.5361 22.1768 85.8916 23.3779C85.7354 23.6611 85.5498 23.9932 85.335 24.374C85.1299 24.7256 84.9443 25.0527 84.7783 25.3555C84.6123 25.668 84.5146 25.8779 84.4854 25.9854C84.4463 26.1025 84.5195 26.0586 84.7051 25.8535C84.8906 25.6484 85.2275 25.2188 85.7158 24.5645C85.8525 24.3887 85.9893 24.2031 86.126 24.0078C87.5615 22.0547 89.2021 19.9404 91.0479 17.665C92.8936 15.3896 94.6562 13.5732 96.3359 12.2158C97.1367 11.6201 97.6934 11.4102 98.0059 11.5859C98.3281 11.752 98.4697 12.1182 98.4307 12.6846C98.3428 13.6807 97.9521 14.7109 97.2588 15.7754C96.5654 16.8301 95.7598 17.792 94.8418 18.6611C93.9336 19.5303 93.1182 20.1748 92.3955 20.5947C91.6729 21.0146 91.2383 21.0879 91.0918 20.8145C91.0723 20.7656 91.082 20.7266 91.1211 20.6973C91.1699 20.6777 91.2236 20.6631 91.2822 20.6533C91.7803 20.5361 92.4199 20.1357 93.2012 19.4521C93.9922 18.7686 94.7734 17.9678 95.5449 17.0498C96.3164 16.1318 96.917 15.2529 97.3467 14.4131C97.7861 13.5732 97.9033 12.9336 97.6982 12.4941C97.6396 12.3184 97.3467 12.4307 96.8193 12.8311C95.3838 13.9736 93.8018 15.5654 92.0732 17.6064C90.3545 19.6475 88.665 21.7959 87.0049 24.0518C85.335 26.3076 83.875 28.3193 82.625 30.0869C82.3223 30.5166 82.0391 30.917 81.7754 31.2881C81.6777 31.4053 81.585 31.4346 81.4971 31.376C81.4092 31.3271 81.3506 31.2295 81.3213 31.083C81.292 30.9463 81.3066 30.7998 81.3652 30.6436ZM106.59 16.5078C106.854 16.3711 107.01 16.3613 107.059 16.4785C107.107 16.5957 107.015 16.7373 106.78 16.9033C106.409 17.1279 105.931 17.3477 105.345 17.5625C104.769 17.7676 104.251 17.8311 103.792 17.7529C103.333 17.665 103.094 17.2939 103.074 16.6396V16.5664C103.084 16.4297 103.074 16.3613 103.045 16.3613C103.016 16.3516 102.933 16.3906 102.796 16.4785C101.282 17.4648 100.169 18.0801 99.4561 18.3242C98.7529 18.5684 98.3379 18.5781 98.2109 18.3535C98.0547 18.041 98.25 17.5576 98.7969 16.9033C99.3438 16.2393 100.047 15.6094 100.906 15.0137C101.775 14.418 102.605 14.0615 103.396 13.9443C104.188 13.8174 104.744 14.1299 105.066 14.8818C105.096 14.9795 105.081 15.0674 105.022 15.1455C104.964 15.2236 104.886 15.2773 104.788 15.3066C104.69 15.3359 104.578 15.3164 104.451 15.248C104.334 15.1797 104.251 15.0967 104.202 14.999C104.202 14.9795 104.207 14.96 104.217 14.9404C104.227 14.9209 104.236 14.9014 104.246 14.8818C104.256 14.8623 104.266 14.8428 104.275 14.8232C104.285 14.8037 104.285 14.7842 104.275 14.7646C104.031 14.4326 103.611 14.3838 103.016 14.6182C102.42 14.8525 101.79 15.2188 101.126 15.7168C100.462 16.2148 99.9004 16.6885 99.4414 17.1377C98.9824 17.5771 98.7676 17.8457 98.7969 17.9434C98.8359 18.041 99.2217 17.8799 99.9541 17.46C100.687 17.04 101.888 16.2539 103.558 15.1016C103.646 15.0527 103.733 15.0381 103.821 15.0576C103.919 15.0674 103.997 15.1162 104.056 15.2041C104.124 15.3213 104.129 15.4385 104.07 15.5557C103.699 16.3564 103.655 16.8496 103.938 17.0352C104.231 17.2207 104.646 17.2354 105.184 17.0791C105.73 16.9229 106.199 16.7324 106.59 16.5078ZM105.521 18.5879C105.716 18.1094 106.014 17.5283 106.414 16.8447C106.805 16.1611 107.186 15.5068 107.557 14.8818C107.762 14.5498 107.938 14.2617 108.084 14.0176C108.025 13.9395 107.996 13.8564 107.996 13.7686C107.996 13.6807 108.025 13.6025 108.084 13.5342C108.338 13.2607 108.523 13.1094 108.641 13.0801L108.67 13.0654C108.758 13.0361 108.836 13.0361 108.904 13.0654C109.051 13.1143 109.144 13.207 109.183 13.3438C109.183 13.3535 109.183 13.3682 109.183 13.3877C109.183 13.3975 109.183 13.4072 109.183 13.417C109.183 13.5049 109.158 13.5928 109.109 13.6807C108.748 14.2666 108.343 14.9355 107.894 15.6875C107.454 16.4297 107.063 17.1035 106.722 17.709C106.956 17.4844 107.332 17.1621 107.85 16.7422C108.377 16.3125 108.899 15.917 109.417 15.5557C109.944 15.1846 110.32 14.9893 110.545 14.9697C110.896 14.9795 111.097 15.1211 111.146 15.3945C111.194 15.6582 111.194 15.9561 111.146 16.2881C111.116 16.542 111.111 16.7617 111.131 16.9473C111.15 17.123 111.248 17.2109 111.424 17.2109C111.609 17.2109 111.922 17.0645 112.361 16.7715C112.488 16.6934 112.576 16.6738 112.625 16.7129C112.684 16.752 112.703 16.8203 112.684 16.918C112.664 17.0059 112.61 17.0791 112.522 17.1377C111.644 17.6943 111.062 17.8018 110.779 17.46C110.496 17.1084 110.423 16.5127 110.56 15.6729C110.354 15.6924 110.047 15.8682 109.637 16.2002C109.227 16.5225 108.782 16.8984 108.304 17.3281C107.884 17.6992 107.483 18.041 107.103 18.3535C106.722 18.666 106.399 18.8906 106.136 19.0273C105.94 19.1152 105.774 19.1152 105.638 19.0273C105.501 18.9395 105.462 18.793 105.521 18.5879ZM115.862 11.7617C116.126 11.7812 116.248 11.8643 116.229 12.0107C116.209 12.1475 116.111 12.2891 115.936 12.4355C115.77 12.5723 115.589 12.665 115.394 12.7139C115.208 12.7529 115.071 12.6895 114.983 12.5234C114.964 12.4746 114.969 12.4307 114.998 12.3916C115.037 12.3428 115.086 12.3037 115.145 12.2744C115.213 12.2354 115.271 12.2012 115.32 12.1719C115.359 12.1621 115.389 12.1523 115.408 12.1426C115.428 12.1328 115.438 12.123 115.438 12.1133C115.447 12.0059 115.491 11.918 115.569 11.8496C115.647 11.7812 115.745 11.752 115.862 11.7617ZM112.596 18.7197C112.215 18.7197 111.99 18.5977 111.922 18.3535C111.854 18.1094 111.888 17.8018 112.024 17.4307C112.151 17.0498 112.332 16.6543 112.566 16.2441C112.801 15.8242 113.035 15.4434 113.27 15.1016C113.504 14.75 113.689 14.4814 113.826 14.2959C113.865 14.2275 113.899 14.1787 113.929 14.1494C113.87 13.9932 113.924 13.8223 114.09 13.6367C114.256 13.4414 114.451 13.2998 114.676 13.2119C114.9 13.1143 115.062 13.1289 115.159 13.2559C115.228 13.3633 115.242 13.4658 115.203 13.5635C115.164 13.6611 115.11 13.7539 115.042 13.8418C115.022 13.8613 115.003 13.8857 114.983 13.915C114.612 14.4424 114.207 15.0332 113.768 15.6875C113.338 16.332 113.016 16.874 112.801 17.3135C112.635 17.6943 112.737 17.9043 113.108 17.9434C113.489 17.9824 113.978 17.9238 114.573 17.7676C115.179 17.6113 115.73 17.4453 116.229 17.2695C116.736 17.084 117.039 16.9619 117.137 16.9033C117.244 16.8447 117.327 16.835 117.386 16.874C117.454 16.9131 117.483 16.9766 117.474 17.0645C117.464 17.1426 117.396 17.2256 117.269 17.3135C116.634 17.665 115.804 17.9873 114.778 18.2803C113.763 18.5732 113.035 18.7197 112.596 18.7197ZM115.994 18.6904C116.072 18.6416 116.165 18.5049 116.272 18.2803C116.38 18.0557 116.502 17.7822 116.639 17.46C116.893 16.8154 117.19 16.1855 117.532 15.5703C117.874 14.9551 118.26 14.6084 118.689 14.5303C118.826 14.5596 118.929 14.6279 118.997 14.7354C119.065 14.833 119.046 14.9502 118.938 15.0869C118.772 15.3115 118.626 15.4922 118.499 15.6289C118.382 15.7559 118.26 15.8828 118.133 16.0098C118.006 16.1367 117.85 16.2979 117.664 16.4932C117.537 16.8154 117.415 17.1377 117.298 17.46C117.249 17.6162 117.195 17.7676 117.137 17.9141C117.107 18.0215 117.088 18.0996 117.078 18.1484C117.078 18.1875 117.093 18.207 117.122 18.207C117.161 18.207 117.21 18.1973 117.269 18.1777C117.278 18.168 117.288 18.1631 117.298 18.1631C117.493 18.1045 117.63 18.1094 117.708 18.1777C117.786 18.2363 117.811 18.3145 117.781 18.4121C117.752 18.5098 117.679 18.5928 117.562 18.6611C117.454 18.7197 117.347 18.7539 117.239 18.7637C117.112 18.7832 116.99 18.832 116.873 18.9102C116.805 18.959 116.736 19.0322 116.668 19.1299C116.6 19.2275 116.541 19.3203 116.492 19.4082C116.121 20.1211 115.594 20.79 114.91 21.415C114.227 22.04 113.416 22.416 112.479 22.543C111.746 22.6113 111.39 22.5186 111.409 22.2646C111.429 22.0107 111.688 21.6641 112.186 21.2246C112.674 20.7949 113.27 20.3506 113.973 19.8916C114.676 19.4326 115.35 19.0322 115.994 18.6904ZM115.247 20.082C115.296 20.0234 115.35 19.9551 115.408 19.877C115.467 19.8086 115.516 19.7402 115.555 19.6719C115.594 19.6035 115.613 19.5498 115.613 19.5107C115.613 19.4814 115.584 19.4766 115.525 19.4961C115.311 19.5938 115.018 19.7695 114.646 20.0234C114.266 20.2871 113.88 20.5654 113.489 20.8584C113.099 21.1611 112.786 21.4199 112.552 21.6348C112.308 21.8496 112.215 21.9619 112.273 21.9717C112.596 21.9912 113.06 21.8105 113.665 21.4297C114.271 21.0586 114.798 20.6094 115.247 20.082ZM120.228 16.5225C120.228 16.5225 120.232 16.5176 120.242 16.5078C120.301 16.459 120.442 16.3271 120.667 16.1123L127.815 4.62793C128.343 4.2959 128.689 4.21289 128.855 4.37891C129.021 4.53516 129.075 4.82812 129.017 5.25781C128.968 5.67773 128.87 6.10742 128.724 6.54688C128.577 6.98633 128.455 7.31836 128.357 7.54297C127.742 8.86133 126.932 10.1699 125.926 11.4688C124.92 12.7578 123.948 13.8906 123.011 14.8672C122.073 15.8438 121.404 16.5127 121.004 16.874L120.14 18.1777C119.886 18.5488 119.812 18.7051 119.92 18.6465C120.027 18.5977 120.247 18.4219 120.579 18.1191C121.36 17.3867 122.205 16.625 123.113 15.834C124.031 15.043 124.886 14.3887 125.677 13.8711C126.478 13.3438 127.093 13.1191 127.522 13.1973C128.089 13.3438 128.211 13.998 127.889 15.1602C127.654 16.0781 127.552 16.7715 127.581 17.2402C127.62 17.709 127.752 17.9775 127.977 18.0459C128.582 18.2021 129.681 17.8115 131.272 16.874C131.37 16.8154 131.453 16.8105 131.521 16.8594C131.6 16.9082 131.634 16.9814 131.624 17.0791C131.624 17.167 131.561 17.2549 131.434 17.3428C130.584 17.8799 129.852 18.2705 129.236 18.5146C128.631 18.7588 128.128 18.8174 127.728 18.6904C126.819 18.4463 126.678 17.1719 127.303 14.8672C127.498 14.0957 127.405 13.7539 127.024 13.8418C126.644 13.9297 126.097 14.2715 125.384 14.8672C124.671 15.4531 123.909 16.127 123.099 16.8887C122.171 17.748 121.336 18.4756 120.594 19.0713C119.852 19.667 119.363 19.8916 119.129 19.7451C118.963 19.6279 118.895 19.4619 118.924 19.2471C118.953 19.042 119.031 18.8223 119.158 18.5879C119.275 18.3535 119.388 18.1533 119.495 17.9873C119.534 17.9287 119.568 17.875 119.598 17.8262L119.935 17.2842C120.022 17.1084 120.076 16.9521 120.096 16.8154C120.115 16.6885 120.159 16.5908 120.228 16.5225ZM124.358 11.6885C123.079 13.6123 123.182 13.6465 124.666 11.791C125.691 10.5996 126.546 9.36426 127.229 8.08496C127.63 7.30371 127.85 6.8252 127.889 6.64941C127.938 6.47363 127.859 6.5127 127.654 6.7666C127.449 7.02051 127.176 7.39648 126.834 7.89453C126.502 8.39258 126.155 8.91992 125.794 9.47656C125.433 10.0234 125.12 10.5068 124.856 10.9268C124.603 11.3174 124.437 11.5713 124.358 11.6885Z" fill="#08D7FC"/>
</svg>
