<svg width="572" height="392" viewBox="0 0 572 392" fill="none" xmlns="http://www.w3.org/2000/svg">
<g opacity="0.7">
<circle opacity="0.5" cx="285.94" cy="195.785" r="164.827" stroke="white" stroke-width="25" stroke-miterlimit="1" stroke-dasharray="2 30"/>
<circle cx="285.939" cy="195.785" r="120.527" stroke="white" stroke-opacity="0.5" stroke-width="42" stroke-miterlimit="1" stroke-dasharray="139 6"/>
<circle opacity="0.5" cx="285.939" cy="195.785" r="194.785" stroke="white" stroke-width="2" stroke-miterlimit="1"/>
</g>
<g clip-path="url(#clip0_1_2128)">
<path d="M180.563 152.886L170.313 154.774C166.807 155.584 163.57 152.886 163.57 149.111V116.746C163.57 116.746 165.189 112.7 171.932 112.97C178.675 113.24 196.476 120.791 196.207 122.949C196.207 124.567 188.385 142.638 185.418 148.841C184.609 150.999 182.721 152.347 180.563 152.886Z" fill="url(#paint0_linear_1_2128)"/>
<path d="M260.94 137.783L200.522 100.564L192.161 93.821C186.227 86.2693 175.169 97.8666 175.169 97.8666C175.169 97.8666 167.886 98.9455 168.156 101.373C168.425 103.261 168.156 110.543 168.156 114.588C168.156 115.937 168.156 118.364 169.774 119.713C176.517 125.377 186.227 124.298 191.352 123.758C194.049 123.489 197.016 124.568 198.904 126.456L228.843 156.393L260.94 137.783Z" fill="url(#paint1_linear_1_2128)"/>
<path opacity="0.35" d="M260.94 137.783L200.522 100.564L192.161 93.821C186.227 86.2693 175.169 97.8666 175.169 97.8666C175.169 97.8666 167.886 98.9455 168.156 101.373C168.425 103.261 168.156 110.543 168.156 114.588C168.156 115.937 168.156 118.364 169.774 119.713C176.517 125.377 186.227 124.298 191.352 123.758C194.049 123.489 197.016 124.568 198.904 126.456L228.843 156.393L260.94 137.783Z" fill="url(#paint2_linear_1_2128)"/>
<path d="M200.795 93.5518V96.7882C200.795 96.7882 199.986 98.1368 198.098 98.6762V101.104C198.098 101.104 199.986 101.104 200.795 99.2156V103.261C200.795 105.419 192.703 107.846 182.724 108.116C172.744 108.386 164.652 106.228 164.652 104.07V94.3609L200.795 93.5518Z" fill="url(#paint3_linear_1_2128)"/>
<path d="M164.652 94.3611C164.652 96.5187 172.744 98.9461 182.724 98.4067C192.703 98.137 200.795 95.7096 200.795 93.552C200.795 91.3943 192.703 89.7761 182.724 90.3155C172.744 90.8549 164.652 92.2034 164.652 94.3611Z" fill="url(#paint4_linear_1_2128)"/>
<g opacity="0.61">
<path d="M176.789 103.8C178.677 103.8 180.565 103.8 182.453 103.8C188.657 103.53 194.321 102.721 197.827 101.372V99.7543C194.591 101.103 188.657 101.912 182.723 102.182C174.362 102.451 167.888 100.833 165.461 99.2148V101.103C167.349 102.451 171.934 103.53 176.789 103.8Z" fill="url(#paint5_linear_1_2128)"/>
</g>
<g opacity="0.61">
<path d="M177.059 107.307C178.947 107.307 180.835 107.307 182.723 107.307C188.926 107.037 194.591 106.228 198.097 104.879V103.261C194.86 104.61 188.926 105.419 182.993 105.688C174.631 105.958 168.158 104.34 165.73 102.722V104.61C167.619 105.958 171.934 106.767 177.059 107.307Z" fill="url(#paint6_linear_1_2128)"/>
</g>
<path d="M168.7 93.2819C170.858 92.203 176.522 91.6636 183.265 91.3939C190.008 91.1242 195.672 91.6636 197.56 92.7425H198.369V93.5516C198.369 95.1698 191.356 96.5183 182.995 97.0578C174.634 97.3275 167.891 95.9789 167.891 94.3607V93.5516L168.7 93.2819Z" fill="url(#paint7_linear_1_2128)"/>
<path d="M167.891 93.2815C167.891 94.8998 174.634 96.2483 183.265 95.9786C191.626 95.7089 198.639 94.0907 198.639 92.4724C198.639 90.8542 191.896 90.0451 183.534 90.3148C174.903 90.5845 167.891 91.6633 167.891 93.2815Z" fill="url(#paint8_linear_1_2128)"/>
<path d="M197.56 69.8174L197.29 92.203C197.29 93.5515 190.547 94.9001 182.725 95.1698C174.634 95.4395 168.16 94.091 168.16 92.7424L167.891 79.5268L197.56 69.8174Z" fill="url(#paint9_linear_1_2128)"/>
<path d="M186.231 62.2654C186.231 62.2654 186.5 58.4895 185.961 55.5228C185.152 52.556 186.231 50.3984 191.895 46.8922C196.75 43.6557 229.116 26.9339 237.747 22.3489C238.826 21.8095 240.984 21.8095 242.602 22.3489L256.088 27.4733C258.246 28.2824 259.325 29.9007 257.977 30.9795L223.992 60.6472C223.992 60.6472 219.676 64.6928 216.709 65.5019C213.742 66.311 203.763 69.8172 201.605 70.896L186.231 62.2654Z" fill="url(#paint10_linear_1_2128)"/>
<path d="M186.231 61.1863C186.231 61.1863 186.5 57.4104 185.961 54.4437C185.152 51.4769 186.231 49.3193 191.895 45.8131C196.75 42.5766 229.116 25.8548 237.747 21.2698C238.826 20.7304 240.984 20.7304 242.602 21.2698L256.088 26.3942C258.246 27.2033 259.325 28.8216 257.977 29.9004L223.992 59.5681C223.992 59.5681 219.676 63.6137 216.709 64.4228C213.742 65.2319 205.111 68.4684 203.763 69.5472L186.231 61.1863Z" fill="url(#paint11_linear_1_2128)"/>
<path d="M181.374 87.3476C181.374 87.3476 181.913 99.2147 180.565 101.642C179.216 104.069 176.519 106.497 171.124 109.194C166.539 111.621 137.139 125.106 128.508 128.882C127.16 129.422 125.002 129.422 123.384 128.613L109.358 121.87C107.47 121.061 106.661 119.443 108.01 118.634L147.928 85.1899C147.928 85.1899 150.895 81.414 156.829 80.6049C162.763 79.7958 165.46 78.4473 165.46 78.4473L181.374 87.3476Z" fill="url(#paint12_linear_1_2128)"/>
<path d="M180.565 86.539C180.565 86.539 181.105 98.4061 179.756 100.833C178.407 103.261 175.71 105.688 170.316 108.385C165.73 110.813 136.331 124.298 127.7 128.074C126.351 128.613 124.193 128.613 122.575 127.804L108.55 121.061C106.661 120.252 105.852 118.634 107.201 117.825L147.12 84.3813C147.12 84.3813 150.087 80.6054 156.02 79.7963C161.954 78.9872 164.652 77.6387 164.652 77.6387L180.565 86.539Z" fill="url(#paint13_linear_1_2128)"/>
<path d="M198.636 71.1651C198.636 71.1651 203.76 71.9742 208.076 65.5013C212.661 59.0283 204.839 55.5221 199.715 55.7918C194.59 56.0615 183.801 59.8374 184.88 62.8042C186.229 65.5013 198.636 71.1651 198.636 71.1651Z" fill="#717481"/>
<path d="M184.611 81.1442C184.611 81.1442 185.96 84.9201 181.105 87.8869C175.98 90.8537 169.237 91.6628 164.113 89.2354C158.988 86.8081 159.258 81.6837 161.685 79.526C164.113 77.3684 169.237 73.8622 172.744 74.1319C175.98 74.6713 184.611 81.1442 184.611 81.1442Z" fill="#717481"/>
<path d="M174.093 81.414C178.679 83.5716 184.343 83.8413 186.501 81.9534L201.875 69.5469C204.302 67.659 202.414 64.4225 197.829 62.2648C193.244 60.1072 187.58 59.8375 185.422 61.7254L170.048 74.1319C167.62 75.7502 169.508 78.9866 174.093 81.414Z" fill="#252424"/>
<path d="M182.452 70.0863C181.373 70.8955 181.913 72.5137 183.801 73.3228C185.689 74.1319 188.116 74.1319 189.195 73.3228C190.274 72.5137 189.735 70.8955 187.847 70.0863C185.959 69.2772 183.531 69.2772 182.452 70.0863Z" fill="url(#paint14_radial_1_2128)"/>
<path d="M183.263 70.3557C182.454 71.1649 182.993 72.2437 184.342 73.0528C185.96 73.8619 187.848 73.8619 188.657 73.0528C189.467 72.2437 188.927 71.1649 187.579 70.3557C185.96 69.8163 184.072 69.8163 183.263 70.3557Z" fill="url(#paint15_radial_1_2128)"/>
<path d="M175.44 75.7504C174.362 76.5595 174.901 78.1778 176.789 78.9869C178.677 79.796 181.105 79.796 182.183 78.9869C183.262 78.1778 182.723 76.5595 180.835 75.7504C178.947 74.9413 176.519 74.9413 175.44 75.7504Z" fill="url(#paint16_radial_1_2128)"/>
<path d="M176.247 76.0198C175.438 76.8289 175.978 77.9077 177.326 78.7169C178.945 79.526 180.833 79.526 181.642 78.7169C182.451 77.9077 181.911 76.8289 180.563 76.0198C178.945 75.4804 177.056 75.4804 176.247 76.0198Z" fill="url(#paint17_radial_1_2128)"/>
<path d="M188.925 64.9624C187.846 65.7716 188.385 67.3898 190.273 68.1989C192.162 69.008 194.589 69.008 195.668 68.1989C196.747 67.3898 196.207 65.7716 194.319 64.9624C192.431 63.8836 190.273 63.8836 188.925 64.9624Z" fill="url(#paint18_radial_1_2128)"/>
<path d="M189.732 65.2318C188.923 66.041 189.462 67.1198 190.811 67.9289C192.429 68.738 194.317 68.738 195.126 67.9289C195.935 67.1198 195.396 66.041 194.047 65.2318C192.429 64.4227 190.541 64.4227 189.732 65.2318Z" fill="url(#paint19_radial_1_2128)"/>
<path d="M61.3448 239.192C61.3448 239.192 58.1081 242.968 49.477 242.699C40.5762 242.429 24.6627 279.109 22.5049 279.918C20.3471 280.457 18.9985 280.188 19.8077 268.59C20.6168 256.723 21.9654 244.856 21.9654 244.856L44.3523 228.674H55.1412L61.3448 239.192Z" fill="url(#paint20_linear_1_2128)"/>
<path d="M170.582 243.777L75.9098 232.719C75.9098 232.719 68.897 230.831 65.6604 236.226C62.4237 241.62 47.5891 240.811 37.6094 238.113L47.0496 212.491L66.1998 209.255C66.1998 209.255 70.2457 213.84 87.7775 213.57C105.309 213.3 177.325 217.885 183.798 220.043C190.272 221.931 170.582 243.777 170.582 243.777Z" fill="url(#paint21_linear_1_2128)"/>
<path opacity="0.35" d="M170.582 243.777L75.9098 232.719C75.9098 232.719 68.897 230.831 65.6604 236.226C62.4237 241.62 47.5891 240.811 37.6094 238.113L47.0496 212.491L66.1998 209.255C66.1998 209.255 70.2457 213.84 87.7775 213.57C105.309 213.3 177.325 217.885 183.798 220.043C190.272 221.931 170.582 243.777 170.582 243.777Z" fill="url(#paint22_linear_1_2128)"/>
<path d="M38.4219 186.6H59.4601V197.658H38.4219V186.6Z" fill="url(#paint23_linear_1_2128)"/>
<path d="M67.5503 213.839C67.5503 213.839 66.7411 212.491 62.6953 213.57L64.0439 216.267L64.8531 216.536L67.0109 215.458C66.7411 215.458 67.5503 214.918 67.5503 213.839Z" fill="url(#paint24_radial_1_2128)"/>
<path d="M67.551 207.637V211.143C67.551 211.143 66.7418 212.761 64.5841 213.301V215.728C64.5841 215.728 66.7418 215.728 67.2813 213.84V218.155C67.2813 220.583 58.6502 223.01 47.8613 223.28C37.0725 223.819 28.4414 221.392 28.4414 218.964V208.446L67.551 207.637Z" fill="url(#paint25_linear_1_2128)"/>
<path d="M28.9805 208.446C28.9805 210.873 37.6115 213.3 48.4004 212.761C59.1893 212.221 67.8203 210.064 67.8203 207.636C67.8203 205.209 59.1893 203.591 48.6701 204.13C37.6115 204.67 28.9805 206.018 28.9805 208.446Z" fill="url(#paint26_linear_1_2128)"/>
<g opacity="0.61">
<path d="M41.9267 218.425C43.8148 218.425 45.9725 218.425 47.8606 218.425C54.3339 218.155 60.5375 217.076 64.0439 215.728V214.11C60.5375 215.458 54.3339 216.537 47.8606 216.807C38.9598 217.076 31.947 215.188 29.5195 213.84V215.728C31.947 217.076 36.5323 218.155 41.9267 218.425Z" fill="url(#paint27_linear_1_2128)"/>
</g>
<g opacity="0.61">
<path d="M41.9267 222.2C43.8148 222.2 45.9725 222.2 47.8606 222.2C54.3339 221.931 60.5375 220.852 64.0439 219.503V217.885C60.5375 219.233 54.3339 220.312 47.8606 220.582C38.9598 220.852 31.947 218.964 29.5195 217.615V219.503C31.947 220.852 36.802 221.931 41.9267 222.2Z" fill="url(#paint28_linear_1_2128)"/>
</g>
<path d="M33.2976 207.097C35.4554 206.019 41.659 205.21 48.6717 204.94C55.6845 204.67 61.8881 205.21 64.0459 206.288H64.855V207.367C64.855 208.985 57.5725 210.604 48.402 211.143C39.5012 211.413 32.2188 210.064 32.2188 208.446V207.367L33.2976 207.097Z" fill="url(#paint29_linear_1_2128)"/>
<path d="M32.4883 207.367C32.4883 208.985 39.7708 210.603 48.6716 210.334C57.5724 210.064 64.8548 208.176 65.1246 206.558C65.1246 204.94 57.8421 203.861 48.9413 204.4C39.7708 204.4 32.4883 205.479 32.4883 207.367Z" fill="url(#paint30_linear_1_2128)"/>
<path d="M61.6182 192.803C62.9668 192.533 64.0457 193.612 64.0457 194.96L63.776 206.018C63.5062 207.367 56.7632 208.985 48.1321 209.255C39.501 209.524 32.4883 208.176 32.4883 206.827L32.758 194.691C32.758 193.612 33.8369 192.533 34.9158 192.803C38.1524 193.072 44.0863 193.881 48.1321 193.881C52.9871 193.881 58.6513 193.342 61.6182 192.803Z" fill="url(#paint31_linear_1_2128)"/>
<path d="M41.1153 180.396C41.1153 180.396 40.8455 177.159 38.418 174.732C35.9905 172.574 35.7208 170.686 38.9575 166.641C41.6547 163.135 62.4232 142.637 67.5479 137.243C68.3571 136.434 70.2452 136.164 72.1332 136.164L87.777 137.513C90.4743 137.782 92.3623 138.861 91.8229 139.94L77.2579 170.686C77.2579 170.686 75.6396 174.732 73.2121 176.081C70.7846 177.429 64.581 181.744 62.4232 183.363L41.1153 180.396Z" fill="url(#paint32_linear_1_2128)"/>
<path d="M42.1945 179.318C42.1945 179.318 40.3065 176.081 37.879 173.923C35.4515 171.766 35.1818 169.878 38.4184 165.832C41.1156 162.326 61.8842 141.828 67.0089 136.434C67.818 135.625 69.7061 135.355 71.5941 135.355L87.238 136.704C89.9352 136.974 91.8232 138.053 91.2838 139.131L76.7188 169.878C76.7188 169.878 75.1005 173.923 72.673 175.272C70.2455 176.621 64.0419 180.936 63.5025 182.284L42.1945 179.318Z" fill="url(#paint33_linear_1_2128)"/>
<path d="M51.3669 201.704C51.3669 201.704 58.9191 211.143 58.9191 213.301C58.9191 215.459 57.8402 218.156 54.6035 221.392C51.6366 224.089 31.947 241.35 26.2828 246.205C25.4736 247.014 23.3159 247.284 21.4278 247.014L4.16565 244.587C1.73816 244.317 -0.149887 242.969 0.389556 241.89L18.4609 206.828C18.4609 206.828 19.0003 203.322 24.125 201.434C29.2497 199.546 30.8681 197.928 30.8681 197.928L51.3669 201.704Z" fill="url(#paint34_linear_1_2128)"/>
<path d="M51.0989 201.164C51.0989 201.164 58.6511 210.603 58.6511 212.761C58.6511 214.919 57.5722 217.616 54.3356 220.852C51.3687 223.549 31.679 240.81 26.0148 245.665C25.2057 246.474 23.0479 246.744 21.1599 246.474L3.89769 244.047C1.4702 243.777 0.121595 242.698 0.661038 241.62L18.4626 206.288C18.4626 206.288 19.0021 202.782 24.1268 200.894C29.2515 199.006 30.8698 197.388 30.8698 197.388L51.0989 201.164Z" fill="url(#paint35_linear_1_2128)"/>
<path d="M59.7279 184.712C59.7279 184.712 64.8526 184.173 65.3921 178.239C65.9315 172.306 56.761 170.957 51.906 172.306C47.051 173.654 39.2291 178.779 41.9263 180.936C44.8933 182.824 59.7279 184.712 59.7279 184.712Z" fill="#717481"/>
<path d="M52.4446 195.769C52.4446 195.769 56.2207 198.466 52.9841 201.973C50.0171 205.479 44.0833 207.367 37.8797 206.558C31.6761 205.748 28.7092 201.433 29.788 199.275C30.8669 197.118 33.5641 193.072 37.0705 192.803C40.5769 192.263 52.4446 195.769 52.4446 195.769Z" fill="#717481"/>
<path d="M42.4637 198.197C48.1278 199.006 53.5222 197.928 54.6011 196.04L61.8836 182.824C62.9625 180.936 59.1864 178.509 53.792 177.7C48.1278 176.89 42.7334 177.969 41.6545 179.857L34.372 193.073C33.2931 195.23 37.0692 197.388 42.4637 198.197Z" fill="#252424"/>
<path d="M44.0868 187.409C43.5474 188.487 44.896 189.296 47.3235 189.566C49.4812 189.836 51.9087 189.296 52.4482 188.487C52.9876 187.678 51.639 186.599 49.2115 186.33C46.784 186.06 44.6263 186.33 44.0868 187.409Z" fill="url(#paint36_radial_1_2128)"/>
<path d="M44.8972 187.408C44.3578 188.217 45.7064 189.026 47.5944 189.296C49.4825 189.566 51.3705 189.026 51.6402 188.487C52.1797 187.678 50.8311 186.869 49.2127 186.599C47.055 186.329 45.1669 186.869 44.8972 187.408Z" fill="url(#paint37_radial_1_2128)"/>
<path d="M40.8485 193.342C40.3091 194.151 41.6577 195.23 44.0852 195.5C46.243 195.77 48.6705 195.23 49.2099 194.421C49.7493 193.612 48.4007 192.533 45.9732 192.264C43.5458 191.994 41.388 192.533 40.8485 193.342Z" fill="url(#paint38_radial_1_2128)"/>
<path d="M41.656 193.612C41.1165 194.421 42.4651 195.23 44.0835 195.5C45.9715 195.77 47.8596 195.23 48.1293 194.691C48.6687 193.882 47.3201 193.073 45.4321 192.803C43.8137 192.264 41.9257 192.803 41.656 193.612Z" fill="url(#paint39_radial_1_2128)"/>
<path d="M47.0517 181.745C46.5122 182.824 47.8608 183.633 50.2883 183.902C52.4461 184.172 54.8736 183.633 55.413 182.824C55.9525 181.745 54.6039 180.936 52.1764 180.666C49.7489 180.396 47.5911 180.936 47.0517 181.745Z" fill="url(#paint40_radial_1_2128)"/>
<path d="M47.8591 182.015C47.3196 182.824 48.6683 183.633 50.2866 183.902C52.1746 184.172 54.0627 183.633 54.3324 183.093C54.8718 182.284 53.5232 181.475 51.6352 181.205C50.0169 180.666 48.3985 181.205 47.8591 182.015Z" fill="url(#paint41_radial_1_2128)"/>
<path d="M167.617 238.384C167.617 238.384 180.294 170.687 300.32 88.4268C304.905 85.1903 310.569 83.8418 316.234 84.3812C323.786 85.1903 335.654 86.5389 349.14 89.2359C366.402 93.0118 379.348 106.767 381.776 124.298C383.664 136.974 384.473 151.808 382.046 163.675C382.046 163.675 324.056 260.23 234.238 281.267L167.617 238.384Z" fill="#08D7FC"/>
<path d="M208.883 238.113L202.68 237.574C202.68 237.034 202.68 225.167 210.502 214.109L215.896 216.267C208.883 225.976 208.883 238.113 208.883 238.113Z" fill="url(#paint42_linear_1_2128)"/>
<path d="M273.077 260.499C273.077 260.499 359.927 298.528 363.973 303.652C368.019 308.776 367.209 313.361 371.525 315.789C375.841 317.946 387.169 329.004 402.273 323.071C417.108 317.137 411.444 313.901 411.444 313.901V300.685C411.444 300.685 416.029 299.606 413.601 294.482C411.174 289.088 372.334 281.536 372.334 281.536C372.334 281.536 304.095 248.093 301.937 244.856C298.97 240.271 292.497 241.889 287.911 247.553C283.326 253.217 278.471 255.914 275.234 255.914C271.728 256.184 270.379 259.15 273.077 260.499Z" fill="url(#paint43_linear_1_2128)"/>
<path opacity="0.35" d="M273.077 260.499C273.077 260.499 359.927 298.528 363.973 303.652C368.019 308.776 367.209 313.361 371.525 315.789C375.841 317.946 387.169 329.004 402.273 323.071C417.108 317.137 411.444 313.901 411.444 313.901V300.685C411.444 300.685 416.029 299.606 413.601 294.482C411.174 289.088 372.334 281.536 372.334 281.536C372.334 281.536 304.095 248.093 301.937 244.856C298.97 240.271 292.497 241.889 287.911 247.553C283.326 253.217 278.471 255.914 275.234 255.914C271.728 256.184 270.379 259.15 273.077 260.499Z" fill="url(#paint44_linear_1_2128)"/>
<path d="M523.109 207.098C523.109 207.098 530.662 207.637 536.865 218.156C543.069 228.674 552.779 247.284 555.746 247.554C558.982 247.824 560.601 247.014 559.791 242.699C558.982 238.384 551.16 195.231 550.082 194.152C549.003 193.073 547.115 191.725 547.115 191.725L523.109 207.098Z" fill="url(#paint45_linear_1_2128)"/>
<path d="M415.22 311.744L416.299 357.324C416.299 357.324 417.378 363.258 413.602 365.146C409.826 367.034 399.576 372.158 398.228 368.922C396.879 365.685 376.92 322.262 370.716 314.98C368.289 311.474 371.525 310.395 373.413 311.744C375.301 313.092 386.63 321.184 393.103 319.835C395.53 319.026 392.294 312.823 394.721 311.204C397.149 309.586 409.016 305.271 409.286 306.619C409.286 307.698 408.747 313.632 410.365 313.092C411.983 312.283 414.95 309.856 415.22 311.744Z" fill="url(#paint46_linear_1_2128)"/>
<path d="M351.838 204.13C351.838 204.13 507.737 196.309 510.704 199.815C513.67 203.052 514.21 209.525 533.9 206.558C553.589 203.861 546.846 190.915 546.846 190.915V173.114C546.846 173.114 516.907 159.899 500.994 160.438C485.35 160.977 427.899 171.226 408.479 180.936H376.922C376.922 180.936 373.415 179.857 373.685 176.62C373.685 176.62 369.909 171.766 365.593 176.081C361.278 180.396 351.298 194.421 348.601 196.309C345.634 197.927 348.871 204.13 351.838 204.13Z" fill="url(#paint47_linear_1_2128)"/>
<path d="M351.838 204.13C351.838 204.13 507.737 196.309 510.704 199.815C513.67 203.052 514.21 209.525 533.9 206.558C553.589 203.861 546.846 190.915 546.846 190.915V173.114C546.846 173.114 516.907 159.899 500.994 160.438C485.35 160.977 427.899 171.226 408.479 180.936H376.922C376.922 180.936 373.415 179.857 373.685 176.62C373.685 176.62 369.909 171.766 365.593 176.081C361.278 180.396 351.298 194.421 348.601 196.309C345.634 197.927 348.871 204.13 351.838 204.13Z" fill="url(#paint48_linear_1_2128)"/>
<path opacity="0.35" d="M499.373 183.633C499.373 183.633 426.548 191.724 408.747 188.487C390.945 185.521 465.118 160.977 501.8 164.484L499.373 183.633Z" fill="url(#paint49_linear_1_2128)"/>
<path d="M406.592 285.852V289.088C406.592 289.088 405.783 290.437 403.895 290.976V293.403C403.895 293.403 405.783 293.403 406.592 291.515V295.561C406.592 297.719 398.5 300.146 388.521 300.416C378.541 300.685 370.449 298.528 370.449 296.37V286.661L406.592 285.852Z" fill="url(#paint50_linear_1_2128)"/>
<path d="M370.449 286.661C370.449 288.819 378.541 291.246 388.521 290.706C398.5 290.167 406.592 288.009 406.592 285.852C406.592 283.694 398.5 282.076 388.521 282.615C378.541 282.885 370.449 284.234 370.449 286.661Z" fill="url(#paint51_linear_1_2128)"/>
<g opacity="0.61">
<path d="M382.586 295.831C384.474 295.831 386.362 295.831 388.25 295.831C394.454 295.561 400.118 294.752 403.624 293.404V291.786C400.118 293.134 394.454 293.943 388.52 294.213C380.159 294.483 373.685 292.864 371.258 291.246V293.134C373.146 294.483 377.461 295.561 382.586 295.831Z" fill="url(#paint52_linear_1_2128)"/>
</g>
<g opacity="0.61">
<path d="M382.586 299.337C384.474 299.337 386.362 299.607 388.25 299.337C394.454 299.067 400.118 298.258 403.624 296.91V295.291C400.118 296.64 394.454 297.449 388.52 297.719C380.159 297.988 373.685 296.37 371.258 294.752V296.64C373.146 297.988 377.731 299.067 382.586 299.337Z" fill="url(#paint53_linear_1_2128)"/>
</g>
<path d="M374.497 285.312C376.654 284.233 382.319 283.694 389.062 283.424C395.805 283.154 401.469 283.694 403.357 284.773H404.166V285.582C404.166 287.2 397.153 288.549 388.792 289.088C380.431 289.358 373.688 288.009 373.688 286.391V285.582L374.497 285.312Z" fill="url(#paint54_linear_1_2128)"/>
<path d="M373.688 285.312C373.688 286.93 380.431 288.279 389.062 288.009C397.423 287.739 404.436 286.121 404.436 284.503C404.436 282.884 397.693 282.075 389.331 282.345C380.7 282.884 373.688 283.694 373.688 285.312Z" fill="url(#paint55_linear_1_2128)"/>
<path d="M403.357 261.848L403.087 284.233C402.817 285.582 396.344 286.93 388.522 287.2C380.431 287.47 373.957 286.121 373.957 284.773L373.688 271.557L403.357 261.848Z" fill="url(#paint56_linear_1_2128)"/>
<path d="M392.027 254.296C392.027 254.296 392.297 250.52 391.758 247.553C390.949 244.586 392.028 242.429 397.692 238.922C402.547 235.686 434.913 218.964 443.544 214.379C444.623 213.84 446.781 213.84 448.399 214.379L461.885 219.504C464.043 220.313 465.122 221.931 463.773 223.01L430.058 252.408C430.058 252.408 425.743 256.453 422.776 257.262C419.809 258.072 409.829 261.578 407.671 262.657L392.027 254.296Z" fill="url(#paint57_linear_1_2128)"/>
<path d="M392.027 253.487C392.027 253.487 392.297 249.711 391.758 246.744C390.949 243.778 392.028 241.62 397.692 238.114C402.547 234.877 434.913 218.156 443.544 213.571C444.623 213.031 446.781 213.031 448.399 213.571L461.885 218.695C464.043 219.504 465.122 221.122 463.773 222.201L430.058 251.599C430.058 251.599 425.743 255.645 422.776 256.454C419.809 257.263 411.178 260.499 409.829 261.578L392.027 253.487Z" fill="url(#paint58_linear_1_2128)"/>
<path d="M387.171 279.379C387.171 279.379 387.71 291.246 386.361 293.673C385.013 296.101 382.316 298.528 376.921 301.225C372.336 303.652 342.936 317.138 334.305 320.914C332.957 321.453 330.799 321.453 329.181 320.644L315.155 313.901C313.267 313.092 312.458 311.474 313.806 310.665L353.725 277.221C353.725 277.221 356.692 273.445 362.626 272.636C368.56 271.827 371.257 270.479 371.257 270.479L387.171 279.379Z" fill="url(#paint59_linear_1_2128)"/>
<path d="M386.362 278.84C386.362 278.84 386.901 290.707 385.553 293.134C384.204 295.562 381.507 297.989 376.113 300.686C371.527 303.113 342.128 316.599 333.497 320.375C332.148 320.914 329.99 320.914 328.372 320.105L314.346 313.362C312.458 312.553 311.649 310.935 312.998 310.126L352.917 276.682C352.917 276.682 355.884 272.906 361.817 272.097C367.751 271.288 370.448 269.939 370.448 269.939L386.362 278.84Z" fill="url(#paint60_linear_1_2128)"/>
<path d="M404.433 263.196C404.433 263.196 409.557 264.005 413.873 257.533C418.458 251.06 410.636 247.553 405.512 247.823C400.387 248.093 389.598 251.869 390.677 254.566C392.025 257.802 404.433 263.196 404.433 263.196Z" fill="#717481"/>
<path d="M390.408 273.445C390.408 273.445 391.757 277.221 386.902 280.188C381.777 283.154 375.034 283.964 369.91 281.536C364.785 279.109 365.055 273.984 367.482 271.827C369.91 269.669 375.034 266.163 378.541 266.433C381.777 266.702 390.408 273.445 390.408 273.445Z" fill="#717481"/>
<path d="M379.89 273.445C384.476 275.603 390.14 275.873 392.298 273.985L407.672 261.578C410.099 259.69 408.211 256.454 403.626 254.296C399.041 252.138 393.376 251.869 391.219 253.757L375.845 266.163C373.417 268.051 375.305 271.288 379.89 273.445Z" fill="#252424"/>
<path d="M388.249 262.387C387.17 263.196 387.71 264.815 389.598 265.624C391.486 266.433 393.913 266.433 394.992 265.624C396.071 264.815 395.532 263.196 393.644 262.387C391.755 261.308 389.328 261.308 388.249 262.387Z" fill="url(#paint61_radial_1_2128)"/>
<path d="M388.79 262.657C387.981 263.466 388.521 264.545 389.869 265.354C391.488 266.163 393.376 266.163 394.185 265.354C394.994 264.545 394.455 263.466 393.106 262.657C391.757 261.848 389.869 261.848 388.79 262.657Z" fill="url(#paint62_radial_1_2128)"/>
<path d="M381.237 267.782C380.158 268.591 380.698 270.209 382.586 271.018C384.474 271.827 386.901 271.827 387.98 271.018C389.059 270.209 388.52 268.591 386.632 267.782C384.744 266.973 382.316 266.973 381.237 267.782Z" fill="url(#paint63_radial_1_2128)"/>
<path d="M382.044 268.321C381.235 269.13 381.774 270.209 383.123 271.018C384.741 271.827 386.629 271.827 387.439 271.018C388.248 270.209 387.708 269.13 386.36 268.321C384.741 267.512 382.853 267.512 382.044 268.321Z" fill="url(#paint64_radial_1_2128)"/>
<path d="M394.722 256.994C393.643 257.803 394.182 259.421 396.07 260.23C397.958 261.039 400.386 261.039 401.465 260.23C402.544 259.421 402.004 257.803 400.116 256.994C398.228 256.184 395.801 256.184 394.722 256.994Z" fill="url(#paint65_radial_1_2128)"/>
<path d="M395.529 257.263C394.719 258.072 395.259 259.151 396.607 259.96C398.226 260.769 400.114 260.769 400.923 259.96C401.732 259.151 401.193 258.072 399.844 257.263C398.226 256.724 396.338 256.724 395.529 257.263Z" fill="url(#paint66_radial_1_2128)"/>
<path d="M512.32 144.525H535.516V156.392H512.32V144.525Z" fill="url(#paint67_linear_1_2128)"/>
<path d="M544.418 174.462C544.418 174.462 543.609 173.114 539.023 174.193L540.372 177.16L541.181 177.429L543.609 176.081C543.609 176.35 544.418 175.541 544.418 174.462Z" fill="url(#paint68_radial_1_2128)"/>
<path d="M544.417 167.721V171.497C544.417 171.497 543.608 173.115 541.18 173.924V176.621C541.18 176.621 543.338 176.621 544.417 174.463V179.048C544.417 181.745 534.707 184.442 523.109 184.712C511.241 185.252 501.801 182.555 501.801 179.857L501.531 168.26L544.417 167.721Z" fill="url(#paint69_linear_1_2128)"/>
<path d="M501.531 168.529C501.531 171.226 510.971 173.923 522.839 173.384C534.707 172.844 544.147 170.417 544.147 167.72C544.147 165.023 534.707 163.405 522.839 163.944C511.241 164.214 501.531 165.832 501.531 168.529Z" fill="url(#paint70_linear_1_2128)"/>
<g opacity="0.61">
<path d="M516.095 179.587C518.253 179.587 520.411 179.857 522.569 179.587C529.851 179.318 536.594 178.239 540.64 176.621V174.733C536.594 176.351 529.851 177.43 522.838 177.7C513.129 177.969 505.307 176.081 502.609 174.193V176.351C505.037 177.969 510.162 179.318 516.095 179.587Z" fill="url(#paint71_linear_1_2128)"/>
</g>
<g opacity="0.61">
<path d="M516.095 183.633C518.253 183.633 520.411 183.903 522.569 183.633C529.851 183.364 536.594 182.285 540.64 180.667V178.779C536.594 180.397 529.851 181.476 522.838 181.745C513.129 182.015 505.307 180.127 502.609 178.239V180.397C505.037 182.285 510.162 183.364 516.095 183.633Z" fill="url(#paint72_linear_1_2128)"/>
</g>
<path d="M506.388 167.181C508.815 166.102 515.558 165.293 523.38 164.753C531.202 164.484 537.945 165.023 540.372 166.102H541.451V167.181C541.451 169.069 533.36 170.957 523.38 171.226C513.4 171.496 505.309 169.878 505.309 167.99V166.911L506.388 167.181Z" fill="url(#paint73_linear_1_2128)"/>
<path d="M505.578 167.181C505.578 169.069 513.67 170.687 523.649 170.417C533.629 170.148 541.721 168.26 541.721 166.372C541.721 164.484 533.629 163.405 523.649 163.945C513.67 164.214 505.578 165.293 505.578 167.181Z" fill="url(#paint74_linear_1_2128)"/>
<path d="M537.945 151.268C539.293 150.998 540.642 152.347 540.642 153.696L540.372 165.832C540.102 167.451 532.55 169.069 523.11 169.338C513.67 169.608 505.848 168.26 505.848 166.641L505.578 153.426C505.578 152.077 506.657 150.998 508.006 151.268C511.512 151.808 518.255 152.347 522.571 152.347C527.965 152.347 534.438 151.808 537.945 151.268Z" fill="url(#paint75_linear_1_2128)"/>
<path d="M515.017 137.514C515.017 137.514 514.747 133.738 512.05 131.311C509.353 128.883 509.083 126.726 512.589 122.141C515.556 118.095 538.483 95.7095 544.416 89.7759C545.226 88.9668 547.383 88.4274 549.541 88.6971L566.803 90.3154C569.77 90.5851 571.658 91.9336 571.119 93.0124L554.936 126.995C554.936 126.995 553.048 131.58 550.62 132.929C547.923 134.277 541.18 139.132 538.752 140.75L515.017 137.514Z" fill="url(#paint76_linear_1_2128)"/>
<path d="M516.366 136.435C516.366 136.435 514.208 132.928 511.511 130.501C508.814 128.074 508.544 125.916 512.05 121.331C515.017 117.286 537.944 94.8999 543.877 88.9664C544.687 88.1573 546.844 87.6178 549.002 87.8875L566.264 89.5058C569.231 89.7755 571.119 91.124 570.58 92.2028L554.397 126.186C554.397 126.186 552.509 130.771 550.081 132.119C547.654 133.468 540.641 138.323 540.101 139.941L516.366 136.435Z" fill="url(#paint77_linear_1_2128)"/>
<path d="M526.616 160.978C526.616 160.978 534.978 171.497 534.978 173.924C534.978 176.352 533.899 179.049 530.123 182.825C526.886 186.061 505.038 204.941 498.835 210.335C497.756 211.144 495.598 211.413 493.44 211.144L474.56 208.447C471.863 208.177 469.975 206.559 470.514 205.21L490.473 166.642C490.473 166.642 491.013 162.597 496.677 160.709C502.341 158.551 504.229 156.663 504.229 156.663L526.616 160.978Z" fill="url(#paint78_linear_1_2128)"/>
<path d="M526.346 160.438C526.346 160.438 534.707 170.957 534.707 173.384C534.707 175.812 533.628 178.509 529.852 182.285C526.616 185.521 504.768 204.4 498.565 209.795C497.486 210.604 495.328 210.873 493.17 210.604L474.29 207.907C471.592 207.637 469.974 206.288 470.514 205.21L490.203 166.102C490.203 166.102 490.743 162.057 496.407 160.169C502.071 158.011 503.959 156.123 503.959 156.123L526.346 160.438Z" fill="url(#paint79_linear_1_2128)"/>
<path d="M535.785 142.369C535.785 142.369 541.449 141.829 541.989 135.087C542.528 128.344 532.279 126.995 527.154 128.344C522.029 129.692 513.128 135.626 516.095 137.784C519.332 140.211 535.785 142.369 535.785 142.369Z" fill="#717481"/>
<path d="M527.694 154.505C527.694 154.505 531.74 157.472 528.234 161.248C524.727 165.024 518.254 167.451 511.511 166.372C504.768 165.294 501.531 160.709 502.61 158.281C503.689 155.854 506.926 151.539 510.702 150.999C514.478 150.729 527.694 154.505 527.694 154.505Z" fill="#717481"/>
<path d="M516.637 157.202C522.841 158.011 528.775 156.933 530.123 154.775L537.945 140.211C539.024 138.053 534.978 135.626 528.775 134.547C522.571 133.738 516.637 134.817 515.289 136.974L507.467 151.538C506.388 153.696 510.703 156.123 516.637 157.202Z" fill="#252424"/>
<path d="M518.252 145.335C517.713 146.414 519.331 147.493 521.759 147.763C524.186 148.032 526.614 147.493 527.423 146.414C527.962 145.335 526.344 144.256 523.917 143.987C521.489 143.717 518.792 144.256 518.252 145.335Z" fill="url(#paint80_radial_1_2128)"/>
<path d="M519.331 145.336C518.791 146.145 520.14 147.223 522.028 147.493C523.916 147.763 526.074 147.223 526.613 146.414C527.153 145.605 525.804 144.796 523.646 144.257C521.758 143.987 519.601 144.526 519.331 145.336Z" fill="url(#paint81_radial_1_2128)"/>
<path d="M514.748 151.808C514.209 152.887 515.827 153.966 518.255 154.235C520.682 154.505 523.11 153.966 523.919 152.887C524.458 151.808 522.84 150.729 520.413 150.459C517.715 150.19 515.288 150.729 514.748 151.808Z" fill="url(#paint82_radial_1_2128)"/>
<path d="M515.557 152.078C515.018 152.887 516.367 153.696 518.255 154.235C520.143 154.505 522.3 153.966 522.84 153.157C523.379 152.347 522.031 151.538 519.873 150.999C517.985 150.729 516.097 151.269 515.557 152.078Z" fill="url(#paint83_radial_1_2128)"/>
<path d="M521.76 139.132C521.221 140.211 522.839 141.29 525.267 141.559C527.694 141.829 530.122 141.29 530.931 140.211C531.47 139.132 529.852 138.053 527.424 137.784C524.727 137.514 522.3 138.053 521.76 139.132Z" fill="url(#paint84_radial_1_2128)"/>
<path d="M522.569 139.132C522.03 139.941 523.378 141.02 525.266 141.29C527.154 141.56 529.312 141.02 529.852 140.211C530.391 139.402 529.042 138.323 526.885 138.054C524.997 137.784 523.109 138.323 522.569 139.132Z" fill="url(#paint85_radial_1_2128)"/>
<path d="M381.775 124.298C380.157 112.7 373.953 102.721 364.783 96.248C361.276 103.8 344.554 134.546 300.859 168.529C250.421 207.637 275.775 252.408 275.775 252.408L327.561 228.944C362.355 197.118 382.584 163.675 382.584 163.675C384.742 152.077 383.663 136.974 381.775 124.298Z" fill="url(#paint86_linear_1_2128)"/>
<path d="M302.479 229.483C265.527 259.42 241.522 264.275 241.522 264.275L233.16 280.188L234.509 281.267C308.412 264.005 361.008 195.23 377.191 171.766C361.278 151.538 339.7 199.546 302.479 229.483Z" fill="url(#paint87_linear_1_2128)"/>
<path d="M316.234 84.3812C310.57 83.8418 304.906 85.1903 300.32 88.4268C251.231 122.14 219.943 153.426 200.523 178.509C217.786 169.608 243.139 154.235 252.849 138.592C264.178 120.252 302.208 95.7089 320.28 84.6509C318.661 84.6509 317.313 84.3812 316.234 84.3812Z" fill="url(#paint88_linear_1_2128)"/>
<path d="M243.947 273.985C238.823 284.773 217.784 285.852 196.476 276.142C175.438 266.433 162.492 249.441 167.616 238.653C172.741 227.865 193.779 226.786 215.087 236.765C236.126 246.205 249.072 262.927 243.947 273.985Z" fill="url(#paint89_linear_1_2128)"/>
<path d="M233.699 273.984C229.923 281.806 213.47 281.806 196.748 273.984C180.025 266.163 169.775 253.217 173.552 245.395C177.328 237.574 193.781 237.574 210.503 245.395C226.956 253.217 237.475 265.893 233.699 273.984Z" fill="#08D7FC"/>
<path d="M220.754 271.558C218.596 276.143 207.807 275.873 197.018 270.749C186.229 265.624 178.947 257.533 181.374 252.948C183.532 248.363 194.321 248.633 205.11 253.757C215.899 258.881 222.911 266.973 220.754 271.558Z" fill="#372C20"/>
<path d="M215.627 270.209C214.009 273.715 205.917 273.445 197.556 269.4C189.194 265.354 184.07 259.421 185.688 255.914C187.306 252.408 195.398 252.678 203.759 256.724C211.851 260.769 217.245 266.703 215.627 270.209Z" fill="#160605"/>
<path d="M199.173 261.039C197.015 260.229 194.858 260.229 194.318 261.578C193.779 262.657 195.127 264.545 197.285 265.354C199.443 266.163 201.601 266.163 202.14 264.814C202.41 263.736 201.061 261.848 199.173 261.039Z" fill="#50402A"/>
<path opacity="0.44" d="M202.413 266.972C201.604 266.702 201.064 266.702 200.794 266.972C200.525 267.511 201.064 268.051 201.604 268.32C202.413 268.59 202.952 268.59 203.222 268.32C203.492 267.781 203.222 267.242 202.413 266.972Z" fill="#FFFF00"/>
<path d="M280.63 175.812C258.513 160.708 231.541 159.629 215.358 160.978C214.279 162.057 213.47 163.136 212.391 164.214C227.765 162.596 256.085 162.596 279.012 178.239C297.892 191.185 309.49 211.953 314.076 240.272C314.885 239.463 315.964 238.653 316.773 238.114C311.648 209.795 299.511 189.027 280.63 175.812Z" fill="url(#paint90_linear_1_2128)"/>
</g>
<defs>
<linearGradient id="paint0_linear_1_2128" x1="163.606" y1="133.955" x2="196.316" y2="133.955" gradientUnits="userSpaceOnUse">
<stop stop-color="#575559"/>
<stop offset="1" stop-color="#252424"/>
</linearGradient>
<linearGradient id="paint1_linear_1_2128" x1="168.136" y1="123.735" x2="260.814" y2="123.735" gradientUnits="userSpaceOnUse">
<stop stop-color="#575559"/>
<stop offset="1" stop-color="#252424"/>
</linearGradient>
<linearGradient id="paint2_linear_1_2128" x1="222.431" y1="108.641" x2="211.484" y2="123.14" gradientUnits="userSpaceOnUse">
<stop stop-color="#FFFAE9"/>
<stop offset="1" stop-color="#FFFAE9" stop-opacity="0"/>
</linearGradient>
<linearGradient id="paint3_linear_1_2128" x1="201.075" y1="101.677" x2="164.303" y2="99.5364" gradientUnits="userSpaceOnUse">
<stop stop-color="#343333"/>
<stop offset="0.00553198" stop-color="#383737"/>
<stop offset="0.0696502" stop-color="#626161"/>
<stop offset="0.1321" stop-color="#828182"/>
<stop offset="0.1915" stop-color="#9A999A"/>
<stop offset="0.2468" stop-color="#A8A7A8"/>
<stop offset="0.2938" stop-color="#ADACAD"/>
<stop offset="0.5299" stop-color="#737272"/>
<stop offset="0.7424" stop-color="#454445"/>
<stop offset="0.9057" stop-color="#292828"/>
<stop offset="1" stop-color="#1F1E1E"/>
</linearGradient>
<linearGradient id="paint4_linear_1_2128" x1="200.753" y1="95.4493" x2="164.662" y2="93.3487" gradientUnits="userSpaceOnUse">
<stop offset="0.0206186"/>
<stop offset="0.0512245" stop-color="#1C1C1C"/>
<stop offset="0.0927999" stop-color="#3C3B3B"/>
<stop offset="0.133" stop-color="#535152"/>
<stop offset="0.1708" stop-color="#615E5F"/>
<stop offset="0.2037" stop-color="#666364"/>
<stop offset="0.2239" stop-color="#5C595A"/>
<stop offset="0.2912" stop-color="#403E3E"/>
<stop offset="0.3671" stop-color="#282727"/>
<stop offset="0.4534" stop-color="#161516"/>
<stop offset="0.5567" stop-color="#090909"/>
<stop offset="0.6937" stop-color="#020202"/>
<stop offset="1"/>
</linearGradient>
<linearGradient id="paint5_linear_1_2128" x1="197.635" y1="102.319" x2="165.19" y2="100.431" gradientUnits="userSpaceOnUse">
<stop stop-color="#393738"/>
<stop offset="0.0090182" stop-color="#3C3A3B"/>
<stop offset="0.0793959" stop-color="#535152"/>
<stop offset="0.1458" stop-color="#615E5F"/>
<stop offset="0.2037" stop-color="#666364"/>
<stop offset="0.2239" stop-color="#5C595A"/>
<stop offset="0.2912" stop-color="#403E3E"/>
<stop offset="0.3671" stop-color="#282727"/>
<stop offset="0.4534" stop-color="#161516"/>
<stop offset="0.5567" stop-color="#090909"/>
<stop offset="0.6937" stop-color="#020202"/>
<stop offset="1"/>
</linearGradient>
<linearGradient id="paint6_linear_1_2128" x1="197.724" y1="105.797" x2="165.277" y2="103.908" gradientUnits="userSpaceOnUse">
<stop stop-color="#393738"/>
<stop offset="0.0090182" stop-color="#3C3A3B"/>
<stop offset="0.0793959" stop-color="#535152"/>
<stop offset="0.1458" stop-color="#615E5F"/>
<stop offset="0.2037" stop-color="#666364"/>
<stop offset="0.2239" stop-color="#5C595A"/>
<stop offset="0.2912" stop-color="#403E3E"/>
<stop offset="0.3671" stop-color="#282727"/>
<stop offset="0.4534" stop-color="#161516"/>
<stop offset="0.5567" stop-color="#090909"/>
<stop offset="0.6937" stop-color="#020202"/>
<stop offset="1"/>
</linearGradient>
<linearGradient id="paint7_linear_1_2128" x1="198.409" y1="94.8245" x2="167.94" y2="93.0511" gradientUnits="userSpaceOnUse">
<stop stop-color="#343333"/>
<stop offset="0.00553198" stop-color="#383737"/>
<stop offset="0.0696502" stop-color="#626161"/>
<stop offset="0.1321" stop-color="#828182"/>
<stop offset="0.1915" stop-color="#9A999A"/>
<stop offset="0.2468" stop-color="#A8A7A8"/>
<stop offset="0.2938" stop-color="#ADACAD"/>
<stop offset="0.5299" stop-color="#737272"/>
<stop offset="0.7424" stop-color="#454445"/>
<stop offset="0.9057" stop-color="#292828"/>
<stop offset="1" stop-color="#1F1E1E"/>
</linearGradient>
<linearGradient id="paint8_linear_1_2128" x1="199.209" y1="93.9811" x2="168.79" y2="92.2107" gradientUnits="userSpaceOnUse">
<stop offset="0.0206186"/>
<stop offset="0.0512245" stop-color="#1C1C1C"/>
<stop offset="0.0927999" stop-color="#3C3B3B"/>
<stop offset="0.133" stop-color="#535152"/>
<stop offset="0.1708" stop-color="#615E5F"/>
<stop offset="0.2037" stop-color="#666364"/>
<stop offset="0.2239" stop-color="#5C595A"/>
<stop offset="0.2912" stop-color="#403E3E"/>
<stop offset="0.3671" stop-color="#282727"/>
<stop offset="0.4534" stop-color="#161516"/>
<stop offset="0.5567" stop-color="#090909"/>
<stop offset="0.6937" stop-color="#020202"/>
<stop offset="1"/>
</linearGradient>
<linearGradient id="paint9_linear_1_2128" x1="198.003" y1="83.0086" x2="168.067" y2="81.2663" gradientUnits="userSpaceOnUse">
<stop offset="0.0206186"/>
<stop offset="0.0518649" stop-color="#101010"/>
<stop offset="0.1067" stop-color="#272526"/>
<stop offset="0.1585" stop-color="#353233"/>
<stop offset="0.2037" stop-color="#3A3738"/>
<stop offset="0.2734" stop-color="#282627"/>
<stop offset="0.372" stop-color="#161515"/>
<stop offset="0.4907" stop-color="#090909"/>
<stop offset="0.6481" stop-color="#020202"/>
<stop offset="1"/>
</linearGradient>
<linearGradient id="paint10_linear_1_2128" x1="234.917" y1="57.1126" x2="205.011" y2="30.4692" gradientUnits="userSpaceOnUse">
<stop stop-color="#ACABAB"/>
<stop offset="1" stop-color="#BCBEC0"/>
</linearGradient>
<linearGradient id="paint11_linear_1_2128" x1="234.917" y1="56.1051" x2="205.013" y2="29.4632" gradientUnits="userSpaceOnUse">
<stop stop-color="#252424"/>
<stop offset="1" stop-color="#575559"/>
</linearGradient>
<linearGradient id="paint12_linear_1_2128" x1="163.661" y1="120.945" x2="131.469" y2="92.2654" gradientUnits="userSpaceOnUse">
<stop stop-color="#ACABAB"/>
<stop offset="1" stop-color="#BCBEC0"/>
</linearGradient>
<linearGradient id="paint13_linear_1_2128" x1="162.977" y1="120.251" x2="130.787" y2="91.5732" gradientUnits="userSpaceOnUse">
<stop stop-color="#252424"/>
<stop offset="1" stop-color="#575559"/>
</linearGradient>
<radialGradient id="paint14_radial_1_2128" cx="0" cy="0" r="1" gradientUnits="userSpaceOnUse" gradientTransform="translate(187.367 72.026) rotate(-154.466) scale(6.04177 3.72526)">
<stop stop-color="#717481"/>
<stop offset="1" stop-color="#ACABAB"/>
</radialGradient>
<radialGradient id="paint15_radial_1_2128" cx="0" cy="0" r="1" gradientUnits="userSpaceOnUse" gradientTransform="translate(187.075 71.9763) rotate(-154.466) scale(4.88656 3.01297)">
<stop stop-color="#EBBB79"/>
<stop offset="1" stop-color="#BE965D"/>
</radialGradient>
<radialGradient id="paint16_radial_1_2128" cx="0" cy="0" r="1" gradientUnits="userSpaceOnUse" gradientTransform="translate(180.403 77.636) rotate(-154.466) scale(6.04274 3.72586)">
<stop stop-color="#717481"/>
<stop offset="1" stop-color="#ACABAB"/>
</radialGradient>
<radialGradient id="paint17_radial_1_2128" cx="0" cy="0" r="1" gradientUnits="userSpaceOnUse" gradientTransform="translate(180.109 77.582) rotate(-154.466) scale(4.89069 3.01552)">
<stop stop-color="#EBBB79"/>
<stop offset="1" stop-color="#BE965D"/>
</radialGradient>
<radialGradient id="paint18_radial_1_2128" cx="0" cy="0" r="1" gradientUnits="userSpaceOnUse" gradientTransform="translate(193.92 66.7507) rotate(-154.466) scale(6.04549 3.72755)">
<stop stop-color="#717481"/>
<stop offset="1" stop-color="#ACABAB"/>
</radialGradient>
<radialGradient id="paint19_radial_1_2128" cx="0" cy="0" r="1" gradientUnits="userSpaceOnUse" gradientTransform="translate(193.624 66.6982) rotate(-154.466) scale(4.88849 3.01416)">
<stop stop-color="#EBBB79"/>
<stop offset="1" stop-color="#BE965D"/>
</radialGradient>
<linearGradient id="paint20_linear_1_2128" x1="19.4907" y1="254.118" x2="61.3321" y2="254.118" gradientUnits="userSpaceOnUse">
<stop stop-color="#575559"/>
<stop offset="1" stop-color="#252424"/>
</linearGradient>
<linearGradient id="paint21_linear_1_2128" x1="37.5918" y1="226.509" x2="185.07" y2="226.509" gradientUnits="userSpaceOnUse">
<stop stop-color="#575559"/>
<stop offset="1" stop-color="#252424"/>
</linearGradient>
<linearGradient id="paint22_linear_1_2128" x1="112.685" y1="214.343" x2="111.608" y2="226.849" gradientUnits="userSpaceOnUse">
<stop stop-color="#FFFAE9"/>
<stop offset="1" stop-color="#FFFAE9" stop-opacity="0"/>
</linearGradient>
<linearGradient id="paint23_linear_1_2128" x1="59.489" y1="192.134" x2="38.4934" y2="192.134" gradientUnits="userSpaceOnUse">
<stop offset="0.0206186"/>
<stop offset="0.0518649" stop-color="#101010"/>
<stop offset="0.1067" stop-color="#272526"/>
<stop offset="0.1585" stop-color="#353233"/>
<stop offset="0.2037" stop-color="#3A3738"/>
<stop offset="0.2734" stop-color="#282627"/>
<stop offset="0.372" stop-color="#161515"/>
<stop offset="0.4907" stop-color="#090909"/>
<stop offset="0.6481" stop-color="#020202"/>
<stop offset="1"/>
</linearGradient>
<radialGradient id="paint24_radial_1_2128" cx="0" cy="0" r="1" gradientUnits="userSpaceOnUse" gradientTransform="translate(66.8995 213.832) rotate(180) scale(4.45013 4.44988)">
<stop offset="0.0206186"/>
<stop offset="0.2544" stop-color="#272627"/>
<stop offset="0.4844" stop-color="#474545"/>
<stop offset="0.6781" stop-color="#5A5758"/>
<stop offset="0.812" stop-color="#615E5F"/>
<stop offset="0.8174" stop-color="#615E5F"/>
<stop offset="1" stop-color="#666364"/>
</radialGradient>
<linearGradient id="paint25_linear_1_2128" x1="67.8047" y1="216.274" x2="28.5569" y2="213.99" gradientUnits="userSpaceOnUse">
<stop stop-color="#343333"/>
<stop offset="0.00553198" stop-color="#383737"/>
<stop offset="0.0696502" stop-color="#626161"/>
<stop offset="0.1321" stop-color="#828182"/>
<stop offset="0.1915" stop-color="#9A999A"/>
<stop offset="0.2468" stop-color="#A8A7A8"/>
<stop offset="0.2938" stop-color="#ADACAD"/>
<stop offset="0.5299" stop-color="#737272"/>
<stop offset="0.7424" stop-color="#454445"/>
<stop offset="0.9057" stop-color="#292828"/>
<stop offset="1" stop-color="#1F1E1E"/>
</linearGradient>
<linearGradient id="paint26_linear_1_2128" x1="67.456" y1="209.626" x2="28.9399" y2="207.385" gradientUnits="userSpaceOnUse">
<stop offset="0.0206186"/>
<stop offset="0.0512245" stop-color="#1C1C1C"/>
<stop offset="0.0927999" stop-color="#3C3B3B"/>
<stop offset="0.133" stop-color="#535152"/>
<stop offset="0.1708" stop-color="#615E5F"/>
<stop offset="0.2037" stop-color="#666364"/>
<stop offset="0.2239" stop-color="#5C595A"/>
<stop offset="0.2912" stop-color="#403E3E"/>
<stop offset="0.3671" stop-color="#282727"/>
<stop offset="0.4534" stop-color="#161516"/>
<stop offset="0.5567" stop-color="#090909"/>
<stop offset="0.6937" stop-color="#020202"/>
<stop offset="1"/>
</linearGradient>
<linearGradient id="paint27_linear_1_2128" x1="64.1299" y1="216.959" x2="29.5067" y2="214.944" gradientUnits="userSpaceOnUse">
<stop stop-color="#393738"/>
<stop offset="0.0090182" stop-color="#3C3A3B"/>
<stop offset="0.0793959" stop-color="#535152"/>
<stop offset="0.1458" stop-color="#615E5F"/>
<stop offset="0.2037" stop-color="#666364"/>
<stop offset="0.2239" stop-color="#5C595A"/>
<stop offset="0.2912" stop-color="#403E3E"/>
<stop offset="0.3671" stop-color="#282727"/>
<stop offset="0.4534" stop-color="#161516"/>
<stop offset="0.5567" stop-color="#090909"/>
<stop offset="0.6937" stop-color="#020202"/>
<stop offset="1"/>
</linearGradient>
<linearGradient id="paint28_linear_1_2128" x1="64.2219" y1="220.67" x2="29.5934" y2="218.655" gradientUnits="userSpaceOnUse">
<stop stop-color="#393738"/>
<stop offset="0.0090182" stop-color="#3C3A3B"/>
<stop offset="0.0793959" stop-color="#535152"/>
<stop offset="0.1458" stop-color="#615E5F"/>
<stop offset="0.2037" stop-color="#666364"/>
<stop offset="0.2239" stop-color="#5C595A"/>
<stop offset="0.2912" stop-color="#403E3E"/>
<stop offset="0.3671" stop-color="#282727"/>
<stop offset="0.4534" stop-color="#161516"/>
<stop offset="0.5567" stop-color="#090909"/>
<stop offset="0.6937" stop-color="#020202"/>
<stop offset="1"/>
</linearGradient>
<linearGradient id="paint29_linear_1_2128" x1="64.9578" y1="208.961" x2="32.4409" y2="207.068" gradientUnits="userSpaceOnUse">
<stop stop-color="#343333"/>
<stop offset="0.00553198" stop-color="#383737"/>
<stop offset="0.0696502" stop-color="#626161"/>
<stop offset="0.1321" stop-color="#828182"/>
<stop offset="0.1915" stop-color="#9A999A"/>
<stop offset="0.2468" stop-color="#A8A7A8"/>
<stop offset="0.2938" stop-color="#ADACAD"/>
<stop offset="0.5299" stop-color="#737272"/>
<stop offset="0.7424" stop-color="#454445"/>
<stop offset="0.9057" stop-color="#292828"/>
<stop offset="1" stop-color="#1F1E1E"/>
</linearGradient>
<linearGradient id="paint30_linear_1_2128" x1="65.8109" y1="208.064" x2="33.3481" y2="206.174" gradientUnits="userSpaceOnUse">
<stop offset="0.0206186"/>
<stop offset="0.0512245" stop-color="#1C1C1C"/>
<stop offset="0.0927999" stop-color="#3C3B3B"/>
<stop offset="0.133" stop-color="#535152"/>
<stop offset="0.1708" stop-color="#615E5F"/>
<stop offset="0.2037" stop-color="#666364"/>
<stop offset="0.2239" stop-color="#5C595A"/>
<stop offset="0.2912" stop-color="#403E3E"/>
<stop offset="0.3671" stop-color="#282727"/>
<stop offset="0.4534" stop-color="#161516"/>
<stop offset="0.5567" stop-color="#090909"/>
<stop offset="0.6937" stop-color="#020202"/>
<stop offset="1"/>
</linearGradient>
<linearGradient id="paint31_linear_1_2128" x1="64.1998" y1="201.743" x2="32.4092" y2="199.893" gradientUnits="userSpaceOnUse">
<stop offset="0.0206186"/>
<stop offset="0.0518649" stop-color="#101010"/>
<stop offset="0.1067" stop-color="#272526"/>
<stop offset="0.1585" stop-color="#353233"/>
<stop offset="0.2037" stop-color="#3A3738"/>
<stop offset="0.2734" stop-color="#282627"/>
<stop offset="0.372" stop-color="#161515"/>
<stop offset="0.4907" stop-color="#090909"/>
<stop offset="0.6481" stop-color="#020202"/>
<stop offset="1"/>
</linearGradient>
<linearGradient id="paint32_linear_1_2128" x1="84.3203" y1="164.978" x2="42.3511" y2="152.068" gradientUnits="userSpaceOnUse">
<stop stop-color="#D1D3D4"/>
<stop offset="1" stop-color="#ACABAB"/>
</linearGradient>
<linearGradient id="paint33_linear_1_2128" x1="84.0388" y1="163.971" x2="42.0602" y2="151.058" gradientUnits="userSpaceOnUse">
<stop stop-color="#ACABAB"/>
<stop offset="1" stop-color="#575559"/>
</linearGradient>
<linearGradient id="paint34_linear_1_2128" x1="53.9597" y1="231.316" x2="8.06589" y2="217.198" gradientUnits="userSpaceOnUse">
<stop stop-color="#D1D3D4"/>
<stop offset="1" stop-color="#ACABAB"/>
</linearGradient>
<linearGradient id="paint35_linear_1_2128" x1="53.7142" y1="230.633" x2="8.24521" y2="216.646" gradientUnits="userSpaceOnUse">
<stop stop-color="#ACABAB"/>
<stop offset="1" stop-color="#575559"/>
</linearGradient>
<radialGradient id="paint36_radial_1_2128" cx="0" cy="0" r="1" gradientUnits="userSpaceOnUse" gradientTransform="translate(49.7161 187.881) rotate(-171.904) scale(6.72959 2.9534)">
<stop stop-color="#717481"/>
<stop offset="1" stop-color="#ACABAB"/>
</radialGradient>
<radialGradient id="paint37_radial_1_2128" cx="0" cy="0" r="1" gradientUnits="userSpaceOnUse" gradientTransform="translate(49.4154 187.902) rotate(-171.904) scale(5.44122 2.38797)">
<stop stop-color="#EBBB79"/>
<stop offset="1" stop-color="#BE965D"/>
</radialGradient>
<radialGradient id="paint38_radial_1_2128" cx="0" cy="0" r="1" gradientUnits="userSpaceOnUse" gradientTransform="translate(46.4522 193.868) rotate(-171.904) scale(6.7159 2.94738)">
<stop stop-color="#717481"/>
<stop offset="1" stop-color="#ACABAB"/>
</radialGradient>
<radialGradient id="paint39_radial_1_2128" cx="0" cy="0" r="1" gradientUnits="userSpaceOnUse" gradientTransform="translate(46.152 193.89) rotate(-171.904) scale(5.44364 2.38903)">
<stop stop-color="#EBBB79"/>
<stop offset="1" stop-color="#BE965D"/>
</radialGradient>
<radialGradient id="paint40_radial_1_2128" cx="0" cy="0" r="1" gradientUnits="userSpaceOnUse" gradientTransform="translate(52.7854 182.249) rotate(-171.904) scale(6.72617 2.9519)">
<stop stop-color="#717481"/>
<stop offset="1" stop-color="#ACABAB"/>
</radialGradient>
<radialGradient id="paint41_radial_1_2128" cx="0" cy="0" r="1" gradientUnits="userSpaceOnUse" gradientTransform="translate(52.4813 182.269) rotate(-171.904) scale(5.44001 2.38744)">
<stop stop-color="#EBBB79"/>
<stop offset="1" stop-color="#BE965D"/>
</radialGradient>
<linearGradient id="paint42_linear_1_2128" x1="210.287" y1="238.02" x2="208.186" y2="214.355" gradientUnits="userSpaceOnUse">
<stop stop-color="#575559"/>
<stop offset="1" stop-color="#252424"/>
</linearGradient>
<linearGradient id="paint43_linear_1_2128" x1="271.696" y1="283.389" x2="414.329" y2="283.389" gradientUnits="userSpaceOnUse">
<stop stop-color="#575559"/>
<stop offset="1" stop-color="#252424"/>
</linearGradient>
<linearGradient id="paint44_linear_1_2128" x1="351.218" y1="270.081" x2="342.561" y2="286.256" gradientUnits="userSpaceOnUse">
<stop stop-color="#FFFAE9"/>
<stop offset="1" stop-color="#FFFAE9" stop-opacity="0"/>
</linearGradient>
<linearGradient id="paint45_linear_1_2128" x1="523.15" y1="219.725" x2="560.128" y2="219.725" gradientUnits="userSpaceOnUse">
<stop stop-color="#575559"/>
<stop offset="1" stop-color="#252424"/>
</linearGradient>
<linearGradient id="paint46_linear_1_2128" x1="369.831" y1="338.126" x2="416.435" y2="338.126" gradientUnits="userSpaceOnUse">
<stop stop-color="#575559"/>
<stop offset="1" stop-color="#252424"/>
</linearGradient>
<linearGradient id="paint47_linear_1_2128" x1="347.4" y1="183.759" x2="548.007" y2="183.759" gradientUnits="userSpaceOnUse">
<stop stop-color="#575559"/>
<stop offset="1" stop-color="#252424"/>
</linearGradient>
<linearGradient id="paint48_linear_1_2128" x1="447.673" y1="193.185" x2="447.838" y2="214.407" gradientUnits="userSpaceOnUse">
<stop stop-color="#575559"/>
<stop offset="1" stop-color="#575559" stop-opacity="0"/>
</linearGradient>
<linearGradient id="paint49_linear_1_2128" x1="455.195" y1="192.765" x2="453.488" y2="173.535" gradientUnits="userSpaceOnUse">
<stop stop-color="#FFFAE9"/>
<stop offset="1" stop-color="#FFFAE9" stop-opacity="0"/>
</linearGradient>
<linearGradient id="paint50_linear_1_2128" x1="406.821" y1="293.817" x2="370.046" y2="291.677" gradientUnits="userSpaceOnUse">
<stop stop-color="#343333"/>
<stop offset="0.00553198" stop-color="#383737"/>
<stop offset="0.0696502" stop-color="#626161"/>
<stop offset="0.1321" stop-color="#828182"/>
<stop offset="0.1915" stop-color="#9A999A"/>
<stop offset="0.2468" stop-color="#A8A7A8"/>
<stop offset="0.2938" stop-color="#ADACAD"/>
<stop offset="0.5299" stop-color="#737272"/>
<stop offset="0.7424" stop-color="#454445"/>
<stop offset="0.9057" stop-color="#292828"/>
<stop offset="1" stop-color="#1F1E1E"/>
</linearGradient>
<linearGradient id="paint51_linear_1_2128" x1="406.494" y1="287.587" x2="370.406" y2="285.487" gradientUnits="userSpaceOnUse">
<stop offset="0.0206186"/>
<stop offset="0.0512245" stop-color="#1C1C1C"/>
<stop offset="0.0927999" stop-color="#3C3B3B"/>
<stop offset="0.133" stop-color="#535152"/>
<stop offset="0.1708" stop-color="#615E5F"/>
<stop offset="0.2037" stop-color="#666364"/>
<stop offset="0.2239" stop-color="#5C595A"/>
<stop offset="0.2912" stop-color="#403E3E"/>
<stop offset="0.3671" stop-color="#282727"/>
<stop offset="0.4534" stop-color="#161516"/>
<stop offset="0.5567" stop-color="#090909"/>
<stop offset="0.6937" stop-color="#020202"/>
<stop offset="1"/>
</linearGradient>
<linearGradient id="paint52_linear_1_2128" x1="403.382" y1="294.456" x2="370.934" y2="292.567" gradientUnits="userSpaceOnUse">
<stop stop-color="#393738"/>
<stop offset="0.0090182" stop-color="#3C3A3B"/>
<stop offset="0.0793959" stop-color="#535152"/>
<stop offset="0.1458" stop-color="#615E5F"/>
<stop offset="0.2037" stop-color="#666364"/>
<stop offset="0.2239" stop-color="#5C595A"/>
<stop offset="0.2912" stop-color="#403E3E"/>
<stop offset="0.3671" stop-color="#282727"/>
<stop offset="0.4534" stop-color="#161516"/>
<stop offset="0.5567" stop-color="#090909"/>
<stop offset="0.6937" stop-color="#020202"/>
<stop offset="1"/>
</linearGradient>
<linearGradient id="paint53_linear_1_2128" x1="403.46" y1="297.931" x2="371.021" y2="296.043" gradientUnits="userSpaceOnUse">
<stop stop-color="#393738"/>
<stop offset="0.0090182" stop-color="#3C3A3B"/>
<stop offset="0.0793959" stop-color="#535152"/>
<stop offset="0.1458" stop-color="#615E5F"/>
<stop offset="0.2037" stop-color="#666364"/>
<stop offset="0.2239" stop-color="#5C595A"/>
<stop offset="0.2912" stop-color="#403E3E"/>
<stop offset="0.3671" stop-color="#282727"/>
<stop offset="0.4534" stop-color="#161516"/>
<stop offset="0.5567" stop-color="#090909"/>
<stop offset="0.6937" stop-color="#020202"/>
<stop offset="1"/>
</linearGradient>
<linearGradient id="paint54_linear_1_2128" x1="404.153" y1="286.963" x2="373.682" y2="285.19" gradientUnits="userSpaceOnUse">
<stop stop-color="#343333"/>
<stop offset="0.00553198" stop-color="#383737"/>
<stop offset="0.0696502" stop-color="#626161"/>
<stop offset="0.1321" stop-color="#828182"/>
<stop offset="0.1915" stop-color="#9A999A"/>
<stop offset="0.2468" stop-color="#A8A7A8"/>
<stop offset="0.2938" stop-color="#ADACAD"/>
<stop offset="0.5299" stop-color="#737272"/>
<stop offset="0.7424" stop-color="#454445"/>
<stop offset="0.9057" stop-color="#292828"/>
<stop offset="1" stop-color="#1F1E1E"/>
</linearGradient>
<linearGradient id="paint55_linear_1_2128" x1="404.958" y1="286.121" x2="374.532" y2="284.35" gradientUnits="userSpaceOnUse">
<stop offset="0.0206186"/>
<stop offset="0.0512245" stop-color="#1C1C1C"/>
<stop offset="0.0927999" stop-color="#3C3B3B"/>
<stop offset="0.133" stop-color="#535152"/>
<stop offset="0.1708" stop-color="#615E5F"/>
<stop offset="0.2037" stop-color="#666364"/>
<stop offset="0.2239" stop-color="#5C595A"/>
<stop offset="0.2912" stop-color="#403E3E"/>
<stop offset="0.3671" stop-color="#282727"/>
<stop offset="0.4534" stop-color="#161516"/>
<stop offset="0.5567" stop-color="#090909"/>
<stop offset="0.6937" stop-color="#020202"/>
<stop offset="1"/>
</linearGradient>
<linearGradient id="paint56_linear_1_2128" x1="403.739" y1="275.149" x2="373.807" y2="273.407" gradientUnits="userSpaceOnUse">
<stop offset="0.0206186"/>
<stop offset="0.0518649" stop-color="#101010"/>
<stop offset="0.1067" stop-color="#272526"/>
<stop offset="0.1585" stop-color="#353233"/>
<stop offset="0.2037" stop-color="#3A3738"/>
<stop offset="0.2734" stop-color="#282627"/>
<stop offset="0.372" stop-color="#161515"/>
<stop offset="0.4907" stop-color="#090909"/>
<stop offset="0.6481" stop-color="#020202"/>
<stop offset="1"/>
</linearGradient>
<linearGradient id="paint57_linear_1_2128" x1="440.659" y1="249.251" x2="410.754" y2="222.608" gradientUnits="userSpaceOnUse">
<stop stop-color="#ACABAB"/>
<stop offset="1" stop-color="#BCBEC0"/>
</linearGradient>
<linearGradient id="paint58_linear_1_2128" x1="440.655" y1="248.24" x2="410.755" y2="221.601" gradientUnits="userSpaceOnUse">
<stop stop-color="#252424"/>
<stop offset="1" stop-color="#575559"/>
</linearGradient>
<linearGradient id="paint59_linear_1_2128" x1="369.406" y1="313.082" x2="337.213" y2="284.402" gradientUnits="userSpaceOnUse">
<stop stop-color="#ACABAB"/>
<stop offset="1" stop-color="#BCBEC0"/>
</linearGradient>
<linearGradient id="paint60_linear_1_2128" x1="368.723" y1="312.39" x2="336.531" y2="283.71" gradientUnits="userSpaceOnUse">
<stop stop-color="#252424"/>
<stop offset="1" stop-color="#575559"/>
</linearGradient>
<radialGradient id="paint61_radial_1_2128" cx="0" cy="0" r="1" gradientUnits="userSpaceOnUse" gradientTransform="translate(393.113 264.164) rotate(-154.466) scale(6.0459 3.7278)">
<stop stop-color="#717481"/>
<stop offset="1" stop-color="#ACABAB"/>
</radialGradient>
<radialGradient id="paint62_radial_1_2128" cx="0" cy="0" r="1" gradientUnits="userSpaceOnUse" gradientTransform="translate(392.824 264.114) rotate(-154.466) scale(4.88698 3.01323)">
<stop stop-color="#EBBB79"/>
<stop offset="1" stop-color="#BE965D"/>
</radialGradient>
<radialGradient id="paint63_radial_1_2128" cx="0" cy="0" r="1" gradientUnits="userSpaceOnUse" gradientTransform="translate(386.149 269.77) rotate(-154.466) scale(6.04287 3.72593)">
<stop stop-color="#717481"/>
<stop offset="1" stop-color="#ACABAB"/>
</radialGradient>
<radialGradient id="paint64_radial_1_2128" cx="0" cy="0" r="1" gradientUnits="userSpaceOnUse" gradientTransform="translate(385.853 269.721) rotate(-154.466) scale(4.88725 3.0134)">
<stop stop-color="#EBBB79"/>
<stop offset="1" stop-color="#BE965D"/>
</radialGradient>
<radialGradient id="paint65_radial_1_2128" cx="0" cy="0" r="1" gradientUnits="userSpaceOnUse" gradientTransform="translate(399.662 258.889) rotate(-154.466) scale(6.04067 3.72458)">
<stop stop-color="#717481"/>
<stop offset="1" stop-color="#ACABAB"/>
</radialGradient>
<radialGradient id="paint66_radial_1_2128" cx="0" cy="0" r="1" gradientUnits="userSpaceOnUse" gradientTransform="translate(399.368 258.835) rotate(-154.466) scale(4.87927 3.00848)">
<stop stop-color="#EBBB79"/>
<stop offset="1" stop-color="#BE965D"/>
</radialGradient>
<linearGradient id="paint67_linear_1_2128" x1="535.429" y1="150.481" x2="512.224" y2="150.481" gradientUnits="userSpaceOnUse">
<stop offset="0.0206186"/>
<stop offset="0.0518649" stop-color="#101010"/>
<stop offset="0.1067" stop-color="#272526"/>
<stop offset="0.1585" stop-color="#353233"/>
<stop offset="0.2037" stop-color="#3A3738"/>
<stop offset="0.2734" stop-color="#282627"/>
<stop offset="0.372" stop-color="#161515"/>
<stop offset="0.4907" stop-color="#090909"/>
<stop offset="0.6481" stop-color="#020202"/>
<stop offset="1"/>
</linearGradient>
<radialGradient id="paint68_radial_1_2128" cx="0" cy="0" r="1" gradientUnits="userSpaceOnUse" gradientTransform="translate(543.612 174.453) rotate(180) scale(4.91378 4.91351)">
<stop offset="0.0206186"/>
<stop offset="0.2544" stop-color="#272627"/>
<stop offset="0.4844" stop-color="#474545"/>
<stop offset="0.6781" stop-color="#5A5758"/>
<stop offset="0.812" stop-color="#615E5F"/>
<stop offset="0.8174" stop-color="#615E5F"/>
<stop offset="1" stop-color="#666364"/>
</radialGradient>
<linearGradient id="paint69_linear_1_2128" x1="544.613" y1="177.154" x2="501.238" y2="174.63" gradientUnits="userSpaceOnUse">
<stop stop-color="#343333"/>
<stop offset="0.00553198" stop-color="#383737"/>
<stop offset="0.0696502" stop-color="#626161"/>
<stop offset="0.1321" stop-color="#828182"/>
<stop offset="0.1915" stop-color="#9A999A"/>
<stop offset="0.2468" stop-color="#A8A7A8"/>
<stop offset="0.2938" stop-color="#ADACAD"/>
<stop offset="0.5299" stop-color="#737272"/>
<stop offset="0.7424" stop-color="#454445"/>
<stop offset="0.9057" stop-color="#292828"/>
<stop offset="1" stop-color="#1F1E1E"/>
</linearGradient>
<linearGradient id="paint70_linear_1_2128" x1="544.229" y1="169.805" x2="501.662" y2="167.328" gradientUnits="userSpaceOnUse">
<stop offset="0.0206186"/>
<stop offset="0.0512245" stop-color="#1C1C1C"/>
<stop offset="0.0927999" stop-color="#3C3B3B"/>
<stop offset="0.133" stop-color="#535152"/>
<stop offset="0.1708" stop-color="#615E5F"/>
<stop offset="0.2037" stop-color="#666364"/>
<stop offset="0.2239" stop-color="#5C595A"/>
<stop offset="0.2912" stop-color="#403E3E"/>
<stop offset="0.3671" stop-color="#282727"/>
<stop offset="0.4534" stop-color="#161516"/>
<stop offset="0.5567" stop-color="#090909"/>
<stop offset="0.6937" stop-color="#020202"/>
<stop offset="1"/>
</linearGradient>
<linearGradient id="paint71_linear_1_2128" x1="540.554" y1="177.915" x2="502.292" y2="175.688" gradientUnits="userSpaceOnUse">
<stop stop-color="#393738"/>
<stop offset="0.0090182" stop-color="#3C3A3B"/>
<stop offset="0.0793959" stop-color="#535152"/>
<stop offset="0.1458" stop-color="#615E5F"/>
<stop offset="0.2037" stop-color="#666364"/>
<stop offset="0.2239" stop-color="#5C595A"/>
<stop offset="0.2912" stop-color="#403E3E"/>
<stop offset="0.3671" stop-color="#282727"/>
<stop offset="0.4534" stop-color="#161516"/>
<stop offset="0.5567" stop-color="#090909"/>
<stop offset="0.6937" stop-color="#020202"/>
<stop offset="1"/>
</linearGradient>
<linearGradient id="paint72_linear_1_2128" x1="540.651" y1="182.013" x2="502.389" y2="179.786" gradientUnits="userSpaceOnUse">
<stop stop-color="#393738"/>
<stop offset="0.0090182" stop-color="#3C3A3B"/>
<stop offset="0.0793959" stop-color="#535152"/>
<stop offset="0.1458" stop-color="#615E5F"/>
<stop offset="0.2037" stop-color="#666364"/>
<stop offset="0.2239" stop-color="#5C595A"/>
<stop offset="0.2912" stop-color="#403E3E"/>
<stop offset="0.3671" stop-color="#282727"/>
<stop offset="0.4534" stop-color="#161516"/>
<stop offset="0.5567" stop-color="#090909"/>
<stop offset="0.6937" stop-color="#020202"/>
<stop offset="1"/>
</linearGradient>
<linearGradient id="paint73_linear_1_2128" x1="541.469" y1="169.069" x2="505.525" y2="166.977" gradientUnits="userSpaceOnUse">
<stop stop-color="#343333"/>
<stop offset="0.00553198" stop-color="#383737"/>
<stop offset="0.0696502" stop-color="#626161"/>
<stop offset="0.1321" stop-color="#828182"/>
<stop offset="0.1915" stop-color="#9A999A"/>
<stop offset="0.2468" stop-color="#A8A7A8"/>
<stop offset="0.2938" stop-color="#ADACAD"/>
<stop offset="0.5299" stop-color="#737272"/>
<stop offset="0.7424" stop-color="#454445"/>
<stop offset="0.9057" stop-color="#292828"/>
<stop offset="1" stop-color="#1F1E1E"/>
</linearGradient>
<linearGradient id="paint74_linear_1_2128" x1="542.412" y1="168.079" x2="506.528" y2="165.991" gradientUnits="userSpaceOnUse">
<stop offset="0.0206186"/>
<stop offset="0.0512245" stop-color="#1C1C1C"/>
<stop offset="0.0927999" stop-color="#3C3B3B"/>
<stop offset="0.133" stop-color="#535152"/>
<stop offset="0.1708" stop-color="#615E5F"/>
<stop offset="0.2037" stop-color="#666364"/>
<stop offset="0.2239" stop-color="#5C595A"/>
<stop offset="0.2912" stop-color="#403E3E"/>
<stop offset="0.3671" stop-color="#282727"/>
<stop offset="0.4534" stop-color="#161516"/>
<stop offset="0.5567" stop-color="#090909"/>
<stop offset="0.6937" stop-color="#020202"/>
<stop offset="1"/>
</linearGradient>
<linearGradient id="paint75_linear_1_2128" x1="540.636" y1="161.097" x2="505.502" y2="159.052" gradientUnits="userSpaceOnUse">
<stop offset="0.0206186"/>
<stop offset="0.0518649" stop-color="#101010"/>
<stop offset="0.1067" stop-color="#272526"/>
<stop offset="0.1585" stop-color="#353233"/>
<stop offset="0.2037" stop-color="#3A3738"/>
<stop offset="0.2734" stop-color="#282627"/>
<stop offset="0.372" stop-color="#161515"/>
<stop offset="0.4907" stop-color="#090909"/>
<stop offset="0.6481" stop-color="#020202"/>
<stop offset="1"/>
</linearGradient>
<linearGradient id="paint76_linear_1_2128" x1="562.869" y1="120.472" x2="516.488" y2="106.205" gradientUnits="userSpaceOnUse">
<stop stop-color="#D1D3D4"/>
<stop offset="1" stop-color="#ACABAB"/>
</linearGradient>
<linearGradient id="paint77_linear_1_2128" x1="562.552" y1="119.356" x2="516.168" y2="105.087" gradientUnits="userSpaceOnUse">
<stop stop-color="#ACABAB"/>
<stop offset="1" stop-color="#575559"/>
</linearGradient>
<linearGradient id="paint78_linear_1_2128" x1="529.314" y1="193.78" x2="478.597" y2="178.178" gradientUnits="userSpaceOnUse">
<stop stop-color="#D1D3D4"/>
<stop offset="1" stop-color="#ACABAB"/>
</linearGradient>
<linearGradient id="paint79_linear_1_2128" x1="529.042" y1="193.02" x2="478.799" y2="177.565" gradientUnits="userSpaceOnUse">
<stop stop-color="#ACABAB"/>
<stop offset="1" stop-color="#575559"/>
</linearGradient>
<radialGradient id="paint80_radial_1_2128" cx="0" cy="0" r="1" gradientUnits="userSpaceOnUse" gradientTransform="translate(524.621 145.783) rotate(-171.904) scale(7.43331 3.26225)">
<stop stop-color="#717481"/>
<stop offset="1" stop-color="#ACABAB"/>
</radialGradient>
<radialGradient id="paint81_radial_1_2128" cx="0" cy="0" r="1" gradientUnits="userSpaceOnUse" gradientTransform="translate(524.287 145.8) rotate(-171.904) scale(6.00736 2.63643)">
<stop stop-color="#EBBB79"/>
<stop offset="1" stop-color="#BE965D"/>
</radialGradient>
<radialGradient id="paint82_radial_1_2128" cx="0" cy="0" r="1" gradientUnits="userSpaceOnUse" gradientTransform="translate(521.022 152.394) rotate(-171.904) scale(7.43233 3.26181)">
<stop stop-color="#717481"/>
<stop offset="1" stop-color="#ACABAB"/>
</radialGradient>
<radialGradient id="paint83_radial_1_2128" cx="0" cy="0" r="1" gradientUnits="userSpaceOnUse" gradientTransform="translate(520.688 152.412) rotate(-171.904) scale(6.00854 2.63696)">
<stop stop-color="#EBBB79"/>
<stop offset="1" stop-color="#BE965D"/>
</radialGradient>
<radialGradient id="paint84_radial_1_2128" cx="0" cy="0" r="1" gradientUnits="userSpaceOnUse" gradientTransform="translate(528.015 139.557) rotate(-171.904) scale(7.43432 3.26269)">
<stop stop-color="#717481"/>
<stop offset="1" stop-color="#ACABAB"/>
</radialGradient>
<radialGradient id="paint85_radial_1_2128" cx="0" cy="0" r="1" gradientUnits="userSpaceOnUse" gradientTransform="translate(527.683 139.58) rotate(-171.904) scale(6.01217 2.63854)">
<stop stop-color="#EBBB79"/>
<stop offset="1" stop-color="#BE965D"/>
</radialGradient>
<linearGradient id="paint86_linear_1_2128" x1="269.341" y1="174.403" x2="383.706" y2="174.403" gradientUnits="userSpaceOnUse">
<stop stop-color="#575559"/>
<stop offset="1" stop-color="#252424"/>
</linearGradient>
<linearGradient id="paint87_linear_1_2128" x1="232.95" y1="224.1" x2="377.027" y2="224.1" gradientUnits="userSpaceOnUse">
<stop stop-color="#575559"/>
<stop offset="1" stop-color="#252424"/>
</linearGradient>
<linearGradient id="paint88_linear_1_2128" x1="200.299" y1="131.417" x2="319.877" y2="131.417" gradientUnits="userSpaceOnUse">
<stop stop-color="#575559"/>
<stop offset="1" stop-color="#252424"/>
</linearGradient>
<linearGradient id="paint89_linear_1_2128" x1="166.52" y1="256.105" x2="245.024" y2="256.105" gradientUnits="userSpaceOnUse">
<stop stop-color="#575559"/>
<stop offset="1" stop-color="#252424"/>
</linearGradient>
<linearGradient id="paint90_linear_1_2128" x1="212.193" y1="200.545" x2="316.6" y2="200.545" gradientUnits="userSpaceOnUse">
<stop stop-color="#575559"/>
<stop offset="1" stop-color="#252424"/>
</linearGradient>
<clipPath id="clip0_1_2128">
<rect width="571" height="349" fill="white" transform="translate(0.445312 21)"/>
</clipPath>
</defs>
</svg>
