<svg width="20" height="19" viewBox="0 0 20 19" fill="none" xmlns="http://www.w3.org/2000/svg">
<path d="M5.17814 2.25748C5.17814 3.48685 4.18358 4.48346 2.95674 4.48346C1.7299 4.48346 0.735352 3.48685 0.735352 2.25748C0.735352 1.0281 1.7299 0.0314941 2.95674 0.0314941C4.18358 0.0314941 5.17814 1.0281 5.17814 2.25748Z" fill="white"/>
<path d="M1.03913 6.11965H4.83638V18.4482H1.03913V6.11965Z" fill="white"/>
<path d="M10.95 6.11965H7.15271V18.4482H10.95C10.95 18.4482 10.95 14.567 10.95 12.1403C10.95 10.6837 11.4141 9.2208 13.2663 9.2208C15.3594 9.2208 15.3468 11.1269 15.3371 12.6036C15.3243 14.5339 15.3548 16.5037 15.3548 18.4482H19.152V11.9414C19.1199 7.78672 18.1094 5.87232 14.7852 5.87232C12.811 5.87232 11.5873 6.83259 10.95 7.70137V6.11965Z" fill="white"/>
</svg>
