<svg width="12" height="139" viewBox="0 0 12 139" fill="none" xmlns="http://www.w3.org/2000/svg">
<path d="M0.611979 5.56934C0.611979 8.51485 2.99979 10.9027 5.94531 10.9027C8.89083 10.9027 11.2786 8.51485 11.2786 5.56934C11.2786 2.62382 8.89083 0.236002 5.94531 0.236002C2.99979 0.236002 0.611979 2.62382 0.611979 5.56934ZM0.611979 133.569C0.611979 136.515 2.99979 138.903 5.94531 138.903C8.89083 138.903 11.2786 136.515 11.2786 133.569C11.2786 130.624 8.89083 128.236 5.94531 128.236C2.99979 128.236 0.611979 130.624 0.611979 133.569ZM5.94531 5.56934H4.94531V133.569H5.94531H6.94531V5.56934H5.94531Z" fill="#08D7FC"/>
</svg>
