<svg width="25" height="25" viewBox="0 0 25 25" fill="none" xmlns="http://www.w3.org/2000/svg">
<path d="M17.9453 21.8193H7.94531C4.29531 21.8193 2.19531 19.7193 2.19531 16.0693V9.06934C2.19531 5.41934 4.29531 3.31934 7.94531 3.31934H17.9453C21.5953 3.31934 23.6953 5.41934 23.6953 9.06934V16.0693C23.6953 19.7193 21.5953 21.8193 17.9453 21.8193ZM7.94531 4.81934C5.08531 4.81934 3.69531 6.20934 3.69531 9.06934V16.0693C3.69531 18.9293 5.08531 20.3193 7.94531 20.3193H17.9453C20.8053 20.3193 22.1953 18.9293 22.1953 16.0693V9.06934C22.1953 6.20934 20.8053 4.81934 17.9453 4.81934H7.94531Z" fill="white"/>
<path d="M12.9451 13.4393C12.1051 13.4393 11.2551 13.1793 10.6051 12.6493L7.47509 10.1493C7.15509 9.88931 7.09509 9.4193 7.35509 9.0993C7.61509 8.7793 8.0851 8.71931 8.4051 8.97931L11.5351 11.4793C12.2951 12.0893 13.5851 12.0893 14.3451 11.4793L17.4751 8.97931C17.7951 8.71931 18.2751 8.7693 18.5251 9.0993C18.7851 9.4193 18.7351 9.89931 18.4051 10.1493L15.2751 12.6493C14.6351 13.1793 13.7851 13.4393 12.9451 13.4393Z" fill="white"/>
</svg>
